<?xml version="1.0" encoding="utf-8"?>
<!-- Generator: Adobe Illustrator 23.0.1, SVG Export Plug-In . SVG Version: 6.00 Build 0)  -->
<svg version="1.1" id="レイヤー_1" xmlns="http://www.w3.org/2000/svg" xmlns:xlink="http://www.w3.org/1999/xlink" x="0px"
	 y="0px" viewBox="0 0 934.5 401.7" style="enable-background:new 0 0 934.5 401.7;" xml:space="preserve">
<style type="text/css">
	.st0{fill:#0068B3;}
	.st1{fill:#FFE500;}
	.st2{fill:#FFFFFF;}
</style>
<rect class="st0" width="934.5" height="401.7"/>
<g>
	<g>
		<path class="st1" d="M73.2,203.7c20.4-2.8,63.4-17.5,69.9-19.7c-1.8,12.4-2.1,18.6-1.2,29.6C121.5,222,108.2,227.4,88,233
			c-1.5,5.1-2.7,6.8-4.7,6.8c-2.1,0-3.3-2.6-3.9-5.4L73.2,203.7z M145.8,76.1l36.7,2.3c3,0.3,5.6,1.1,5.6,4c0,2.5-3.3,4.5-9.2,5.3
			v6.2h59.9v-18l37.9,2.3c3,0.3,6.2,0.8,6.2,3.4c0,2.8-2.4,3.7-8.3,5.9v6.5h68.5v25.4h-68.5v15h-35.9v-15H179v15h-33.2v-15H74.4
			V93.8h71.4V76.1z M226.7,246.3h118.8V273h-94c34.1,20.9,71.4,28.5,94.8,32.7c-13.9,15.8-18.1,21.7-21.6,27.9
			c-30.8-7.9-65.8-22.8-98.1-49.6v50.4h-34.7v-49.9c-25.2,22-65.2,41.7-94.8,50.7c-5.9-11.3-21-25.9-21.6-26.8
			c45.6-9.9,78.2-27,90.4-35.5H74.7v-26.8h117.4v-12.7h-42.4v-91.3h37c3.6-5.6,5.7-9,10.1-19.2l27.3,7.3c1.5,0.3,3.9,1.1,3.9,3.4
			c0,3.4-4.1,3.7-6.8,3.9c-0.6,1.4-1.8,3.4-2.4,4.5H270v91.3h-35c0.3,3.4-5.6,4.8-8.3,5.4V246.3z M100.8,128.2
			c7.4,4.5,29,18.3,43,33c-3.8,2.5-8.6,5.9-24.9,21.1c-14.5-15.2-24.3-23.4-40-34.1L100.8,128.2z M180.8,176.9h58.1v-14.1h-58.1
			V176.9z M238.9,196.7h-58.1v14.7h58.1V196.7z M288.1,183.1c25.8,11.3,46.2,23.7,56.3,31.6c-8.6,8.7-12.2,13.2-20.4,24.8
			c-19-15.2-32.9-23.4-52.7-32.4L288.1,183.1z M333.4,140.6c1.8,0.6,4.5,2,4.5,4.8c0,4.5-6.2,3.7-9.2,3.4
			c-1.5,1.7-2.7,3.1-12.1,14.4c-3.6,4.2-8,9-13.6,15c-5.3-3.4-18.4-9.9-27.9-13c3.9-3.9,18.1-20,26.4-37.5L333.4,140.6z"/>
	</g>
	<g>
		<g>
			<polygon class="st2" points="498.7,76.1 498.7,145.4 424.2,145.4 424.2,76.1 393.8,76.1 393.8,247.6 424.2,247.6 424.2,175.8 
				498.7,175.8 498.7,247.6 529.1,247.6 529.1,76.1 			"/>
			<path class="st2" d="M629,67.3l-82.2,180.3h35.1l13.5-31.8H629h33.8l13.5,31.8h35.1L629,67.3 M629,188.2h-22.1l22.1-52.4
				l22.3,52.4H629z"/>
			<path class="st2" d="M848,194c-10.5,16.3-28.8,27.2-49.7,27.2c-32.6,0-59-26.4-59-59c0-32.6,26.4-59,59-59
				c20.9,0,39.2,10.9,49.7,27.2V90.6c-14.7-10.8-32.7-17.1-52.3-17.1c-48.9,0-88.5,39.6-88.5,88.4c0,48.9,39.6,88.5,88.5,88.5
				c19.5,0,37.5-6.3,52.3-17.1V194z"/>
		</g>
		<g>
			<path class="st2" d="M445.4,289.4v-17h-12.8v19c0,19.8,5.5,37.6,25,45.2v-9.5C445.4,318,445.4,302.2,445.4,289.4z"/>
			<path class="st2" d="M406.9,289.4c0,12.9,0,28.7-12.1,37.7v9.5c19.5-7.5,25-25.4,25-45.2v-19h-12.8V289.4z"/>
			<path class="st2" d="M497.6,290.9c0,18.5-3.7,26-14.1,32.6c-2.5,1.6-5.2,3.1-8.5,4.7v8.4c3-1,5.8-2.1,8.5-3.3
				c7.7-3.5,13.8-8.1,18.2-14.2c5.1-7,7-15.4,7-29.6v-2.7h-11.1V290.9z"/>
			<polygon class="st2" points="631.4,287.2 631.4,272.4 628.1,272.4 624.8,272.4 624.8,287.2 628.1,287.2 			"/>
			<rect x="655.8" y="272.4" class="st2" width="45.4" height="10.1"/>
			<polygon class="st2" points="741.1,307.8 741.1,286.7 735.8,286.7 730.6,286.7 730.6,307.8 735.8,307.8 			"/>
			<polygon class="st2" points="488.8,307.8 488.8,286.7 483.5,286.7 478.2,286.7 478.2,307.8 483.5,307.8 			"/>
			<path class="st2" d="M528.5,275.4c0,10-1.9,19.7-11.2,24v9c12.5-4.9,19.9-12.2,22.3-24.2h21.2c0,19.1-12.6,35.1-32.8,42.7v9.7
				c12.4-3.6,24.3-9.5,33.2-19.9c9.5-11.2,12.3-23.2,12.3-38.1v-6.3h-45V275.4z"/>
			<rect x="462.3" y="286.7" class="st2" width="10.6" height="21"/>
			<path class="st2" d="M780.8,275.4c0,10-1.9,19.7-11.2,24v9c12.5-4.9,19.9-12.2,22.2-24.2h21.2c0,19.1-12.6,35.1-32.8,42.7v9.7
				c12.4-3.6,24.3-9.5,33.2-19.9c9.5-11.2,12.3-23.2,12.3-38.1v-6.3h-45V275.4z"/>
			<path class="st2" d="M749.9,290.9c0,18.5-3.7,26-14.1,32.6c-2.4,1.6-5.3,3.1-8.4,4.7v8.4c3-1,5.8-2.1,8.4-3.3
				c7.7-3.5,13.9-8.1,18.2-14.2c5.1-7,7-15.4,7-29.6v-2.7h-11.2V290.9z"/>
			<rect x="832.5" y="272.4" class="st2" width="6.6" height="14.9"/>
			<rect x="842.8" y="272.4" class="st2" width="6.6" height="14.9"/>
			<polygon class="st2" points="635.1,272.4 635.1,287.2 638.4,287.2 641.7,287.2 641.7,272.4 638.4,272.4 			"/>
			<polygon class="st2" points="628.1,294.7 603.4,294.7 603.4,272.4 590.7,272.4 590.7,335.5 603.4,335.5 603.4,305.7 628.1,305.7 
				638.4,305.7 641.7,305.7 641.7,294.7 638.4,294.7 			"/>
			<rect x="714.7" y="286.7" class="st2" width="10.5" height="21"/>
			<path class="st2" d="M652,299.8h40.1c0,15.3-13.8,23.3-28.6,28v8.7c22.1-4.5,41.5-16.5,41.5-40.3v-6.8H652V299.8z"/>
		</g>
	</g>
</g>
</svg>
