<?xml version="1.0" encoding="utf-8"?>
<!-- Generator: Adobe Illustrator 23.0.1, SVG Export Plug-In . SVG Version: 6.00 Build 0)  -->
<svg version="1.1" id="レイヤー_1" xmlns="http://www.w3.org/2000/svg" xmlns:xlink="http://www.w3.org/1999/xlink" x="0px"
	 y="0px" viewBox="0 0 94 94" style="enable-background:new 0 0 94 94;" xml:space="preserve">
<style type="text/css">
	.st0{fill:#003894;}
	.st1{fill:none;stroke:#003894;stroke-width:0.84;}
	.st2{fill:#FFFFFF;}
</style>
<rect x="0.4" y="0.4" class="st0" width="93.2" height="93.2"/>
<rect x="0.4" y="0.4" class="st1" width="93.2" height="93.2"/>
<polygon class="st2" points="12.7,80.6 14,84.3 14.8,84.3 16.1,80.6 16.1,84.3 16.7,84.3 16.7,79.6 15.8,79.6 14.4,83.5 13,79.6 
	12.1,79.6 12.1,84.3 12.7,84.3 "/>
<path class="st2" d="M21.6,82.9h2l0.5,1.4h0.7l-1.7-4.7h-1l-1.7,4.7h0.7L21.6,82.9z M22.6,80.1l0.8,2.1h-1.6L22.6,80.1z"/>
<polygon class="st2" points="44.7,83.7 44.7,82.3 47.6,82.3 47.6,81.7 44.7,81.7 44.7,80.3 47.9,80.3 47.9,79.6 44.1,79.6 
	44.1,84.3 47.9,84.3 47.9,83.7 "/>
<path class="st2" d="M56.5,79.6H54v4.7h2.5c0.9,0,1.6-0.7,1.6-1.6v-1.6C58,80.3,57.3,79.6,56.5,79.6 M56.5,83.7h-1.9v-3.4h1.9
	c0.5,0,0.9,0.4,0.9,0.9v1.6C57.4,83.3,57,83.7,56.5,83.7"/>
<path class="st2" d="M32.3,83.9L32.3,83.9V83c0-0.4-0.2-0.8-0.5-1c0.3-0.2,0.5-0.6,0.5-1c0-0.7-0.6-1.3-1.3-1.3h-2.5v4.7h0.6v-2H31
	c0.4,0,0.7,0.3,0.7,0.7v0.9c0,0.1,0,0.3,0.1,0.4h0.7v-0.2C32.4,84.1,32.3,84,32.3,83.9 M31,81.7h-1.9v-1.4H31c0.4,0,0.7,0.3,0.7,0.7
	C31.7,81.3,31.4,81.7,31,81.7"/>
<path class="st2" d="M65.6,83.9L65.6,83.9V83c0-0.4-0.2-0.8-0.5-1c0.3-0.2,0.5-0.6,0.5-1c0-0.7-0.6-1.3-1.3-1.3h-2.5v4.7h0.6v-2h1.9
	c0.4,0,0.7,0.3,0.7,0.7v0.9c0,0.1,0,0.3,0.1,0.4h0.7v-0.2C65.6,84.1,65.6,84,65.6,83.9 M64.3,81.7h-1.9v-1.4h1.9
	c0.4,0,0.7,0.3,0.7,0.7C65,81.3,64.6,81.7,64.3,81.7"/>
<path class="st2" d="M39.7,79.6v3.1c0,0.5-0.4,0.9-0.9,0.9h-0.9c-0.5,0-0.9-0.4-0.9-0.9v-3.1h-0.6v3.1c0,0.9,0.7,1.6,1.6,1.6h0.9
	c0.9,0,1.6-0.7,1.6-1.6v-3.1H39.7z"/>
<path class="st2" d="M81.3,82h-1.7v0.6h1.7c-0.3,0.7-0.9,1.2-1.7,1.2c-1,0-1.8-0.8-1.8-1.8c0-1,0.8-1.8,1.8-1.8
	c0.8,0,1.4,0.5,1.7,1.2H82c-0.3-1-1.2-1.8-2.3-1.8c-1.3,0-2.4,1.1-2.4,2.4c0,1.3,1.1,2.4,2.4,2.4c0.7,0,1.3-0.3,1.7-0.7v0.6H82v-1.7
	V82H81.3z"/>
<path class="st2" d="M72.9,79.6v3.1c0,0.5-0.4,0.9-0.9,0.9h-0.9c-0.5,0-0.9-0.4-0.9-0.9v-3.1h-0.6v3.1c0,0.9,0.7,1.6,1.6,1.6H72
	c0.9,0,1.6-0.7,1.6-1.6v-3.1H72.9z"/>
<path class="st2" d="M54.8,24.5c0,5.8-1.7,11.2-4.7,15.7V24.5h-5.4v21.7h7.7c4.9-5.9,7.8-13.5,7.8-21.7H54.8z"/>
<path class="st2" d="M37.7,26.8c0,7.5-2.9,14.3-7.6,19.4h6.9c3.8-5.5,6.1-12.2,6.1-19.4v-2.3h-5.4V26.8z"/>
<path class="st2" d="M12.1,24.5v5.4h18.4c-0.6,4-2.2,7.7-4.7,10.7c-3.6-4-8.3-7-13.7-8.3v5.6c4.6,1.5,8.5,4.4,11.2,8.3h6.3
	c-0.2-0.4-0.4-0.7-0.6-1.1c4.4-4.8,7.1-11.3,7.1-18.3v-2.3H12.1z"/>
<path class="st2" d="M82.7,29.9v-5.4h-21v5.4h7c-0.4,3.9-1.6,7.6-3.5,10.9h-6.7v5.4h24.1v-5.4H71.4c1.5-3.4,2.5-7,2.8-10.9H82.7z"/>
<rect x="31.5" y="49.3" class="st2" width="16.3" height="5.1"/>
<path class="st2" d="M30.7,55.2v5.1h12.7c-0.4,2.4-2.5,4.3-5,4.3h-8.2v5.1h8.2c5.6,0,10.1-4.5,10.1-10.1v-4.3H30.7z"/>
<rect x="78.5" y="49.3" class="st2" width="3.5" height="3.5"/>
<rect x="82.7" y="49.3" class="st2" width="3.5" height="3.5"/>
<path class="st2" d="M77.7,49.3h-9.3c0,2.4-1.9,4.3-4.3,4.3v5c3.3,0,6.2-1.7,7.8-4.3h5v5c0,2.8-2.3,5-5,5h-8.2v5.1h8.2
	C77.4,69.5,82,65,82,59.4v-5.8h-4.3V49.3z"/>
<rect x="49.3" y="54.4" class="st2" width="3.7" height="5"/>
<rect x="53.8" y="54.4" class="st2" width="3.7" height="5"/>
<path class="st2" d="M58.3,54.4v5.4c0,2.6-2.1,4.7-4.7,4.7H49v5.1h4.7c5.4,0,9.7-4.3,9.7-9.7v-5.4H58.3z"/>
<rect x="26" y="49.3" class="st2" width="3.9" height="5.1"/>
<rect x="21.4" y="49.3" class="st2" width="3.9" height="5.1"/>
<path class="st2" d="M17.1,49.3h-5v20.2h5v-8.5c3.9,1.7,8.3,2.7,12.8,2.7v-5.1c-4.6,0-9-1.2-12.8-3.2V49.3z"/>
</svg>
