<?xml version="1.0" encoding="utf-8"?>
<!-- Generator: Adobe Illustrator 23.0.1, SVG Export Plug-In . SVG Version: 6.00 Build 0)  -->
<svg version="1.1" id="レイヤー_1" xmlns="http://www.w3.org/2000/svg" xmlns:xlink="http://www.w3.org/1999/xlink" x="0px"
	 y="0px" viewBox="0 0 320.6 145.1" style="enable-background:new 0 0 320.6 145.1;" xml:space="preserve">
<style type="text/css">
	.st0{fill:#0086CD;}
	.st1{fill:#FFFFFF;}
	.st2{fill:#007EC1;}
	.st3{fill:#0B318F;}
</style>
<path class="st0" d="M190.9,34.1C190.9,15.3,206.2,0,225,0c18.8,0,34.1,15.3,34.1,34.1c0,18.8-15.3,34.1-34.1,34.1
	C206.2,68.2,190.9,52.9,190.9,34.1z"/>
<path class="st0" d="M0,91.9c0-29.3,26.1-53.2,58.3-53.2h204c32.1,0,58.3,23.9,58.3,53.2c0,29.4-26.2,53.2-58.3,53.2h-204
	C26.1,145.1,0,121.2,0,91.9z"/>
<path class="st1" d="M2.8,91.9c0-27.8,24.9-50.4,55.4-50.4h204c30.6,0,55.4,22.6,55.4,50.4c0,27.8-24.9,50.4-55.4,50.4h-204
	C27.7,142.3,2.8,119.7,2.8,91.9z"/>
<path class="st2" d="M7.5,91.9c0-25.2,22.8-45.7,50.8-45.7h204c28,0,50.8,20.5,50.8,45.7c0,25.2-22.8,45.7-50.8,45.7h-204
	C30.3,137.6,7.5,117.1,7.5,91.9z"/>
<path class="st1" d="M193.5,34.1c0-17.4,14.2-31.5,31.6-31.5c17.4,0,31.5,14.1,31.5,31.5c0,17.4-14.1,31.6-31.5,31.6
	C207.6,65.6,193.5,51.5,193.5,34.1z"/>
<path class="st3" d="M225,7.3c-14.7,0-26.8,12-26.8,26.7c0,14.7,12,26.8,26.8,26.8c14.7,0,26.7-12,26.7-26.8
	C251.8,19.3,239.8,7.3,225,7.3z"/>
<path class="st1" d="M217,34.1c0-4.4,3.6-8,8-8c4.4,0,8,3.6,8,8c0,4.4-3.6,8-8,8C220.6,42,217,38.5,217,34.1z"/>
<path class="st1" d="M112.3,90.6c0.4-5.3,1.8-9.6,7.3-9.9c2.4-0.2,4.6,1.1,5.8,3c1.2,1.9,1.6,4.4,1.6,6.9H112.3z M142.2,100
	c0-17.3-5.4-28.2-22.5-28.2C107,71.9,97,80.2,97,94.9c0,18.3,6.7,26.2,23.6,26.2c4.9,0,9.6-1,13.3-3.6c4-2.6,7.5-7,8-13h-14.8
	c-0.6,4.4-3.4,6.7-7.8,6.7c-5.9,0-7.4-5.2-7.3-11.2H142.2z"/>
<path class="st1" d="M147.5,119.8V57.2h14.3v62.6H147.5z"/>
<path class="st1" d="M217.6,119.8V73.1h14.2v46.7H217.6z"/>
<path class="st1" d="M195.9,89.6c0-2.4-0.5-4.4-1.4-5.6c-1.2-1.5-2.6-1.9-4.6-1.9c-0.2,0-0.5,0-0.7,0.1c-5.3,0.6-5.6,9.8-5.6,14.4
	c0,4.8,0.2,14.4,6.1,14.5c0.2,0,0.5,0,0.8,0c2.4-0.2,5.3-1.4,5.4-9.3h15.9c0,6.6-2.6,11.4-6.5,14.6c-4,3.1-9.4,4.7-14.9,4.9
	c-15.9,0-23.1-8.5-23.1-24.7c0-16.9,10.5-24.7,23.1-24.7c10.7-0.2,20.7,4.4,21.5,17.7H195.9z"/>
<polygon class="st1" points="83,73.2 74.6,103.7 67.5,73.2 65.9,73.2 61.9,73.2 60.3,73.2 53.1,103.7 44.7,73.2 31.6,73.2 
	46.1,119.8 59.6,119.8 63.9,102.6 68.2,119.8 81.7,119.8 96.2,73.2 "/>
<path class="st1" d="M281,110.2v-24c0.2-10.5-10.1-14.5-18.7-14.5c-4.7,0-10.1,0.6-14.5,2.8c-4.1,2.1-7.1,5.7-7.3,11.9h15
	c0.1-2.8,1.5-6.3,5-6.5c6.4-0.3,5.5,5.7,5.5,9.8h-5c-13.7,0-23.1,4.7-23.3,16c-0.2,9.6,5,15.5,15,15.5c7.9,0,11.5-4.4,13.4-7.7h0.2
	c0,3.4,0,4.8,0.3,6.3h14.9C281.2,115.8,281,112.2,281,110.2z M258.6,111c-3,0-5.5-2.8-5.5-6.1c0-3.3,1.9-4.9,4.2-6.2
	c2.2-1.2,5.4-1,8.7-1C266.1,103.8,265.5,111,258.6,111z"/>
</svg>
