<?xml version="1.0" encoding="utf-8"?>
<!-- Generator: Adobe Illustrator 23.0.1, SVG Export Plug-In . SVG Version: 6.00 Build 0)  -->
<svg version="1.1" id="レイヤー_1" xmlns="http://www.w3.org/2000/svg" xmlns:xlink="http://www.w3.org/1999/xlink" x="0px"
	 y="0px" viewBox="0 0 113.4 133.2" style="enable-background:new 0 0 113.4 133.2;" xml:space="preserve">
<style type="text/css">
	.st0{fill:#E60012;}
	.st1{fill:#FCC800;}
	.st2{fill:#FFFFFF;}
	.st3{fill:#1D2088;}
</style>
<rect class="st0" width="113.4" height="102"/>
<rect y="102" class="st1" width="113.4" height="31.2"/>
<path class="st2" d="M22.7,81.2c-0.5,0-1,0.2-1,0.8v2.8h-3.9v-2.8c0-0.5-0.6-0.8-1.1-0.8c-0.5,0-0.9,0.4-0.9,0.8v7.6
	c0,0.6,0.6,0.9,1.1,0.9c0.5,0,0.9-0.4,0.9-0.9v-2.9h3.9v2.9c0,0.6,0.5,0.9,1,0.9c0.5,0,1-0.2,1-0.9v-7.6
	C23.7,81.3,23.2,81.2,22.7,81.2 M30.4,83.9c-0.5-0.4-0.9-0.6-1.6-0.7c-1.8-0.2-3.3,1.9-3.2,3.6c0.1,3.1,3,4.6,4.7,3
	c0.2-0.1,0.3,0.6,1,0.5c0.6,0,1-0.4,1-0.8V84C32.3,83.1,30.8,82.8,30.4,83.9 M29,88.5c-1,0-1.4-1.1-1.4-1.7c0-1,0.6-1.6,1.3-1.6
	c0.7-0.1,1.4,0.4,1.4,1.6C30.3,87.6,29.8,88.5,29,88.5 M38.3,83.3c-0.6,0-1.3,0.2-1.7,0.8c-0.4-1.1-1.9-0.9-1.9,0.8v6.9
	c0,1.5,2,1.7,2,0.2v-2.1c0.3,0.2,0.9,0.5,1.6,0.5c2.1,0.1,3.1-1.8,3.1-3.6C41.3,85,39.9,83.3,38.3,83.3 M38.1,88.5
	c-0.8,0-1.5-0.7-1.4-1.7c0.1-1.3,0.8-1.5,1.4-1.5c0.8,0,1.3,0.8,1.4,1.5C39.5,87.6,39,88.5,38.1,88.5 M47.4,83.3
	c-0.6,0-1.3,0.2-1.7,0.8c-0.4-1.1-1.9-0.9-1.9,0.8v6.9c0,1.5,2,1.7,2,0.2v-2.1c0.3,0.2,0.9,0.5,1.6,0.5c2.1,0.1,3.1-1.8,3.1-3.6
	C50.4,85,49,83.3,47.4,83.3 M47.2,88.5c-0.8,0-1.5-0.7-1.4-1.7c0.1-1.3,0.8-1.5,1.4-1.5c0.8,0,1.3,0.8,1.4,1.5
	C48.6,87.6,48,88.5,47.2,88.5 M58.3,83.6c-0.5-0.3-1.2,0.1-1.4,0.7l-1.3,3.1l-1.1-3.2c-0.2-0.6-0.9-0.9-1.4-0.6
	c-0.4,0.2-0.6,0.9-0.4,1.4c0,0,1.8,4.3,1.9,4.9l-0.9,2.1c-0.5,1.1,1.3,2,1.9,0.5l3.1-7.4C58.9,84.3,58.7,83.8,58.3,83.6 M69,81.2
	h-2.7c-0.5,0-0.9,0.5-0.9,1.1v7.1c0,0.6,0.8,0.9,1.1,0.9h2.7c2.9,0,4.2-2.3,4.1-4.6C73.3,83.4,71.9,81.2,69,81.2 M69.1,88.4h-1.6
	v-5.2h1.7c1.1,0,1.6,1.3,1.7,2.4C71,87,70.2,88.4,69.1,88.4 M78.3,83.5c-0.2,0.1-0.5,0.3-0.8,0.7c-0.1-0.5-0.6-0.8-1-0.7
	c-0.5,0-0.9,0.4-0.9,1v4.7c0,1.4,1.9,1.8,1.9,0v-2.5c0-1.5,1.1-1,2-1.5c0.6-0.3,0.5-1.1,0.1-1.5C79.4,83.3,79.3,83,78.3,83.5
	 M86.1,84.5v3c0,1.5-2.2,1.4-2.2,0v-3.1c0-1.3-1.9-1.3-1.9,0v3.1c0,1.2,0.4,2.9,2.9,3c2.1,0.1,3.2-1.7,3.2-3v-3
	C88.1,83.1,86.1,83,86.1,84.5 M95,84c-0.4-0.7-1.2-0.8-1.6-0.8c-1.6,0-2.9,1.5-3.1,3.3c0,0.7,0,1.7,0.7,2.7c0.5,0.6,1.2,1.2,2.2,1.2
	c0.4,0,1.4-0.2,1.8-0.8c0.1,0.4-0.4,1.4-0.6,1.5c-0.7,0.4-2,0.2-2.5-0.2c-0.7-0.6-2.3,0.5-0.9,1.6c1,0.9,3.7,0.9,4.8-0.1
	c0.8-0.7,1.1-1.8,1.1-2.5l0-5.5C96.9,83.3,95.6,82.9,95,84 M93.8,88.6c-0.7,0.1-1.5-0.5-1.5-1.7c0-1,0.7-1.7,1.5-1.6
	c0.8,0.1,1.2,1.1,1.2,1.6C95,87.9,94.4,88.5,93.8,88.6 M19.8,71.7c4.6,3.1,10.3,4.2,16.5,3.1c8-1.5,16.2-6.7,22.5-14.1
	c5.7,7.5,13.5,12.8,21.2,14.2c5.5,1,10.6,0.1,14.7-2.7c5.3-3.7,8.2-9.9,8.2-17.6c0-7.2-2.6-14.9-7.2-21.7
	C89.8,24.4,81.5,18.5,73.2,17c-2.8-0.5-5.4-0.5-7.9-0.1c-1.3-1.8-2.9-3.3-4.7-4.6c-6-4.1-13.7-4.7-21.8-1.6
	c-7.6,2.9-14.8,8.8-20.1,16.5c-5.3,7.7-8.2,16.5-8.2,24.6C10.6,60.5,13.9,67.6,19.8,71.7 M69.9,32.1c0-2.9-0.4-5.6-1.1-8.1
	c1.1,0,2.2,0.1,3.1,0.3c6.4,1.2,12.9,5.9,17.6,12.7c3.8,5.5,5.9,11.7,5.9,17.4c0,5.2-1.8,9.3-5,11.5c-3.1,2.1-6.7,2-9.1,1.6
	c-6.3-1.2-12.9-5.9-17.6-12.7c-0.1-0.2-0.3-0.4-0.4-0.6C67.6,47.2,69.9,39.4,69.9,32.1 M61.8,26.7c0.4,1.7,0.7,3.5,0.7,5.5v0.1
	c0,4.5-1.1,9.2-3.2,13.8c-1-2.9-1.5-5.9-1.5-8.7C57.8,32.7,59.2,29,61.8,26.7 M24.9,31.4c4.5-6.5,10.4-11.4,16.6-13.7
	c5.8-2.2,11.1-1.9,14.9,0.7c0.7,0.5,1.3,1,1.8,1.6c-5.1,3.7-7.9,9.8-7.9,17.3v0.1c0,5.4,1.5,11.1,4.2,16.5
	c-5.4,7.2-12.6,12.2-19.6,13.5c-4.2,0.8-8,0.1-10.9-1.9c-3.9-2.7-6-7.5-6-13.7C17.9,45.2,20.4,37.9,24.9,31.4 M15.8,78.6h81.9v-0.9
	H15.8V78.6z"/>
<path class="st3" d="M9.5,106.9H8.3c-0.6,0-1,0.5-1,1v0l0,0.3c-0.1,1.5-0.4,3.3-0.8,5.5c-0.5,2.3-1.2,4.6-2.2,6.6l0,0l0,0.1l0,0
	c0,0.1-0.1,0.5,0.1,0.8c0.2,0.2,0.4,0.3,0.8,0.3h0.4c0.3,0,0.9-0.1,1.2-0.6c1.3-1.9,2.4-4.3,3-6.8c0.5-2.1,0.8-4.1,0.9-6v0v-0.1
	C10.6,107.3,10.1,106.9,9.5,106.9 M19.7,120.3L19.7,120.3L19.7,120.3c-1-2.1-1.8-4.4-2.2-6.7c-0.4-2.2-0.7-4-0.8-5.5l0-0.3v0
	c0-0.3-0.1-0.5-0.3-0.7c-0.2-0.2-0.5-0.3-0.7-0.3h-1.2c-0.6,0-1,0.5-1,1v0.1l0,0c0.1,1.9,0.4,3.9,0.9,6c0.6,2.6,1.6,4.9,3,6.8
	c0.3,0.5,0.9,0.7,1.2,0.6h0.4c0.3,0,0.6-0.1,0.8-0.3C19.8,120.8,19.7,120.5,19.7,120.3L19.7,120.3z M30.1,111.9h-1.4
	c-0.6,0-1,0.5-1,1v2.3v0c0,0.6,0,2.5-0.7,3.3c-0.9,1.1-1.7,1.4-3.9,1.4h-1.7c-0.2,0-0.5,0-0.7,0.2c-0.1,0.1-0.2,0.3-0.2,0.5v0
	c0,0.2,0.1,0.4,0.2,0.5c0.2,0.2,0.5,0.2,0.7,0.2h2c3,0,5-0.6,6.1-1.9c1.1-1.2,1.6-2.8,1.6-5v-1.6C31.2,112.3,30.7,111.9,30.1,111.9
	 M21.8,115.9h0.7c0.3,0,0.7-0.1,0.9-0.4c0.2-0.2,0.2-0.5,0.2-0.7l-0.5-2.1c-0.2-0.8-0.8-0.9-1-0.9h-0.7c-0.3,0-0.7,0.1-0.9,0.4
	c-0.2,0.2-0.2,0.5-0.2,0.7l0,0l0.5,2.1C21,115.9,21.6,115.9,21.8,115.9 M23.2,113l0.5,2.1c0.2,0.8,0.8,0.9,1,0.9h0.7
	c0.3,0,0.7-0.1,0.9-0.4c0.2-0.2,0.2-0.5,0.2-0.7l0,0l-0.5-2.1c-0.2-0.8-0.8-0.9-1-0.9h-0.7c-0.3,0-0.7,0.1-0.9,0.4
	C23.3,112.5,23.2,112.7,23.2,113L23.2,113z M72.5,108.4h9.8c0.3,0,0.6,0,0.8-0.2c0.1-0.1,0.2-0.2,0.2-0.5v-0.1
	c0-0.3-0.1-0.4-0.2-0.5c-0.2-0.2-0.5-0.2-0.8-0.2h-9.9c-0.3,0-0.6,0-0.8,0.2c-0.1,0.1-0.2,0.2-0.2,0.5v0.1c0,0.2,0.1,0.4,0.2,0.5
	C71.9,108.4,72.2,108.4,72.5,108.4 M43.8,110c1.5,0,2.7-1.2,2.7-2.7c0-1.5-1.2-2.7-2.7-2.7c-1.5,0-2.7,1.2-2.7,2.7
	C41.1,108.8,42.3,110,43.8,110 M43,106.6c0.2-0.2,0.5-0.3,0.8-0.3c0.6,0,1.1,0.5,1.1,1c0,0.6-0.5,1-1.1,1c-0.6,0-1.1-0.5-1.1-1
	C42.7,107.1,42.8,106.8,43,106.6 M87.8,115.1c0.2,0.8,0.8,0.9,1,0.9h0.7c0.3,0,0.7-0.1,0.9-0.4c0.2-0.2,0.2-0.5,0.2-0.7l0,0
	l-0.5-2.1c-0.2-0.8-0.8-0.9-1-0.9h-0.7c-0.3,0-0.7,0.1-0.9,0.4c-0.2,0.2-0.2,0.5-0.2,0.7L87.8,115.1z M67.7,111.3
	c0.2,0.8,0.8,0.9,1,0.9h0.7c0.3,0,0.7-0.1,0.9-0.4c0.2-0.2,0.2-0.5,0.2-0.7l0,0l-0.5-2.1c-0.2-0.8-0.8-0.9-1-0.9h-0.7
	c-0.3,0-0.7,0.1-0.9,0.4c-0.2,0.2-0.2,0.5-0.2,0.7L67.7,111.3z M64.2,109.2l0.5,2.1c0.2,0.8,0.8,0.9,1,0.9h0.7
	c0.3,0,0.7-0.1,0.9-0.4c0.2-0.2,0.2-0.5,0.2-0.7l0,0L67,109c-0.1-0.6-0.5-0.9-1-0.9h-0.7c-0.3,0-0.7,0.1-0.9,0.4
	C64.2,108.7,64.2,108.9,64.2,109.2L64.2,109.2z M104.6,106.6l0.5,1.8c0.1,0.4,0.4,0.7,0.8,0.7h0.4c0.3,0,0.5-0.1,0.6-0.3
	c0.1-0.2,0.2-0.4,0.1-0.6l0,0l-0.5-1.8c-0.1-0.4-0.4-0.6-0.8-0.6h-0.4c-0.3,0-0.5,0.1-0.6,0.3C104.6,106.2,104.5,106.4,104.6,106.6
	L104.6,106.6z M94.2,111.9h-1.4c-0.6,0-1,0.5-1,1v2.3v0c0,0.6,0,2.5-0.7,3.3c-0.9,1.1-1.7,1.4-3.9,1.4h-1.7c-0.3,0-0.6,0-0.8,0.2
	c-0.1,0.1-0.2,0.2-0.2,0.5v0.1c0,0.3,0.1,0.4,0.2,0.5c0.2,0.2,0.5,0.2,0.8,0.2h2c3,0,5-0.6,6.1-1.9c1.1-1.2,1.6-2.9,1.6-5v-1.6
	C95.3,112.3,94.8,111.9,94.2,111.9 M105.8,109.3h-0.4c-0.2,0-0.4-0.1-0.4-0.3l-0.5-2.1h-4.6c-0.6,0-1,0.4-1.1,1l0,0.1
	c-0.1,0.6-0.7,2.2-2.1,2.9c-0.5,0.2-0.6,0.7-0.6,1v0.1v0c0,0.3,0,0.6,0.3,0.8c0.3,0.2,0.6,0.1,0.9,0l0,0l0.1,0l0,0
	c2.2-1.1,3-2.1,3.3-2.9l0,0c0.1-0.1,0.1-0.1,0.2-0.1h3.3v2.8c0,3.8-0.3,5.6-0.7,6c-0.8,1-2,1.4-3.9,1.4h-3.2c-0.3,0-0.6,0-0.8,0.2
	c-0.1,0.1-0.2,0.2-0.2,0.5v0.1c0,0.3,0.1,0.4,0.2,0.5c0.2,0.2,0.5,0.2,0.8,0.2h0.1h3.5c3,0,5.1-0.7,6.1-1.9c1.2-1.4,1.6-6.2,1.6-7.7
	v-2.6h-0.5H105.8z M109.2,108.3L109.2,108.3l-0.5-1.9c-0.1-0.4-0.4-0.7-0.8-0.7h-0.4c-0.3,0-0.5,0.1-0.7,0.3
	c-0.1,0.2-0.2,0.4-0.1,0.6l0,0l0.5,1.8c0.1,0.4,0.4,0.7,0.8,0.7h0.4c0.3,0,0.5-0.1,0.6-0.3C109.2,108.7,109.2,108.5,109.2,108.3
	 M44.2,119.9h-3.8c-1.8,0-3.1-0.4-3.9-1.4c-0.6-0.6-0.7-1.7-0.7-3.3v-3.4h8.1v-1.5h-8.1v-2.4c0-0.6-0.5-1-1-1h-1.4c-0.6,0-1,0.4-1,1
	v6.6c0,2.1,0.5,3.8,1.6,5c1.1,1.2,3.1,1.9,6.1,1.9h4c0.3,0,0.6,0,0.8-0.2c0.1-0.1,0.2-0.3,0.2-0.5v0c0-0.2-0.1-0.4-0.2-0.5
	C44.8,119.9,44.5,119.9,44.2,119.9 M85.9,115.9h0.7c0.3,0,0.7-0.1,0.9-0.4c0.2-0.2,0.2-0.5,0.2-0.7l-0.5-2.1c-0.2-0.8-0.8-0.9-1-0.9
	h-0.7c-0.3,0-0.7,0.1-0.9,0.4c-0.2,0.2-0.2,0.5-0.2,0.7l0,0l0.5,2C85.1,115.9,85.7,115.9,85.9,115.9 M57,113.6h-2.2
	c-0.5,0-0.6,0.5-0.6,0.7c0,0.2,0,0.5,0,0.8v0.4c0,0.9,0.1,1.5,0.6,1.5H57c0.5,0,0.6-0.6,0.6-1.5v-0.4
	C57.6,114.1,57.5,113.6,57,113.6 M82.5,109.8H81l-8.5,0c-0.3,0-0.6,0-0.8,0.2c-0.1,0.1-0.2,0.3-0.2,0.5v0c0,0.3,0.1,0.4,0.2,0.5
	c0.2,0.2,0.6,0.2,0.8,0.2h7.6v3.9c0,1.7-0.1,2.7-0.7,3.3c-0.8,1-2.1,1.4-3.9,1.4h-2.6c-0.3,0-0.6,0-0.8,0.2
	c-0.1,0.1-0.2,0.2-0.2,0.5v0.1c0,0.3,0.1,0.4,0.2,0.5c0.2,0.2,0.5,0.2,0.8,0.2h2.9c3,0,5.1-0.6,6.1-1.9c1.1-1.2,1.6-2.9,1.6-5v-3.8
	l0-0.1C83.4,110.4,83.1,109.8,82.5,109.8 M52,114.2h-8.5c-0.6,0-1,0.5-1,1v0.2c0,0.6,0.5,1,1,1H52c0.6,0,1-0.5,1-1v-0.2
	C53,114.7,52.5,114.2,52,114.2 M70.3,115h-2.7c-2,0-3.3-0.5-4.2-1.5c-0.6-0.7-0.7-1.8-0.7-3.6v-2.3c0-0.6-0.5-1-1.1-1h-1.4
	c-0.6,0-1.1,0.5-1.1,1v12.9c0,0.3,0.1,0.6,0.3,0.8c0.2,0.2,0.5,0.3,0.8,0.3h1.4c0.3,0,0.6-0.1,0.8-0.3c0.2-0.2,0.3-0.5,0.3-0.8v-4.8
	c1.2,0.5,2.7,0.7,4.6,0.7l3,0c0.3,0,1.1,0,1.1-0.7v0c0-0.3-0.1-0.4-0.2-0.5C71,115,70.6,115,70.3,115"/>
<polygon class="st3" points="25.2,130 25.2,125.1 25.9,125.1 25.9,127.1 28.4,127.1 28.4,125.1 29,125.1 29,130 28.4,130 
	28.4,127.7 25.9,127.7 25.9,130 "/>
<polygon class="st3" points="30.3,130 30.3,125.1 33.8,125.1 33.8,125.7 31,125.7 31,127.2 33.6,127.2 33.6,127.7 31,127.7 
	31,129.4 33.9,129.4 33.9,130 "/>
<path class="st3" d="M34.6,130l1.8-4.8h0.7l2,4.8h-0.7l-0.6-1.5h-2l-0.5,1.5H34.6z M35.9,128h1.6l-0.5-1.3c-0.2-0.4-0.3-0.7-0.3-1
	c-0.1,0.3-0.1,0.6-0.3,0.9L35.9,128z"/>
<polygon class="st3" points="39.8,130 39.8,125.1 40.4,125.1 40.4,129.4 42.8,129.4 42.8,130 "/>
<polygon class="st3" points="45.1,130 45.1,125.7 43.5,125.7 43.5,125.1 47.3,125.1 47.3,125.7 45.7,125.7 45.7,130 "/>
<polygon class="st3" points="48.2,130 48.2,125.1 48.9,125.1 48.9,127.1 51.4,127.1 51.4,125.1 52,125.1 52,130 51.4,130 
	51.4,127.7 48.9,127.7 48.9,130 "/>
<path class="st3" d="M57.3,129.4c-0.2,0.2-0.4,0.4-0.6,0.5c-0.2,0.1-0.5,0.2-0.7,0.2c-0.5,0-0.9-0.2-1.2-0.5
	c-0.2-0.3-0.4-0.6-0.4-0.9c0-0.3,0.1-0.6,0.3-0.8c0.2-0.2,0.5-0.4,0.9-0.6c-0.2-0.2-0.4-0.5-0.4-0.6c-0.1-0.2-0.1-0.3-0.1-0.4
	c0-0.3,0.1-0.5,0.3-0.8c0.2-0.2,0.5-0.3,0.9-0.3c0.3,0,0.6,0.1,0.8,0.3c0.2,0.2,0.3,0.4,0.3,0.7c0,0.5-0.3,0.8-0.9,1.2l0.9,1.1
	c0.1-0.2,0.2-0.4,0.2-0.7l0.6,0.1c-0.1,0.4-0.2,0.8-0.4,1c0.2,0.3,0.5,0.5,0.8,0.7l-0.4,0.5C57.8,129.9,57.6,129.7,57.3,129.4
	 M57,128.9l-1.1-1.3c-0.3,0.2-0.5,0.4-0.6,0.5c-0.1,0.2-0.2,0.3-0.2,0.5c0,0.2,0.1,0.4,0.2,0.6c0.2,0.2,0.4,0.3,0.7,0.3
	c0.2,0,0.4-0.1,0.5-0.2C56.7,129.2,56.9,129.1,57,128.9 M56.1,126.9c0.3-0.1,0.4-0.3,0.5-0.4c0.1-0.1,0.1-0.2,0.1-0.4
	c0-0.2-0.1-0.3-0.2-0.4c-0.1-0.1-0.2-0.2-0.4-0.2c-0.2,0-0.3,0.1-0.4,0.2c-0.1,0.1-0.2,0.2-0.2,0.4c0,0.1,0,0.2,0.1,0.2
	c0,0.1,0.1,0.2,0.2,0.3L56.1,126.9z"/>
<path class="st3" d="M60.5,129.9v-4.8h1.8c0.4,0,0.7,0,0.9,0.1c0.2,0.1,0.4,0.2,0.5,0.5c0.1,0.2,0.2,0.4,0.2,0.6
	c0,0.2-0.1,0.4-0.2,0.6c-0.1,0.2-0.3,0.3-0.5,0.4c0.3,0.1,0.5,0.2,0.7,0.4c0.2,0.2,0.2,0.4,0.2,0.7c0,0.2,0,0.4-0.1,0.6
	c-0.1,0.2-0.2,0.3-0.4,0.4c-0.1,0.1-0.3,0.2-0.5,0.2c-0.2,0.1-0.5,0.1-0.8,0.1H60.5z M61.1,127.2h1c0.3,0,0.5,0,0.6-0.1
	c0.2,0,0.3-0.1,0.4-0.2c0.1-0.1,0.1-0.3,0.1-0.4c0-0.2,0-0.3-0.1-0.4c-0.1-0.1-0.2-0.2-0.3-0.2c-0.1,0-0.4-0.1-0.7-0.1h-1V127.2z
	 M61.1,129.4h1.2c0.2,0,0.3,0,0.4,0c0.1,0,0.3-0.1,0.4-0.1s0.2-0.2,0.2-0.3c0.1-0.1,0.1-0.3,0.1-0.4c0-0.2,0-0.3-0.1-0.5
	c-0.1-0.1-0.2-0.2-0.4-0.3c-0.2-0.1-0.4-0.1-0.7-0.1h-1.1V129.4z"/>
<polygon class="st3" points="65.3,130 65.3,125.1 68.7,125.1 68.7,125.7 65.9,125.7 65.9,127.2 68.6,127.2 68.6,127.7 65.9,127.7 
	65.9,129.4 68.8,129.4 68.8,130 "/>
<path class="st3" d="M69.5,130l1.8-4.8H72l2,4.8h-0.7l-0.6-1.5h-2l-0.5,1.5H69.5z M70.9,128h1.6l-0.5-1.3c-0.2-0.4-0.3-0.7-0.3-1
	c-0.1,0.3-0.1,0.6-0.3,0.9L70.9,128z"/>
<path class="st3" d="M77.9,125.1h0.6v2.8c0,0.5-0.1,0.9-0.2,1.2c-0.1,0.3-0.3,0.5-0.6,0.7c-0.3,0.2-0.7,0.3-1.1,0.3
	c-0.4,0-0.8-0.1-1.1-0.2c-0.3-0.2-0.5-0.4-0.6-0.7c-0.1-0.3-0.2-0.7-0.2-1.2v-2.8h0.6v2.8c0,0.4,0,0.7,0.1,0.9
	c0.1,0.2,0.2,0.4,0.4,0.5c0.2,0.1,0.4,0.2,0.7,0.2c0.5,0,0.8-0.1,1-0.3s0.3-0.6,0.3-1.2V125.1z"/>
<polygon class="st3" points="81.1,130 81.1,125.7 79.5,125.7 79.5,125.1 83.3,125.1 83.3,125.7 81.7,125.7 81.7,130 "/>
<path class="st3" d="M85.6,130v-2l-1.9-2.8h0.8l0.9,1.4c0.2,0.3,0.3,0.5,0.5,0.8c0.1-0.3,0.3-0.5,0.5-0.8l0.9-1.4h0.7l-1.9,2.8v2
	H85.6z"/>
</svg>
