<?xml version="1.0" encoding="utf-8"?>
<!-- Generator: Adobe Illustrator 23.0.1, SVG Export Plug-In . SVG Version: 6.00 Build 0)  -->
<svg version="1.1" id="レイヤー_1" xmlns="http://www.w3.org/2000/svg" xmlns:xlink="http://www.w3.org/1999/xlink" x="0px"
	 y="0px" viewBox="0 0 410.3 81.6" style="enable-background:new 0 0 410.3 81.6;" xml:space="preserve">
<style type="text/css">
	.st0{fill:#0086CD;}
	.st1{fill:#FFFFFF;}
	.st2{fill:#0B3190;}
	.st3{fill:#E5006E;}
</style>
<path class="st0" d="M75.8,13.5C75.8,6.1,81.9,0,89.4,0c7.5,0,13.5,6.1,13.5,13.5c0,7.5-6.1,13.5-13.5,13.5
	C81.9,27.1,75.8,21,75.8,13.5"/>
<path class="st0" d="M0,36.5c0-11.6,10.4-21.1,23.1-21.1h81c12.8,0,23.1,9.5,23.1,21.1c0,11.7-10.4,21.1-23.1,21.1h-81
	C10.4,57.6,0,48.1,0,36.5"/>
<path class="st1" d="M1.1,36.5c0-11,9.9-20,22-20h81c12.1,0,22,9,22,20c0,11-9.9,20-22,20h-81C11,56.5,1.1,47.5,1.1,36.5"/>
<path class="st0" d="M3,36.5c0-10,9-18.1,20.2-18.1h81c11.1,0,20.2,8.1,20.2,18.1c0,10-9,18.2-20.2,18.2h-81C12,54.6,3,46.5,3,36.5"
	/>
<path class="st1" d="M76.8,13.5C76.8,6.6,82.4,1,89.3,1c6.9,0,12.5,5.6,12.5,12.5c0,6.9-5.6,12.5-12.5,12.5
	C82.4,26.1,76.8,20.4,76.8,13.5"/>
<path class="st2" d="M89.4,2.9c-5.9,0-10.6,4.8-10.6,10.6c0,5.9,4.8,10.6,10.6,10.6c5.9,0,10.6-4.7,10.6-10.6
	C100,7.7,95.2,2.9,89.4,2.9"/>
<path class="st1" d="M86.2,13.5c0-1.7,1.4-3.2,3.1-3.2c1.8,0,3.2,1.4,3.2,3.2c0,1.8-1.4,3.2-3.2,3.2C87.6,16.7,86.2,15.3,86.2,13.5"
	/>
<path class="st1" d="M44.6,36c0.2-2.1,0.7-3.8,2.9-3.9c1-0.1,1.8,0.4,2.3,1.2c0.5,0.8,0.6,1.7,0.6,2.7H44.6z M56.4,39.7
	c0-6.9-2.2-11.2-9-11.2c-5,0-9,3.3-9,9.2c0,7.3,2.7,10.4,9.4,10.4c2,0,3.8-0.4,5.3-1.5c1.6-1,3-2.7,3.2-5.1h-5.9
	c-0.2,1.7-1.3,2.7-3.1,2.7c-2.4,0-2.9-2.1-2.9-4.5H56.4z"/>
<rect x="58.6" y="22.7" class="st1" width="5.7" height="24.9"/>
<rect x="86.4" y="29" class="st1" width="5.7" height="18.6"/>
<path class="st1" d="M77.8,35.6c0-0.9-0.2-1.8-0.6-2.2c-0.5-0.6-1.1-0.8-1.8-0.8l-0.3,0c-2.1,0.2-2.2,3.9-2.2,5.7
	c0,1.9,0.1,5.7,2.4,5.7h0.3c1-0.1,2.1-0.6,2.2-3.7h6.3c0,2.6-1,4.5-2.6,5.8c-1.6,1.2-3.7,1.9-5.9,2c-6.3,0-9.2-3.4-9.2-9.8
	c0-6.7,4.2-9.8,9.2-9.8c4.2-0.1,8.2,1.8,8.5,7H77.8z"/>
<polygon class="st1" points="33,29.1 29.6,41.2 26.8,29.1 26.1,29.1 24.6,29.1 23.9,29.1 21.1,41.2 17.8,29.1 12.5,29.1 18.3,47.6 
	23.7,47.6 25.4,40.7 27.1,47.6 32.4,47.6 38.2,29.1 "/>
<path class="st1" d="M111.6,43.8v-9.5c0.1-4.2-4-5.8-7.4-5.8c-1.9,0-4,0.2-5.8,1.1c-1.6,0.8-2.8,2.3-2.9,4.7h6c0-1.1,0.6-2.5,2-2.6
	c2.5-0.1,2.2,2.3,2.2,3.9h-2c-5.5,0-9.2,1.9-9.3,6.4c-0.1,3.8,2,6.2,5.9,6.2c3.1,0,4.6-1.7,5.3-3.1h0.1c0,1.3,0,1.9,0.1,2.5h5.9
	C111.6,46,111.6,44.5,111.6,43.8 M102.7,44.1c-1.2,0-2.2-1.1-2.2-2.4c0-1.3,0.7-2,1.7-2.5c0.9-0.5,2.1-0.4,3.5-0.4
	C105.7,41.2,105.4,44.1,102.7,44.1"/>
<path class="st3" d="M287.7,5.5l-6.1,28.9h-6.7l-3.8,17.9h8.9c9.6,0,17.7-6.7,19.7-15.8l0.1-0.4l2.7-12.8H321l-8.6,40.4h-28.8
	l-3.8,17.9h31.1c9.6,0,17.7-6.7,19.7-15.8l0.1-0.4l12.7-59.9H287.7z"/>
<path class="st3" d="M252.1,34.4l-6.2,29.3h-22.4l-3.8,17.9h24.7c9.6,0,17.7-6.7,19.7-15.8l0.1-0.4l6.6-31H252.1z"/>
<polygon class="st3" points="243.2,58.1 248.3,34.4 229.6,34.4 224.6,58.1 "/>
<polygon class="st3" points="220.8,58.1 225.8,34.4 207.2,34.4 202.2,58.1 "/>
<path class="st3" d="M211.1,5.5L207.5,22h10.6l3.5-16.5H211.1z M191.7,21.5l3.4-16h-44.4l-6.1,28.9H138l-3.8,17.9h8.9
	c7.7,0,14.4-4.3,17.8-10.7l9.9,22.1h-22.4l-3.8,17.9h31.1c9.6,0,17.7-6.7,19.7-15.8l0.1-0.4l8.7-40.9h-13.2L191.7,21.5z M181.8,42.6
	l-8.6-19.2h12.6L181.8,42.6z M197.8,5.5L194.3,22h10.6l3.5-16.5H197.8z"/>
<polygon class="st3" points="406.4,23.4 406.5,23.4 410.3,5.5 348.4,5.5 344.6,23.4 381.8,23.4 343.5,63.7 335.6,63.7 331.8,81.6 
	351.1,81.6 375.9,55.5 388,81.6 406.6,81.6 388.4,42.4 "/>
</svg>
