<svg id="title_nj.svg" xmlns="http://www.w3.org/2000/svg" width="217" height="27" viewBox="0 0 217 27">
  <defs>
    <style>
      .cls-1 {
        font-size: 14.745px;
        fill: #103440;
        font-family: "Apple LiGothic";
        font-weight: 500;
      }

      .cls-2 {
        fill: #c5af7c;
        fill-rule: evenodd;
      }
    </style>
  </defs>
  <text id="NEWS" class="cls-1" transform="translate(-0.75 23.224) scale(2.17)">NEWS</text>
  <text id="JOURNAL" class="cls-1" transform="translate(108.25 23.224) scale(2.17)">JOURNAL</text>
  <path id="_" data-name="&amp;" class="cls-2" d="M89.5,27A13.5,13.5,0,1,1,103,13.5,13.5,13.5,0,0,1,89.5,27ZM94.92,15.065l-1.475-1.408L91.88,15.468,89.89,12.83q2.3-1.52,2.3-3.174A3.149,3.149,0,0,0,91.265,7.3a3.612,3.612,0,0,0-4.783,0,3.093,3.093,0,0,0-.928,2.313,5.656,5.656,0,0,0,1.229,2.906l-1.118.715A3.706,3.706,0,0,0,83.9,16.585,3.768,3.768,0,0,0,84.939,19.3a3.618,3.618,0,0,0,2.738,1.084A6.105,6.105,0,0,0,91.567,18.6l1.274,1.587h2.883l-2.481-3.152Zm-8.717,1.3q0-1.095,1.721-2.392l2.3,3.062a3.753,3.753,0,0,1-2.235,1.319Q86.2,18.351,86.2,16.362Zm3.062-5.23-0.492.358-0.738-1.073A1.765,1.765,0,0,1,87.7,9.41a1.212,1.212,0,0,1,1.274-1.453,1.235,1.235,0,0,1,1.274,1.5A1.978,1.978,0,0,1,89.265,11.131Z"/>
</svg>
