<svg width="308" height="145" viewBox="0 0 308 145" fill="none" xmlns="http://www.w3.org/2000/svg">
<path d="M135.196 63.144V64.278H134.244V63.144H135.196ZM134.244 66.728V65.538H135.196V66.728H134.244ZM138.528 66.784V63.2H139.214V64.25C139.214 64.992 139.186 65.86 139.046 66.784H138.528ZM140.25 72.692C140.18 72.692 140.11 72.678 140.082 72.622C140.054 72.58 140.054 72.496 140.054 72.412V68.548C140.082 68.436 140.11 68.324 140.138 68.212H141.524V66.784H140.404C140.53 65.86 140.558 65.006 140.558 64.25V63.2H141.328V61.8H136.834V63.2H137.268V66.784H136.736V68.212H138.724C138.416 69.234 137.926 70.27 137.142 71.25C136.904 70.438 136.512 69.43 136.134 68.604L134.86 69.038C135.042 69.472 135.224 69.962 135.392 70.452L134.244 70.788V68.058H136.526V61.828H132.9V67.904C132.578 67.498 131.836 66.63 131.57 66.35V65.454H132.62V63.942H131.57V61.142H130.058V63.942H128.574V65.454H129.988C129.666 67.134 128.98 69.164 128.266 70.354C128.518 70.746 128.854 71.348 129.022 71.796C129.4 71.18 129.75 70.326 130.058 69.388V74.204H131.57V68.282C131.822 68.716 132.074 69.164 132.214 69.486L132.9 68.296V71.194C132.578 71.278 132.284 71.362 132.032 71.432L132.676 72.944C133.6 72.594 134.706 72.174 135.784 71.754C135.854 71.992 135.896 72.202 135.938 72.384L136.148 72.3C135.812 72.608 135.434 72.916 135.014 73.196C135.336 73.434 135.84 73.91 136.05 74.218C137.226 73.392 138.094 72.454 138.738 71.474V72.51C138.738 73.294 138.794 73.532 139.004 73.756C139.214 73.994 139.536 74.078 139.858 74.078H140.516C140.768 74.078 141.034 74.008 141.202 73.868C141.398 73.714 141.538 73.532 141.608 73.21C141.692 72.916 141.748 72.174 141.762 71.474C141.44 71.348 140.992 71.11 140.754 70.9C140.754 71.544 140.74 72.09 140.712 72.328C140.698 72.468 140.656 72.58 140.614 72.622C140.586 72.678 140.516 72.692 140.432 72.692H140.25ZM147.25 64.068C147.908 63.592 148.482 63.088 148.916 62.598C149.378 63.088 149.98 63.592 150.666 64.068H147.25ZM146.48 65.356H151.394V64.544C152.416 65.16 153.536 65.706 154.53 66.07C154.796 65.58 155.174 64.978 155.552 64.544C153.41 63.956 151.24 62.794 149.7 61.156H147.978C146.886 62.5 144.688 63.942 142.42 64.684C142.756 65.062 143.148 65.706 143.344 66.126C144.422 65.72 145.514 65.188 146.48 64.586V65.356ZM152.234 65.93L151.968 66H144.38V67.4H151.072C150.722 68.03 150.288 68.702 149.854 69.206C150.246 69.388 150.82 69.738 151.142 69.99C151.898 69.08 152.836 67.694 153.34 66.616L152.234 65.93ZM146.844 69.178C147.81 69.654 148.958 70.452 149.462 71.054L150.596 69.878C150.022 69.262 148.86 68.52 147.894 68.086L146.844 69.178ZM143.806 73.728C144.842 72.874 145.388 71.502 145.71 70.144L144.212 69.668C143.932 70.886 143.33 72.076 142.406 72.79L143.806 73.728ZM148.384 72.524C147.838 72.524 147.74 72.468 147.74 72.076V69.822H146.088V72.09C146.088 73.546 146.494 74.008 148.188 74.008H150.19C151.52 74.008 151.954 73.532 152.15 71.656C151.702 71.558 151.002 71.306 150.68 71.04C150.624 72.342 150.526 72.524 150.036 72.524H148.384ZM151.548 70.27C152.556 71.264 153.606 72.65 153.97 73.616L155.454 72.692C155.034 71.698 153.928 70.396 152.92 69.458L151.548 70.27ZM163.966 66.112C163.84 65.454 163.434 64.432 163 63.676L161.698 64.11C162.104 64.922 162.468 65.958 162.58 66.63L163.966 66.112ZM165.142 64.026C164.624 65.538 163.854 66.84 162.86 67.918C162.062 67.512 161.25 67.134 160.522 66.84L161.586 66.364C161.39 65.72 160.9 64.754 160.41 64.026L159.164 64.558C159.612 65.314 160.088 66.322 160.256 66.952L160.41 66.882L159.556 67.946C160.242 68.24 160.984 68.59 161.712 68.982C160.914 69.626 159.99 70.172 158.982 70.592C159.304 70.9 159.836 71.586 160.032 71.936C161.208 71.376 162.258 70.662 163.196 69.808C164.176 70.396 165.03 70.984 165.604 71.502L166.612 70.2C166.038 69.724 165.212 69.192 164.288 68.674C165.31 67.484 166.122 66.07 166.724 64.432L165.142 64.026ZM158.744 72.006V63.34H167.228V72.006H158.744ZM157.078 61.744V74.176H158.744V73.602H167.228V74.176H168.964V61.744H157.078ZM175.936 69.402H177.742C177.532 67.456 180.584 67.218 180.584 65.16C180.584 63.298 179.1 62.36 177.07 62.36C175.572 62.36 174.34 63.032 173.458 64.068L174.606 65.132C175.25 64.404 175.978 64.026 176.846 64.026C177.938 64.026 178.61 64.502 178.61 65.342C178.61 66.7 175.642 67.204 175.936 69.402ZM175.39 71.74C175.39 72.552 176.006 73.126 176.846 73.126C177.686 73.126 178.302 72.552 178.302 71.74C178.302 70.928 177.686 70.368 176.846 70.368C176.006 70.368 175.39 70.928 175.39 71.74Z" fill="black"/>
<circle cx="67" cy="78" r="66.5" stroke="black"/>
<circle cx="153" cy="67" r="66.5" stroke="black"/>
<circle cx="241" cy="78" r="66.5" stroke="black"/>
</svg>
