<svg width="14" height="15" viewBox="0 0 14 15" fill="none" xmlns="http://www.w3.org/2000/svg">
<path d="M13.0711 14.5821C12.872 14.5821 12.6066 14.5144 12.4739 14.3112L9.88626 11.6701L9.68721 11.8055C8.62559 12.5505 7.43128 12.8891 6.17062 12.8891C2.78673 12.9568 0 10.1125 0 6.59098C0 3.1372 2.78673 0.2929 6.17062 0.2929C9.5545 0.2929 12.3412 3.1372 12.3412 6.59098C12.3412 7.94541 11.9431 9.23211 11.1469 10.3157L11.0142 10.5188L13.6019 13.16C13.9337 13.4986 13.9337 14.0403 13.6019 14.3789C13.4692 14.5144 13.2701 14.5821 13.0711 14.5821ZM6.17062 1.71505C3.51659 1.71505 1.32701 3.94985 1.32701 6.6587C1.32701 9.36756 3.51659 11.6024 6.17062 11.6024C8.82465 11.6024 11.0142 9.36756 11.0142 6.6587C11.0142 3.88213 8.82465 1.71505 6.17062 1.71505Z" fill="#27B1DB"/>
</svg>
