<svg height="11" viewBox="0 0 12 11" width="12" xmlns="http://www.w3.org/2000/svg"><path d="m10.25 8a.77.77 0 0 1 -.71-.46.74.74 0 0 1 .16-.82.79.79 0 0 1 .83-.17.76.76 0 0 1 .47.7.75.75 0 0 1 -.75.75zm0-2.5a1.77 1.77 0 0 0 -1.66 1.2 1.74 1.74 0 0 0 .6 1.94 2.9 2.9 0 0 1 -2 1.35 2.09 2.09 0 0 1 -2.09-1.05 2 2 0 0 0 .9-1.45c1.35-1 2.91-3.42 3-4.85.08-1.23-.82-2-2.12-2.12a1 1 0 0 0 -1.12-.52 1 1 0 0 0 -.76 1 1 1 0 0 0 .7 1 1 1 0 0 0 1.15-.43 1.08 1.08 0 0 1 .79.26 1.07 1.07 0 0 1 .36.7 7.53 7.53 0 0 1 -3 4.47.84.84 0 0 1 -1 0 8.1 8.1 0 0 1 -2.94-4.1c-.18-.73.07-1.22 1.09-1.37a1 1 0 0 0 .85.47 1 1 0 0 0 .34-1.94 1 1 0 0 0 -1.22.46c-1.18.14-2.12.79-2.12 1.98 0 1.4 1.62 3.92 3 5a2.24 2.24 0 0 0 1 1.5 3.15 3.15 0 0 0 3 2 3.78 3.78 0 0 0 3.17-2 1.76 1.76 0 0 0 1.6-.81 1.73 1.73 0 0 0 0-1.77 1.76 1.76 0 0 0 -1.52-.92z" fill="#bfbfbf" fill-rule="evenodd"/></svg>