<svg width="14" height="16" viewBox="0 0 14 16" fill="none" xmlns="http://www.w3.org/2000/svg">
<path d="M13.9926 14.5119C13.7855 13.1879 13.2071 11.9499 12.3245 10.9416C11.4419 9.93324 10.2913 9.19602 9.00639 8.81555C9.95356 8.36097 10.7182 7.59811 11.175 6.65201C11.6318 5.7059 11.7536 4.63269 11.5205 3.60827C11.2874 2.58385 10.7132 1.669 9.89205 1.01369C9.07087 0.358373 8.05144 0.00146484 7.00083 0.00146484C5.95023 0.00146484 4.93079 0.358373 4.10961 1.01369C3.28844 1.669 2.71424 2.58385 2.48115 3.60827C2.24805 4.63269 2.36988 5.7059 2.82667 6.65201C3.28346 7.59811 4.0481 8.36097 4.99528 8.81555C3.71038 9.19602 2.55979 9.93324 1.67718 10.9416C0.794565 11.9499 0.216146 13.1879 0.00911097 14.5119C-0.0110929 14.6928 0.0395887 14.8745 0.15051 15.0188C0.261431 15.1631 0.42396 15.2588 0.603956 15.2858C0.783951 15.3128 0.967406 15.269 1.11578 15.1636C1.26416 15.0581 1.36592 14.8993 1.39967 14.7205C1.60938 13.3856 2.28892 12.1695 3.31586 11.2913C4.34279 10.4131 5.6496 9.93058 7.00083 9.93058C8.35206 9.93058 9.65887 10.4131 10.6858 11.2913C11.7127 12.1695 12.3923 13.3856 12.602 14.7205C12.6357 14.8993 12.7375 15.0581 12.8859 15.1636C13.0343 15.269 13.2177 15.3128 13.3977 15.2858C13.5777 15.2588 13.7402 15.1631 13.8512 15.0188C13.9621 14.8745 14.0128 14.6928 13.9926 14.5119ZM3.77357 4.63558C3.77357 3.99712 3.96289 3.373 4.3176 2.84214C4.6723 2.31129 5.17647 1.89753 5.76632 1.65321C6.35618 1.40888 7.00524 1.34495 7.63143 1.46951C8.25762 1.59407 8.83281 1.90151 9.28427 2.35297C9.73572 2.80443 10.0432 3.37962 10.1677 4.00581C10.2923 4.632 10.2284 5.28106 9.98403 5.87092C9.7397 6.46077 9.32595 6.96493 8.79509 7.31964C8.26424 7.67435 7.64012 7.86367 7.00166 7.86367C6.14592 7.86236 5.3256 7.52184 4.7205 6.91673C4.1154 6.31163 3.77488 5.49132 3.77357 4.63558Z" fill="white"/>
</svg>
