<svg width="17" height="14" viewBox="0 0 17 14" fill="none" xmlns="http://www.w3.org/2000/svg">
<path d="M16.612 1.59821C16.0008 1.86954 15.3439 2.05227 14.6545 2.13464C15.3585 1.71311 15.899 1.04517 16.1531 0.24918C15.4948 0.639561 14.7653 0.923349 13.9887 1.07632C13.3678 0.413915 12.4811 0 11.501 0C9.30063 0 7.68373 2.05296 8.18071 4.18414C5.34906 4.04225 2.83788 2.6856 1.15661 0.623641C0.263715 2.1554 0.69355 4.15922 2.21078 5.17394C1.65289 5.15594 1.12685 5.00297 0.66794 4.74756C0.630563 6.32639 1.76225 7.80348 3.4013 8.13225C2.92163 8.26238 2.39628 8.29284 1.86193 8.1904C2.29522 9.54427 3.55358 10.5292 5.04589 10.5569C3.6131 11.6803 1.80794 12.1821 0 11.9689C1.50823 12.9359 3.30025 13.5 5.22447 13.5C11.5522 13.5 15.1273 8.15579 14.9113 3.36254C15.5772 2.88149 16.1551 2.28138 16.612 1.59821Z" fill="#55ACEE"/>
</svg>
