<svg height="11" viewBox="0 0 9 11" width="9" xmlns="http://www.w3.org/2000/svg"><path d="m.71 3a.88.88 0 0 1 .29-.63.83.83 0 0 1 .6-.27h5.79a.85.85 0 0 1 .61.27.88.88 0 0 1 .29.63v2.1a.92.92 0 0 1 -.29.7.85.85 0 0 1 -.65.26h-5.75a.82.82 0 0 1 -.6-.26.92.92 0 0 1 -.25-.67zm2.4-2.07h2.78a.32.32 0 0 1 .28.32.32.32 0 0 1 -.28.32h-2.78a.32.32 0 0 1 -.28-.32.32.32 0 0 1 .28-.32zm4.14 7.33a.7.7 0 0 1 -.71-.69.71.71 0 1 1 1.46 0 .71.71 0 0 1 -.71.69zm-2.78 1.56h-2.35a2.76 2.76 0 0 0 .28-.39h4.19a1 1 0 0 0 .28.39zm-3.47-2.25a.72.72 0 0 1 .7-.73.71.71 0 1 1 0 1.41.7.7 0 0 1 -.7-.68zm.51 1.81-1.41 1.62h.9l.57-.59h5.83l.6.59h.9l-1.45-1.62a2.13 2.13 0 0 0 1.55-2.1v-5.18a2.08 2.08 0 0 0 -2-2.1h-5a2.08 2.08 0 0 0 -2 2.1v5.18a2.13 2.13 0 0 0 1.55 2.1z" fill="#bfbfbf" fill-rule="evenodd"/></svg>