<svg xmlns="http://www.w3.org/2000/svg" width="18" height="20" viewBox="0 0 33.73 36.9"><defs><style>.cls-1{fill:#4cbee0;}</style></defs><title>Asset 3</title><g id="Layer_2" data-name="Layer 2"><g id="レイヤー_1" data-name="レイヤー 1"><path class="cls-1" d="M1.05,36.9a1,1,0,0,1-.77-.34,1.05,1.05,0,0,1-.28-.8C.07,35,.71,28,3.1,26a26.47,26.47,0,0,1,8.39-4.49c-2.08-1.11-2.56-2.88-3-4.59l-.22-.79H8.2a3.4,3.4,0,0,1-1.54-.37A3.15,3.15,0,0,1,5.07,13.7a3.41,3.41,0,0,1,.29-2.56A3.12,3.12,0,0,1,7.19,9.67C7.55,1.68,12.56,0,16.73,0s9.15,1.67,9.53,9.61h0A3.25,3.25,0,0,1,28.6,13.7,3.2,3.2,0,0,1,27,15.76a3.33,3.33,0,0,1-1.54.37h-.24l-.15.53c-.49,1.71-1,3.41-3.11,4.77l1.2.41a1.92,1.92,0,0,1,.66.26A24.73,24.73,0,0,1,30.64,26c2.38,2,3,9,3.09,9.76a1.09,1.09,0,0,1-.27.8,1,1,0,0,1-.78.34Zm30.47-2.1c-.37-2.92-1.2-6.32-2.24-7.2a20.2,20.2,0,0,0-3.76-2.45,14.67,14.67,0,0,1,.24,2.56,3,3,0,1,1-2.09.05c-.05-3-.78-3.74-.93-3.85l-.25-.08a.47.47,0,0,1-.17-.07l-.72-.24-3.82,8a1,1,0,0,1-1,.67,1.08,1.08,0,0,1-1-.71l-3.69-7.93A24.72,24.72,0,0,0,4.45,27.6c-1,.88-1.87,4.28-2.23,7.2Zm-6.74-5.17a.89.89,0,1,0,.89.89A.89.89,0,0,0,24.78,29.63ZM9,13.9a1.06,1.06,0,0,1,1,.69c.22.63.38,1.21.53,1.77.49,1.82.79,2.92,2.67,3.6a1.06,1.06,0,0,1,.7,1l0,.76.49,1.77,2.51,5.35,2.6-5.4.44-1.73L19.78,21a1.07,1.07,0,0,1,.55-1.06c1.91-1,2.2-2.05,2.7-3.8.15-.51.3-1,.5-1.61a1,1,0,0,1,.57-.61,1,1,0,0,1,.42-.09,1.06,1.06,0,0,1,.42.09l.13.06a1.83,1.83,0,0,0,.4,0A1.32,1.32,0,0,0,26,13.9a1.08,1.08,0,0,0,.53-.72,1.37,1.37,0,0,0-.08-1,1,1,0,0,0-.69-.53.78.78,0,0,0-.22,0l-.17,0h-.16a1.05,1.05,0,0,1-1-1.05,18.36,18.36,0,0,0-.1-1.87,1.12,1.12,0,0,1-.2-.18,2.84,2.84,0,0,0-2.13-.92,4.35,4.35,0,0,0-2.23.7,13,13,0,0,1-6.74,1.76A16,16,0,0,1,9.3,9.71c0,.28,0,.58,0,.88a1,1,0,0,1-.33.76,1.05,1.05,0,0,1-.75.29H8.06a.5.5,0,0,0-.18,0,1,1,0,0,0-.69.5,1.35,1.35,0,0,0-.09,1,1.11,1.11,0,0,0,.53.72A1.33,1.33,0,0,0,8.2,14a1.24,1.24,0,0,0,.33,0l.11,0A1.26,1.26,0,0,1,9,13.9Zm.58-6.29A14.23,14.23,0,0,0,12.79,8a10.9,10.9,0,0,0,5.67-1.46,6.43,6.43,0,0,1,3.28-1,5.17,5.17,0,0,1,1.61.26c-1.09-2.5-3.27-3.71-6.62-3.71C12.66,2.1,10.3,3.9,9.55,7.61Z"/><path class="cls-1" d="M11.14,29.32H10V28.13a.75.75,0,0,0-1.5,0v1.19H7.26a.75.75,0,1,0,0,1.5H8.45V32A.75.75,0,0,0,10,32v-1.2h1.19a.75.75,0,0,0,0-1.5Z"/></g></g></svg>