<svg xmlns="http://www.w3.org/2000/svg" width="12.25" height="12.625" viewBox="0 0 12.25 12.625">
  <defs>
    <style>
      .cls-1 {
        fill: #41b6d9;
        fill-rule: evenodd;
      }
    </style>
  </defs>
  <path id="icon_round-arrow-left.svg" class="cls-1" d="M876.875,987.969A6.315,6.315,0,1,1,883,981.656,6.221,6.221,0,0,1,876.875,987.969Zm1.985-6.7-3.106-3.167a0.293,0.293,0,0,0-.229-0.1,0.231,0.231,0,0,0-.2.1l-0.2.167a0.326,0.326,0,0,0,0,.466l2.452,2.534a0.326,0.326,0,0,1,0,.466l-2.485,2.534a0.326,0.326,0,0,0,0,.466l0.2,0.167a0.294,0.294,0,0,0,.229.1,0.252,0.252,0,0,0,.229-0.1l3.106-3.167A0.325,0.325,0,0,0,878.86,981.267Z" transform="translate(-870.75 -975.344)"/>
</svg>
