<?xml version="1.0" encoding="utf-8"?>
<!-- Generator: Adobe Illustrator 23.0.1, SVG Export Plug-In . SVG Version: 6.00 Build 0)  -->
<svg version="1.1" id="レイヤー_1" xmlns="http://www.w3.org/2000/svg" xmlns:xlink="http://www.w3.org/1999/xlink" x="0px"
	 y="0px" viewBox="0 0 24 24" style="enable-background:new 0 0 24 24;" xml:space="preserve">
<path d="M18,10V6c0-3.3-2.7-6-6-6S6,2.7,6,6v4H3v14h18V10H18z M13,17.7V20h-2v-2.3c-0.6-0.3-1-1-1-1.7c0-1.1,0.9-2,2-2s2,0.9,2,2
	C14,16.7,13.6,17.4,13,17.7z M8,10V6c0-2.2,1.8-4,4-4c2.2,0,4,1.8,4,4v4H8z"/>
</svg>
