<?xml version="1.0" encoding="UTF-8"?>
<svg width="205px" height="245px" viewBox="0 0 205 245" version="1.1" xmlns="http://www.w3.org/2000/svg" xmlns:xlink="http://www.w3.org/1999/xlink">
    <!-- Generator: Sketch 51.2 (57519) - http://www.bohemiancoding.com/sketch -->
    <title>Group</title>
    <desc>Created with Sketch.</desc>
    <defs></defs>
    <g id="Pages" stroke="none" stroke-width="1" fill="none" fill-rule="evenodd">
        <g id="チャット_気になる症状がある2" transform="translate(-83.000000, -256.000000)">
            <g id="Group" transform="translate(83.000000, 257.000000)">
                <g id="Group-41" transform="translate(58.000000, 8.000000)"></g>
                <path d="M156.5,131.5 L115.5,185.5" id="Line-3-Copy" stroke="#BFBFBF" stroke-linecap="square" fill-rule="nonzero" transform="translate(136.000000, 158.500000) scale(-1, 1) translate(-136.000000, -158.500000) "></path>
                <path d="M68.5,44.5 L7.5,44.5" id="Line-2-Copy" stroke="#BFBFBF" stroke-linecap="square" fill-rule="nonzero"></path>
                <path d="M190.5,8.25 L156.5,8.25" id="Line-2-Copy-3" stroke="#BFBFBF" stroke-linecap="square" fill-rule="nonzero"></path>
                <path d="M204.5,71.25 L156.5,71.25" id="Line-2-Copy-4" stroke="#BFBFBF" stroke-linecap="square" fill-rule="nonzero"></path>
                <path d="M204.5,185.25 L156.5,185.25" id="Line-2-Copy-5" stroke="#BFBFBF" stroke-linecap="square" fill-rule="nonzero"></path>
                <path d="M62.5,175.5 L0.5,175.5" id="Line-2-Copy-2" stroke="#BFBFBF" stroke-linecap="square" fill-rule="nonzero"></path>
                <path d="M103.645479,129.176772 C101.535086,129.176772 101.334186,131.893814 101.334186,131.893814 C101.334186,131.893814 98.6613983,150.520273 97.1171772,170.827149 C97.0025571,187.182996 95.3644987,210.384729 95.2177599,212.313583 C94.9142058,216.310642 95.2788486,217.90089 95.2788486,217.90089 C96.5938298,220.607212 97.1411088,224.360248 96.6297272,226.115701 C96.1183457,227.871153 93.7447039,229.165043 92.2105592,229.530762 C90.6764145,229.896481 88.6510412,233.070672 87.7019624,234.972412 C86.751624,236.874152 84.6298943,237.678734 84.6298943,237.678734 C84.6298943,237.678734 84.6028138,238.902002 84.1796014,239.893227 C83.3350661,241.871895 82.2719971,241.868742 80.9444203,241.984132 C79.9008744,242.074932 79.2792813,241.746415 79.2792813,241.746415 C79.2792813,241.746415 74.499879,242.059799 72.3812982,240.596922 C70.2627175,239.134675 73.8310524,236.03615 74.1963249,235.523513 C74.5615974,235.011506 85.908978,220.240863 86.0739804,217.607684 C86.2377233,214.973875 82.2927798,172.346145 82.2927798,172.346145 C82.2927798,172.346145 79.62692,149.068746 79.480811,143.363526 C79.334702,137.657675 78.3119388,122.078036 79.2616475,117.249911 C80.2113561,112.422417 82.2568823,102.840573 82.9874274,99.0370931 C83.7179725,95.2329824 82.9143729,75.8492322 82.9143729,75.8492322 L79.5538655,88.3574607 C79.5538655,88.3574607 78.2388843,96.0375648 77.6544483,98.3056546 C77.0700122,100.573114 72.3378434,118.489573 72.3378434,118.489573 C72.9002371,122.789297 72.1501689,129.063904 71.7855261,131.089232 C70.9857052,135.539656 69.2191716,138.862027 68.1453962,139.374033 C67.0716209,139.88604 66.9185843,139.118661 66.9185843,139.118661 C66.9185843,139.118661 66.4072028,141.166058 65.2824152,140.960498 C64.1576277,140.7562 64.4133185,139.578962 64.4133185,139.578962 C64.4133185,139.578962 63.8509247,140.909424 62.981828,140.909424 C62.1127312,140.909424 61.9086824,139.88604 61.9086824,139.88604 C60.7322529,140.551271 60.2208713,137.684789 60.2718835,136.098324 C60.3235255,134.511229 60.6302285,127.549952 60.6302285,127.549952 C60.6302285,127.549952 60.5282041,128.113034 59.6584776,129.393051 C58.7893808,130.672438 56.64246,130.212136 57.0511873,129.239197 C57.4605445,128.266888 59.505441,122.27792 59.6584776,120.895754 C59.812144,119.513587 63.1865065,117.568339 63.8509247,117.210186 C64.5159727,116.852034 65.0991492,115.951608 65.0991492,115.951608 C66.1042785,112.732017 67.1094077,98.142342 68.0137722,93.3129564 C68.9181366,88.4835708 70.3250657,84.9619468 71.1292951,81.5412108 C71.9328947,78.1198443 74.0917814,64.4709501 74.6711792,60.0640332 C75.2499473,55.6564858 76.987511,49.6259017 78.8409543,48.234277 C80.6943975,46.8420216 90.540382,44.2908147 94.131389,43.1312325 C97.722396,41.9710197 97.6109249,35.2443079 97.6109249,35.2443079 C97.6109249,35.2443079 95.859506,34.625738 93.6590538,31.8418579 C91.4579718,29.0586084 90.4245024,23.8786368 90.4245024,23.8786368 C90.4245024,23.8786368 86.2547274,23.5305729 86.1388478,19.5877412 C86.0229682,15.6442789 89.6139752,15.6442789 89.6139752,15.6442789 C89.6139752,15.6442789 88.723466,10.5172735 91.4674185,5.78625379 C94.9463246,-0.213433373 103.152991,0.000953766569 103.152991,0.000953766569 L103.847639,0.000953766569 C103.847639,0.000953766569 112.054305,-0.213433373 115.533211,5.78625379 C118.276534,10.5172735 117.386655,15.6442789 117.386655,15.6442789 C117.386655,15.6442789 120.977662,15.6442789 120.861782,19.5877412 C120.745902,23.5305729 116.575498,23.8786368 116.575498,23.8786368 C116.575498,23.8786368 115.542658,29.0586084 113.341576,31.8418579 C111.140494,34.625738 109.389705,35.2443079 109.389705,35.2443079 C109.389705,35.2443079 109.277604,41.9710197 112.869241,43.1312325 C116.459618,44.2908147 126.305602,46.8420216 128.159046,48.234277 C130.012489,49.6259017 131.750053,55.6564858 132.329451,60.0640332 C132.908848,64.4709501 135.067735,78.1198443 135.871335,81.5412108 C136.674934,84.9619468 138.082493,88.4835708 138.986858,93.3129564 C139.891222,98.142342 140.895722,112.732017 141.900851,115.951608 C141.900851,115.951608 142.484657,116.852034 143.149705,117.210186 C143.814123,117.568339 147.188486,119.513587 147.341522,120.895754 C147.494559,122.27792 149.540085,128.266888 149.948813,129.239197 C150.35754,130.212136 148.210619,130.672438 147.341522,129.393051 C146.472426,128.113034 146.370401,127.549952 146.370401,127.549952 C146.370401,127.549952 146.677104,134.511229 146.728116,136.098324 C146.779129,137.684789 146.267747,140.551271 145.091947,139.88604 C145.091947,139.88604 144.887269,140.909424 144.018172,140.909424 C143.149705,140.909424 142.586682,139.578962 142.586682,139.578962 C142.586682,139.578962 142.842372,140.7562 141.718215,140.960498 C140.592797,141.166058 140.081416,139.118661 140.081416,139.118661 C140.081416,139.118661 139.928379,139.88604 138.854604,139.374033 C137.781458,138.862027 136.014925,135.539656 135.214474,131.089232 C134.850461,129.063904 134.100393,122.789297 134.662786,118.489573 C134.662786,118.489573 129.930618,100.573114 129.346182,98.3056546 C128.761116,96.0375648 127.446135,88.3574607 127.446135,88.3574607 L124.086257,75.8492322 C124.086257,75.8492322 123.282027,95.2329824 124.012573,99.0370931 C124.743118,102.840573 126.789274,112.422417 127.738353,117.249911 C128.688691,122.078036 127.665928,137.657675 127.519819,143.363526 C127.37371,149.068746 124.70722,172.346145 124.70722,172.346145 C124.70722,172.346145 120.762277,214.973875 120.926649,217.607684 C121.091022,220.240863 132.439032,235.011506 132.803675,235.523513 C133.168948,236.03615 136.737912,239.134675 134.619332,240.596922 C132.500751,242.059799 127.721348,241.746415 127.721348,241.746415 C127.721348,241.746415 127.099755,242.074932 126.056209,241.984132 C124.728633,241.868742 123.665564,241.871895 122.821028,239.893227 C122.397816,238.902002 122.370106,237.678734 122.370106,237.678734 C122.370106,237.678734 120.248376,236.874152 119.298667,234.972412 C118.348959,233.070672 116.324215,229.896481 114.790071,229.530762 C113.255926,229.165043 110.882284,227.871153 110.370903,226.115701 C109.859521,224.360248 110.4068,220.607212 111.721781,217.90089 C111.721781,217.90089 112.086424,216.310642 111.78224,212.313583 C111.636131,210.384729 109.997443,187.182996 109.883453,170.827149 C108.339231,150.520273 105.665814,131.893814 105.665814,131.893814 C105.665814,131.893814 105.465544,129.176772 103.355151,129.176772 L103.645479,129.176772 Z" id="Fill-1" fill="#FDF5EC"></path>
                <path d="M103.645479,129.176772 C101.535086,129.176772 101.334186,131.893814 101.334186,131.893814 C101.334186,131.893814 98.6613983,150.520273 97.1171772,170.827149 C97.0025571,187.182996 95.3644987,210.384729 95.2177599,212.313583 C94.9142058,216.310642 95.2788486,217.90089 95.2788486,217.90089 C96.5938298,220.607212 97.1411088,224.360248 96.6297272,226.115701 C96.1183457,227.871153 93.7447039,229.165043 92.2105592,229.530762 C90.6764145,229.896481 88.6510412,233.070672 87.7019624,234.972412 C86.751624,236.874152 84.6298943,237.678734 84.6298943,237.678734 C84.6298943,237.678734 84.6028138,238.902002 84.1796014,239.893227 C83.3350661,241.871895 82.2719971,241.868742 80.9444203,241.984132 C79.9008744,242.074932 79.2792813,241.746415 79.2792813,241.746415 C79.2792813,241.746415 74.499879,242.059799 72.3812982,240.596922 C70.2627175,239.134675 73.8310524,236.03615 74.1963249,235.523513 C74.5615974,235.011506 85.908978,220.240863 86.0739804,217.607684 C86.2377233,214.973875 82.2927798,172.346145 82.2927798,172.346145 C82.2927798,172.346145 79.62692,149.068746 79.480811,143.363526 C79.334702,137.657675 78.3119388,122.078036 79.2616475,117.249911 C80.2113561,112.422417 82.2568823,102.840573 82.9874274,99.0370931 C83.7179725,95.2329824 82.9143729,75.8492322 82.9143729,75.8492322 L79.5538655,88.3574607 C79.5538655,88.3574607 78.2388843,96.0375648 77.6544483,98.3056546 C77.0700122,100.573114 72.3378434,118.489573 72.3378434,118.489573 C72.9002371,122.789297 72.1501689,129.063904 71.7855261,131.089232 C70.9857052,135.539656 69.2191716,138.862027 68.1453962,139.374033 C67.0716209,139.88604 66.9185843,139.118661 66.9185843,139.118661 C66.9185843,139.118661 66.4072028,141.166058 65.2824152,140.960498 C64.1576277,140.7562 64.4133185,139.578962 64.4133185,139.578962 C64.4133185,139.578962 63.8509247,140.909424 62.981828,140.909424 C62.1127312,140.909424 61.9086824,139.88604 61.9086824,139.88604 C60.7322529,140.551271 60.2208713,137.684789 60.2718835,136.098324 C60.3235255,134.511229 60.6302285,127.549952 60.6302285,127.549952 C60.6302285,127.549952 60.5282041,128.113034 59.6584776,129.393051 C58.7893808,130.672438 56.64246,130.212136 57.0511873,129.239197 C57.4605445,128.266888 59.505441,122.27792 59.6584776,120.895754 C59.812144,119.513587 63.1865065,117.568339 63.8509247,117.210186 C64.5159727,116.852034 65.0991492,115.951608 65.0991492,115.951608 C66.1042785,112.732017 67.1094077,98.142342 68.0137722,93.3129564 C68.9181366,88.4835708 70.3250657,84.9619468 71.1292951,81.5412108 C71.9328947,78.1198443 74.0917814,64.4709501 74.6711792,60.0640332 C75.2499473,55.6564858 76.987511,49.6259017 78.8409543,48.234277 C80.6943975,46.8420216 90.540382,44.2908147 94.131389,43.1312325 C97.722396,41.9710197 97.6109249,35.2443079 97.6109249,35.2443079 C97.6109249,35.2443079 95.859506,34.625738 93.6590538,31.8418579 C91.4579718,29.0586084 90.4245024,23.8786368 90.4245024,23.8786368 C90.4245024,23.8786368 86.2547274,23.5305729 86.1388478,19.5877412 C86.0229682,15.6442789 89.6139752,15.6442789 89.6139752,15.6442789 C89.6139752,15.6442789 88.723466,10.5172735 91.4674185,5.78625379 C94.9463246,-0.213433373 103.152991,0.000953766569 103.152991,0.000953766569 L103.847639,0.000953766569 C103.847639,0.000953766569 112.054305,-0.213433373 115.533211,5.78625379 C118.276534,10.5172735 117.386655,15.6442789 117.386655,15.6442789 C117.386655,15.6442789 120.977662,15.6442789 120.861782,19.5877412 C120.745902,23.5305729 116.575498,23.8786368 116.575498,23.8786368 C116.575498,23.8786368 115.542658,29.0586084 113.341576,31.8418579 C111.140494,34.625738 109.389705,35.2443079 109.389705,35.2443079 C109.389705,35.2443079 109.277604,41.9710197 112.869241,43.1312325 C116.459618,44.2908147 126.305602,46.8420216 128.159046,48.234277 C130.012489,49.6259017 131.750053,55.6564858 132.329451,60.0640332 C132.908848,64.4709501 135.067735,78.1198443 135.871335,81.5412108 C136.674934,84.9619468 138.082493,88.4835708 138.986858,93.3129564 C139.891222,98.142342 140.895722,112.732017 141.900851,115.951608 C141.900851,115.951608 142.484657,116.852034 143.149705,117.210186 C143.814123,117.568339 147.188486,119.513587 147.341522,120.895754 C147.494559,122.27792 149.540085,128.266888 149.948813,129.239197 C150.35754,130.212136 148.210619,130.672438 147.341522,129.393051 C146.472426,128.113034 146.370401,127.549952 146.370401,127.549952 C146.370401,127.549952 146.677104,134.511229 146.728116,136.098324 C146.779129,137.684789 146.267747,140.551271 145.091947,139.88604 C145.091947,139.88604 144.887269,140.909424 144.018172,140.909424 C143.149705,140.909424 142.586682,139.578962 142.586682,139.578962 C142.586682,139.578962 142.842372,140.7562 141.718215,140.960498 C140.592797,141.166058 140.081416,139.118661 140.081416,139.118661 C140.081416,139.118661 139.928379,139.88604 138.854604,139.374033 C137.781458,138.862027 136.014925,135.539656 135.214474,131.089232 C134.850461,129.063904 134.100393,122.789297 134.662786,118.489573 C134.662786,118.489573 129.930618,100.573114 129.346182,98.3056546 C128.761116,96.0375648 127.446135,88.3574607 127.446135,88.3574607 L124.086257,75.8492322 C124.086257,75.8492322 123.282027,95.2329824 124.012573,99.0370931 C124.743118,102.840573 126.789274,112.422417 127.738353,117.249911 C128.688691,122.078036 127.665928,137.657675 127.519819,143.363526 C127.37371,149.068746 124.70722,172.346145 124.70722,172.346145 C124.70722,172.346145 120.762277,214.973875 120.926649,217.607684 C121.091022,220.240863 132.439032,235.011506 132.803675,235.523513 C133.168948,236.03615 136.737912,239.134675 134.619332,240.596922 C132.500751,242.059799 127.721348,241.746415 127.721348,241.746415 C127.721348,241.746415 127.099755,242.074932 126.056209,241.984132 C124.728633,241.868742 123.665564,241.871895 122.821028,239.893227 C122.397816,238.902002 122.370106,237.678734 122.370106,237.678734 C122.370106,237.678734 120.248376,236.874152 119.298667,234.972412 C118.348959,233.070672 116.324215,229.896481 114.790071,229.530762 C113.255926,229.165043 110.882284,227.871153 110.370903,226.115701 C109.859521,224.360248 110.4068,220.607212 111.721781,217.90089 C111.721781,217.90089 112.086424,216.310642 111.78224,212.313583 C111.636131,210.384729 109.997443,187.182996 109.883453,170.827149 C108.339231,150.520273 105.665814,131.893814 105.665814,131.893814 C105.665814,131.893814 105.465544,129.176772 103.355151,129.176772 L103.645479,129.176772 Z" id="Stroke-3" stroke="#7A7372" stroke-width="2" stroke-linecap="round" stroke-linejoin="round"></path>
                <path d="M69,132 L67,140" id="Stroke-5" stroke="#7A7372" stroke-width="2" stroke-linecap="round" stroke-linejoin="round"></path>
                <path d="M65,131 L64,140" id="Stroke-7" stroke="#7A7372" stroke-width="2" stroke-linecap="round" stroke-linejoin="round"></path>
                <path d="M63,131 L62,141" id="Stroke-9" stroke="#7A7372" stroke-width="2" stroke-linecap="round" stroke-linejoin="round"></path>
                <path d="M60,128 L60.3236678,126.225079 C60.3236678,126.225079 64.8990043,126.547404 66,123" id="Stroke-11" stroke="#7A7372" stroke-width="2" stroke-linecap="round" stroke-linejoin="round"></path>
                <path d="M82,237 L80.2415742,239.103283 C80.2415742,239.103283 78.1676274,241.156611 79.380663,242" id="Stroke-13" stroke="#7A7372" stroke-width="2" stroke-linecap="round" stroke-linejoin="round"></path>
                <path d="M78,238 L76.0800248,241.268056 C76.0800248,241.268056 75.7258777,242.499469 76.5076072,243" id="Stroke-15" stroke="#7A7372" stroke-width="2" stroke-linecap="round" stroke-linejoin="round"></path>
                <path d="M76,237 L74.311404,239.868942 C74.311404,239.868942 73.4927834,241.792491 74.5100983,242" id="Stroke-17" stroke="#7A7372" stroke-width="2" stroke-linecap="round" stroke-linejoin="round"></path>
                <path d="M74,237 L72,240" id="Stroke-19" stroke="#7A7372" stroke-width="2" stroke-linecap="round" stroke-linejoin="round"></path>
                <path d="M83,76 L82,71" id="Stroke-21" stroke="#7A7372" stroke-width="2" stroke-linecap="round" stroke-linejoin="round"></path>
                <path d="M138,132 L140,140" id="Stroke-23" stroke="#7A7372" stroke-width="2" stroke-linecap="round" stroke-linejoin="round"></path>
                <path d="M141,131 L142,140" id="Stroke-25" stroke="#7A7372" stroke-width="2" stroke-linecap="round" stroke-linejoin="round"></path>
                <path d="M144,131 L145,141" id="Stroke-27" stroke="#7A7372" stroke-width="2" stroke-linecap="round" stroke-linejoin="round"></path>
                <path d="M146,128 L145.676297,126.225079 C145.676297,126.225079 141.10046,126.547404 140,123" id="Stroke-29" stroke="#7A7372" stroke-width="2" stroke-linecap="round" stroke-linejoin="round"></path>
                <path d="M125,237 L126.758426,239.103283 C126.758426,239.103283 128.832373,241.156611 127.619337,242" id="Stroke-31" stroke="#7A7372" stroke-width="2" stroke-linecap="round" stroke-linejoin="round"></path>
                <path d="M128,238 L129.920201,241.268056 C129.920201,241.268056 130.273688,242.499469 129.4927,243" id="Stroke-33" stroke="#7A7372" stroke-width="2" stroke-linecap="round" stroke-linejoin="round"></path>
                <path d="M130,237 L131.688596,239.868942 C131.688596,239.868942 132.507217,241.792491 131.489902,242" id="Stroke-35" stroke="#7A7372" stroke-width="2" stroke-linecap="round" stroke-linejoin="round"></path>
                <path d="M132,237 L134,240" id="Stroke-37" stroke="#7A7372" stroke-width="2" stroke-linecap="round" stroke-linejoin="round"></path>
                <path d="M124,76 L125,71" id="Stroke-39" stroke="#7A7372" stroke-width="2" stroke-linecap="round" stroke-linejoin="round"></path>
                <circle id="Oval-Copy" fill="#BFBFBF" fill-rule="nonzero" cx="93.5" cy="60.5" r="2.5"></circle>
                <circle id="Oval-Copy-3" fill="#BFBFBF" fill-rule="nonzero" cx="103.5" cy="39.5" r="2.5"></circle>
                <circle id="Oval-Copy-4" fill="#BFBFBF" fill-rule="nonzero" cx="103.5" cy="102.5" r="2.5"></circle>
                <circle id="Oval-Copy-2" fill="#BFBFBF" fill-rule="nonzero" cx="103.5" cy="121.5" r="2.5"></circle>
                <path d="M103.5,121.5 L62.5,175.5" id="Line-3" stroke="#BFBFBF" stroke-linecap="square" fill-rule="nonzero"></path>
                <path d="M93.5,60.5 L68.5,44.5" id="Line-Copy" stroke="#BFBFBF" stroke-linecap="square" fill-rule="nonzero"></path>
                <path d="M104,40 L157,8 L104,40 Z" id="Line-Copy-2" stroke="#BFBFBF" stroke-linecap="square" fill-rule="nonzero"></path>
                <path d="M104,103 L157,71 L104,103 Z" id="Line-Copy-3" stroke="#BFBFBF" stroke-linecap="square" fill-rule="nonzero"></path>
            </g>
        </g>
    </g>
</svg>