<?xml version="1.0" encoding="UTF-8"?>
<svg width="224px" height="160px" viewBox="0 0 224 160" version="1.1" xmlns="http://www.w3.org/2000/svg" xmlns:xlink="http://www.w3.org/1999/xlink">
    <!-- Generator: Sketch 51.2 (57519) - http://www.bohemiancoding.com/sketch -->
    <title>Group 2</title>
    <desc>Created with Sketch.</desc>
    <defs></defs>
    <g id="Pages" stroke="none" stroke-width="1" fill="none" fill-rule="evenodd">
        <g id="チャット_気になる症状がある2.5" transform="translate(-74.000000, -422.000000)">
            <g id="Group-2" transform="translate(74.000000, 422.000000)">
                <g id="Group-31" transform="translate(60.000000, 9.000000)">
                    <path d="M8.14237082,72.9258977 C8.14237082,72.9258977 -1.20436012,68.4544623 0.130481719,83.8308018 C1.46532356,99.2061976 12.1468963,98.6286293 12.1468963,98.6286293 C12.1468963,98.6286293 18.7539377,119.582466 25.0525748,125.936661 C32.8203894,133.776301 46.9842817,138.137319 54.1911032,137.996702 C61.3988707,137.856085 74.1020997,133.772526 83.5415412,124.123738 C89.7994992,117.726132 95.8512237,98.6286293 95.8512237,98.6286293 C95.8512237,98.6286293 106.533742,99.175998 107.86953,83.7996584 C109.204372,68.4242626 99.8566952,72.9258977 99.8566952,72.9258977 C99.8566952,72.9258977 96.5560126,71.0714505 96.5295239,69.9295263 C96.5049272,68.7876022 95.2788783,53.4518434 93.666851,47.7242914 C92.0538777,41.9976831 65.3646091,25 47.631363,25 C29.8981169,25 11.4477836,49.2031304 9.47721266,54.9297387 C7.50758778,60.6572907 8.14237082,72.9258977 8.14237082,72.9258977" id="Fill-1" fill="#FDF5EC"></path>
                    <path d="M102.997501,72.8479476 C102.997501,72.8479476 108.286373,47.2450914 101.67362,28.2992253 C95.059917,9.35335924 75.8821737,6.84247279 75.8821737,6.84247279 C51.1922192,-7.76692679 24.1947389,3.55871303 13.4962972,17.1135022 C-1.27547863,35.8318847 3.86608394,73.0430695 3.86608394,73.0430695 L10.9359701,75 C10.9359701,75 12.0108513,57.8816176 17.1495627,53.5337293 C22.2882741,49.1848892 31.3026403,42.3375363 32.7548229,37.9963107 C32.7548229,37.9963107 34.5738526,45.4023787 41.1571435,47.7847702 C47.7404345,50.1671617 52.7109284,51.3578815 52.7109284,51.3578815 C52.7109284,51.3578815 48.7155256,42.3308736 48.8096134,36.5980953 C48.8096134,36.5980953 51.869841,45.1739432 60.8233828,48.0160611 C69.7778749,50.8572272 79.1191723,51.8242706 79.1191723,51.8242706 L73.1175147,43.2788807 C73.1175147,43.2788807 83.0413957,51.8166561 85.8706807,53.3776317 C88.700916,54.940511 94.5970813,58.0710287 95.6453519,62.7434857 C96.692672,67.4159427 97.1773664,73.7550267 97.1773664,73.7550267 L102.997501,72.8479476 Z" id="Fill-3" fill="#B9A892"></path>
                    <path d="M99.8566952,73.6168909 C99.8566952,73.6168909 109.204372,69.0938797 107.86953,84.5422861 C106.534688,99.9916408 95.8521697,99.4416729 95.8521697,99.4416729 C95.8521697,99.4416729 89.2678329,119.864443 83.0098749,126.291481 C73.5704335,135.987035 61.3998167,138.855401 54.1911032,138.996686 C46.9842817,139.137971 32.8213354,134.756245 25.0525748,126.879378 C18.7539377,120.49501 12.1478424,99.4416729 12.1478424,99.4416729 C12.1478424,99.4416729 1.46532356,100.021984 0.130481719,84.5735774 C-1.20436012,69.1242227 8.14237082,73.6168909 8.14237082,73.6168909" id="Stroke-5" stroke="#7A7372" stroke-width="2.5" stroke-linecap="round" stroke-linejoin="round"></path>
                    <path d="M3.86607854,73 C3.86607854,73 -1.27545194,35.8105234 13.4962317,17.1040122 C24.1946066,3.55617934 51.1919183,-7.76190205 75.8817188,6.83802342 C75.8817188,6.83802342 95.0602927,9.34744506 101.673955,28.2822585 C108.286666,47.2170719 102.996877,72.8049919 102.996877,72.8049919" id="Stroke-7" stroke="#7A7372" stroke-width="2.5" stroke-linecap="round" stroke-linejoin="round"></path>
                    <path d="M11,72 C11,72 12.0415016,57.6333431 16.9521108,53.6596667 C21.8627201,49.6859902 30.9402782,41.8912549 32.4285415,38.3754314 C32.4285415,38.3754314 35.4041256,45.5587598 40.7614967,48.0043873 C46.1188677,50.4500147 52.2198991,51.5192745 52.2198991,51.5192745 C52.2198991,51.5192745 48.2018708,41.1262941 48.3507914,37 C48.3507914,37 50.8805563,42.5026618 58.4698511,47.2403628 C66.0591458,51.9780637 78.4101292,51.9780637 78.4101292,51.9780637 C78.4101292,51.9780637 73.49952,46.9341912 72.4580184,43.5719216 C72.4580184,43.5719216 79.4525733,50.6026324 85.106843,53.507049 C90.7620552,56.4105294 91.3558525,57.4807255 93.8865599,60.9956127 C96.4163248,64.5105 95.9695631,71.6947647 95.9695631,71.6947647" id="Stroke-9" stroke="#7A7372" stroke-width="2.5" stroke-linecap="round" stroke-linejoin="round"></path>
                    <path d="M97,94 L96,99" id="Stroke-11" stroke="#7A7372" stroke-width="2.5" stroke-linecap="round" stroke-linejoin="round"></path>
                    <path d="M11,94 L13,101" id="Stroke-13" stroke="#7A7372" stroke-width="2.5" stroke-linecap="round" stroke-linejoin="round"></path>
                    <path d="M49,101 C49,101 53.5005248,105.5 59,101" id="Stroke-15" stroke="#7A7372" stroke-width="2.5" stroke-linecap="round" stroke-linejoin="round"></path>
                    <path d="M66,67.2995132 C66,67.2995132 75.7988331,63.9533151 82,68" id="Stroke-17" stroke="#7A7372" stroke-width="2.5" stroke-linecap="round" stroke-linejoin="round"></path>
                    <path d="M67,76.585397 C67,76.585397 72.9278752,70.5009917 81,77" id="Stroke-19" stroke="#7A7372" stroke-width="2.5" stroke-linecap="round" stroke-linejoin="round"></path>
                    <path d="M77,78 C77,80.2092803 75.6561573,82 74.0004682,82 C72.3429062,82 71,80.2092803 71,78 C71,75.7907197 72.3429062,74 74.0004682,74 C75.6561573,74 77,75.7907197 77,78" id="Fill-21" fill="#7A7372"></path>
                    <path d="M42,66.3510522 C42,66.3510522 32.0294049,62.9162414 26,67" id="Stroke-23" stroke="#7A7372" stroke-width="2.5" stroke-linecap="round" stroke-linejoin="round"></path>
                    <path d="M42,76.585397 C42,76.585397 36.0715628,70.5009917 28,77" id="Stroke-25" stroke="#7A7372" stroke-width="2.5" stroke-linecap="round" stroke-linejoin="round"></path>
                    <path d="M32,78 C32,80.2092803 33.3438427,82 34.9995318,82 C36.6570938,82 38,80.2092803 38,78 C38,75.7907197 36.6570938,74 34.9995318,74 C33.3438427,74 32,75.7907197 32,78" id="Fill-27" fill="#7A7372"></path>
                    <path d="M41,115.236251 C41,115.236251 46.7896691,118 54.5210013,118 C62.2513789,118 68,115 68,115" id="Stroke-29" stroke="#7A7372" stroke-width="2.5" stroke-linecap="round" stroke-linejoin="round"></path>
                </g>
                <path d="M193.5,1.25 L159.5,1.25" id="Line-2-Copy-6" stroke="#BFBFBF" stroke-linecap="square" fill-rule="nonzero"></path>
                <circle id="Oval-Copy-5" fill="#BFBFBF" fill-rule="nonzero" cx="113.5" cy="28.5" r="2.5"></circle>
                <path d="M114,29 L159,1 L114,29 Z" id="Line-Copy-4" stroke="#BFBFBF" stroke-linecap="square" fill-rule="nonzero"></path>
                <path d="M30.5,54.5 L0.5,54.5" id="Line-2-Copy-6" stroke="#BFBFBF" stroke-linecap="square" fill-rule="nonzero"></path>
                <circle id="Oval-Copy-5" fill="#BFBFBF" fill-rule="nonzero" cx="80.5" cy="87.5" r="2.5"></circle>
                <path d="M80.5,87.5 L31.5,54.5" id="Line-Copy-4" stroke="#BFBFBF" stroke-linecap="square" fill-rule="nonzero"></path>
                <path d="M172.5,159.5 L131.5,132.5" id="Line-Copy-6" stroke="#BFBFBF" stroke-linecap="square" fill-rule="nonzero"></path>
                <path d="M223.5,75.25 L190.5,75.25" id="Line-2-Copy-6" stroke="#BFBFBF" stroke-linecap="square" fill-rule="nonzero"></path>
                <path d="M205.5,159.25 L172.5,159.25" id="Line-2-Copy-8" stroke="#BFBFBF" stroke-linecap="square" fill-rule="nonzero"></path>
                <path d="M51.5,135.25 L18.5,135.25" id="Line-2-Copy-7" stroke="#BFBFBF" stroke-linecap="square" fill-rule="nonzero"></path>
                <circle id="Oval-Copy-5" fill="#BFBFBF" fill-rule="nonzero" cx="161.5" cy="93.5" r="2.5"></circle>
                <circle id="Oval-Copy-6" fill="#BFBFBF" fill-rule="nonzero" cx="103.5" cy="105.5" r="2.5"></circle>
                <circle id="Oval-Copy-7" fill="#BFBFBF" fill-rule="nonzero" cx="130.5" cy="131.5" r="2.5"></circle>
                <path d="M52,135 L104,105 L52,135 Z" id="Line-Copy-5" stroke="#BFBFBF" stroke-linecap="square" fill-rule="nonzero"></path>
                <path d="M162,94 L191,75 L162,94 Z" id="Line-Copy-4" stroke="#BFBFBF" stroke-linecap="square" fill-rule="nonzero"></path>
            </g>
        </g>
    </g>
</svg>