<svg xmlns="http://www.w3.org/2000/svg" viewBox="0 0 122.53 356.06"><defs><style>.cls-1{fill:#6a6a6a;}.cls-2{fill:#fdf3ea;}</style></defs><title>img2</title><g id="レイヤー_2" data-name="レイヤー 2"><g id="レイヤー_1-2" data-name="レイヤー 1"><path class="cls-1" d="M62.36,356.06a26.94,26.94,0,0,1-26.91-26.91V248.7a4,4,0,0,0-4-4H3a3,3,0,0,1-2.18-.94A3,3,0,0,1,0,241.54l5.72-103v-.21A54.69,54.69,0,0,1,22,99.43a55.54,55.54,0,0,1,94.8,39.2v.21l5.71,102.69a3,3,0,0,1-3,3.17H93.27a4,4,0,0,0-4,4v80.45A26.94,26.94,0,0,1,62.36,356.06Z"/><path class="cls-2" d="M62.36,344.86a15.73,15.73,0,0,1-15.7-15.71V237.49a4,4,0,0,0-4-4H14.85a3,3,0,0,1-3-3.16l5.08-91.48v-.22a44.34,44.34,0,1,1,88.68.31v.21l5.07,91.18a3,3,0,0,1-.82,2.22,3,3,0,0,1-2.18.94H82.07a4,4,0,0,0-4,4v91.66A15.73,15.73,0,0,1,62.36,344.86Z"/><path class="cls-1" d="M25.92,76.7a3,3,0,0,1-3-3V38.35a38.35,38.35,0,1,1,76.69,0V73.7a3,3,0,0,1-3,3Z"/><path class="cls-2" d="M37.12,65.49a3,3,0,0,1-3-3V38.35a27.14,27.14,0,0,1,54.28,0V62.49a3,3,0,0,1-3,3Z"/></g></g></svg>