<svg xmlns="http://www.w3.org/2000/svg" viewBox="0 0 111.08 356.06"><defs><style>.cls-1{fill:#6a6a6a;}.cls-2{fill:#fdf4eb;}</style></defs><title>img1</title><g id="レイヤー_2" data-name="レイヤー 2"><g id="レイヤー_1-2" data-name="レイヤー 1"><path class="cls-1" d="M54.9,356.06A26.94,26.94,0,0,1,28,329.15V226.29a4,4,0,0,0-4-4H3a3,3,0,0,1-3-3V138.72a55.54,55.54,0,0,1,111.08,0v80.57a3,3,0,0,1-3,3H85.81a4,4,0,0,0-4,4V329.15A26.94,26.94,0,0,1,54.9,356.06Z"/><path class="cls-2" d="M54.9,344.86a15.73,15.73,0,0,1-15.7-15.71V215.08a4,4,0,0,0-4-4h-21a3,3,0,0,1-3-3V138.72a44.33,44.33,0,0,1,88.66,0v69.36a3,3,0,0,1-3,3H74.6a4,4,0,0,0-4,4V329.15A15.72,15.72,0,0,1,54.9,344.86Z"/><circle class="cls-1" cx="55.54" cy="38.35" r="38.35" transform="translate(-10.45 24.17) rotate(-22.5)"/><path class="cls-2" d="M55.54,65.49A27.14,27.14,0,1,1,82.68,38.35,27.18,27.18,0,0,1,55.54,65.49Z"/></g></g></svg>