<svg xmlns="http://www.w3.org/2000/svg" xmlns:xlink="http://www.w3.org/1999/xlink" width="247" height="56.5" viewBox="0 0 494 113">
  <defs>
    <style>
      .cls-1 {
        fill: #333;
        fill-rule: evenodd;
        filter: url(#filter);
      }
    </style>
    <filter id="filter" x="25" y="629" width="494" height="113" filterUnits="userSpaceOnUse">
      <feGaussianBlur result="blur" stdDeviation="3.333" in="SourceAlpha"/>
      <feComposite result="composite"/>
      <feComposite result="composite-2"/>
      <feComposite result="composite-3"/>
      <feFlood result="flood" flood-color="#fff" flood-opacity="0.2"/>
      <feComposite result="composite-4" operator="in" in2="composite-3"/>
      <feBlend result="blend" mode="screen" in2="SourceGraphic"/>
      <feBlend result="blend-2" in="SourceGraphic"/>
    </filter>
  </defs>
  <path id="tagline_sp.svg" class="cls-1" d="M38.254,643.32h20.9c3.316,0,4.457.072,4.671,0.072,0.357,0,.392-0.036.392-0.4V640.15c0-.36-0.036-0.4-0.392-0.4-0.214,0-1.355.072-4.671,0.072H39.537c-3.316,0-4.529-.072-4.743-0.072-0.357,0-.392.036-0.392,0.4,0,0.216.071,2.665,0.071,7.6v15.6c0,4.971-.071,7.42-0.071,7.637,0,0.36.036,0.4,0.392,0.4h3.031c0.392,0,.428-0.036.428-0.4v-1.154H59.292c3.423,0,4.636.072,4.885,0.072,0.357,0,.392-0.036.392-0.4v-2.845c0-.36-0.036-0.4-0.392-0.4-0.25,0-1.462.072-4.885,0.072H38.254V643.32ZM48.2,656.61c-1.319,2.846-3.994,4.538-8.986,5.979a7.487,7.487,0,0,1,1.676,2.161c0.285,0.576.392,0.792,0.678,0.792a3.721,3.721,0,0,0,.856-0.252c4.564-1.584,7.274-3.817,8.808-6.843a16.423,16.423,0,0,0,9.485,6.843,3.785,3.785,0,0,0,.82.18c0.321,0,.428-0.216.642-0.792a12.4,12.4,0,0,1,1.5-2.485c-4.85-1.153-7.881-2.917-9.842-5.583h3.922c3.495,0,4.671.072,4.885,0.072,0.392,0,.428-0.036.428-0.4v-2.413c0-.324-0.036-0.36-0.428-0.36-0.214,0-1.391.072-4.885,0.072h-5.1a29.372,29.372,0,0,0,.321-3.674h3.138c3.174,0,4.279.072,4.493,0.072,0.357,0,.392-0.036.392-0.433v-2.377c0-.36-0.036-0.4-0.392-0.4-0.214,0-1.319.072-4.493,0.072H47.347a1.944,1.944,0,0,0,.25-0.468,2.7,2.7,0,0,1,.606-1.008,0.667,0.667,0,0,0,.321-0.5,0.528,0.528,0,0,0-.464-0.468,20.866,20.866,0,0,0-3.138-.828,9.28,9.28,0,0,1-.856,2.3,20.176,20.176,0,0,1-4.03,5.042,7.86,7.86,0,0,1,1.926,1.3,1.686,1.686,0,0,0,.892.612,1.3,1.3,0,0,0,.785-0.576,20.569,20.569,0,0,0,1.854-2.341h3.922a27.09,27.09,0,0,1-.321,3.674H45.207c-3.459,0-4.671-.072-4.885-0.072-0.357,0-.392.036-0.392,0.36v2.413c0,0.36.036,0.4,0.392,0.4,0.214,0,1.426-.072,4.885-0.072h3Zm52.113-4.034c0-3.062.071-4.646,0.071-4.862,0-.361-0.036-0.4-0.392-0.4-0.25,0-1.284.072-4.315,0.072h-1.6v-3.961h2.567c3.281,0,4.421.072,4.635,0.072,0.357,0,.393-0.036.393-0.4v-2.737c0-.36-0.036-0.4-0.393-0.4-0.214,0-1.355.072-4.635,0.072h-8.38c-3.245,0-4.35-.072-4.564-0.072-0.357,0-.392.036-0.392,0.4V643.1c0,0.361.036,0.4,0.392,0.4,0.214,0,1.319-.072,4.564-0.072h2.282v3.961H89.153c-3.031,0-4.065-.072-4.315-0.072-0.357,0-.392.036-0.392,0.4,0,0.216.071,1.62,0.071,4.574v9.329c0,2.953-.071,4.25-0.071,4.5,0,0.36.036,0.4,0.392,0.4h2.817c0.357,0,.392-0.036.392-0.4,0-.216-0.071-1.549-0.071-4.358V650.6h2.567v14.443c0,3.854-.071,5.763-0.071,5.98,0,0.36.036,0.4,0.392,0.4h2.853c0.392,0,.428-0.036.428-0.4,0-.181-0.071-2.126-0.071-6.016V650.6H96.82v11.742c0,0.828-.107,1.044-0.571,1.044a12.646,12.646,0,0,1-1.5-.108,4.77,4.77,0,0,1,.571,2.2c0.071,1.153.071,1.153,1.212,1.117,1.462-.036,2.674-0.216,3.245-0.829,0.5-.54.642-1.368,0.642-2.845s-0.107-3.385-.107-4.97v-5.367ZM77.529,643.32c0.392-.829.713-1.657,1.07-2.486a2.774,2.774,0,0,1,.5-0.9,0.8,0.8,0,0,0,.321-0.576,0.466,0.466,0,0,0-.464-0.432c-1.07-.181-2.211-0.361-3.495-0.469a11.314,11.314,0,0,1-.428,2.089,26.884,26.884,0,0,1-1.07,2.774c-1.89,0-2.888-.072-3.1-0.072-0.357,0-.392.036-0.392,0.4,0,0.252.071,2.2,0.071,6.087v14.515c0,3.962-.071,5.8-0.071,6.051,0,0.36.036,0.4,0.392,0.4h2.71c0.321,0,.357-0.036.357-0.4v-1.945H79.24v1.188c0,0.36.036,0.4,0.392,0.4h2.639c0.392,0,.428-0.036.428-0.4,0-.216-0.071-1.116-0.071-3.277v-5.4c0-2.161.071-3.133,0.071-3.349,0-.36-0.036-0.4-0.428-0.4-0.214,0-1.212.072-3.245,0.072h-5.1v-3.026h4.778c2.068,0,2.888.072,3.1,0.072,0.357,0,.392-0.036.392-0.4,0-.216-0.071-1.153-0.071-3.206v-3.782c0-2.017.071-2.989,0.071-3.205,0-.36-0.036-0.4-0.392-0.4-0.214,0-1.034.072-3.1,0.072H77.529ZM79.24,660.5V665H73.927v-4.5H79.24Zm-0.5-9.581H73.927V646.6h4.814v4.322Zm31.542,0.324a3.6,3.6,0,1,0,3.566,3.6A3.594,3.594,0,0,0,110.283,651.243ZM145.855,663.6c0.321-.361.321-0.433,0.036-0.721a40.477,40.477,0,0,0-5.206-4.358,14.164,14.164,0,0,0,.321-1.693h5.17v9.761a1.017,1.017,0,0,1-1.212,1.224,29.926,29.926,0,0,1-3.031-.072,6.207,6.207,0,0,1,.82,2.089c0.25,1.118.25,1.118,1.319,1.081,3.174,0,4.173-.216,4.779-0.793a3.322,3.322,0,0,0,.856-2.665c0-1.116-.107-2.665-0.107-4.646v-4.358c0-2.737.071-4.106,0.071-4.322,0-.4-0.036-0.432-0.392-0.432-0.214,0-1.427.072-4.779,0.072h-3.316c0.036-1.045.036-2.054,0.071-3.1h4.173c3.423,0,4.635.072,4.849,0.072,0.357,0,.392-0.036.392-0.4v-2.557c0-.361-0.035-0.4-0.392-0.4-0.214,0-1.426.072-4.849,0.072H134.516c-3.423,0-4.636-.072-4.85-0.072-0.321,0-.356.036-0.356,0.4v2.557c0,0.36.035,0.4,0.356,0.4,0.214,0,1.427-.072,4.85-0.072h3.494c0,1.044-.035,2.053-0.071,3.1h-2.924c-3.352,0-4.564-.072-4.778-0.072-0.392,0-.428.036-0.428,0.432,0,0.216.071,1.4,0.071,4.034v8.752c0,2.629-.071,3.746-0.071,3.926,0,0.361.036,0.4,0.428,0.4h2.817c0.321,0,.356-0.036.356-0.4,0-.18-0.071-1.369-0.071-3.926v-2.845a12.133,12.133,0,0,1,1.32,1.26,1.415,1.415,0,0,0,.748.721,1.682,1.682,0,0,0,.749-0.5,13.745,13.745,0,0,0,3.5-4.214,42.854,42.854,0,0,1,4.029,4.034c0.286,0.324.321,0.324,0.678-.072Zm-8.13-6.772a8.893,8.893,0,0,1-.927,2.99,10.354,10.354,0,0,1-3.459,3.673v-6.663h4.386ZM127.741,644.9H146.1c3.5,0,4.636.072,4.85,0.072,0.356,0,.392-0.036.392-0.432v-2.629c0-.36-0.036-0.4-0.392-0.4-0.214,0-1.355.072-4.85,0.072h-7.06v-0.576a3.979,3.979,0,0,1,.178-1.585,1.51,1.51,0,0,0,.214-0.721,0.545,0.545,0,0,0-.571-0.324c-1.283-.108-2.5-0.18-3.815-0.216a14.235,14.235,0,0,1,.249,2.882v0.54h-5.883c-3.459,0-4.707-.072-4.921-0.072-0.357,0-.393.036-0.393,0.4,0,0.216.072,2.881,0.072,8.968,0,1.153,0,2.233-.036,3.242-0.891.468-1.926,0.937-2.995,1.4a17.72,17.72,0,0,1-2.746.828c0.25,1.189.57,2.413,0.856,3.314a0.552,0.552,0,0,0,.463.432,0.8,0.8,0,0,0,.571-0.288,4.238,4.238,0,0,1,1.105-.793c0.82-.4,1.641-0.864,2.5-1.368a23.866,23.866,0,0,1-.463,2.989,16.775,16.775,0,0,1-3.851,7.816,9.791,9.791,0,0,1,2.068,2.017,1.1,1.1,0,0,0,.713.613,1.151,1.151,0,0,0,.642-0.649,23.286,23.286,0,0,0,3.709-8.32,49.194,49.194,0,0,0,1.034-11.238V644.9Zm-8.559.36c-0.392.181-.356,0.325-0.214,0.613a45.008,45.008,0,0,1,2,5.69c0.107,0.4.179,0.433,0.678,0.144l1.819-1.08c0.463-.252.463-0.36,0.356-0.72a31.454,31.454,0,0,0-2.068-5.367c-0.178-.324-0.25-0.288-0.678-0.108Zm40.1-5.726c-1.747,0-2.6-.072-2.853-0.072-0.356,0-.392.036-0.392,0.4,0,0.252.071,2.737,0.071,7.816v15.6c0,5.007-.071,7.492-0.071,7.709,0,0.324.036,0.36,0.392,0.36h2.817c0.357,0,.392-0.036.392-0.36,0-.217-0.071-2.81-0.071-7.745V642.851h3.566a44.923,44.923,0,0,1-3.031,8.392c2.71,3.494,3.174,5.511,3.174,7.276,0,1.873-.963,2.629-3.21,2.521a4.2,4.2,0,0,1,.749,2.161c0.107,1.117.107,1.117,1.213,1.045,3.28-.288,4.635-2.2,4.635-5.043,0-2.593-.285-4.682-3.066-8.212a46.109,46.109,0,0,0,2.745-7.131,2.411,2.411,0,0,1,.678-1.4,0.937,0.937,0,0,0,.321-0.648,2.549,2.549,0,0,0-.856-1.441c-0.82-.9-1.1-1.044-1.355-1.044a0.888,0.888,0,0,0-.464.108,1.624,1.624,0,0,1-.713.108h-4.671ZM177,657.439v10.012c0,1.8.357,2.485,1.035,2.954,0.534,0.4,1.747.541,3.53,0.541,2.032,0,3.28-.145,4.243-0.83,1.034-.684,1.5-1.728,1.676-4.718,0.036-.936.036-1.008-0.891-1.188a7.489,7.489,0,0,1-2.389-.9c-0.072,2.558-.107,3.314-0.464,3.818-0.25.324-.5,0.432-1.462,0.432a2.416,2.416,0,0,1-1.391-.216c-0.285-.216-0.285-0.432-0.285-1.188v-8.716h1c3.352,0,4.529.072,4.743,0.072,0.357,0,.392-0.036.392-0.4v-2.558c0-.4-0.035-0.432-0.392-0.432-0.214,0-1.391.072-4.743,0.072h-9.485c-3.387,0-4.529-.072-4.743-0.072-0.356,0-.392.036-0.392,0.432v2.558c0,0.36.036,0.4,0.392,0.4,0.179,0,1.177-.036,3.78-0.072-0.107,6.555-2.389,9.652-8.166,11.165a9.309,9.309,0,0,1,2.069,2.053,1.186,1.186,0,0,0,.784.721,2.832,2.832,0,0,0,.856-0.288c5.741-2.414,7.881-6.7,8.059-13.651H177Zm2.247-6.16c2.674,0,3.566.072,3.78,0.072,0.356,0,.392-0.036.392-0.4v-1.729h2.639c0.392,0,.428-0.036.428-0.4,0-.252-0.072-0.684-0.072-3.385v-1.261c0-.792.072-1.333,0.072-1.549,0-.324-0.036-0.36-0.428-0.36-0.214,0-1.426.072-4.778,0.072h-3.031v-0.432a5.325,5.325,0,0,1,.213-2.125,1.389,1.389,0,0,0,.179-0.684,0.547,0.547,0,0,0-.571-0.325c-1.212-.144-2.425-0.252-3.744-0.288a16.657,16.657,0,0,1,.25,3.494v0.36H172.4c-3.352,0-4.564-.072-4.778-0.072-0.392,0-.428.036-0.428,0.36,0,0.252.072,0.757,0.072,1.8v1.009c0,2.7-.072,3.133-0.072,3.385,0,0.36.036,0.4,0.428,0.4h2.639v1.729c0,0.36.036,0.4,0.392,0.4,0.214,0,1.106-.072,3.816-0.072h4.778Zm-8.523-5.834h12.2v2.629c-0.321.036-1.284,0.072-3.673,0.072h-4.778c-2.532,0-3.459-.072-3.745-0.072v-2.629Zm26.939-5.475a16.26,16.26,0,0,1,.927,4.178,55.049,55.049,0,0,0,1.854,8.788c-4.172,2.666-6.775,5.295-6.775,9.293,0,4.682,3.566,6.915,10.3,6.915a75.494,75.494,0,0,0,10.627-.54,0.559,0.559,0,0,0,.642-0.612,32.356,32.356,0,0,0-.357-3.35,0.446,0.446,0,0,0-.642-0.432,61.7,61.7,0,0,1-10.876.828c-4.1,0-5.67-.9-5.67-3.025,0-1.693,1.106-3.386,4.208-5.439a49.523,49.523,0,0,1,8.38-4.214,16.946,16.946,0,0,1,3.423-1.081,0.713,0.713,0,0,0,.713-0.72,1.463,1.463,0,0,0-.249-0.756,18.479,18.479,0,0,0-2.6-3.386,8.847,8.847,0,0,1-2.461,1.945c-2,1.08-3.28,1.765-5.063,2.737a51.041,51.041,0,0,1-1.141-6.2c-0.072-.828-0.179-1.692-0.179-2.413,0-.5.25-1.008,0.25-1.513a0.656,0.656,0,0,0-.642-0.576A20.447,20.447,0,0,0,197.663,639.97Zm31.468,1.225c-3.5,0-4.743-.072-4.957-0.072-0.356,0-.392.036-0.392,0.4,0,0.216.071,0.792,0.071,2.3V646.2c0,1.441-.071,2.017-0.071,2.269,0,0.36.036,0.4,0.392,0.4,0.214,0,1.391-.072,4.885-0.072h4.814v1.981h-5.99c-3.424,0-4.636-.072-4.886-0.072-0.356,0-.392.036-0.392,0.4,0,0.216.072,0.792,0.072,2.233v2.306c0,1.513-.072,2.089-0.072,2.3,0,0.4.036,0.432,0.392,0.432,0.25,0,1.462-.072,4.886-0.072h5.955c-0.036.828-.036,1.3-0.036,1.4,0,0.324.036,0.36,0.357,0.36h1.89l-1.534,1.044c-0.392.252-.428,0.361-0.178,0.649a16.283,16.283,0,0,1,2.71,3.421,0.432,0.432,0,0,0,.285.324,0.911,0.911,0,0,0,.428-0.216l1.926-1.44c0.356-.252.321-0.361,0.107-0.613a25.9,25.9,0,0,0-2.817-3.169h0.071c0.357,0,.392-0.036.392-0.36,0-.108-0.035-0.577-0.035-1.4h6.49c3.423,0,4.635.072,4.885,0.072,0.357,0,.392-0.036.392-0.432,0-.216-0.071-0.792-0.071-2.3v-2.306c0-1.441.071-2.017,0.071-2.233,0-.36-0.035-0.4-0.392-0.4-0.25,0-1.462.072-4.885,0.072h-6.526v-1.981h5.278c3.494,0,4.742.072,4.992,0.072,0.356,0,.392-0.036.392-0.4,0-.216-0.071-0.828-0.071-2.269v-2.377c0-1.513.071-2.089,0.071-2.3,0-.36-0.036-0.4-0.392-0.4-0.25,0-1.5.072-4.992,0.072h-5.278a4.685,4.685,0,0,1,.214-1.513A1.5,1.5,0,0,0,237.76,639a0.5,0.5,0,0,0-.535-0.4c-1.212-.144-2.353-0.18-3.637-0.216a19.2,19.2,0,0,1,.285,2.81h-4.742Zm16.474,14.479h-8.237v-2.306h8.237v2.306Zm-19.434,0v-2.306h7.7v2.306h-7.7Zm18.293-9.545h-7.1v-2.305h7.1v2.305Zm-17.152,0v-2.305h6.561v2.305h-6.561Zm5.028,17.288a2.744,2.744,0,0,1,.214-1.26,1.272,1.272,0,0,0,.178-0.648q0-.217-0.642-0.325a27.347,27.347,0,0,0-3.53-.324,14.829,14.829,0,0,1,.179,2.846v3.133c0,1.873.5,2.629,1.319,3.1,1,0.577,3.031.721,6.169,0.721,3.281,0,5.242-.108,6.561-0.865,1-.576,1.712-1.692,2.033-3.853,0.142-.973.071-0.973-0.82-1.261a8.931,8.931,0,0,1-2.568-1.08c-0.071,1.728-.392,3.1-1,3.421-0.749.432-1.748,0.4-3.923,0.4a11.446,11.446,0,0,1-3.6-.324,1.454,1.454,0,0,1-.571-1.441v-2.233Zm-9.913,6.267a0.86,0.86,0,0,0,.463.216,0.383,0.383,0,0,0,.286-0.216,23.724,23.724,0,0,0,3.387-6.879c0.107-.36.072-0.432-0.356-0.648L224,661.148c-0.464-.252-0.5-0.216-0.642.18a19,19,0,0,1-3.281,6.267c-0.178.252-.214,0.4,0.214,0.685Zm22.822-7.707c-0.428.252-.464,0.36-0.25,0.648a21.131,21.131,0,0,1,3.6,6.519c0.107,0.36.214,0.324,0.713,0.072l2.246-1.224c0.428-.253.428-0.361,0.286-0.721a27.467,27.467,0,0,0-3.887-6.339,0.5,0.5,0,0,0-.321-0.216,1.186,1.186,0,0,0-.428.18Zm17.523,2.2c0,5.366-.071,6.591-0.071,6.772,0,0.36.036,0.4,0.392,0.4h2.96c0.357,0,.392-0.036.392-0.4v-1.3h11.946V670.8c0,0.325.036,0.361,0.392,0.361h2.96c0.392,0,.428-0.036.428-0.361,0-.216-0.071-1.261-0.071-6.591v-3.6c0-3.566.071-4.646,0.071-4.862,0-.4-0.036-0.432-0.428-0.432-0.214,0-1.747.072-4.778,0.072h-6.954c1.5-.9,2.924-1.837,4.35-2.846h7.667c3.138,0,4.244.072,4.458,0.072,0.321,0,.356-0.036.356-0.4v-2.594c0-.324-0.035-0.36-0.356-0.36-0.214,0-1.32.072-4.458,0.072H278a52.414,52.414,0,0,0,4.885-4.9,4.011,4.011,0,0,1,1.462-1.333,0.62,0.62,0,0,0,.392-0.5,0.782,0.782,0,0,0-.428-0.648,19.994,19.994,0,0,0-3.066-1.8,10.371,10.371,0,0,1-1.605,2.665,33.223,33.223,0,0,1-2.567,2.918V643c0-.36-0.036-0.4-0.428-0.4-0.214,0-1.284.072-4.493,0.072h-1.07v-0.4a6.571,6.571,0,0,1,.249-2.485,1.785,1.785,0,0,0,.179-0.72c0-.216-0.214-0.325-0.571-0.361-1.212-.144-2.5-0.216-3.851-0.252a17.011,17.011,0,0,1,.285,3.71v0.5h-3.245c-3.209,0-4.314-.072-4.528-0.072-0.357,0-.393.036-0.393,0.4v2.558c0,0.36.036,0.4,0.393,0.4,0.214,0,1.319-.072,4.528-0.072h3.245v3.457h-7.559c-3.138,0-4.208-.072-4.422-0.072-0.357,0-.392.036-0.392,0.36v2.594c0,0.36.035,0.4,0.392,0.4,0.214,0,1.284-.072,4.422-0.072h8.843a72.955,72.955,0,0,1-14.335,6.267,8.624,8.624,0,0,1,1.569,2.089c0.357,0.649.5,0.9,0.785,0.9a3.011,3.011,0,0,0,.784-0.252c1.819-.721,3.566-1.513,5.313-2.3v4.934Zm3.673,2.485v-2.737h11.946v2.737H266.445Zm11.946-8.284V661H266.445v-2.629h11.946Zm-1.533-12.426a33.991,33.991,0,0,1-3.78,3.385h-2v-3.457h1.07c3.209,0,4.279.072,4.493,0.072h0.214Zm30.682,11.6c3.031-1.261,5.349-2.053,7.667-2.882a11.325,11.325,0,0,1,2.175-.54,0.519,0.519,0,0,0,.535-0.5,1.431,1.431,0,0,0-.285-0.793,22.153,22.153,0,0,0-2.5-3.17,10.724,10.724,0,0,1-2.71,1.945c-1.819.937-3.851,1.873-5.242,2.522-0.357-2.81-2-3.89-4.351-3.89a7.046,7.046,0,0,0-3.565,1.116l-0.036-.072a37.032,37.032,0,0,0,2.674-4c2.6-.288,5.67-0.684,8.345-1.08,0.5-.072.641-0.216,0.606-0.576a12.307,12.307,0,0,0-.357-2.594,0.394,0.394,0,0,0-.57-0.36,56.678,56.678,0,0,1-6.49,1.117c0.428-.973.606-1.441,0.82-1.945a2.815,2.815,0,0,1,.606-0.865,0.7,0.7,0,0,0,.25-0.54,0.646,0.646,0,0,0-.428-0.612,22.337,22.337,0,0,0-4.065-1.008,8.838,8.838,0,0,1-.25,2.2,28.147,28.147,0,0,1-1.07,3.1,77.9,77.9,0,0,1-8.2.036c0.107,1.08.249,2.413,0.356,2.989,0.072,0.4.178,0.577,0.5,0.577,2.1,0,4.03-.036,5.706-0.108a36.714,36.714,0,0,1-7.453,8.932,0.5,0.5,0,0,0-.249.4,0.588,0.588,0,0,0,.142.325,17.127,17.127,0,0,0,2.033,2.377,0.707,0.707,0,0,0,.392.252,0.636,0.636,0,0,0,.428-0.324,48.214,48.214,0,0,1,3.566-3.926c1.64-1.441,3.245-2.522,4.921-2.594,1.6-.072,2.032.649,2.139,2.486-5.384,2.809-7.524,5.33-7.524,8.788,0,4.178,3.1,5.943,8.951,5.943a62.671,62.671,0,0,0,8.843-.469c0.285,0,.428-0.252.392-0.684a16.208,16.208,0,0,0-.321-2.953,0.381,0.381,0,0,0-.5-0.4,60.231,60.231,0,0,1-8.879.721c-3.744,0-4.957-.973-4.957-2.485,0-1.729,1.142-3.134,4.315-4.791-0.035,1.3-.035,3.1-0.035,4.395a0.47,0.47,0,0,0,.463.576,19.113,19.113,0,0,0,2.532-.18,0.63,0.63,0,0,0,.677-0.649v-5.8Zm14.1-7.853a20.953,20.953,0,0,0,2.283,3.746,1.346,1.346,0,0,0,1.034.757,1.7,1.7,0,0,0,.963-0.54,22.307,22.307,0,0,1,2.46-1.3c5.42-2.413,9.664-3.71,12.873-3.71,3.958,0,6.133,2.089,6.133,5.475,0,3.314-1.89,5.619-4.921,7.167-2.424,1.189-4.956,1.873-9.663,2.666a6.661,6.661,0,0,1,2.5,2.845c0.25,0.684.535,0.72,1.248,0.576,3.281-.72,6.062-1.3,9.057-2.989,4.244-2.3,6.276-5.295,6.276-10.013,0-5.655-4.1-9.545-10.483-9.545-2.889,0-7.346,1.117-12.838,2.99C324.53,649.19,323.21,649.514,321.641,649.694ZM373.826,660.5a18.2,18.2,0,0,0-2.817-.216c-4.029,0-6.6,2.125-6.6,5.258,0,3.1,2.639,5.115,6.562,5.115,4.065,0,6.632-1.657,6.632-5.259a26.539,26.539,0,0,1,4.351,3.026,0.552,0.552,0,0,0,.356.216,0.4,0.4,0,0,0,.321-0.252,22.158,22.158,0,0,0,1.64-2.918,0.48,0.48,0,0,0-.213-0.756,27.885,27.885,0,0,0-6.419-3.35,47.534,47.534,0,0,1-.392-6.122,3.784,3.784,0,0,1,.142-1.477,4.535,4.535,0,0,0,.214-0.757,0.551,0.551,0,0,0-.5-0.576,19.161,19.161,0,0,0-3.887-.685,12.726,12.726,0,0,1,.285,2.558C373.541,656,373.612,658.2,373.826,660.5Zm0.072,3.422a4.264,4.264,0,0,1,.035.72c0,1.513-1.176,2.557-3.1,2.557-2.033,0-3.031-.576-3.031-1.729,0-1.368,1.391-2.089,3.174-2.089A9.013,9.013,0,0,1,373.9,663.922Zm-5.813-18.477c0.321-1.081.606-2.2,0.856-3.062a3.974,3.974,0,0,1,.571-1.332,0.893,0.893,0,0,0,.321-0.685,0.611,0.611,0,0,0-.571-0.54,32.689,32.689,0,0,0-4.172-.756,14.074,14.074,0,0,1-.214,2.917c-0.25,1.3-.5,2.521-0.927,4.034-1.64.144-2.71,0.18-4.1,0.18-1.034,0-1.854-.036-3.316-0.144a19,19,0,0,0,.356,3.061c0.072,0.468.143,0.576,0.5,0.576,0.891,0.037,1.176.037,1.961,0.037,1.105,0,2.211,0,3.566-.073a72.987,72.987,0,0,1-6.169,12.571,0.692,0.692,0,0,0-.179.432,0.5,0.5,0,0,0,.25.4,16.863,16.863,0,0,0,2.46,1.837,0.987,0.987,0,0,0,.428.18,0.519,0.519,0,0,0,.393-0.36,99.99,99.99,0,0,0,6.953-15.452c2.211-.324,3.958-0.576,5.884-0.972a0.38,0.38,0,0,0,.428-0.432,19.826,19.826,0,0,0-.321-2.918c-0.071-.4-0.214-0.4-0.535-0.288A38.216,38.216,0,0,1,368.085,645.445ZM376,648.866a30.724,30.724,0,0,1,7.381,3.926,0.5,0.5,0,0,0,.321.144,0.4,0.4,0,0,0,.321-0.252,22.053,22.053,0,0,0,1.5-2.665,0.865,0.865,0,0,0,.142-0.433,0.534,0.534,0,0,0-.321-0.4,27.7,27.7,0,0,0-6.989-3.385,0.5,0.5,0,0,0-.749.252C377.143,646.705,376.608,647.786,376,648.866Zm26.262-9.58a10.377,10.377,0,0,1-1.925,2.7c-3.067,3.386-6.027,6.375-9.058,9.688-1.105,1.189-1.747,1.982-1.747,3.17s0.535,1.981,1.89,3.026a90.345,90.345,0,0,1,12.98,12.173,0.635,0.635,0,0,0,.428.325,0.9,0.9,0,0,0,.5-0.289c0.606-.54,1.64-1.584,2.461-2.485a0.616,0.616,0,0,0,.249-0.432,0.868,0.868,0,0,0-.249-0.468,99.159,99.159,0,0,0-13.266-11.345,0.9,0.9,0,0,1-.463-0.649,1.578,1.578,0,0,1,.463-0.792c2.746-2.882,6.669-6.592,9.735-9.365a6.758,6.758,0,0,1,1.712-1.26,0.724,0.724,0,0,0,.5-0.685,0.886,0.886,0,0,0-.285-0.576A28.424,28.424,0,0,0,402.264,639.286Zm3.745,8.356a17.838,17.838,0,0,1,3.6,4.177,0.37,0.37,0,0,0,.606.109l1.5-1.117a0.364,0.364,0,0,0,.107-0.576,16.488,16.488,0,0,0-3.388-3.854,0.363,0.363,0,0,0-.534-0.072Zm3.28-2.378a17.017,17.017,0,0,1,3.566,4.142,0.364,0.364,0,0,0,.606.108l1.427-1.116A0.419,0.419,0,0,0,415,647.75a14.971,14.971,0,0,0-3.388-3.71,0.362,0.362,0,0,0-.535-0.072ZM38.254,703.319h20.9c3.316,0,4.457.072,4.671,0.072,0.357,0,.392-0.036.392-0.4V700.15c0-.36-0.036-0.4-0.392-0.4-0.214,0-1.355.072-4.671,0.072H39.537c-3.316,0-4.529-.072-4.743-0.072-0.357,0-.392.036-0.392,0.4,0,0.216.071,2.665,0.071,7.6v15.6c0,4.97-.071,7.419-0.071,7.635,0,0.36.036,0.4,0.392,0.4h3.031c0.392,0,.428-0.036.428-0.4v-1.152H59.292c3.423,0,4.636.072,4.885,0.072,0.357,0,.392-0.036.392-0.4v-2.846c0-.36-0.036-0.4-0.392-0.4-0.25,0-1.462.072-4.885,0.072H38.254V703.319ZM48.2,716.61c-1.319,2.845-3.994,4.538-8.986,5.979a7.5,7.5,0,0,1,1.676,2.161c0.285,0.577.392,0.793,0.678,0.793a3.721,3.721,0,0,0,.856-0.252c4.564-1.585,7.274-3.819,8.808-6.844a16.433,16.433,0,0,0,9.485,6.844,3.785,3.785,0,0,0,.82.18c0.321,0,.428-0.216.642-0.793a12.429,12.429,0,0,1,1.5-2.485c-4.85-1.153-7.881-2.918-9.842-5.583h3.922c3.495,0,4.671.072,4.885,0.072,0.392,0,.428-0.036.428-0.4v-2.413c0-.324-0.036-0.36-0.428-0.36-0.214,0-1.391.072-4.885,0.072h-5.1a29.355,29.355,0,0,0,.321-3.674h3.138c3.174,0,4.279.072,4.493,0.072,0.357,0,.392-0.036.392-0.432v-2.377c0-.36-0.036-0.4-0.392-0.4-0.214,0-1.319.072-4.493,0.072H47.347a1.97,1.97,0,0,0,.25-0.469,2.713,2.713,0,0,1,.606-1.009,0.664,0.664,0,0,0,.321-0.5,0.528,0.528,0,0,0-.464-0.468,20.981,20.981,0,0,0-3.138-.829,9.271,9.271,0,0,1-.856,2.306,20.159,20.159,0,0,1-4.03,5.042,7.917,7.917,0,0,1,1.926,1.3,1.686,1.686,0,0,0,.892.612,1.3,1.3,0,0,0,.785-0.576,20.481,20.481,0,0,0,1.854-2.341h3.922a27.075,27.075,0,0,1-.321,3.674H45.207c-3.459,0-4.671-.072-4.885-0.072-0.357,0-.392.036-0.392,0.36v2.413c0,0.36.036,0.4,0.392,0.4,0.214,0,1.426-.072,4.885-0.072h3Zm47.156-6.951c3.495,0,4.707.072,4.921,0.072,0.357,0,.392-0.036.392-0.36v-2.125c0-.36-0.035-0.4-0.392-0.4-0.214,0-1.426.072-4.921,0.072H89.189a3.043,3.043,0,0,1,.785-1.189,0.815,0.815,0,0,0,.321-0.649,0.562,0.562,0,0,0-.57-0.432c-0.856-.18-1.89-0.36-2.853-0.5h9.057c3.459,0,4.635.072,4.849,0.072,0.357,0,.357-0.036.357-0.4v-2.342c0-.4,0-0.432-0.357-0.432-0.214,0-1.391.072-4.849,0.072H89.082v-0.4a3.613,3.613,0,0,1,.178-1.4,1.726,1.726,0,0,0,.214-0.648,0.509,0.509,0,0,0-.571-0.4c-1.284-.108-2.46-0.18-3.815-0.18a13.5,13.5,0,0,1,.285,2.773v0.252H78.955c-3.459,0-4.707-.072-4.921-0.072-0.357,0-.392.036-0.392,0.432,0,0.217.071,2.666,0.071,8.177,0,1.8-.036,3.349-0.071,4.754a25.876,25.876,0,0,1-2.425,1.153,19.442,19.442,0,0,1-2.853.9,33.215,33.215,0,0,0,.927,3.241,0.422,0.422,0,0,0,.428.4,0.629,0.629,0,0,0,.535-0.288,4.46,4.46,0,0,1,1.105-.721c0.678-.36,1.355-0.72,2.032-1.116a25.434,25.434,0,0,1-.428,2.557,17.163,17.163,0,0,1-3.744,7.816,9.472,9.472,0,0,1,2.033,1.981,1.156,1.156,0,0,0,.678.612,1.1,1.1,0,0,0,.677-0.612,23.032,23.032,0,0,0,3.566-8.357,38.062,38.062,0,0,0,.642-5.006c0.25,0.324.535,0.685,0.856,1.153a0.722,0.722,0,0,0,.5.5,1.424,1.424,0,0,0,.606-0.288l1.854-1.225v2.593c0,2.053-.071,3.1-0.071,3.315,0,0.36.036,0.4,0.392,0.4,0.214,0,1.747-.072,4.671-0.072h1.462v3.818c0,0.756-.214,1.044-1.284,1.044a22.309,22.309,0,0,1-2.46-.108,7.869,7.869,0,0,1,.749,2.125c0.25,1.116.25,1.116,1.355,1.08,2.246,0.036,3.174-.144,3.887-0.54,0.856-.432,1.212-1.08,1.212-2.449,0-1.152-.036-2.089-0.036-3.422v-1.548H91.65c2.96,0,4.457.072,4.671,0.072,0.392,0,.428-0.036.428-0.4,0-.217-0.071-1.082-0.071-2.918V716.61a24.153,24.153,0,0,0,2.71,1.4,2.323,2.323,0,0,0,.855.324c0.25,0,.393-0.252.678-0.9a8.486,8.486,0,0,1,1.177-1.944,20.592,20.592,0,0,1-4.565-1.909l0.927-.793a3.441,3.441,0,0,1,1.07-.756,0.489,0.489,0,0,0,.357-0.432,0.59,0.59,0,0,0-.321-0.5c-0.606-.433-1.5-1.045-2.1-1.4a5.77,5.77,0,0,1-.82,1.08,15.922,15.922,0,0,1-1.355,1.261,12.561,12.561,0,0,1-2.211-2.377h2.282Zm-11.126,0a13,13,0,0,1-2.068,2.413,22.687,22.687,0,0,0-2.1-2.053,0.377,0.377,0,0,0-.321-0.18,0.62,0.62,0,0,0-.357.18l-1.212,1.044c-0.321.253-.428,0.361-0.143,0.649a18.3,18.3,0,0,1,2,2.161,30.354,30.354,0,0,1-3.138,1.945c0.107-1.621.143-3.458,0.143-5.511v-6.159H86.55a9.89,9.89,0,0,1-.82,2.774H83.412c-3.495,0-4.707-.072-4.921-0.072-0.357,0-.392.036-0.392,0.4v2.125c0,0.324.036,0.36,0.392,0.36,0.214,0,1.426-.072,4.921-0.072h0.82Zm9.2,5.654v1.621H83.769v-1.621h9.664Zm0,5.547H83.769v-1.513h9.664v1.513Zm-7.809-8.14a18.283,18.283,0,0,0,2.175-3.061H89.76a15.506,15.506,0,0,0,2.211,3.061H85.623Zm-3.637,10.914a6.6,6.6,0,0,1-1.391,1.621,18.876,18.876,0,0,1-4.743,2.809,8.915,8.915,0,0,1,1.712,1.621,1.453,1.453,0,0,0,.856.72,1.846,1.846,0,0,0,.856-0.36,19.946,19.946,0,0,0,4.315-3.35,4.892,4.892,0,0,1,.784-0.684,0.732,0.732,0,0,0,.464-0.54,0.722,0.722,0,0,0-.428-0.577C83.8,724.534,82.842,724.066,81.986,723.634Zm10.591,1.621c-0.392.252-.428,0.432-0.178,0.684a24.6,24.6,0,0,0,5.206,4.034,2.65,2.65,0,0,0,.856.36,1.292,1.292,0,0,0,.784-0.828,10.2,10.2,0,0,1,1.533-1.981,17.441,17.441,0,0,1-5.848-3.458c-0.285-.252-0.357-0.18-0.749.072ZM69.149,705.372c-0.464.253-.464,0.289-0.285,0.613a37.6,37.6,0,0,1,2,5.475c0.071,0.216.143,0.288,0.25,0.288a1.284,1.284,0,0,0,.464-0.18l1.569-.937c0.428-.252.464-0.36,0.357-0.72a35.645,35.645,0,0,0-2.033-5.259c-0.143-.324-0.25-0.36-0.713-0.108Zm40.665,3.17a32.1,32.1,0,0,1-4.885,11.31,9.481,9.481,0,0,1,1.212,2.629,0.649,0.649,0,0,0,.393.613,1,1,0,0,0,.534-0.613,27.726,27.726,0,0,0,3-7.2c-0.036,8.213-.25,15.092-0.25,15.668,0,0.36.036,0.4,0.428,0.4h2.782c0.356,0,.392-0.036.392-0.4,0-.612-0.214-8.284-0.25-17.721a22.594,22.594,0,0,0,2,4.394,0.78,0.78,0,0,0,.464.541,0.894,0.894,0,0,0,.428-0.685,9.393,9.393,0,0,1,1.212-2.305,22.085,22.085,0,0,1-3.851-6.627c1.711,0.036,2.318.072,2.532,0.072h0.107a12.448,12.448,0,0,1,.677,1.153c0.321,0.612.428,0.864,0.678,0.864a2.247,2.247,0,0,0,.855-0.4,26.159,26.159,0,0,0,2.817-1.981v1.369c0,0.36.036,0.4,0.428,0.4,0.214,0,.963-0.072,3.245-0.072h0.179V712.5H122.9c-3.174,0-4.279-.072-4.529-0.072-0.356,0-.392.036-0.392,0.4,0,0.216.071,0.937,0.071,2.738v3.169c0,1.765-.071,2.485-0.071,2.7,0,0.4.036,0.432,0.392,0.432,0.25,0,1.355-.072,4.529-0.072h0.892c-1.213,2.918-4.208,5.223-8.915,6.52a7.3,7.3,0,0,1,1.5,2.125c0.285,0.648.392,0.9,0.713,0.9a2.715,2.715,0,0,0,.82-0.216c4.35-1.584,7.31-4.358,8.7-7.419,1.854,3.385,4.849,5.655,8.843,7.347a2.832,2.832,0,0,0,.856.288c0.285,0,.428-0.288.677-0.936a8.785,8.785,0,0,1,1.356-2.413c-4.173-1.153-7.418-3.17-9.45-6.2h1.747c3.209,0,4.315.072,4.529,0.072,0.356,0,.392-0.036.392-0.432,0-.216-0.071-0.936-0.071-2.7v-3.169c0-1.8.071-2.558,0.071-2.738,0-.36-0.036-0.4-0.392-0.4-0.214,0-1.32.072-4.529,0.072h-2.425c0-.792.036-1.657,0.036-2.557h0.5c2.461,0,3.21.072,3.423,0.072,0.393,0,.428-0.036.428-0.4V708a33.254,33.254,0,0,0,3.352,2.017,2.325,2.325,0,0,0,.856.324c0.25,0,.392-0.252.606-0.9a6.911,6.911,0,0,1,1.248-2.2,24.276,24.276,0,0,1-10.412-7.456l0.321-.252a0.531,0.531,0,0,0,.285-0.469,0.473,0.473,0,0,0-.463-0.468,33.287,33.287,0,0,0-3.281-.648,10.357,10.357,0,0,1-1.1,2.161,23.809,23.809,0,0,1-7.667,7.312v-1.765c0-.361-0.036-0.4-0.392-0.4-0.214,0-.856.072-2.675,0.072v-2.161c0-2.377.071-2.953,0.25-3.385a1.533,1.533,0,0,0,.214-0.757,0.554,0.554,0,0,0-.606-0.4,29.835,29.835,0,0,0-3.424-.252,26.4,26.4,0,0,1,.286,4.826v2.125h-0.607c-2.318,0-3.031-.072-3.245-0.072-0.321,0-.356.036-0.356,0.4v2.521c0,0.4.035,0.432,0.356,0.432,0.214,0,.927-0.072,3.245-0.072h0.428Zm15.084-1.368c-1.248,0-2.033,0-2.532-.036a29.415,29.415,0,0,0,4.208-4.755,24.25,24.25,0,0,0,4.814,4.755c-0.535.036-1.319,0.036-2.639,0.036H124.9Zm7.488,11.885h-4.493c0.143-1.08.214-2.3,0.286-3.782h4.207v3.782Zm-7.524-3.782a30.771,30.771,0,0,1-.285,3.782h-3.5v-3.782h3.78ZM164,716.646c-0.392.252-.463,0.36-0.178,0.612,0.535,0.5,1.034,1.045,1.569,1.585-2.353.18-4.957,0.36-7.7,0.5a47.966,47.966,0,0,0,4.778-4.286,3.282,3.282,0,0,1,1.141-.828,0.6,0.6,0,0,0,.464-0.5,0.626,0.626,0,0,0-.393-0.5,23.619,23.619,0,0,0-3.031-1.584,6.048,6.048,0,0,1-1.212,1.837,54.734,54.734,0,0,1-4.529,4.574c-0.749-.613-1.462-1.225-2.211-1.8a35.638,35.638,0,0,0,3-3.17,3.363,3.363,0,0,1,1.07-.864,0.523,0.523,0,0,0,.392-0.468,0.75,0.75,0,0,0-.535-0.54c-0.321-.181-0.927-0.5-1.64-0.829h12.3v3.6c0,0.36.036,0.4,0.428,0.4h2.853c0.356,0,.392-0.036.392-0.4,0-.216-0.071-0.721-0.071-3.458v-1.26c0-.793.071-1.333,0.071-1.549,0-.36-0.036-0.4-0.392-0.4-0.25,0-1.427.072-4.779,0.072h-8.023v-2.27h8.38c3.281,0,4.386.072,4.6,0.072,0.356,0,.392-0.036.392-0.4v-2.629c0-.36-0.036-0.4-0.392-0.4-0.214,0-1.319.072-4.6,0.072h-8.38a5.4,5.4,0,0,1,.214-2.161,1.593,1.593,0,0,0,.25-0.793,0.619,0.619,0,0,0-.607-0.36c-1.212-.144-2.531-0.216-3.815-0.252a15.867,15.867,0,0,1,.285,3.566h-7.738c-3.281,0-4.386-.072-4.6-0.072-0.357,0-.392.036-0.392,0.4V704.8c0,0.36.035,0.4,0.392,0.4,0.214,0,1.319-.072,4.6-0.072h7.738v2.27h-7.346c-3.387,0-4.564-.072-4.814-0.072-0.356,0-.392.036-0.392,0.4,0,0.252.071,0.756,0.071,1.729v1.044c0,2.773-.071,3.242-0.071,3.458,0,0.36.036,0.4,0.392,0.4h2.889c0.356,0,.392-0.036.392-0.4v-3.566h8.273a7.723,7.723,0,0,1-.678,1.117,30.4,30.4,0,0,1-2.6,2.989c-0.57-.4-1.176-0.828-1.818-1.225a0.468,0.468,0,0,0-.749.073l-1.641,1.368a0.639,0.639,0,0,0-.285.36,0.369,0.369,0,0,0,.25.288,35.887,35.887,0,0,1,5.741,4.25c-2.318.072-4.671,0.108-6.918,0.108-1.07,0-2.246,0-3.744-.108a26.88,26.88,0,0,0,.677,3.278,0.64,0.64,0,0,0,.535.541,1.369,1.369,0,0,0,.606-0.216,4.537,4.537,0,0,1,1.5-.252c3.067-.073,6.454-0.217,9.806-0.4v5.259c0,2.053-.071,2.917-0.071,3.133,0,0.36.036,0.4,0.392,0.4h3.031c0.357,0,.393-0.036.393-0.4,0-.18-0.072-1.08-0.072-3.133v-5.475c3.459-.216,6.811-0.469,9.807-0.793,0.427,0.613.855,1.225,1.248,1.874,0.142,0.288.249,0.288,0.713,0.036l2.032-1.261c0.393-.253.428-0.361,0.214-0.685a38.934,38.934,0,0,0-5.349-5.906,0.483,0.483,0,0,0-.748-0.036Zm-3.1,7.852c-0.357.288-.428,0.4-0.143,0.649a28.83,28.83,0,0,0,7.168,5.222,2.436,2.436,0,0,0,.82.288c0.285,0,.428-0.252.82-0.864a10.154,10.154,0,0,1,1.819-2.053,22.69,22.69,0,0,1-7.881-4.5,0.421,0.421,0,0,0-.321-0.18,0.758,0.758,0,0,0-.428.18Zm-12.017-1.332a9.712,9.712,0,0,1-1.426,1.512A22.858,22.858,0,0,1,141,728.1a8.246,8.246,0,0,1,1.712,1.8,1.315,1.315,0,0,0,.82.828,2.436,2.436,0,0,0,.82-0.288,23,23,0,0,0,5.813-3.746,4.086,4.086,0,0,1,1.141-.828,0.544,0.544,0,0,0,.535-0.468,0.644,0.644,0,0,0-.393-0.577A19.828,19.828,0,0,0,148.876,723.166Zm50.116-14.984V704.76a10.028,10.028,0,0,1,.285-3.169,1.954,1.954,0,0,0,.143-0.649c0-.288-0.143-0.468-0.642-0.576a32.853,32.853,0,0,0-4.172-.612,24.119,24.119,0,0,1,.321,4.934l-0.036,3.53h-7.666v-2.629c0-2.45,0-2.81.249-3.458a2.461,2.461,0,0,0,.214-0.757,0.516,0.516,0,0,0-.535-0.5,34.285,34.285,0,0,0-4.35-.576,25.25,25.25,0,0,1,.428,5.3v2.629h-1.07c-2.746,0-5.063-.072-6.561-0.18a32.767,32.767,0,0,0,.249,3.494c0.036,0.468.143,0.684,0.428,0.684,1.106-.072,3.959-0.18,5.884-0.18h1.07v1.369c0,2.269-.071,4.033-0.178,5.906-0.036.4,0.178,0.468,0.641,0.5a21.8,21.8,0,0,0,3.067,0c0.392-.037.642-0.109,0.606-0.5-0.107-1.909-.107-3.853-0.107-5.978v-1.3h7.6c-0.143,4.394-.713,6.879-2.1,9.184-1.819,2.954-4.564,4.791-9.628,6.376a8.23,8.23,0,0,1,2.96,2.161,0.969,0.969,0,0,0,.677.4,2.977,2.977,0,0,0,1-.324,16.834,16.834,0,0,0,8.415-6.7c1.747-2.918,2.532-5.944,2.746-11.094h1.462c1.747,0,3.922.036,5.135,0.036,0.5,0.036.57-.108,0.606-0.576a19.04,19.04,0,0,0,0-2.846c-0.036-.4-0.071-0.612-0.5-0.576-1.641.072-3.637,0.108-5.385,0.108h-1.248Zm25.977,1.693a56.539,56.539,0,0,0,4.173-4.539,11.821,11.821,0,0,1,2.139-1.981,1.032,1.032,0,0,0,.5-0.792,0.638,0.638,0,0,0-.285-0.54,31.49,31.49,0,0,0-3.958-2.521,10.456,10.456,0,0,1-2.247,3.709,58.031,58.031,0,0,1-7.595,7.528,57.163,57.163,0,0,1-11.233,7.384,13.31,13.31,0,0,1,3.067,2.125,1,1,0,0,0,1.284.216,61.7,61.7,0,0,0,9.806-6.915v8.391c0,2.45-.107,4.791-0.143,7.384-0.035.433,0.107,0.577,0.5,0.577a29.463,29.463,0,0,0,3.566,0,0.467,0.467,0,0,0,.534-0.613c-0.071-2.881-.107-5.006-0.107-7.492V709.875Zm17.6-5.007c0-2.017,0-2.917.25-3.386a1.909,1.909,0,0,0,.285-0.828,0.663,0.663,0,0,0-.677-0.612,26.083,26.083,0,0,0-4.458-.576,27.7,27.7,0,0,1,.357,5.33v17.721c0,2.3-.036,4.43-0.143,7.1,0,0.432.179,0.54,0.678,0.54a23.332,23.332,0,0,0,3.173,0c0.5,0,.678-0.108.642-0.54-0.071-2.594-.142-4.719-0.142-7.06v-7.96a39.361,39.361,0,0,1,9.378,4.61,0.544,0.544,0,0,0,.392.18,0.6,0.6,0,0,0,.464-0.4,21.224,21.224,0,0,0,1.533-3.133,0.668,0.668,0,0,0-.392-0.937,50.039,50.039,0,0,0-11.34-4.9v-5.151Zm50.227-4.256-8.87,20.68-8.871-20.68h-6.218v27.92h5.584v-17.56l7.485,17.56h4l7.524-17.64v17.64h5.544v-27.92H292.8Zm31.08,16.52a11.633,11.633,0,0,0-1.425-5.86,9.929,9.929,0,0,0-3.9-3.86,11.531,11.531,0,0,0-5.643-1.36,11.265,11.265,0,0,0-5.644,1.4,9.829,9.829,0,0,0-3.861,3.96,13.723,13.723,0,0,0,0,12.02,9.951,9.951,0,0,0,3.842,4,11.822,11.822,0,0,0,12.2-.58,9.722,9.722,0,0,0,3.683-5.16h-6.02a4.947,4.947,0,0,1-1.623,1.76,4.833,4.833,0,0,1-2.654.64,4.9,4.9,0,0,1-3.524-1.32,5.282,5.282,0,0,1-1.584-3.48h16a13.89,13.89,0,0,0,.158-2.16h0Zm-16.157-1.48a5.606,5.606,0,0,1,1.683-3.52,4.819,4.819,0,0,1,3.425-1.32,5.317,5.317,0,0,1,3.664,1.32,4.849,4.849,0,0,1,1.6,3.52H307.72Zm28.673-9.6a9.52,9.52,0,0,0-5.128,1.44,10.29,10.29,0,0,0-3.683,4.02,13.468,13.468,0,0,0,0,11.82,10.4,10.4,0,0,0,3.683,4.06,9.418,9.418,0,0,0,5.128,1.46,7.9,7.9,0,0,0,4.139-1.08,8.625,8.625,0,0,0,2.95-2.96v3.72h5.544v-29.6h-5.544v10.88a7.912,7.912,0,0,0-2.93-2.76,8.51,8.51,0,0,0-4.159-1h0Zm1.268,4.88a5.613,5.613,0,0,1,2.831.76,5.77,5.77,0,0,1,2.159,2.24,7.871,7.871,0,0,1,0,7.04,5.756,5.756,0,0,1-2.159,2.24,5.6,5.6,0,0,1-2.831.76,5.529,5.529,0,0,1-2.792-.76,5.71,5.71,0,0,1-2.158-2.26,7.182,7.182,0,0,1-.832-3.54,6.957,6.957,0,0,1,.832-3.5,5.786,5.786,0,0,1,2.158-2.22,5.54,5.54,0,0,1,2.792-.76h0Zm14.931-10.2a3.333,3.333,0,0,0,.991,2.44,3.22,3.22,0,0,0,2.376,1,3.268,3.268,0,0,0,2.415-1,3.5,3.5,0,0,0,0-4.88,3.272,3.272,0,0,0-2.415-1,3.224,3.224,0,0,0-2.376,1,3.334,3.334,0,0,0-.991,2.44h0Zm0.6,5.64v22.16h5.583v-22.16h-5.583Zm19.267-.32a11.075,11.075,0,0,0-5.584,1.4,9.822,9.822,0,0,0-3.841,3.98,13.767,13.767,0,0,0,0,12.04,9.816,9.816,0,0,0,3.841,3.98,11.065,11.065,0,0,0,5.584,1.4,10.722,10.722,0,0,0,6.633-2.04,9.97,9.97,0,0,0,3.663-5.52h-6.019a4.283,4.283,0,0,1-1.584,2.12,4.8,4.8,0,0,1-2.693.68,4.5,4.5,0,0,1-3.782-1.78,9.329,9.329,0,0,1,0-9.72,4.5,4.5,0,0,1,3.782-1.78,4.628,4.628,0,0,1,2.693.74,4.392,4.392,0,0,1,1.584,2.02h6.019a9.491,9.491,0,0,0-3.6-5.56,11.067,11.067,0,0,0-6.692-1.96h0Zm21.822,0a9.518,9.518,0,0,0-5.128,1.44,10.282,10.282,0,0,0-3.683,4.02,13.468,13.468,0,0,0,0,11.82,10.392,10.392,0,0,0,3.683,4.06,9.415,9.415,0,0,0,5.128,1.46,7.9,7.9,0,0,0,4.139-1.08,8.625,8.625,0,0,0,2.95-2.96v3.72h5.544v-22.16h-5.544v3.44a7.915,7.915,0,0,0-2.931-2.76,8.5,8.5,0,0,0-4.158-1h0Zm1.267,4.88a5.616,5.616,0,0,1,2.832.76,5.76,5.76,0,0,1,2.158,2.24,7.862,7.862,0,0,1,0,7.04,5.747,5.747,0,0,1-2.158,2.24,5.606,5.606,0,0,1-2.832.76,5.526,5.526,0,0,1-2.791-.76,5.719,5.719,0,0,1-2.159-2.26,7.192,7.192,0,0,1-.831-3.54,6.967,6.967,0,0,1,.831-3.5,5.8,5.8,0,0,1,2.159-2.22,5.536,5.536,0,0,1,2.791-.76h0Zm14.734-12v29.6h5.584v-29.6h-5.584Zm37.714,1.6h-5.584v19.36l-12.514-19.36h-5.584v28h5.584v-19.36l12.514,19.36h5.584v-28Zm13.734,5.52a11.823,11.823,0,0,0-5.742,1.4,10.407,10.407,0,0,0-4.079,3.98,11.655,11.655,0,0,0-1.5,5.98,11.882,11.882,0,0,0,1.485,6,10.356,10.356,0,0,0,4.06,4.02,11.6,11.6,0,0,0,5.7,1.42,11.8,11.8,0,0,0,5.762-1.42,10.467,10.467,0,0,0,4.1-4.02,12.673,12.673,0,0,0,0-11.98,10.414,10.414,0,0,0-4.079-3.98,11.744,11.744,0,0,0-5.7-1.4h0Zm-0.039,4.76a5.513,5.513,0,0,1,2.792.74,5.428,5.428,0,0,1,2.079,2.24,7.758,7.758,0,0,1,.792,3.66,7.51,7.51,0,0,1-.812,3.62,5.625,5.625,0,0,1-2.119,2.26,5.5,5.5,0,0,1-5.544.02,5.321,5.321,0,0,1-2.039-2.24,7.921,7.921,0,0,1-.773-3.66,6.9,6.9,0,0,1,1.624-4.92,5.286,5.286,0,0,1,4-1.72h0Zm22.416,13a2.68,2.68,0,0,1-1.782-.46,1.98,1.98,0,0,1-.515-1.54v-10.84h4.911v-4.6h-4.911v-5.48h-5.583v5.48h-2.337v4.6h2.337v10.84q0,3.6,1.821,5.16a7.747,7.747,0,0,0,5.188,1.56h3.525v-4.72H484.1Zm24.891-6.68a11.623,11.623,0,0,0-1.426-5.86,9.926,9.926,0,0,0-3.9-3.86,11.537,11.537,0,0,0-5.644-1.36,11.263,11.263,0,0,0-5.643,1.4,9.829,9.829,0,0,0-3.861,3.96,13.723,13.723,0,0,0,0,12.02,9.956,9.956,0,0,0,3.841,4,11.823,11.823,0,0,0,12.2-.58,9.727,9.727,0,0,0,3.683-5.16h-6.02a4.94,4.94,0,0,1-1.624,1.76,4.829,4.829,0,0,1-2.653.64,4.9,4.9,0,0,1-3.524-1.32,5.278,5.278,0,0,1-1.584-3.48h16a13.89,13.89,0,0,0,.158-2.16h0Zm-16.157-1.48a5.606,5.606,0,0,1,1.683-3.52,4.819,4.819,0,0,1,3.425-1.32,5.314,5.314,0,0,1,3.663,1.32,4.85,4.85,0,0,1,1.6,3.52H492.836Z" transform="translate(-25 -629)"/>
</svg>
