<svg xmlns="http://www.w3.org/2000/svg" viewBox="0 0 21.93 28.41" fill="#999999"><g id="Layer_2" data-name="Layer 2"><g id="レイヤー_1" data-name="レイヤー 1"><path d="M21.19,28.41a.69.69,0,0,1-.51-.21L18.4,25.92l-.16.11a5.4,5.4,0,0,1-8.46-4.46,5.41,5.41,0,1,1,9.79,3.17l-.12.16,2.26,2.26a.73.73,0,0,1,0,1A.72.72,0,0,1,21.19,28.41Zm-6-11.06a4.22,4.22,0,1,0,4.22,4.22A4.22,4.22,0,0,0,15.19,17.35Zm-11,2.85a.18.18,0,0,0-.19.19V21a.19.19,0,0,0,.19.19H8.1a6.51,6.51,0,0,1,.11-1Zm11.42-9H4.39a.38.38,0,0,0-.39.38v.23a.39.39,0,0,0,.39.39H15.61a.39.39,0,0,0,.39-.39v-.23A.38.38,0,0,0,15.61,11.2ZM4,18a.25.25,0,0,0,.25.25H8.93a6.18,6.18,0,0,1,.66-1H4.25a.25.25,0,0,0-.25.25Zm4.9,6.93H2a.25.25,0,0,1-.25-.25v-19A.25.25,0,0,1,2,5.38H5.52a4.5,4.5,0,0,0,8.82,0H18a.25.25,0,0,1,.25.25v9.53A6.9,6.9,0,0,1,20,16.34V5.63a2,2,0,0,0-2-2H14.34a4.49,4.49,0,0,0-8.82,0H2a2,2,0,0,0-2,2v19a2,2,0,0,0,2,2h8.2A7.37,7.37,0,0,1,8.9,24.88ZM8.26,3.67h.83V2.83A.84.84,0,0,1,9.93,2a.83.83,0,0,1,.83.83v.84h.83a.83.83,0,1,1,0,1.66h-.83v.84A.83.83,0,0,1,9.93,7a.84.84,0,0,1-.84-.83V5.33H8.26a.83.83,0,0,1,0-1.66ZM4,14.81a.39.39,0,0,0,.39.39h7.66a7,7,0,0,1,3.14-.75,6.84,6.84,0,0,1,.79.05.38.38,0,0,0-.37-.3H4.39a.38.38,0,0,0-.39.38Z"/></g></g></svg>