<svg id="_50_icon_step_03.svg" data-name="50% icon_step_03.svg" xmlns="http://www.w3.org/2000/svg" width="64.891" height="65" viewBox="0 0 129.781 130">
  <defs>
    <style>
      .cls-1 {
        fill: #4cbee0;
        fill-rule: evenodd;
      }
    </style>
  </defs>
  <path id="長方形_16" data-name="長方形 16" class="cls-1" d="M175.035,4614.65A61.323,61.323,0,0,0,88.6,4701.22l-2.555,2.56a64.921,64.921,0,0,1,91.543-91.69Zm-81.142,91.98a61.332,61.332,0,0,0,86.545-86.68l2.555-2.56a64.937,64.937,0,0,1-91.655,91.8Z" transform="translate(-70 -4596)"/>
  <path id="Step" class="cls-1" d="M111.307,4644.2a3.541,3.541,0,0,1-1.867.41,6.636,6.636,0,0,1-1.008-.08,8.3,8.3,0,0,1-.929-0.2,8.008,8.008,0,0,1-.788-0.26,4.778,4.778,0,0,1-.569-0.26l-0.879,2.34a8.057,8.057,0,0,0,1.677.56,10.935,10.935,0,0,0,2.636.28,8.025,8.025,0,0,0,2.087-.26,4.334,4.334,0,0,0,1.617-.8,3.653,3.653,0,0,0,1.038-1.35,4.6,4.6,0,0,0,.37-1.93,3.463,3.463,0,0,0-.469-1.87,4.442,4.442,0,0,0-1.178-1.26,8.287,8.287,0,0,0-1.538-.87c-0.553-.24-1.065-0.47-1.538-0.7a5.448,5.448,0,0,1-1.178-.74,1.264,1.264,0,0,1-.469-1,1.2,1.2,0,0,1,.509-1.02,2.449,2.449,0,0,1,1.468-.38,7.626,7.626,0,0,1,1.9.23,4.606,4.606,0,0,1,1.318.51l0.858-2.3a5.74,5.74,0,0,0-1.777-.61,12,12,0,0,0-2.3-.21,7.112,7.112,0,0,0-1.917.24,4.216,4.216,0,0,0-1.488.74,3.294,3.294,0,0,0-.968,1.25,4.251,4.251,0,0,0-.34,1.77,3.639,3.639,0,0,0,.47,1.94,4.324,4.324,0,0,0,1.178,1.27,7.681,7.681,0,0,0,1.537.86c0.553,0.23,1.065.46,1.538,0.68a5.077,5.077,0,0,1,1.178.73,1.3,1.3,0,0,1,.469,1.04A1.373,1.373,0,0,1,111.307,4644.2Zm20.828-11.49h-10.9v2.44h4.094v11.56h2.735v-11.56h4.074v-2.44Zm6.253,14h8.386v-2.44h-5.651v-3.42h5.052v-2.44h-5.052v-3.26h5.551v-2.44h-8.286v14Zm16.177,0H157.3v-4.82c0.067,0.01.176,0.03,0.33,0.04l0.469,0.03c0.16,0.01.312,0.01,0.459,0.01h0.32a7.842,7.842,0,0,0,2.006-.26,4.8,4.8,0,0,0,1.728-.84,4.274,4.274,0,0,0,1.218-1.49,4.924,4.924,0,0,0,.459-2.23,4.7,4.7,0,0,0-.529-2.37,3.922,3.922,0,0,0-1.368-1.42,5.13,5.13,0,0,0-1.887-.68,13.42,13.42,0,0,0-2.087-.17q-1,0-2.006.09a17.839,17.839,0,0,0-1.847.25v13.86Zm5.091-11.74a2.575,2.575,0,0,1,.889.36,1.915,1.915,0,0,1,.629.69,2.226,2.226,0,0,1,.24,1.09,2.74,2.74,0,0,1-.25,1.26,1.929,1.929,0,0,1-.669.75,2.706,2.706,0,0,1-.948.37,5.475,5.475,0,0,1-1.069.1h-0.249c-0.114,0-.23,0-0.35-0.01l-0.339-.03a2.165,2.165,0,0,1-.24-0.04v-4.54a5.306,5.306,0,0,1,.579-0.07q0.36-.03.759-0.03A4.93,4.93,0,0,1,159.656,4634.97Z" transform="translate(-70 -4596)"/>
  <path id="_03" data-name="03" class="cls-1" d="M115.845,4688.27q2.709,4.35,8.45,4.35a9.584,9.584,0,0,0,8.336-4.14q2.916-4.14,2.916-12.65,0-8.55-2.709-12.63-2.71-4.065-8.5-4.07a9.529,9.529,0,0,0-8.312,4.12q-2.894,4.11-2.894,12.58Q113.135,4683.93,115.845,4688.27Zm4.478-21.23a4.116,4.116,0,0,1,3.972-2.85,4.18,4.18,0,0,1,4.088,3.04,24.364,24.364,0,0,1,1.194,8.6q0,6.12-1.263,8.92a4.174,4.174,0,0,1-3.973,2.81q-2.8,0-4.018-3.06a24.315,24.315,0,0,1-1.217-8.67C119.106,4671.87,119.511,4668.95,120.323,4667.04Zm20.7,20.15a13.3,13.3,0,0,1-2.641-.96l-1.607,4.96a11.927,11.927,0,0,0,3.49,1.06,24.391,24.391,0,0,0,4.18.37,15.835,15.835,0,0,0,4.546-.64,10.359,10.359,0,0,0,3.7-1.98,9.313,9.313,0,0,0,2.48-3.31,11.326,11.326,0,0,0,.9-4.7,10.461,10.461,0,0,0-.643-3.81,8.293,8.293,0,0,0-1.722-2.79,7.377,7.377,0,0,0-2.526-1.72,10.15,10.15,0,0,0-3.054-.74l-1.929.28v-0.23l2.021-1.24,6.475-8.7v-3.26H137.138v5.06h7.716l3.628-.42-2.618,2.07-5.557,7.59v3.18h3.307a7.863,7.863,0,0,1,4.914,1.24,4.63,4.63,0,0,1,1.562,3.86,5.054,5.054,0,0,1-1.493,3.68,5.829,5.829,0,0,1-4.34,1.52A12.928,12.928,0,0,1,141.019,4687.19Z" transform="translate(-70 -4596)"/>
</svg>
