<svg version="1.1" width="20.5" height="25.1" xmlns="http://www.w3.org/2000/svg" xmlns:xlink="http://www.w3.org/1999/xlink" x="0px"
	 y="0px" viewBox="0 0 20.5 25.1" style="enable-background:new 0 0 20.5 25.1;" xml:space="preserve">
<path fill="#4cbee0" d="M15.7,15.5c-2.7,0-4.8,2.2-4.8,4.8c0,2.7,2.2,4.8,4.8,4.8c2.7,0,4.8-2.2,4.8-4.8C20.6,17.6,18.4,15.5,15.7,15.5z M14.8,23.2
	l-2.6-2.7l0.7-0.7l1.8,1.9l3.4-3.6l0.8,0.7L14.8,23.2z M15.3,10h-8V9h8V10z M19.1,1.2H7.3V0h13v15.5c-0.4-0.4-0.8-0.7-1.2-0.9V2h0
	V1.2z M15.3,7h-8V6h8V7z M10.2,24H0.3V13.6l1.2-1V22h0v0.8h8C9.7,23.2,9.9,23.6,10.2,24z M2.6,9l-2.5,2V0h5v11L2.6,9z M15.3,13h-8
	v-1h8V13z"/>
</svg>
