<svg version="1.1" xmlns="http://www.w3.org/2000/svg" xmlns:xlink="http://www.w3.org/1999/xlink" x="0px"
	 y="0px" width="22" height="16" viewBox="0 0 44.4 31.1" style="enable-background:new 0 0 44.4 31.1;" xml:space="preserve">
	<g>
		<path fill="#4cbee0" d="M44.5,30.4c0-8.2,0-16.4,0-24.5c0-0.6,0-1.3,0-1.9c0-0.9-0.4-1.6-0.9-2.3c-1.3-1.6-4.1-2-5.5-1.2c-0.4,0.2-0.9,0.5-1.3,0.8
			c-1.4,1.1-2.9,2-4.4,3c-3.3,2.3-6.5,4.5-9.8,6.8c-0.3,0.2-0.2,0.5,0.1,0.7c0.7,0.5,1.5,1,2.2,1.6c0.3,0.3,0.5,0.2,0.9,0
			c4.4-3,8.4-6,12.8-9c0.4-0.3,0.8-0.5,1.3-0.5c0.7,0,1.1,0.4,1.1,1c0,3.6,0,7.3,0,10.9c0,4-0.1,7.7-0.2,11.7
			C31.6,20.2,8.1,1.6,7.6,1.3C7,0.8,5.4-0.1,3.9,0.2C2.7,0.4,1.9,1,1.1,1.8C0.4,2.6,0,3.9,0,4.9c0,7.2,0,24.4,0,25.8
			c0,0.3,0.1,0.4,0.4,0.4c0.9,0,1.8,0,2.8,0c0.6,0,0.6,0,0.6-0.6c0-8.5,0-17,0-25.5c0-0.4,0.3-1.1,0.7-1.2c0.4,0,0.8,0.1,1.1,0.3
			c1.1,0.8,31.1,24.5,33.9,26.7c0.2,0.2,0.4,0.4,0.7,0.4c1.4,0,2.8,0,4.3,0C44.8,31.2,44.6,30.5,44.5,30.4z"/>
	</g>
</svg>