<svg xmlns="http://www.w3.org/2000/svg" width="44.5" height="33.5" viewBox="0 0 89 67">
  <defs>
    <style>
      .cls-1 {
        fill: none;
        stroke: #4cbee0;
        stroke-width: 2px;
        stroke-dasharray: 4 4;
        fill-rule: evenodd;
      }
    </style>
  </defs>
  <path id="_50_quote_large_start.svg" data-name="50% quote_large_start.svg" class="cls-1" d="M97.464,274.551c-10.109,0-20.94-8.035-20.94-23,0-18.988,14.08-36.881,33.215-41.993h1.083a3.469,3.469,0,0,1,3.249,2.191l0.722,1.826a4.02,4.02,0,0,1-1.444,4.747,30.6,30.6,0,0,0-11.914,15.7,2.885,2.885,0,0,0,.361,2.921,3.7,3.7,0,0,0,2.167,1.825A18.857,18.857,0,0,1,116.6,256.657C116.237,268.343,106.49,274.551,97.464,274.551Zm-46.934,0c-10.109,0-20.94-8.035-20.94-23,0-18.988,14.08-36.881,33.215-41.993h1.083a3.469,3.469,0,0,1,3.249,2.191l0.722,1.826a4.02,4.02,0,0,1-1.444,4.747,30.6,30.6,0,0,0-11.914,15.7,3.81,3.81,0,0,0,2.166,4.746c7.582,2.191,12.636,9.5,12.636,17.529C69.3,268.343,59.556,274.551,50.53,274.551Z" transform="translate(-28.594 -208.562)"/>
</svg>
