<svg xmlns="http://www.w3.org/2000/svg" width="36" height="26.5" viewBox="0 0 72 53">
  <defs>
    <style>
      .cls-1 {
        fill: none;
        stroke: #4cbee0;
        stroke-width: 2px;
        stroke-dasharray: 4 4;
        fill-rule: evenodd;
      }
    </style>
  </defs>
  <path id="_50_quote_start.svg" data-name="50% quote_start.svg" class="cls-1" d="M124.2,1484.55c-8.134,0-16.848-6.3-16.848-18.05,0-14.9,11.329-28.93,26.724-32.95h0.872a2.8,2.8,0,0,1,2.614,1.72l0.581,1.44a3.1,3.1,0,0,1-1.162,3.72,24.1,24.1,0,0,0-9.586,12.32,2.216,2.216,0,0,0,.291,2.29,2.958,2.958,0,0,0,1.743,1.44,14.809,14.809,0,0,1,10.167,14.03C139.307,1479.68,131.464,1484.55,124.2,1484.55Zm-37.763,0c-8.133,0-16.848-6.3-16.848-18.05,0-14.9,11.329-28.93,26.724-32.95h0.871a2.8,2.8,0,0,1,2.614,1.72l0.581,1.44a3.105,3.105,0,0,1-1.162,3.72,24.1,24.1,0,0,0-9.586,12.32,2.978,2.978,0,0,0,1.743,3.73,14.2,14.2,0,0,1,10.167,13.75C101.544,1479.68,93.7,1484.55,86.439,1484.55Z" transform="translate(-68.594 -1432.56)"/>
</svg>
