<svg xmlns="http://www.w3.org/2000/svg" width="44.469" height="33.5" viewBox="0 0 88.937 67">
  <defs>
    <style>
      .cls-1 {
        fill: none;
        stroke: #4cbee0;
        stroke-width: 2px;
        stroke-dasharray: 4 4;
        fill-rule: evenodd;
      }
    </style>
  </defs>
  <path id="_50_quote_large_end.svg" data-name="50% quote_large_end.svg" class="cls-1" d="M652.535,209.669c10.109,0,20.94,8.034,20.94,23,0,18.988-14.08,36.881-33.214,41.992h-1.084a3.468,3.468,0,0,1-3.249-2.191l-0.722-1.825a4.02,4.02,0,0,1,1.444-4.747,30.6,30.6,0,0,0,11.914-15.7,2.885,2.885,0,0,0-.361-2.921,3.71,3.71,0,0,0-2.166-1.826A18.852,18.852,0,0,1,633.4,227.562C633.762,215.876,643.51,209.669,652.535,209.669Zm46.934,0c10.109,0,20.94,8.034,20.94,23,0,18.988-14.08,36.881-33.215,41.992h-1.083a3.468,3.468,0,0,1-3.249-2.191l-0.722-1.825a4.02,4.02,0,0,1,1.444-4.747A30.6,30.6,0,0,0,695.5,250.2a3.811,3.811,0,0,0-2.166-4.747c-7.582-2.191-12.636-9.494-12.636-17.526C680.7,215.876,690.443,209.669,699.469,209.669Z" transform="translate(-632.438 -208.656)"/>
</svg>
