<svg xmlns="http://www.w3.org/2000/svg" width="36" height="26.5" viewBox="0 0 72 53">
  <defs>
    <style>
      .cls-1 {
        fill: none;
        stroke: #4cbee0;
        stroke-width: 2px;
        stroke-dasharray: 4 4;
        fill-rule: evenodd;
      }
    </style>
  </defs>
  <path id="_50_quote_end.svg" data-name="50% quote_end.svg" class="cls-1" d="M615.392,1838.01c8.133,0,16.848,6.3,16.848,18.05,0,14.9-11.329,28.94-26.725,32.95h-0.871a2.8,2.8,0,0,1-2.614-1.72l-0.581-1.43a3.114,3.114,0,0,1,1.162-3.73,24.06,24.06,0,0,0,9.585-12.32,2.213,2.213,0,0,0-.29-2.29,2.949,2.949,0,0,0-1.743-1.43A14.83,14.83,0,0,1,600,1852.05C600.287,1842.88,608.13,1838.01,615.392,1838.01Zm37.762,0c8.134,0,16.848,6.3,16.848,18.05,0,14.9-11.328,28.94-26.724,32.95h-0.871a2.8,2.8,0,0,1-2.615-1.72l-0.581-1.43a3.114,3.114,0,0,1,1.162-3.73,24.063,24.063,0,0,0,9.586-12.32,2.963,2.963,0,0,0-1.743-3.72,14.212,14.212,0,0,1-10.167-13.76C638.049,1842.88,645.892,1838.01,653.154,1838.01Z" transform="translate(-599 -1837)"/>
</svg>
