<svg xmlns="http://www.w3.org/2000/svg" width="129.438" height="22.375" viewBox="0 0 258.876 44.75">
  <defs>
    <style>
      .cls-1 {
        fill: #fff;
        fill-rule: evenodd;
      }
    </style>
  </defs>
  <path id="_50_text_section_02.svg" data-name="50% text_section_02.svg" class="cls-1" d="M263.553,3875.52a27.151,27.151,0,0,0,5.326,6.67,32.276,32.276,0,0,1-11.8,4.85,10.743,10.743,0,0,1,3.263,4.18,36.14,36.14,0,0,0,12.284-6,51.788,51.788,0,0,0,12.812,6.29,9.7,9.7,0,0,1,3.119-4.32,36.063,36.063,0,0,1-12.38-5.04,36.071,36.071,0,0,0,7.533-11.34l-1.631-1.97H261.634v4.42h5.518Zm13.292-2.26a18.889,18.889,0,0,1-4.415,6.05,26.721,26.721,0,0,1-5.086-6.05h9.5Zm-20.825-18.15v-6.2c0.72-.28,1.3-0.52,1.3-1s-0.575-.48-1.151-0.53l-4.991-.24v7.97h-6.429v4.51h6.429v9.8a42.036,42.036,0,0,1-7.1,2.16l0.768,4.95a1.029,1.029,0,0,0,.623,1.05c0.768,0,.864-1.05.912-1.44,1.392-.53,2.447-0.91,4.8-1.97v10.57c0,1.39-.575,1.58-2.3,1.58a14.443,14.443,0,0,1-3.455-.38,12.183,12.183,0,0,1,1.728,5.14c0.96,0.05,1.871.09,2.4,0.09,6.478,0,6.478-3.12,6.478-6.19v-12.97a27.958,27.958,0,0,0,3.887-2.01,22.227,22.227,0,0,1,.1-4.42,28.539,28.539,0,0,1-3.982,1.92v-7.88h4.654v-4.51H256.02Zm8.3-6.44c0,0.58.048,3.46,0.048,4.09,0,5.57-1.248,8.93-4.51,12.15a10.137,10.137,0,0,1,3.886,2.73c4.223-5.04,4.991-9.17,5.23-14.6h6.478v8.74c0,2.21,0,4.23,4.079,4.23h4.126a3.715,3.715,0,0,0,3.839-2.26,19.968,19.968,0,0,0,1.536-4.99,9.613,9.613,0,0,1-4.223-2.31c-0.528,5-1.487,5-3.167,5-1.2,0-1.535-.24-1.535-1.54v-11.24H264.321Zm51.525,24.16a37.929,37.929,0,0,1-5.758-8.69v-0.34h6.382v-3.98h-6.382v-7.06a30.2,30.2,0,0,0,5.71-2.12,6.379,6.379,0,0,0,.96.15,0.555,0.555,0,0,0,.672-0.48c0-.34-0.336-0.63-1.152-1.35l-2.591-2.21a43.256,43.256,0,0,1-16.171,3.99,12.634,12.634,0,0,1,2.16,4.08c1.823-.29,3.838-0.58,6.286-1.1v6.1h-7.39v3.98h6.814a54,54,0,0,1-8.157,16.33,18.746,18.746,0,0,1,4.03,2.88,54.6,54.6,0,0,0,4.7-11v19.21h4.126v-20.36a53.5,53.5,0,0,0,3.167,6.39,15.652,15.652,0,0,1,2.591-3.27v17.24h4.271v-17.53h17.034v11.24c0,1.68,0,2.02-1.727,2.02a20.6,20.6,0,0,1-3.119-.24,11.355,11.355,0,0,1,2.159,4.7c6.862,0.58,6.862-2.3,6.862-3.98V3869.9h-25.48v2.93Zm15.163-21.32v-2.4c0.432-.2,1.248-0.48,1.248-1.01a0.777,0.777,0,0,0-.864-0.58l-5.566-.29v4.28H315.175v3.98h27.062v-3.98H331.009Zm7.342,6.1h-19.29v10.32h19.29v-10.32Zm-4.607,3.5v3.12H323.716v-3.12h10.028Zm-11.18,14.36v12.87h3.695v-2.45h8.3v-10.42h-12Zm8.4,3.03v4.32h-4.7v-4.32h4.7Zm45.715,10.75c2.927-1.01,7.534-2.64,11.324-6.72a20.906,20.906,0,0,0,5.615-14.21c0-11.24-8.877-18.01-19-18.01-13.2,0-22.216,11.43-22.216,21.51,0,8.12,5.854,13.88,9.452,13.88,2.735,0,5.231-3.03,7.822-8.93a70.752,70.752,0,0,0,5.278-21.95c8.445,0.05,13.723,6.34,13.723,13.54,0,2.79-.959,13.5-15.259,16.48A24.14,24.14,0,0,1,376.676,3889.25Zm-7-33.61a50.8,50.8,0,0,1-3.647,17.43c-1.248,3.12-2.639,6.77-4.463,6.77-1.871,0-4.414-3.55-4.414-8.36C357.147,3865.39,362.089,3857.56,369.671,3855.64Zm46.943-3.56a48.448,48.448,0,0,0-8.3-4.41l-2.352,4.03a32.164,32.164,0,0,1,8.158,4.47,18.915,18.915,0,0,1,2.495-3.99v4.23h9.453c-0.72,1.87-2.5,5.37-3.167,6.62-0.624.05-5.614,0.24-5.854,0.24l0.719,5.14a0.638,0.638,0,0,0,.624.53c0.48,0,.576-0.19,1.008-1.25,10.028-.77,13.675-1.06,22.312-2.11,0.432,0.67.864,1.34,1.92,3.26a15.641,15.641,0,0,1,3.886-2.88,55.9,55.9,0,0,0-6.957-9.55H447.8v-4.33H433.408v-2.97c0.72-.24,1.44-0.44,1.44-1.11,0-.48-0.336-0.57-0.816-0.62l-5.518-.29v4.99h-11.9Zm22.888,4.33-2.975,1.96c1.2,1.54,2.015,2.6,2.783,3.65-4.942.48-7.054,0.58-11.42,0.77,0.288-.53,1.439-2.45,2.831-5.33,0.96-.14,2.015-0.33,1.823-1.05H439.5Zm-2.3,13.2v16.81c0,2.02,0,4.03,4.318,4.03h2.543c2.736,0,3.983-.86,5.039-7.39a9.1,9.1,0,0,1-4.079-2.02c-0.48,4.47-.672,4.76-2.255,4.76a0.882,0.882,0,0,1-1.056-1.11v-13.3a1.622,1.622,0,0,0,1.1-.96,0.647,0.647,0,0,0-.768-0.58Zm-33.781-5.62a40.371,40.371,0,0,1,8.445,3.99,35.056,35.056,0,0,1,2.3-4.37,54.733,54.733,0,0,0-8.733-3.99Zm5.47,26.37a2.044,2.044,0,0,0,.768.24,0.445,0.445,0,0,0,.48-0.53,2.078,2.078,0,0,0-.72-1.25,91.051,91.051,0,0,0,5.9-15.46,21.038,21.038,0,0,1-4.126-2.4,71.059,71.059,0,0,1-7.15,17.09Zm19.818-20.56v19.84h4.654v-18.11a1.28,1.28,0,0,1,.48-0.38,0.653,0.653,0,0,0,.384-0.63c0-.48-0.336-0.52-0.864-0.52Zm-8.4-.19c0.1,4.76.048,5.28-.144,6.68-0.576,3.6-2.64,8.88-7.39,12,2.639,1.64,3.215,2.07,4.271,3.22,7.965-7.01,8.109-15.08,8.061-20.17a1.3,1.3,0,0,0,1.152-.91,0.659,0.659,0,0,0-.816-0.53Zm54.908-12.63a5.317,5.317,0,0,1-1.2.72c0.192-4.22.432-6.67,0.528-8.02a0.835,0.835,0,0,0,.864-0.77,0.935,0.935,0,0,0-1.056-.76l-4.894-.53c0.1,1.68.1,2.69-.048,11.91a38.284,38.284,0,0,1-9.981,1.73l1.152,5.28a43.792,43.792,0,0,0,8.733-2.11c0,0.43-.048,1.87-0.048,2.64-5.182,8.16-7.246,11.38-10.413,15.12l3.887,3.89c3.551-5.47,4.606-7.1,6.334-9.6-0.1,10.95-.1,12.2-0.288,14.21l5.566-.24a183.554,183.554,0,0,1-.672-20.07c1.3-1.49,8.349-9.6,12.668-9.6,2.3,0,2.3,2.01,2.3,2.83,0,2.21-1.439,13.11-1.439,15.56,0,7.87,5.038,8.88,6.717,8.88,2.016,0,5.854-1.63,9.021-5.28a30.971,30.971,0,0,1-1.967-4.8c-2.783,3.89-5.374,4.8-6.478,4.8-2.447,0-2.447-2.79-2.447-3.51a68.023,68.023,0,0,1,.528-7.01c0.24-1.77,1.008-8.5,1.008-9.79,0-4.76-2.927-6.58-5.806-6.58-1.968,0-6,.96-12,6.91,0.383-.86,1.487-3.26,1.631-3.55Z" transform="translate(-244.062 -3846.75)"/>
</svg>
