<svg xmlns="http://www.w3.org/2000/svg" width="255.218" height="108.688" viewBox="0 0 510.437 217.375">
  <defs>
    <style>
      .cls-1 {
        fill: #333;
        fill-rule: evenodd;
      }
    </style>
  </defs>
  <path id="_50_text_kv.svg" data-name="50% text_kv.svg" class="cls-1" d="M184.905,331.3a42.344,42.344,0,0,0,5.626.29c2.725,0,4.755-.116,6.147-0.174-0.464,3.534-.522,5.387-0.58,6.488-10.555,4.576-15.079,12.744-15.079,19.464,0,1.448.348,8.226,6.9,8.226,3.016,0,6.437-1.217,10.729-4.113a29.478,29.478,0,0,0,1.16,2.9c1.566-.985,1.914-1.216,5.046-3.07a22.757,22.757,0,0,1-1.45-3.649c5.046-4.693,9.395-12.107,11.425-16.684,6.9,1.97,8.178,6.6,8.178,9.616,0,10.2-13.456,12.687-17.457,13.382a22.276,22.276,0,0,1,3.537,4.75c12.354-2.549,20.3-8.805,20.3-18.074,0-9.326-8.235-15.582-19.893-15.582a32.121,32.121,0,0,0-7.771.984c0.174-1.158.348-2.606,0.812-5.155a97.871,97.871,0,0,0,19.487-4l-1.276-5.5c-2.552,1.1-7.54,3.128-17.167,4.286a47.041,47.041,0,0,1,2.2-6.546c0.522-.058,1.334-0.173,1.334-0.811,0-.463-0.29-0.579-0.986-0.811l-6.09-1.969a106.46,106.46,0,0,0-2.61,10.659c-2.146.173-3.944,0.173-4.35,0.173a39.6,39.6,0,0,1-8.119-.637Zm16.413,10.138a26.716,26.716,0,0,1,7.771-1.275,42.148,42.148,0,0,1-7.017,11.47A56.4,56.4,0,0,1,201.318,341.434Zm-4,14.945c-0.7.695-4.756,3.766-7.829,3.766-1.972,0-2.61-1.622-2.61-3.071,0-4,2.842-9.384,9.1-13.207A66.132,66.132,0,0,0,197.316,356.379Zm75.825-19.174a11.217,11.217,0,0,0-4.06,8.052,57,57,0,0,0,.58,6.025,25.271,25.271,0,0,0-5.858-.754c-7.482,0-10.671,4.055-10.671,8.284,0,5.677,5.509,8.689,12.121,8.689,2.03,0,10.555,0,10.787-8.4,1.856,0.985,3.074,1.622,9.106,6.372a50.7,50.7,0,0,1,3.538-4.576,64.952,64.952,0,0,0-12.818-7.879,31.211,31.211,0,0,1-.754-6.719c0-1.333.116-3.476,2.842-6.025Zm-2.668,19.522c0.058,2.375.116,5.966-5.684,5.966-0.348,0-6.148,0-6.148-3.881,0-2.491,2.61-3.707,5.452-3.707A13.893,13.893,0,0,1,270.473,356.727Zm-28.419-24.678a102.923,102.923,0,0,0,10.44-.4,103.476,103.476,0,0,1-12.528,24.967,36.856,36.856,0,0,1,5.626,2.491c5.626-7.878,11.367-22.187,13.4-28.211a81.932,81.932,0,0,0,10.672-2.259,29.13,29.13,0,0,1-.174-5.909,50.1,50.1,0,0,1-8.758,2.375c0.232-.869,1.508-5.156,1.8-6.082,0.638-.058,1.16-0.116,1.16-0.754,0-.463-0.29-0.579-0.812-0.753l-6.264-1.8c-0.406,2.027-.869,4.75-2.377,10.311a62.068,62.068,0,0,1-6.728.347,51.073,51.073,0,0,1-6.148-.347Zm29.7-.695c3.131,0.927,9.627,2.955,14.847,7.473,0.87-1.39,1.45-2.2,3.422-4.982-2.726-2.2-6.09-4.518-15.022-7.473Zm45.2-15.409a94.707,94.707,0,0,1-1.682,11.644c-1.856.116-5.22,0.405-9.106,0.405-2.262,0-3.769-.115-5.161-0.231l0.522,6.314a106.792,106.792,0,0,0,12.3-.579c-4.64,16.162-11.541,27.11-15.021,31.339a45.9,45.9,0,0,1,5.857,3.012c7.772-12.339,11.89-22.766,15.544-35.22a88.66,88.66,0,0,0,14.383-2.955l-0.986-5.966a45.5,45.5,0,0,1-11.832,3.128c0.232-1.1,1.508-6.43,1.8-7.589a1.087,1.087,0,0,0,1.1-.869c0-.347-0.348-0.637-1.1-0.811ZM326.52,343a98.381,98.381,0,0,1,12.643-.985,40.572,40.572,0,0,1,8.642.811,39.345,39.345,0,0,1,.464-5.909,50.688,50.688,0,0,0-8.468-.579,89.743,89.743,0,0,0-13.281.985V343Zm-2.9,6.893c-2.088,3.244-2.958,5.33-2.958,7.878,0,8.863,12.818,8.863,16.588,8.863a69,69,0,0,0,12.353-1.1,13.49,13.49,0,0,1-.348-3.186,23.254,23.254,0,0,1,.232-3.186,44.939,44.939,0,0,1-12.353,1.911c-8.236,0-10.962-1.448-10.962-3.765a9.052,9.052,0,0,1,2.494-5.445Zm67.432,16.51c3.538-1.217,9.1-3.186,13.687-8.11a25.209,25.209,0,0,0,6.786-17.147c0-13.555-10.73-21.723-22.967-21.723-15.949,0-26.852,13.787-26.852,25.952,0,9.79,7.075,16.741,11.425,16.741,3.306,0,6.322-3.649,9.453-10.775a85.124,85.124,0,0,0,6.38-26.473c10.208,0.058,16.587,7.647,16.587,16.336,0,3.36-1.16,16.278-18.443,19.869A29.311,29.311,0,0,1,391.052,366.4Zm-8.468-40.55a61.145,61.145,0,0,1-4.407,21.028c-1.508,3.765-3.19,8.168-5.394,8.168-2.262,0-5.336-4.287-5.336-10.08C367.447,337.61,373.421,328.168,382.584,325.851Zm69.561,7.183a73.967,73.967,0,0,1-17.051,21.9V332.455c0.811-.058,1.565-0.29,1.565-0.985,0-.521-0.58-0.7-1.913-0.985a44.172,44.172,0,0,0,2.377-4.924c2.2-5.387,2.436-5.966,2.668-6.488,1.044,0.058,1.682-.231,1.682-0.753a1.3,1.3,0,0,0-.986-0.984l-5.857-1.97c-3.538,11.528-8.584,19.232-14.21,25.257a14.124,14.124,0,0,1,4.35,4.344,59.164,59.164,0,0,0,4.35-5.445v29.254h5.974V355.163a17.76,17.76,0,0,1,4.523,3.591,70.3,70.3,0,0,0,14.325-19.579v14.192h-7.423v5.677h7.423v9.79h5.568v-9.79h7.366v-5.677H459.51V339.348c3.6,7.7,9.048,15.235,14.267,19.464a20.345,20.345,0,0,1,4.176-4.171,70.093,70.093,0,0,1-16.877-21.607h14.441v-5.5H459.51v-9.616c0.464-.174,1.276-0.521,1.276-1.1,0-.463-0.754-0.753-1.276-0.811l-5.568-.347v11.875H438.283v5.5h13.862Zm51.783-6.6v-4.055h7.945v-4.75H489.6v31.919h5.045v-1.8h11.31a39.633,39.633,0,0,1-.464,6.951,28.94,28.94,0,0,0-1.392-5.445l-2.494.695A35.95,35.95,0,0,1,503,356.437a7.388,7.388,0,0,1,2.32-.695c-1.218,5.851-2.088,7.7-4.988,7.7a26.4,26.4,0,0,1-3.654-.347,20.266,20.266,0,0,1,2.03,5.445c4.988-.232,7.54-0.347,9.512-4.518,2.435-5.272,2.841-15.583,2.9-20.739h-7.191v-4.344h5.626v-4.229h-5.626v-4.055h5.626v-0.232c1.217,0.985,1.391,1.275,3.073,3.65a23.5,23.5,0,0,0,3.132-2.143V334.6h7.076v3.244h-10.5v14.424h9.512c-2.378,7.821-9.86,10.949-13.107,12.281a16.229,16.229,0,0,1,3.653,4.634,28.975,28.975,0,0,0,13.4-12.4,30.537,30.537,0,0,0,12.121,11.991c0.812-1.68,1.334-2.317,3.6-4.75-8.584-4.287-11.774-10.427-12.412-11.76h10.15V337.842H528.17V334.6h6.96v-3.3a24.758,24.758,0,0,0,3.248,1.912,15.352,15.352,0,0,1,3.422-4.982c-5.51-2.143-11.774-6.256-14.094-10.021,0.812-.116,1.508-0.232,1.508-0.811,0-.638-0.87-0.811-1.218-0.869l-4.639-.811c-2.9,5.85-7.6,10.195-13.8,13.555V326.43h-5.626Zm-9.28,8.284v-4.055h4.582v4.055h-4.582Zm0,8.573v-4.344h4.582v4.344h-4.582Zm0-16.857v-4.055h4.582v4.055h-4.582Zm22.851,21.2v-5.213h5.336v2.954a22.531,22.531,0,0,1-.174,2.259H517.5Zm16.471-5.213v5.213h-5.858c0.058-.695.058-1.506,0.058-2.143v-3.07h5.8ZM518.2,329.906a45.127,45.127,0,0,0,6.9-7.531,41.968,41.968,0,0,0,8.061,7.531H518.2Zm-29.52,21.144a59.982,59.982,0,0,1-1.16,12.338,24.194,24.194,0,0,1,4.118.464,89.257,89.257,0,0,0,.7-11.18,1.374,1.374,0,0,0,1.043-.811c0-.579-1.043-0.637-1.507-0.637Zm4.871,0.058a66.127,66.127,0,0,1,.29,10.195,29.434,29.434,0,0,1,3.306-.927,71.7,71.7,0,0,0-.754-9.674Zm4.118-.464A38.606,38.606,0,0,1,499,358.117a12.019,12.019,0,0,1,2.668-.695,43.482,43.482,0,0,0-1.566-7.241Zm73.1-35.394a45.972,45.972,0,0,1-3.48,8.284c-1.16.058-3.074,0.116-5.394,0.116a75.417,75.417,0,0,1-8.119-.406v5.793c4.581,0.058,6.031,0,10.729-.232a120.306,120.306,0,0,1-13.977,19l5.394,3.3c6.611-10.717,11.483-13.44,15.775-13.44s4.987,2.491,5.451,4.113c-4.813,2.2-15.775,8.11-15.775,15.757,0,5.1,4.7,9.5,17.921,9.5a81.475,81.475,0,0,0,16.007-1.506,24.357,24.357,0,0,1,.7-6.314,69.592,69.592,0,0,1-17.921,2.433c-10.5,0-10.9-2.665-10.9-4.461,0-2.317,1.218-4.982,10.671-9.906a61.652,61.652,0,0,1-.232,9.327c2.146-.116,5.046-0.058,6.032,0,0.116-1.564.174-3.07,0.174-5.793a58.523,58.523,0,0,0-.232-6.2,132.973,132.973,0,0,1,14.267-4.924l-2.32-6.2c-1.74.868-8.641,3.823-12.991,5.734a9.372,9.372,0,0,0-9.1-5.966,13.05,13.05,0,0,0-6.148,1.564c1.276-1.912,2.088-3.244,4-6.488,3.711-.348,10.265-1.159,17.515-2.607l-0.174-5.908a73.418,73.418,0,0,1-14.442,3.07c1.218-2.491,1.682-3.476,2.146-4.519,1.45-.058,1.508-0.695,1.508-0.869a1.213,1.213,0,0,0-1.218-.984ZM120.58,396.508v54.568h5.1v-49.47H140.82v-5.1H120.58Zm39.521,1.216a48.619,48.619,0,0,1,.812,9.153c0.058,12.339.116,13.034,0.579,21.839a29.64,29.64,0,0,0-3.653-.29c-7.714,0-15.543,3.534-15.543,10.022,0,4.287,3.537,9.732,14.325,9.732,6.5,0,12.469-2.143,11.715-12.339a46.322,46.322,0,0,1,16.529,9.732,49.378,49.378,0,0,1,4.06-5.329c-5.22-4.345-15.369-9.385-21.053-10.427-0.7-2.433-.87-10.08-0.87-14.077,3.422-.058,12.875-0.521,19.255-2.2a41.049,41.049,0,0,1,.29-6.6c-4.292,1.39-9.743,2.665-19.487,2.838,0-.637.058-4.634,0.464-8.863,0.7-.231,1.218-0.405,1.218-1.042,0-.58-0.522-0.753-1.16-0.869Zm1.971,36.5c0.058,1.564.116,2.259,0.116,3.128,0,4.461-2.725,5.619-6.147,5.619-5.278,0-7.888-1.911-7.888-4.4,0-2.607,3.538-4.866,9.106-4.866A21.367,21.367,0,0,1,162.072,434.219Zm56.668-36.5a88.918,88.918,0,0,1-1.914,13.034c-2.2.348-12.933,2.781-15.427,3.244l2.146,6.141a74.858,74.858,0,0,1,11.773-3.418,71.985,71.985,0,0,1-14.963,28.037,29.293,29.293,0,0,1,5.742,3.07c9.859-12.8,13.339-24.677,15.485-32.092a28.516,28.516,0,0,1,3.248-.232c3.363,0,6.727,1.1,6.727,8.516,0,7.009-2.32,13.265-3.885,15.525-0.928,1.39-2.146,2.49-5.1,2.49a13.022,13.022,0,0,1-5.684-1.274,27.64,27.64,0,0,1,.464,6.662,30.244,30.244,0,0,0,5.916.695,9.787,9.787,0,0,0,8.525-4.055c2.784-3.707,5.626-12.107,5.626-20.738,0-13.787-9.395-13.556-14.383-13.266,0.29-1.274,1.8-7.762,1.914-8.457,1.1-.116,1.45-0.638,1.45-0.985,0-.464-0.406-0.637-1.044-0.811Zm18.385,9.153c7.018,7.531,9.163,14.772,9.163,16.741,0,2.723-3.305,3.418-6.205,3.939a34.314,34.314,0,0,1,2.436,5.156c7.655-1.274,9.917-4.171,9.917-7.82,0-4.461-3.828-13.729-10.613-20.97Zm31.155,17.958c3.538-1.738,15.891-6.488,23.373-6.488,9.453,0,10.207,6.835,10.207,9.384,0,12.629-15.949,13.324-21.227,13.324-1.45,0-2.378-.058-3.248-0.116a19.394,19.394,0,0,1,2.088,5.619c1.45-.058,11.194-0.348,17.051-3.128,9.744-4.577,10.9-12.744,10.9-16.046,0-5.33-3.306-14.019-15.543-14.019-5.22,0-9.86,1.159-17.573,3.07a66.08,66.08,0,0,1-8.584,1.8Zm69.23-27.284a94.674,94.674,0,0,1-1.681,11.643c-1.856.116-5.22,0.406-9.106,0.406-2.262,0-3.77-.116-5.162-0.232l0.522,6.314a106.8,106.8,0,0,0,12.3-.579c-4.64,16.162-11.542,27.11-15.021,31.339a46.175,46.175,0,0,1,5.857,3.012c7.772-12.338,11.889-22.765,15.543-35.22a88.775,88.775,0,0,0,14.383-2.954l-0.985-5.967a45.5,45.5,0,0,1-11.832,3.128c0.232-1.1,1.508-6.43,1.8-7.588a1.087,1.087,0,0,0,1.1-.869c0-.348-0.348-0.638-1.1-0.811Zm9.57,27.052a98.381,98.381,0,0,1,12.643-.985,40.64,40.64,0,0,1,8.642.811,39.334,39.334,0,0,1,.464-5.908,50.534,50.534,0,0,0-8.468-.58,89.734,89.734,0,0,0-13.281.985V424.6Zm-2.9,6.894c-2.088,3.244-2.958,5.329-2.958,7.878,0,8.863,12.818,8.863,16.587,8.863a68.936,68.936,0,0,0,12.354-1.1,13.49,13.49,0,0,1-.348-3.186,23.267,23.267,0,0,1,.232-3.186,44.95,44.95,0,0,1-12.354,1.912c-8.235,0-10.961-1.449-10.961-3.766a9.052,9.052,0,0,1,2.494-5.445Zm43.01-31.34v40.2a22.642,22.642,0,0,1-.29,3.417l4.292,4.287c1.566-.811,9.453-4.46,11.251-5.329a87.574,87.574,0,0,0,27.259-20.1,29.454,29.454,0,0,1-3.016-6.2c-7.772,10.427-22.155,19.638-33.174,23.345V402.243c0.348-.174,1.218-0.522,1.218-1.217,0-.521-0.464-0.521-1.218-0.579Zm98.083-3.823a5.272,5.272,0,1,0,5.22,5.272A5.256,5.256,0,0,0,485.273,396.334Zm0,2.433a2.845,2.845,0,0,1,2.842,2.839,2.871,2.871,0,1,1-5.742,0A2.858,2.858,0,0,1,485.273,398.767Zm-23.14,12.8H441.776v5.5h20.357v20.855c0,3.765,0,4.75-2.958,4.75a38.369,38.369,0,0,1-5.8-.522,22.6,22.6,0,0,1,1.856,6.083,34.77,34.77,0,0,0,3.828.231c9.221,0,9.221-3.823,9.221-8.4v-23h20.125v-5.5H468.28V400.621a1.114,1.114,0,0,0,1.044-.869c0-.579-0.58-0.637-1.334-0.695l-5.857-.232v12.744Zm-10.614,10.254a44.794,44.794,0,0,1-13.281,16.683,38.554,38.554,0,0,1,5.22,3.765A69.132,69.132,0,0,0,456.043,426.4c0.928,0.116,1.508-.116,1.508-0.579a1.219,1.219,0,0,0-.754-0.927Zm22.387,3.186a77.694,77.694,0,0,1,12.411,16.335,31.935,31.935,0,0,1,4.64-4.055c-2.552-4.75-8.99-12.4-12.585-15.814Zm27.727-4.171v6.256H551.22v-6.256H501.633Zm78.053-3.476v-16.8a1.118,1.118,0,0,0,1.1-.869c0-.463-0.348-0.637-1.044-0.695l-6.38-.406v50.4h6.322V419.274a83.971,83.971,0,0,1,20.646,14.25,47.357,47.357,0,0,1,3.654-5.156c-6.9-6.545-15.717-11.469-21.807-14.482Zm51.351,34.062V396.855h-5.1v49.471H610.8v5.1h20.241ZM238.786,500.705a40.041,40.041,0,0,1,5.278,6.314,18.015,18.015,0,0,1,3.131-2.78,60.747,60.747,0,0,0-5.277-6.2Zm5.858-4.692a39.886,39.886,0,0,1,5.335,6.488,16.006,16.006,0,0,1,3.19-2.723,41.488,41.488,0,0,0-5.51-6.14Zm5.8-14.888c-16.7,3.882-42.453,5.214-45.469,5.214-1.276,0-2.2-.058-3.306-0.116l0.928,7.415c3.422-.927,22.793-3.592,29.636-4-3.48,2.259-14.615,9.616-14.615,21.839,0,12.976,11.889,18.189,21,20.043a40.064,40.064,0,0,1,2.726-6.662c-15.949-1.448-17.573-9.9-17.573-13.439,0-10.948,13.687-23.751,27.954-23.635Zm30.952,9.153v-9.037c0.87-.231,1.624-0.463,1.624-1.1a1.026,1.026,0,0,0-1.16-.811l-6.612-.406v11.354h-10.9v5.5h10.9v11.76H261.5v5.735h52.777v-5.735H300.65v-11.76h10.961v-5.5H300.65v-9.21c0.522-.174,1.508-0.464,1.508-1.1a0.874,0.874,0,0,0-.986-0.753l-6.728-.406v11.47H281.4Zm13.049,5.5v11.76H281.4v-11.76h13.049Zm-15.485,18.306a51.245,51.245,0,0,1-17.515,14.25,18.907,18.907,0,0,1,5.336,4.229c7.539-4.171,13.919-11.007,16.7-14.019a8.15,8.15,0,0,0,1.044.116,0.655,0.655,0,0,0,.812-0.579,1.466,1.466,0,0,0-.87-0.985Zm12.643,3.3a58,58,0,0,0,17.863,15.235,16.317,16.317,0,0,1,4.64-4.461c-9.569-5.04-13.745-9.384-17.4-14.076Zm55.838-39.16a51.639,51.639,0,0,1-1.682,7.241H326.619v5.214h17.167c-1.508,3.359-5.22,11.527-18.153,18.653a30.316,30.316,0,0,1,4.64,4.112,39.555,39.555,0,0,0,9.279-7.125v25.6H345.7V519.3h19.777v3.939c0,1.622,0,2.955-2.842,2.955a31.389,31.389,0,0,1-4.814-.464,12.683,12.683,0,0,1,1.8,6.256c8.12,0,12,0,12-7.646V496.65H347.208a47.884,47.884,0,0,0,3.016-5.966H379.57V485.47H352.138c0.29-.927.58-1.969,1.218-4.46,1.043-.174,1.565-0.232,1.565-0.927,0-.637-0.232-0.753-1.391-0.927ZM365.477,510.5v4.171H345.7V510.5h19.777ZM345.7,505.861v-4.055h19.777v4.055H345.7Zm50.869-25.778a23.36,23.36,0,0,1,.174,3.3c0,3.591-.7,21.028-0.7,24.967,0,10.659.522,22.186,12.7,22.186,6.612,0,17.747-3.128,27.258-18.305a26.6,26.6,0,0,1-4.581-5.1c-1.74,3.766-10.556,17.205-22.155,17.205-6.264,0-7.018-5.156-7.018-15.93,0-4.113.29-18.074,1.508-25.605,0.58-.115,1.45-0.405,1.45-0.984s-0.522-.638-1.392-0.753Zm70.61-.753a48.593,48.593,0,0,1,.812,9.152c0.058,12.339.116,13.034,0.58,21.839a29.85,29.85,0,0,0-3.654-.289c-7.713,0-15.543,3.533-15.543,10.021,0,4.287,3.538,9.732,14.325,9.732,6.5,0,12.47-2.143,11.716-12.339a46.339,46.339,0,0,1,16.529,9.732A49.6,49.6,0,0,1,496,521.849c-5.219-4.345-15.369-9.384-21.052-10.427-0.7-2.433-.87-10.08-0.87-14.077,3.422-.058,12.875-0.521,19.255-2.2a41.049,41.049,0,0,1,.29-6.6c-4.292,1.391-9.744,2.665-19.487,2.839,0-.637.058-4.634,0.464-8.863,0.7-.232,1.218-0.406,1.218-1.043,0-.579-0.522-0.753-1.16-0.869Zm1.972,36.494c0.058,1.565.116,2.26,0.116,3.129,0,4.46-2.726,5.619-6.148,5.619-5.277,0-7.887-1.912-7.887-4.4,0-2.607,3.538-4.866,9.1-4.866A21.445,21.445,0,0,1,469.151,515.824Zm48.81-31.281c2.842,0.811,9.511,2.723,21.981,2.955a49.123,49.123,0,0,1,.812-6.373,31.1,31.1,0,0,1-3.712.174,57.079,57.079,0,0,1-18.153-2.78Zm-7.54,22.766c6.96-5.271,17.225-9.848,23.9-9.848,5.336,0,9.279,3.939,9.279,10.08,0,6.546-5.277,16.625-25.286,19.695a20.177,20.177,0,0,1,3.712,5.272c14.267-2.491,27.664-11.238,27.664-25.373,0-8.052-5.046-15.235-14.963-15.235-6.67,0-12.585,2.375-18.849,4.924-5.8,2.317-6.612,2.549-8.526,2.781ZM576.3,482.1h-7.524v15.978l1.58,18.693h4.363l1.581-18.693V482.1Zm0.253,41.3h-8.093v8.463h8.093V523.4Z" transform="translate(-120.594 -315.25)"/>
</svg>
