<svg xmlns="http://www.w3.org/2000/svg" width="242.797" height="19.77" viewBox="0 0 485.594 39.54">
  <defs>
    <style>
      .cls-1 {
        fill: #999;
        fill-rule: evenodd;
      }
    </style>
  </defs>
  <path id="_50_text_section_04.svg" data-name="50% text_section_04.svg" class="cls-1" d="M167.431,8631.19c-5.169,1.18-17.273,3.02-19.248,3.32,9.12-7.81,9.876-8.48,14.247-11.26l-1.723-2.73c-4.749,1.39-14.457,1.77-18.156,1.77-1.849,0-2.942-.04-3.824-0.09l0.462,4.33c2.606-.08,8.069-0.42,13.449-1.05a30.36,30.36,0,0,1-2.522,2.44c-2.858,2.56-5.715,5.08-8.7,7.51a88.312,88.312,0,0,1-10.381,1.01l1.177,5.04a141.149,141.149,0,0,1,18.492-3.74c-2.564,1.98-6.725,5.17-6.725,10.5,0,8.61,9.961,9.32,15.886,9.58a37.92,37.92,0,0,1,1.471-4.16c-10.885.17-12.86-2.73-12.86-5.8,0-6.04,8.321-12.3,19.5-12.3Zm31.068,25.07a22.962,22.962,0,0,0,9.918-5.88,18.275,18.275,0,0,0,4.917-12.43c0-9.82-7.775-15.75-16.642-15.75-11.558,0-19.459,10-19.459,18.82,0,7.09,5.128,12.13,8.28,12.13,2.395,0,4.58-2.64,6.85-7.81a61.7,61.7,0,0,0,4.623-19.19,11.632,11.632,0,0,1,12.02,11.84c0,2.44-.841,11.8-13.365,14.41A21.168,21.168,0,0,1,198.5,8656.26Zm-6.136-29.39a44.357,44.357,0,0,1-3.194,15.24c-1.093,2.73-2.312,5.92-3.909,5.92-1.639,0-3.866-3.11-3.866-7.31C181.394,8635.39,185.723,8628.55,192.363,8626.87Zm49.48,4.91v-7.94a1.332,1.332,0,0,0,.882-0.71,0.838,0.838,0,0,0-.924-0.59l-4.119-.29v10.45l-5.379,1.14,0.84,4.03,4.539-.97v14.2c0,3.65,1.387,5.75,6.766,5.75h9.33c3.531,0,6.809-.08,8.364-6.76a8.253,8.253,0,0,1-3.657-1.93c-0.882,3.99-1.639,4.7-4.581,4.7h-8.111c-3.572,0-3.95-.5-3.95-2.65v-14.19l4.328-.92v12.85h4.077v-13.74l4.413-.92v8.86c0,1.26,0,2.02-1.6,2.02-0.21,0-1.513-.09-2.228-0.17a10.638,10.638,0,0,1,1.555,4.32c6.515-.04,6.515-3.27,6.515-7.26v-11.13l-2.228-1.3-6.43,1.38v-8.86a1.275,1.275,0,0,0,1.009-.75c0-.34-0.379-0.55-0.967-0.59l-4.119-.29v11.33Zm-10.633.04a1.206,1.206,0,0,0,.966-0.76,1.8,1.8,0,0,0-1.134-.75,57.234,57.234,0,0,0,4.076-8.15c0.547-.08,1.177-0.17,1.177-0.59a0.777,0.777,0,0,0-.546-0.63l-4.077-1.68a44.3,44.3,0,0,1-10.044,16.59,14.219,14.219,0,0,1,2.689,3.45c0.883-.97,1.639-1.89,2.732-3.24v21.84h4.161v-26.08Zm59.52,24.44a22.962,22.962,0,0,0,9.918-5.88,18.275,18.275,0,0,0,4.917-12.43c0-9.82-7.775-15.75-16.643-15.75-11.557,0-19.458,10-19.458,18.82,0,7.09,5.127,12.13,8.279,12.13,2.4,0,4.581-2.64,6.851-7.81a61.729,61.729,0,0,0,4.623-19.19,11.631,11.631,0,0,1,12.019,11.84c0,2.44-.84,11.8-13.364,14.41A21.215,21.215,0,0,1,290.73,8656.26Zm-6.136-29.39a44.357,44.357,0,0,1-3.194,15.24c-1.093,2.73-2.312,5.92-3.909,5.92-1.639,0-3.866-3.11-3.866-7.31C273.625,8635.39,277.953,8628.55,284.594,8626.87Zm56.3-.47a19.68,19.68,0,0,1,2.354-1.59,42.711,42.711,0,0,0-6.22-5.97l-3.573,2.78a37.249,37.249,0,0,1,4.96,4.78H326.727v3.87h10.549v8.44H328.45v4.07h8.826v9.83H325.634v4.11h27.654v-4.11h-11.6v-9.83h8.741v-4.07h-8.741v-8.44H352.7v-3.87H340.89Zm-23.031-3.73a51.977,51.977,0,0,1,6.851,4.57,28.7,28.7,0,0,1,2.311-3.69,69.263,69.263,0,0,0-6.892-4.41Zm-3.95,11.38a69.039,69.039,0,0,1,7.985,4.32,27.773,27.773,0,0,1,2.017-3.82,42.628,42.628,0,0,0-8.027-4.37Zm4.076,23.22a3.523,3.523,0,0,0,.841.46,0.446,0.446,0,0,0,.462-0.54,3.772,3.772,0,0,0-.252-0.93,93.3,93.3,0,0,0,6.851-12.43,12.948,12.948,0,0,1-3.11-2.94,71.735,71.735,0,0,1-8.406,13.94Zm61.21-9.24a21.063,21.063,0,0,1,3.446,4.54c0.967-.55,2.4-1.43,3.32-1.98a29.417,29.417,0,0,0-3.068-3.74h10.759v-13.18H368.1v13.18h13.028Zm-6.766-9.2v-2.22h17.062v2.22H372.429Zm17.062,2.73v2.4H372.429v-2.4h17.062Zm-22.274,6.43a28.583,28.583,0,0,1-5.463,7.64,10.133,10.133,0,0,1,3.53,2.23,37.42,37.42,0,0,0,5.085-7.02c0.547,0,1.219,0,1.219-.54a1.254,1.254,0,0,0-.925-0.76Zm15.886-25.62v-1.59a1.088,1.088,0,0,0,.841-0.63,0.682,0.682,0,0,0-.841-0.55l-4.538-.29v3.06H363.981v3.4h8.658l-2.1.55a13.241,13.241,0,0,1,1.723,2.14H361.67v3.32h38.5v-3.32H389.449c0.379-.59.841-1.34,1.009-1.64,0.378-.08,1.177-0.16,1.177-0.63a0.664,0.664,0,0,0-.336-0.42h6.43v-3.4H383.1Zm3.194,3.4a27.42,27.42,0,0,1-1.428,2.69h-9.541l1.6-.46a18.217,18.217,0,0,0-1.723-2.23h11.1Zm-13.784,22.13v5.8c0,2.77.882,3.86,4.581,3.86h8.741c4.749,0,5.506-1.72,6.346-5.25a9.151,9.151,0,0,1-3.656-1.89c-0.546,2.69-.967,3.74-3.32,3.74h-6.388c-1.765,0-2.4-.08-2.4-1.85v-2.85a0.939,0.939,0,0,0,.757-0.63c0-.46-0.589-0.51-0.883-0.55Zm18.828,1.68a38.973,38.973,0,0,1,5.547,7.31,18.845,18.845,0,0,1,3.362-2.35,42.811,42.811,0,0,0-5.421-6.85Zm26.969-14.53a3.78,3.78,0,1,0,3.782,3.78A3.793,3.793,0,0,0,418.31,8635.05Zm41.846,12.31h16.685v-3.53H438.512v3.53H455.87v5.16c0,1.01-.127,1.39-1.555,1.39a19.862,19.862,0,0,1-3.573-.38,11.185,11.185,0,0,1,1.471,4.41c0.589,0.04,1.135.09,1.975,0.09,5,0,5.968-.97,5.968-4.67v-6Zm-12.86.38c-1.387,1.93-3.236,4.11-8.153,7.26a15.891,15.891,0,0,1,3.7,2.56c1.723-1.17,3.32-2.43,7.145-6.76a3.806,3.806,0,0,0,.63.04,0.571,0.571,0,0,0,.673-0.46,0.964,0.964,0,0,0-.589-0.75Zm16.054-20.87a36.625,36.625,0,0,1-9.624,7.55,15.419,15.419,0,0,1,3.152,2.4,41.178,41.178,0,0,0,7.4-7.02v6.98h3.7v-7.44a59.717,59.717,0,0,0,6.767,7.39,14.243,14.243,0,0,1,2.9-3.1,34.232,34.232,0,0,1-8.489-6.76h7.439v-3.32h-8.616v-2.56c0.715-.3,1.051-0.42,1.051-0.76,0-.55-0.588-0.55-1.051-0.59l-3.7-.21v4.12h-5.716v3.32h4.791Zm-12.272,3.27a26.583,26.583,0,0,0,2.606,3.28,12.311,12.311,0,0,1,2.522-2.36,29.456,29.456,0,0,1-4.707-4.19h5.547v-3.32h-5.968v-2.48a1.254,1.254,0,0,0,1.009-.76c0-.29-0.336-0.5-1.051-0.54l-3.53-.25v4.03h-8.783v3.32h7.9a47.018,47.018,0,0,1-9.078,8.23,15.933,15.933,0,0,1,3.446,2.39,47,47,0,0,0,6.514-7.27v6.56h3.572v-6.64Zm19.5,7.94H444.774v3.4h25.805v-3.4Zm-6.64,12.18a43.882,43.882,0,0,1,7.691,7.56,33.945,33.945,0,0,1,3.488-2.9,38.318,38.318,0,0,0-7.943-7.35Zm42.885-17.64v-11.26a1.446,1.446,0,0,0,1.135-.92c0-.46-0.672-0.55-1.051-0.55l-4.623-.25v32.25H495.6v-23.26c0.546-.21,1.135-0.38,1.135-0.88,0-.42-0.42-0.46-1.009-0.51l-4.665-.29v24.94h-6.64v4.33h38.623v-4.33H506.824V8636.9h14.121v-4.28H506.824Zm58.242,10.12v-5.12H551.113v-1.89h11.138v-8.15H551.113v-1.93h17.021v-3.28H551.113v-1.3a1.2,1.2,0,0,0,1.051-.76c0-.46-0.63-0.5-0.8-0.5l-4.5-.25v2.81H529.848v3.28h17.021v1.93H535.858v8.15h11.011v1.89H532.79v3.02h14.079v2.1H529.806v3.02h17.063v2.14H532.79v3.32h14.079v1.56c0,1.3-.715,1.42-1.555,1.42a22.1,22.1,0,0,1-3.741-.33A12.791,12.791,0,0,1,543,8657.9c0.547,0.04,1.051.08,1.976,0.08,4.58,0,6.135-.79,6.135-3.73v-3.03H560.7v1.56h4.37v-7.02h3.194v-3.02h-3.194Zm-13.953,5.16v-2.14H560.7v2.14h-9.583Zm0-5.16v-2.1H560.7v2.1h-9.583Zm7.1-12.26v2.26h-7.1v-2.26h7.1Zm-18.282,2.26v-2.26h6.935v2.26h-6.935Zm58.36,16.76h8.784l-2.732,2.44a31.964,31.964,0,0,0,9.5,6.04,8.928,8.928,0,0,1,2.774-3.19,28.945,28.945,0,0,1-9.33-5.29h6.01v-21.37H602.917c0.379-.89,1.093-2.61,1.639-4.08h10.759v-3.53H590.94v2.57H576.9v3.99h4.581v17.26c-1.765.5-3.489,0.88-5.3,1.21l1.135,4.29a0.823,0.823,0,0,0,.672.67c0.547,0,.631-0.63.715-1.18,1.975-.54,7.271-2.06,12.482-3.82a18.842,18.842,0,0,1,.462-4.28c-1.177.5-4.161,1.38-5.758,1.89v-16.04h5.086v-3.03h8.993c-0.546,1.43-.966,2.52-1.681,4.08h-5.379v21.37h4.665a25.573,25.573,0,0,1-9.582,5.96,10.14,10.14,0,0,1,3.7,2.9,36.956,36.956,0,0,0,8.448-5.92,3.814,3.814,0,0,0,.882.17,0.463,0.463,0,0,0,.5-0.42,0.79,0.79,0,0,0-.42-0.67Zm10.675-9.36H597.2v-2.82h11.767v2.82Zm-11.767-8.78h11.767v2.81H597.2v-2.81Zm11.767,14.78H597.2v-2.85h11.767v2.85Z" transform="translate(-131.031 -8618.84)"/>
</svg>
