<svg xmlns="http://www.w3.org/2000/svg" width="187.391" height="17.795" viewBox="0 0 374.781 35.59">
  <defs>
    <style>
      .cls-1 {
        fill: #333;
        fill-rule: evenodd;
      }
    </style>
  </defs>
  <path id="_50_text_guide_02.svg" data-name="50% text_guide_02.svg" class="cls-1" d="M246.656,6910.69v3.49h-9.172v-3.49h9.172Zm-6.584,6.8a24.872,24.872,0,0,0,10.543,17.19,14.265,14.265,0,0,1,2.816-2.93,23.47,23.47,0,0,1-6.813-6.61,67.08,67.08,0,0,0,4.948-4.99c0.8-.03,1.256-0.03,1.256-0.53a0.612,0.612,0,0,0-.3-0.49l-2.436-1.64H250.5v-16.58H233.869v28.41a38.545,38.545,0,0,1-4.111.95l0.99,3.88a0.751,0.751,0,0,0,.5.65,1.138,1.138,0,0,0,.723-0.99c4.681-1.45,5.214-1.6,10.161-3.39a8.221,8.221,0,0,1-.114-1.25c0-.61.114-1.68,0.191-2.47a40.578,40.578,0,0,1-4.72,1.56v-10.77h2.588Zm-2.588-9.92v-3.46h9.172v3.46h-9.172Zm11.456,9.92a41.749,41.749,0,0,1-4,4.57,17.673,17.673,0,0,1-1.332-4.57h5.328Zm-21.579-.49a50.742,50.742,0,0,0,2.854,6.12,15.224,15.224,0,0,1,2.74-2.7,36.613,36.613,0,0,1-5.594-9.47v-0.23h5.366v-3.23h-5.366v-6.2c0.723-.34.875-0.42,0.875-0.8,0-.41-0.419-0.45-0.875-0.49l-3.349-.27v7.76h-6.09v3.23h5.747c-0.875,3.5-3.235,10.16-7.079,14.99a11.162,11.162,0,0,1,3.5,2.39,49.171,49.171,0,0,0,3.92-9.62v16.24h3.349V6917Zm49.527-10.5c0.114-.87.343-2.51,0.571-4.79,0.914-.27.99-0.46,0.99-0.72,0-.23-0.153-0.34-0.761-0.46l-3.654-.61a60.408,60.408,0,0,1-.8,8.9,34.713,34.713,0,0,1-2.664,9.43l0.038-3.12a21.192,21.192,0,0,1-2.322.99v-5.89h3.425v-3.5h-3.425v-5.4c0.8-.34.99-0.42,0.99-0.8,0-.42-0.343-0.42-0.952-0.45l-3.654-.23v6.88h-3.729v3.5h3.729v7.11a24.065,24.065,0,0,1-4.414,1.1l0.647,3.62c0.114,0.64.19,0.99,0.571,0.99,0.494,0,.532-0.54.608-1.03a25.207,25.207,0,0,0,2.588-.88v8.41c0,0.95,0,1.33-1.446,1.33a14.014,14.014,0,0,1-2.321-.27,7.54,7.54,0,0,1,1.218,4c4.909,0.15,6.165-.73,6.165-3.96V6919.7c1.18-.53,1.6-0.72,2.055-0.95a16.081,16.081,0,0,1-1.6,2.85,8.548,8.548,0,0,1,3.006,2.05,40.745,40.745,0,0,0,1.979-4.26,27.918,27.918,0,0,0,1.256,5.21,23.364,23.364,0,0,1-6.546,7.61,7.193,7.193,0,0,1,2.855,2.13,22.08,22.08,0,0,0,5.4-6.28c2.588,4.04,5.9,5.86,17.888,5.52a8.947,8.947,0,0,1,1.446-3.88c-1.713.15-3.045,0.27-5.062,0.27-6.051,0-10.124-.73-12.559-5.18,2.245-5.02,3.387-9.81,3.425-17.15l-1.294-1.14h-3.654Zm1.789,3.5a33.339,33.339,0,0,1-1.865,10.27,36.964,36.964,0,0,1-1.294-6.58c0.533-2.09.723-3.08,0.837-3.69h2.322Zm13.283-8.14h-8.716v8.86c0,6.43-.609,10.65-2.778,14.87a9.085,9.085,0,0,1,2.892,1.52c2.893-5.74,2.893-13.31,2.893-16.35v-5.47h2.588v18.59c0,0.91,0,2.7,2.169,2.7h2.284c1.484,0,2.664-.76,3.311-5.66a6.039,6.039,0,0,1-2.664-1.98c-0.305,4.11-.8,4.11-1.485,4.11-0.456,0-.494-0.12-0.494-0.73v-20.46Zm31.887,31.26a20.835,20.835,0,0,0,8.982-5.32,16.543,16.543,0,0,0,4.453-11.26c0-8.9-7.041-14.26-15.071-14.26-10.466,0-17.621,9.05-17.621,17.04,0,6.43,4.643,10.99,7.5,10.99,2.169,0,4.149-2.4,6.2-7.07a55.981,55.981,0,0,0,4.186-17.38,10.531,10.531,0,0,1,10.885,10.72c0,2.21-.761,10.69-12.1,13.04A19.625,19.625,0,0,1,323.847,6933.12Zm-5.556-26.62a40.174,40.174,0,0,1-2.893,13.81c-0.989,2.47-2.093,5.36-3.539,5.36-1.484,0-3.5-2.82-3.5-6.62A13.854,13.854,0,0,1,318.291,6906.5Zm48.662,7.46a7.342,7.342,0,0,0-2.665,5.28,37.736,37.736,0,0,0,.381,3.96,16.54,16.54,0,0,0-3.844-.5c-4.909,0-7,2.66-7,5.44,0,3.73,3.616,5.71,7.955,5.71,1.332,0,6.926,0,7.078-5.52,1.218,0.65,2.018,1.07,5.976,4.18a33.415,33.415,0,0,1,2.321-3,42.6,42.6,0,0,0-8.411-5.17,20.586,20.586,0,0,1-.494-4.41,4.936,4.936,0,0,1,1.864-3.96Zm-1.751,12.81c0.038,1.56.076,3.92-3.73,3.92-0.228,0-4.034,0-4.034-2.55,0-1.63,1.712-2.43,3.577-2.43A9.147,9.147,0,0,1,365.2,6926.77Zm-18.649-16.2c2.893,0.04,5.785-.15,6.851-0.26a68.159,68.159,0,0,1-8.221,16.39,23.914,23.914,0,0,1,3.692,1.63c3.691-5.17,7.459-14.56,8.791-18.52a53.942,53.942,0,0,0,7-1.48,19.181,19.181,0,0,1-.114-3.88,32.557,32.557,0,0,1-5.747,1.56c0.152-.57.989-3.39,1.18-4,0.418-.03.761-0.07,0.761-0.49,0-.3-0.19-0.38-0.533-0.49l-4.11-1.18c-0.267,1.33-.571,3.12-1.561,6.77a43.171,43.171,0,0,1-4.414.22,34.762,34.762,0,0,1-4.035-.22Zm19.486-.46a26.249,26.249,0,0,1,9.743,4.91c0.571-.91.952-1.44,2.246-3.27-1.789-1.44-4-2.97-9.858-4.91Zm22.785-7.52a68.34,68.34,0,0,0-1.636,13.19c0,10.8,4.719,16.58,7.84,16.58,3.653,0,6.812-7.87,7.5-9.54a12.436,12.436,0,0,1-2.778-2.59c-0.875,2.21-2.854,7.07-4.491,7.07-1.789,0-4.148-4.71-4.148-10.91a36.576,36.576,0,0,1,1.826-11.41,0.687,0.687,0,0,0,.838-0.53c0-.38-0.267-0.46-0.8-0.61Zm20.285,4.1a33.372,33.372,0,0,1,6.737,19.17c1.027-.46,3.577-1.6,4.186-1.79a38.292,38.292,0,0,0-7.573-19.47Zm53.255,0.04v-3.16h-9.4c0.229-1.02.343-1.67,0.419-2.24a1.147,1.147,0,0,0,1.1-.76c0-.38-0.457-0.42-0.838-0.46l-3.882-.26a24.128,24.128,0,0,1-.418,3.72h-6.432v3.16h5.29a15.332,15.332,0,0,1-7.231,6.73,9.2,9.2,0,0,1,2.664,2.74,17.776,17.776,0,0,0,3.692-2.78v2.02h8.944v-2.36a14.741,14.741,0,0,0,4.262,3.16,8.53,8.53,0,0,1,2.436-2.89,17.936,17.936,0,0,1-7.688-6.62h7.079Zm-14.12,5.7a21.823,21.823,0,0,0,3.654-5.62,22.123,22.123,0,0,0,3.768,5.62h-7.422Zm-20.666-6v2.89h14.577v-2.89H427.578Zm1.9,5.02v2.96H440.67v-2.96H429.481Zm8.183,21.25v1.53h3.5v-12.55H428.91v12.93h3.578v-1.91h5.176Zm-5.176-3.15v-4.72h5.176v4.72h-5.176Zm17.431-6.16c0.266-.61.571-1.22,1.141-2.59H462.4v-3.16H442.079v3.16H447.1a30.646,30.646,0,0,1-3.8,7.11,12.591,12.591,0,0,1,3.425,1.3c0.571-.92,1.065-1.72,1.636-2.82h7.155c-0.723,4.07-1.941,4.76-3.12,4.76a16.7,16.7,0,0,1-3.654-.39,8.858,8.858,0,0,1,1.408,4c2.246,0.11,5.1.04,6.622-1.75,1.6-1.86,2.855-5.97,3.311-9.62H449.919Zm-20.438-6.85v2.93H440.67v-2.93H429.481Zm0-15.21v2.78h11.075v-2.78H429.481Zm55.967,12.25c-2.245,12.36-12.863,16.77-15.718,17.95a10.21,10.21,0,0,1,2.893,3.49,29.939,29.939,0,0,0,15.451-15.82c3.312,8.22,10.276,13.92,14.387,15.82a10.924,10.924,0,0,1,3.158-3.19c-7.04-3.57-12.9-9.05-15.375-18.25h14.995v-3.92H490.092c0.038-.95.038-1.22,0.038-2.28v-6.39a0.971,0.971,0,0,0,.875-0.65c0-.42-0.571-0.45-0.875-0.45l-4.187-.23v7.95c0,1.06,0,1.33-.038,2.05h-15.3v3.92h14.843Zm40.752,8.4a32.094,32.094,0,0,0,3.692-3.12,35.057,35.057,0,0,0,14.8,15.37,10.885,10.885,0,0,1,3.121-2.7,39.535,39.535,0,0,1-9.21-6.47,53.234,53.234,0,0,0,6.013-4.72,2.724,2.724,0,0,0,.761.08,0.469,0.469,0,0,0,.533-0.38,0.777,0.777,0,0,0-.3-0.53l-2.855-2.32h5.291v-3.2H532.67v-2.51h10.771v-2.96H532.67v-2.28h14.576v-3.12H532.67v-2.06a1.273,1.273,0,0,0,.875-0.64,0.7,0.7,0,0,0-.8-0.53l-4.11-.23v3.46H514.173v3.12h14.463v2.28H517.827v2.96h10.809v2.51h-15.49v3.2h13.587c-3.2,2.93-7.5,5.66-14.424,7.57a11.786,11.786,0,0,1,2.511,3.3,54.785,54.785,0,0,0,7.422-3.57v5.1c-2.436.49-4.567,0.87-7,1.21l1.18,3.73a0.67,0.67,0,1,0,1.294-.19,133.355,133.355,0,0,0,16.555-4.3,10.142,10.142,0,0,1,.723-3.5c-4.414,1.26-7.725,1.98-8.791,2.25v-6.81Zm15.985-4.79a41.156,41.156,0,0,1-5.976,5.21,20.994,20.994,0,0,1-3.12-5.21h9.1Zm32.222,4.3h5.1v8.1c0,4.41,1.941,4.41,5.861,4.41,3.083,0,4.339,0,6.014-5.94a8.215,8.215,0,0,1-3.426-1.97c-0.685,4.22-1.37,4.22-2.74,4.22-2.017,0-2.055-.38-2.055-1.56v-7.26h4.3v-20.5H570.868v20.5h3.273a13.472,13.472,0,0,1-10.58,10.11c1.712,1.6,2.093,2.44,2.321,3.31a18.389,18.389,0,0,0,11.532-11.22c0.609-.04,1.18-0.11,1.18-0.57a0.819,0.819,0,0,0-.723-0.61Zm9.249-11.68v2.85h-8.982v-2.85h8.982Zm-8.982-2.85v-2.78h8.982v2.78h-8.982Zm8.982,8.4v2.93h-8.982v-2.93h8.982Zm-19.524-9.73h4.757v-3.43H555.568v3.43h4.682v7.79h-3.882v3.31h3.882v8.56c-2.588.61-3.692,0.8-5.176,1.03l1.027,3.91a0.727,0.727,0,0,0,.609.65c0.571,0,.609-0.61.647-1.03,1.713-.38,8.3-2.32,11.532-3.57a10.92,10.92,0,0,1,.381-3.43c-1.218.39-4.263,1.26-5.138,1.49v-7.61h3.92v-3.31h-3.92v-7.79Z" transform="translate(-216.594 -6899.66)"/>
</svg>
