<svg xmlns="http://www.w3.org/2000/svg" width="226.968" height="17.97" viewBox="0 0 453.937 35.94">
  <defs>
    <style>
      .cls-1 {
        fill: #333;
        fill-rule: evenodd;
      }
    </style>
  </defs>
  <path id="_50_text_guide_03.svg" data-name="50% text_guide_03.svg" class="cls-1" d="M204.34,7684.4v2.09H208.3v-15.93H188.736v15.97h3.958v-2.13H204.34Zm-11.646-3.46v-6.96H204.34v6.96H192.694Zm8.373-22.44a50.915,50.915,0,0,1,3.5,4.6c-1.9.38-7.726,0.99-11.494,1.22,1.484-2.62,3.577-6.77,5.29-10.19a0.986,0.986,0,0,0,1.028-.57,0.865,0.865,0,0,0-.685-0.61l-4-1.29a69.048,69.048,0,0,1-5.746,12.89c-2.132.11-2.817,0.07-3.54,0.07l0.875,3.69a0.841,0.841,0,0,0,.571.8,0.808,0.808,0,0,0,.685-0.72,189.534,189.534,0,0,0,18.878-2.36,33.638,33.638,0,0,1,1.9,3.39c0.8-.42,3.121-1.6,3.654-1.83a61.556,61.556,0,0,0-7.8-11.07Zm-23.025-3.69a40,40,0,0,1,6.736,4.72c0.8-1.07,2.055-2.74,2.36-3.16a45.77,45.77,0,0,0-6.851-4.48Zm-2.436,9.89a34.27,34.27,0,0,1,6.051,4.18,29.046,29.046,0,0,1,2.17-3,29.209,29.209,0,0,0-6.128-4.11Zm3.577,21.91a1.27,1.27,0,0,0,.647.26,0.5,0.5,0,0,0,.495-0.57,3,3,0,0,0-.076-0.64,126.805,126.805,0,0,0,5.9-11.87,9.025,9.025,0,0,1-2.968-2.43,60.7,60.7,0,0,1-7.117,13.08Zm68.973-14.53a24.268,24.268,0,0,0,3.387,2.2,6.938,6.938,0,0,1,2.4-2.62,23.381,23.381,0,0,1-4.567-2.78A22.192,22.192,0,0,0,252,7666.6a1.611,1.611,0,0,0,.5.08,0.458,0.458,0,0,0,.533-0.38,0.985,0.985,0,0,0-.571-0.69l-2.246-1.78a22.462,22.462,0,0,1-3.083,3.08,17.931,17.931,0,0,1-2.588-3.24h8.754v-2.81H240.658c0.153-.46.305-0.8,0.571-1.67,0.343-.08,1.294-0.19,1.294-0.73a0.382,0.382,0,0,0-.152-0.26h10.923V7655H240.278v-1.9c0.723-.34.8-0.53,0.8-0.76,0-.34-0.342-0.38-0.8-0.42l-4.072-.19V7655H223.8v8.9a28,28,0,0,0-3.349-5.06l-2.892,2.02a24.775,24.775,0,0,1,3.692,6.27,21.764,21.764,0,0,1,2.549-1.82v2.62a34.976,34.976,0,0,1-5.861,4.38l1.675,3.04a0.968,0.968,0,0,0,.609.53c0.381,0,.381-0.23.419-0.87a37.406,37.406,0,0,0,3.082-2.82,18.054,18.054,0,0,1-5.632,12.1,8.3,8.3,0,0,1,3.349,1.9,22.891,22.891,0,0,0,5.861-14,7.421,7.421,0,0,1,2.245,2.25,19.41,19.41,0,0,0,2.246-1.56v5.4h6.66v3.88c0,1.02-.114,1.25-1.218,1.25a15.935,15.935,0,0,1-2.169-.23,7.933,7.933,0,0,1,.913,3.73c3.73-.04,6.014-0.08,6.014-3.76v-4.87h6.165v-6.2Zm-12.75-1.86h9.134v1.59h-9.134v-1.59Zm1.409-2.44a29.473,29.473,0,0,0,2.626-4.11h1.141a22.074,22.074,0,0,0,2.893,4.11h-6.66Zm7.725,8.03h-9.134v-1.72h9.134v1.72Zm-16.4-14.95v2.81h7.46a22.058,22.058,0,0,1-2.284,3.2,29.218,29.218,0,0,0-2.892-2.82l-2.132,1.94a20.647,20.647,0,0,1,3.083,2.93,17.3,17.3,0,0,1-4.034,2.93c0.114-3,.114-3.35.114-6.58v-7.07h10.39a25.978,25.978,0,0,1-.837,2.66h-8.868Zm5.062,17.49a22.534,22.534,0,0,1-7,5.71,6.74,6.74,0,0,1,2.969,2.28,25.754,25.754,0,0,0,6.127-5.1c0.419,0.04,1.1.08,1.1-.41a0.741,0.741,0,0,0-.495-0.57Zm9.971,2.4a32.675,32.675,0,0,1,7.346,5.78,20.109,20.109,0,0,1,2.435-2.55,28.1,28.1,0,0,0-7.079-5.4Zm29.855-21.22c-1.18,2.39-5.747,8.56-12.141,13.01a11.009,11.009,0,0,1,3.045,2.58,41.82,41.82,0,0,0,3.958-3.42v15.02h4.149v-17.76a0.874,0.874,0,0,0,.723-0.61,1.217,1.217,0,0,0-.99-0.64,45.665,45.665,0,0,0,3.844-5.02c0.647,0.07,1.256.11,1.256-.5a0.858,0.858,0,0,0-.457-0.65Zm18.306,7.19h5.633v-3.69h-20.7v3.69h10.885v14.26c0,1.33-.305,1.78-2.208,1.78a26.088,26.088,0,0,1-3.2-.3,9.761,9.761,0,0,1,1.409,4.15c5.442,0.11,8.182-.61,8.182-4.83v-15.06Zm-19.676-15.14a40.833,40.833,0,0,1-10.352,9.01,10.553,10.553,0,0,1,3.083,2.63,46.7,46.7,0,0,0,9.743-8.63c0.571,0.11,1.1.03,1.1-.39a0.829,0.829,0,0,0-.38-0.57Zm23.9,1.6H277.82v3.69h17.736v-3.69Zm38.119,21.9c-0.952,7.49-1.485,8.18-4.225,8.18a13.25,13.25,0,0,1-2.588-.23,9.359,9.359,0,0,1,.952,3.8c6.089-.15,8.22-0.19,9.4-8.89l0.837-6.24h-3.235l1.409-6.58h-4.606l1.371-6.73H321.724a45.644,45.644,0,0,0,1.218-4.87c0.571-.11,1.142-0.27,1.142-0.65a0.644,0.644,0,0,0-.723-0.49l-4.149-.53a47.955,47.955,0,0,1-1.522,6.54H314c0.343-.34,1.256-1.18,1.713-1.52a30.686,30.686,0,0,0-4.605-5.18l-2.778,2.21a29.2,29.2,0,0,1,3.958,4.49h-7.079v3.5h11.341c-1.674,4.33-4.833,12.66-13.7,17.6a14.222,14.222,0,0,1,3.311,2.82,37.176,37.176,0,0,0,7.5-7.23h20.019Zm-17.583-3.38c0.761-1.26,1.179-1.98,1.788-3.2h13.435l-0.761,3.2H316.092Zm12.178-9.81-0.723,3.23H319.4c0.418-1.07.837-2.13,1.217-3.23h7.65Zm-16.022,15.44a23.65,23.65,0,0,1-3.768,7.75,17.606,17.606,0,0,1,3.73,1.41,31.749,31.749,0,0,0,3.006-7.07,0.872,0.872,0,0,0,1.028-.57,0.929,0.929,0,0,0-.838-0.65Zm4.529,0.49a35.113,35.113,0,0,1,1.217,7.45c0.609-.11,2.322-0.38,3.54-0.53a40.808,40.808,0,0,0-1.827-7.64Zm5.29-.49a27.179,27.179,0,0,1,1.712,6.04c0.5-.15,1.37-0.45,2.931-0.8a43.223,43.223,0,0,0-1.941-6.16Zm4.833-.8a28.946,28.946,0,0,1,1.865,4.87,23.031,23.031,0,0,1,2.931-1.07,24.662,24.662,0,0,0-1.941-4.79Zm33.476-24.99a30.027,30.027,0,0,1-2.284,5.44c-0.761.04-2.017,0.08-3.539,0.08a50.368,50.368,0,0,1-5.328-.27v3.8c3.006,0.04,3.958,0,7.04-.15a79.135,79.135,0,0,1-9.172,12.48l3.54,2.16c4.338-7.03,7.535-8.82,10.352-8.82s3.273,1.64,3.577,2.7c-3.159,1.45-10.352,5.32-10.352,10.34,0,3.35,3.083,6.24,11.76,6.24a53.387,53.387,0,0,0,10.5-.99,16,16,0,0,1,.456-4.14,45.941,45.941,0,0,1-11.76,1.59c-6.888,0-7.155-1.74-7.155-2.92,0-1.53.8-3.27,7-6.51a40.646,40.646,0,0,1-.152,6.13c1.408-.08,3.311-0.04,3.958,0,0.076-1.03.114-2.02,0.114-3.81a38.537,38.537,0,0,0-.152-4.07,87.261,87.261,0,0,1,9.362-3.23l-1.522-4.07c-1.142.57-5.671,2.51-8.525,3.77a6.149,6.149,0,0,0-5.976-3.92,8.539,8.539,0,0,0-4.034,1.03c0.838-1.26,1.37-2.13,2.626-4.26,2.436-.23,6.737-0.76,11.494-1.71l-0.114-3.88a47.913,47.913,0,0,1-9.477,2.01c0.8-1.63,1.1-2.28,1.408-2.96,0.952-.04.99-0.46,0.99-0.57a0.8,0.8,0,0,0-.8-0.65Zm36.022,33.01v1.64h3.54v-12.48H387.226v12.97h3.692v-2.13h5.48Zm15.528-27.91h8.145v-3.39h-19.22v3.39h7.193v13.8h-7.916v3.54h7.916v12.7h3.882v-12.7h8.83v-3.54h-8.83v-13.8Zm-21.008,24.76v-4.38h5.48v4.38h-5.48Zm-2.931-12.9v2.93h11.189v-2.93H387.987Zm-2.055-10.26v3.08h14.805v-3.08H385.932Zm15.147,1.21a37.267,37.267,0,0,1,2.284,9.55,8.5,8.5,0,0,1,3.692-.99,48.716,48.716,0,0,0-2.55-9.51Zm-13.092-6.12v2.78h11.228v-2.78H387.987Zm0,10.04v2.93h11.189v-2.93H387.987Zm28.126-4.91a53,53,0,0,1-3.2,9.66,9.018,9.018,0,0,1,3.235,1.22,54.681,54.681,0,0,0,3.2-8.67c0.57-.08.989-0.15,0.989-0.61a0.521,0.521,0,0,0-.419-0.49Zm41.977,25.94v2.21h3.616v-23.85h-6.623v-5.51h8.145v-3.65h-24.51c0.038-.46-0.228-0.57-0.647-0.69l-3.806-1.22a42.939,42.939,0,0,1-7.535,15.33,9.925,9.925,0,0,1,2.74,2.93,37.243,37.243,0,0,0,2.512-3.61v20.27h3.844v-25.22c0.571-.26.875-0.38,0.875-0.64a0.905,0.905,0,0,0-.723-0.54l-0.609-.19c0.685-1.48,1.218-2.89,2.284-5.82a1.481,1.481,0,0,0,.8-0.22v3.27h7.269v5.51h-6.546v23.85h3.654v-2.21H458.09Zm-9.1-3.69V7666.6h2.816v14.11h-2.816Zm6.089,0V7666.6h3.007v14.11h-3.007Zm-12.254,0V7666.6h2.892v14.11h-2.892Zm8.981-23.46v5.51h-2.816v-5.51h2.816Zm35.078-5.33a45.53,45.53,0,0,1,.571,5.33c-13.321.72-14.805,0.83-16.29,0.8l0.343,4.29a143.441,143.441,0,0,1,16.061-1.63v3.99a5.2,5.2,0,0,0-2.436-.53c-3.5,0-6.2,2.85-6.2,7.49,0,3.92,1.827,7.07,5.405,7.07a5.855,5.855,0,0,0,4.224-1.86c-1.065,3.27-3.235,5.74-8.411,7.8a19.047,19.047,0,0,1,3.5,2.73,17.438,17.438,0,0,0,6.089-4.86,16.4,16.4,0,0,0,3.425-9.66,13.177,13.177,0,0,0-1.636-6.47,54,54,0,0,1-.076-5.89c2.283-.08,4.376-0.08,5.252-0.08,3.387,0,6.66.08,7.916,0.12a37.269,37.269,0,0,1-.038-4.07c-1.9.07-11.113,0.49-13.206,0.57,0.076-2.25.076-2.51,0.19-3.58a0.861,0.861,0,0,0,.647-0.61c0-.19,0-0.34-0.914-0.45Zm-1.523,15.44c2.588,0,3.121,2.55,3.121,3.73,0,2.51-1.37,4.53-3.349,4.53-2.854,0-2.854-3.5-2.854-4.04C482.283,7669.45,483.2,7667.36,485.365,7667.36Zm49.454-14.41c-5.366,1.9-15.756,2.4-19.334,2.24l0.647,4a119.21,119.21,0,0,0,13.283-1.56c-1.637,2.2-14.272,14.64-18.04,17.26l3.083,3.01c6.013-6.28,9.971-9.89,16.365-9.89,5.062,0,7.764,2.93,7.764,6.65a6.769,6.769,0,0,1-4.453,6.32c-1.1-6.54-7.535-6.54-7.992-6.54-3.73,0-6.356,2.24-6.356,5.32,0,3.88,3.844,6.09,8.754,6.09,5.937,0,13.967-3.47,13.967-11.53,0-6.42-5.252-9.62-10.694-9.62a16.58,16.58,0,0,0-5.9,1.1c1.217-1.25,9.628-9.01,11-10.11Zm-4.072,29.43a9.829,9.829,0,0,1-2.74.38c-1.523,0-4.643-.64-4.643-3a2.075,2.075,0,0,1,2.359-2.09,5.6,5.6,0,0,1,3.5,1.37A4.73,4.73,0,0,1,530.747,7682.38ZM567,7674.25a21.625,21.625,0,0,0,4.225,5.28,25.6,25.6,0,0,1-9.363,3.84,8.529,8.529,0,0,1,2.588,3.31,28.69,28.69,0,0,0,9.743-4.75,41.1,41.1,0,0,0,10.162,4.98,7.626,7.626,0,0,1,2.474-3.42,28.417,28.417,0,0,1-9.82-4,28.449,28.449,0,0,0,5.976-8.97l-1.294-1.56H565.479v3.5h4.376Zm10.542-1.79a15.143,15.143,0,0,1-3.5,4.79,21.367,21.367,0,0,1-4.034-4.79h7.535Zm-16.517-14.38v-4.9a1.248,1.248,0,0,0,1.027-.8c0-.38-0.456-0.38-0.913-0.42l-3.958-.19v6.31h-5.1v3.58h5.1v7.76a33.452,33.452,0,0,1-5.633,1.71l0.609,3.92a0.821,0.821,0,0,0,.5.83c0.609,0,.685-0.83.723-1.14,1.1-.42,1.941-0.72,3.806-1.56v8.37c0,1.1-.457,1.25-1.827,1.25a11.5,11.5,0,0,1-2.74-.3,9.625,9.625,0,0,1,1.37,4.07c0.761,0.04,1.484.07,1.9,0.07,5.138,0,5.138-2.47,5.138-4.9v-10.27a21.9,21.9,0,0,0,3.083-1.6,17.412,17.412,0,0,1,.076-3.5,22.359,22.359,0,0,1-3.159,1.53v-6.24h3.691v-3.58h-3.691Zm6.584-5.09c0,0.45.038,2.74,0.038,3.23,0,4.41-.99,7.07-3.578,9.62a8.018,8.018,0,0,1,3.083,2.17c3.349-3.99,3.958-7.26,4.149-11.56h5.138v6.92c0,1.75,0,3.35,3.235,3.35h3.273a2.957,2.957,0,0,0,3.044-1.79,15.953,15.953,0,0,0,1.218-3.96,7.618,7.618,0,0,1-3.349-1.82c-0.419,3.95-1.18,3.95-2.512,3.95-0.951,0-1.218-.19-1.218-1.21v-8.9H567.61Zm40.987,19.13a30.225,30.225,0,0,1-4.567-6.89v-0.26h5.062v-3.16H604.03v-5.59a23.717,23.717,0,0,0,4.529-1.67,5,5,0,0,0,.761.11,0.435,0.435,0,0,0,.533-0.38,2.017,2.017,0,0,0-.913-1.06l-2.055-1.75a34.418,34.418,0,0,1-12.826,3.15,9.943,9.943,0,0,1,1.712,3.24c1.447-.23,3.045-0.46,4.986-0.88v4.83H594.9v3.16h5.4a42.81,42.81,0,0,1-6.47,12.93,14.819,14.819,0,0,1,3.2,2.28,43.15,43.15,0,0,0,3.73-8.71v15.21h3.273v-16.12a42.325,42.325,0,0,0,2.512,5.06,12.386,12.386,0,0,1,2.055-2.59v13.65h3.387V7672.8H625.5v8.9c0,1.33,0,1.6-1.37,1.6a16.505,16.505,0,0,1-2.474-.19,8.969,8.969,0,0,1,1.713,3.72c5.442,0.46,5.442-1.82,5.442-3.15V7669.8H608.6v2.32Zm12.027-16.89v-1.9a1.345,1.345,0,0,0,.989-0.8,0.608,0.608,0,0,0-.685-0.45l-4.415-.23v3.38h-8.449v3.16H629.53v-3.16h-8.906Zm5.823,4.83h-15.3v8.18h15.3v-8.18Zm-3.654,2.78v2.47h-7.954v-2.47h7.954Zm-8.868,11.37v10.19h2.931v-1.94h6.584v-8.25h-9.515Zm6.661,2.39v3.43h-3.73v-3.43h3.73Z" transform="translate(-175.594 -7651.47)"/>
</svg>
