<svg xmlns="http://www.w3.org/2000/svg" width="228.625" height="35.92" viewBox="0 0 457.25 71.84">
  <defs>
    <style>
      .cls-1 {
        fill: #333;
        fill-rule: evenodd;
      }
    </style>
  </defs>
  <path id="_50_text_other_01.svg" data-name="50% text_other_01.svg" class="cls-1" d="M254.391,8786.59a26.673,26.673,0,0,1,5.281,5.4,20.189,20.189,0,0,1-5.582,3.76v-2.35h-9.422v10.48h2.821v-1.77h3.841v1.2h2.76v-7.53a5.143,5.143,0,0,1,2.221,2.04c0.09-.03,6.3-3.01,11.433-10.99,0.33,0.06.99,0.15,0.99-.33a0.557,0.557,0,0,0-.33-0.39l-2.7-1.35a23.721,23.721,0,0,1-3.871,5.16c-0.48-.57-0.57-0.66-1.59-1.74a32.5,32.5,0,0,0,3.331-4.23c0.3,0,1.11.03,1.11-.45,0-.33-0.27-0.39-0.96-0.54H271.4v-2.58h-6.812v-2.91a0.887,0.887,0,0,0,.78-0.63,0.459,0.459,0,0,0-.54-0.42l-3.331-.15v4.11h-6.241v2.58h5.731a23.309,23.309,0,0,1-2.581,3.27c-0.09-.09-1.14-1.05-1.98-1.77Zm-6.9,13v-3.6h3.841v3.6h-3.841Zm-2.281-14.17v2.31h8.522v-2.31h-8.522Zm0,4.02v2.28h8.522v-2.28h-8.522Zm23.316-.39c-4.891,7.93-10.743,11.02-14.374,12.28a6.037,6.037,0,0,1,1.771,2.49,33.437,33.437,0,0,0,8.042-4.98,40.379,40.379,0,0,1,4.891,5.13,8.515,8.515,0,0,1,2.221-2.19,55.411,55.411,0,0,0-5.012-4.86,33.111,33.111,0,0,0,4.531-5.62,4.467,4.467,0,0,0,.511.06,0.416,0.416,0,0,0,.48-0.39,0.531,0.531,0,0,0-.33-0.42Zm-23.316-11.7v2.31h8.522v-2.31h-8.522Zm-1.29,4.08v2.37h10.713v-2.37H243.918Zm48.719,5.82v-9.87c0.42-.12.72-0.18,0.72-0.51s-0.36-.36-0.72-0.39l-3.331-.21v10.98H278.324v2.67h21.245v3.54H280.184v2.65h19.385v3.57h-21.4v2.76h21.4v1.41h3.3v-16.6H292.637Zm-13.413-8.37a33.357,33.357,0,0,1,4.231,7.77c0.63-.42,2.13-1.17,2.971-1.59a36.531,36.531,0,0,0-4.292-7.65Zm20.225-1.23a33.234,33.234,0,0,1-4.2,7.83,19.144,19.144,0,0,1,2.88,1.29,44.3,44.3,0,0,0,3.991-6.99,4.874,4.874,0,0,0,.57-0.12,0.445,0.445,0,0,0,.33-0.39,0.578,0.578,0,0,0-.39-0.48Zm26.4,24.97a16.4,16.4,0,0,0,7.082-4.2,13.086,13.086,0,0,0,3.511-8.89c0-7.02-5.551-11.25-11.883-11.25a14.026,14.026,0,0,0-13.893,13.44c0,5.08,3.661,8.68,5.911,8.68,1.711,0,3.271-1.89,4.891-5.59a44.109,44.109,0,0,0,3.3-13.71,8.31,8.31,0,0,1,8.582,8.46c0,1.74-.6,8.44-9.542,10.3A15.17,15.17,0,0,1,325.845,8802.62Zm-4.381-21.01a31.7,31.7,0,0,1-2.28,10.89c-0.78,1.95-1.651,4.24-2.791,4.24-1.17,0-2.76-2.23-2.76-5.23A10.928,10.928,0,0,1,321.464,8781.61Zm38.769,7.59a22.739,22.739,0,0,0,.21-3.3h7.172v-2.7h-12.6c0.24-.57.3-0.72,0.42-1.05,0.51-.03.84-0.06,0.84-0.39a0.636,0.636,0,0,0-.57-0.57l-2.7-.99H370.2v-2.7H344.119v26.32h3.091v-1.17h23.165v-2.82H347.21V8780.2h5.761a18.324,18.324,0,0,1-3.781,6.96,5.569,5.569,0,0,1,2.761,1.56,18.74,18.74,0,0,0,1.77-2.82h3.751c-0.03,1.02-.06,2.31-0.18,3.3H348.83v2.64h7.652c-1.47,2.97-4.891,4.33-8.222,4.9a6.88,6.88,0,0,1,1.981,2.7c4.861-1.56,7.321-3.78,8.672-6.13a18.047,18.047,0,0,0,8.672,6.49,5.382,5.382,0,0,1,1.8-2.52c-1.47-.45-5.641-1.77-8.192-5.44h8.522v-2.64h-9.482Zm40.131,3.12a19.35,19.35,0,0,0,2.67,1.74,5.421,5.421,0,0,1,1.891-2.07,18.762,18.762,0,0,1-3.6-2.19,18.726,18.726,0,0,0,2.07-1.8,1.345,1.345,0,0,0,.391.06,0.359,0.359,0,0,0,.42-0.3,0.774,0.774,0,0,0-.45-0.54l-1.771-1.41a17.623,17.623,0,0,1-2.43,2.43,14.144,14.144,0,0,1-2.041-2.55h6.9v-2.22h-9.963c0.12-.36.24-0.63,0.45-1.32,0.271-.06,1.021-0.15,1.021-0.57a0.306,0.306,0,0,0-.12-0.21h8.612v-2.52H394.152v-1.5c0.57-.27.63-0.42,0.63-0.6,0-.27-0.27-0.3-0.63-0.33l-3.21-.15v2.58h-9.783v7.02a21.82,21.82,0,0,0-2.64-3.99l-2.281,1.59a19.6,19.6,0,0,1,2.911,4.95,16.567,16.567,0,0,1,2.01-1.44v2.07a27.583,27.583,0,0,1-4.621,3.45l1.32,2.4a0.769,0.769,0,0,0,.481.43c0.3,0,.3-0.19.33-0.7a28.287,28.287,0,0,0,2.43-2.22,14.224,14.224,0,0,1-4.441,9.55,6.6,6.6,0,0,1,2.641,1.5,18.074,18.074,0,0,0,4.621-11.05,5.828,5.828,0,0,1,1.77,1.77,15.022,15.022,0,0,0,1.771-1.23v4.27h5.251v3.06c0,0.81-.09.99-0.96,0.99a12.447,12.447,0,0,1-1.711-.18,6.253,6.253,0,0,1,.72,2.94c2.941-.03,4.742-0.06,4.742-2.97v-3.84h4.861v-4.9Zm-10.053-1.47h7.2v1.26h-7.2v-1.26Zm1.111-1.92a23.411,23.411,0,0,0,2.07-3.24h0.9a17.665,17.665,0,0,0,2.281,3.24h-5.251Zm6.091,6.34h-7.2v-1.36h7.2v1.36Zm-12.933-11.8v2.22h5.881a17.62,17.62,0,0,1-1.8,2.52,22.339,22.339,0,0,0-2.281-2.22l-1.68,1.53a16.26,16.26,0,0,1,2.431,2.31,13.574,13.574,0,0,1-3.181,2.31c0.09-2.37.09-2.64,0.09-5.19v-5.58h8.192a20.7,20.7,0,0,1-.66,2.1H384.58Zm3.991,13.81a17.768,17.768,0,0,1-5.521,4.5,5.335,5.335,0,0,1,2.34,1.8,20.4,20.4,0,0,0,4.831-4.02c0.33,0.03.871,0.06,0.871-.33a0.6,0.6,0,0,0-.391-0.45Zm7.862,1.89a25.769,25.769,0,0,1,5.791,4.56,15.815,15.815,0,0,1,1.921-2.01,22.1,22.1,0,0,0-5.582-4.26Zm22.384-17.92c0.39,0.3.661,0.51,1.021,0.81h-2.671v-4.47a3.87,3.87,0,0,0,.48-0.27,0.35,0.35,0,0,0,.21-0.33,0.611,0.611,0,0,0-.6-0.36l-2.581-.18v5.61h-3.66v2.43h3.54c-0.63,2.88-2.25,7.32-4.441,9.81a7.134,7.134,0,0,1,2.191,2.17,39.731,39.731,0,0,0,2.37-5.89v13.27h2.491v-14.47a18.047,18.047,0,0,0,1.38,2.91,6.413,6.413,0,0,1,1.471-1.71,18.33,18.33,0,0,1-2.851-5.28v-0.81h3.121v-2.04c0.51,0.42,1.5,1.35,2.04,1.92-0.48.78-1.05,1.71-1.62,2.49a6.856,6.856,0,0,1-1.11,0l0.57,2.13a0.541,0.541,0,0,0,.39.45,0.585,0.585,0,0,0,.42-0.48c2.16-.27,3.361-0.48,4.291-0.66,0.03,0.15.09,0.78,0.12,1.32a12.831,12.831,0,0,1,1.92-.39,26.432,26.432,0,0,0-.99-4.56l-1.77.48a12.578,12.578,0,0,1,.42,1.47c-0.48.06-1.921,0.15-2.191,0.15,0.961-1.17,2.971-4.08,3.571-5.01,0.24,0,.69.03,0.69-0.27a0.668,0.668,0,0,0-.39-0.45l-1.77-.96c-0.3.57-.63,1.17-1.381,2.4l-0.81-.81c0.75-1.17,1.471-2.37,2.131-3.6,0.54-.03.78-0.06,0.78-0.36a0.513,0.513,0,0,0-.36-0.36l-2.011-1.14a32.874,32.874,0,0,1-2.16,3.93c-0.24-.18-0.36-0.3-0.87-0.72Zm5.312,14.23c0.03-.37.06-2.14,0.09-2.56h4.441a24.077,24.077,0,0,0,1.71,5.23,19.482,19.482,0,0,1-5.581,3.72,5.5,5.5,0,0,1,2.13,1.95,19.966,19.966,0,0,0,4.771-3.27c1.231,1.86,2.941,3.36,4.351,3.36a1.692,1.692,0,0,0,1.471-.66,8.783,8.783,0,0,0,1.53-3.93,4.4,4.4,0,0,1-2.16-1.26c-0.06.36-.48,2.61-1.231,2.61-0.24,0-.96-0.21-2.04-2.07a29.739,29.739,0,0,0,2.581-3.46c0.54,0.06.72-.03,0.72-0.3a0.527,0.527,0,0,0-.27-0.48l-2.011-1.44h3.931v-2.34h-3.211l1.141-.48a13.3,13.3,0,0,0-1.8-2.1l-2.01.96a8.4,8.4,0,0,1,1.32,1.62H430.79a49.654,49.654,0,0,1-.66-9.9,28,28,0,0,1,3.3,3.24c-0.48.6-1.17,1.41-1.771,2.07h-0.63l0.33,2.16a0.43,0.43,0,0,0,.36.45,0.728,0.728,0,0,0,.511-0.48c3.33-.51,3.9-0.63,4.471-0.75,0.06,0.39.15,0.81,0.27,1.74a8.5,8.5,0,0,1,1.89-.57,24.73,24.73,0,0,0-1.17-4.62l-1.771.45c0.15,0.42.241,0.72,0.391,1.29-0.751.09-1.591,0.18-1.981,0.21a27.6,27.6,0,0,0,3.271-4.23c0.33,0.03.63,0.06,0.63-.21a0.427,0.427,0,0,0-.27-0.39l-1.68-1.08a21.8,21.8,0,0,1-1.441,2.16,7.5,7.5,0,0,0-.72-0.81,37.566,37.566,0,0,0,2.341-3.39c0.24,0.03.69,0.06,0.69-.24a0.535,0.535,0,0,0-.39-0.42l-1.8-1.08a40.562,40.562,0,0,1-2.25,3.66c-0.69-.63-0.811-0.75-1.081-0.99l-1.5,1.8c0.03-1.92.06-2.34,0.06-3.09,0.57-.24.81-0.33,0.81-0.57a0.523,0.523,0,0,0-.54-0.36l-2.971-.3a75.429,75.429,0,0,0,.691,14.25h-7.742v2.34h1.2c-0.06,3.7-.12,6.46-4.111,9.1a10.132,10.132,0,0,1,2.491,1.83,12.264,12.264,0,0,0,3.961-7.11,32.383,32.383,0,0,1,2.37,2.82,10.284,10.284,0,0,1,1.951-1.5,32.53,32.53,0,0,0-3.121-3.37Zm10.292-2.56a14.46,14.46,0,0,1-2.04,3.13,26.162,26.162,0,0,1-1.051-3.13h3.091Zm22.253,3.28c-0.811,2.16-2.641,3.69-5.972,4.8a9.165,9.165,0,0,1,1.831,2.28,11.731,11.731,0,0,0,6.331-5.19,13.047,13.047,0,0,0,5.191,4.77,12.44,12.44,0,0,1,1.441-1.95,9.576,9.576,0,0,1,.93,3.06c3.121,0.03,5.071-.33,5.071-3.18V8777.2H460.244v9.03H468.5v13.57c0,0.84-.03,1.2-1.14,1.2a7.84,7.84,0,0,1-1.77-.18l0.27-.27a12.312,12.312,0,0,1-5.251-4.35h5.971v-2.32H460c0.03-.48.06-0.87,0.06-1.92h5.7v-2.28h-2.641a14.913,14.913,0,0,0,.78-1.53c0.39-.06.72-0.15,0.72-0.39a0.537,0.537,0,0,0-.48-0.42l-2.46-.81a17.982,17.982,0,0,1-1.471,3.15h-3.961l1.261-.39a13.5,13.5,0,0,0-1.771-2.64l-2.49,1.08a12.838,12.838,0,0,1,1.5,1.95H451.9v2.28h5.312c0,0.45-.03.84-0.09,1.92h-6.032v2.32h5.582Zm6.391-15.4v-1.41H468.5v1.41h-5.431Zm5.431,1.74v1.5h-5.431v-1.5H468.5Zm-22.325-5.34v26.68h3v-17.65h8.222v-9.03H446.171Zm3,3.6v-1.41h5.371v1.41h-5.371Zm5.371,1.74v1.5h-5.371v-1.5h5.371ZM482,8777.17c-1.17,5.67-1.89,9.12-1.89,14.37a29.481,29.481,0,0,0,1.86,11.14l2.821-.81c-0.15-3.24,1.68-7.18,2.07-8.02a5.252,5.252,0,0,1-1.68-1.74,33.311,33.311,0,0,0-1.741,4.18,20.354,20.354,0,0,1-.33-4.09,41.577,41.577,0,0,1,2.011-12.96c0.36-.03.72-0.06,0.72-0.36,0-.27-0.24-0.36-0.66-0.51Zm8.282,6.39c0.78,0.03,1.74.12,3.211,0.12a50.091,50.091,0,0,0,9.722-.87c-0.06-.42-0.27-2.46-0.36-3.06a36.276,36.276,0,0,1-9.332.96c-1.531,0-2.431-.09-3.241-0.15v3Zm0.03,8.16a10.9,10.9,0,0,0-1.17,4.51c0,3.9,4.711,4.26,8.372,4.26a54.934,54.934,0,0,0,7.051-.45,14.538,14.538,0,0,1,.27-3.3,31.215,31.215,0,0,1-7.411.81c-3.181,0-5.342-.36-5.342-2.22a6.835,6.835,0,0,1,.931-3.07ZM157.124,8840.2c-0.81,2.16-2.641,3.69-5.972,4.8a9.142,9.142,0,0,1,1.831,2.28,11.727,11.727,0,0,0,6.331-5.19,13.041,13.041,0,0,0,5.192,4.77,12.429,12.429,0,0,1,1.44-1.95,9.576,9.576,0,0,1,.93,3.06c3.121,0.03,5.071-.33,5.071-3.18V8821.2H160.7v9.03h8.252v13.57c0,0.84-.03,1.2-1.141,1.2a7.84,7.84,0,0,1-1.77-.18l0.27-.27a12.318,12.318,0,0,1-5.251-4.35h5.971v-2.32h-6.571c0.03-.48.06-0.87,0.06-1.92h5.7v-2.28h-2.641a14.763,14.763,0,0,0,.781-1.53c0.39-.06.72-0.15,0.72-0.39a0.537,0.537,0,0,0-.48-0.42l-2.461-.81a18,18,0,0,1-1.47,3.15H156.7l1.26-.39a13.529,13.529,0,0,0-1.77-2.64l-2.491,1.08a12.838,12.838,0,0,1,1.5,1.95h-2.85v2.28h5.311c0,0.45-.03.84-0.09,1.92h-6.031v2.32h5.581Zm6.391-15.4v-1.41h5.432v1.41h-5.432Zm5.432,1.74v1.5h-5.432v-1.5h5.432Zm-22.326-5.34v26.68h3v-17.65h8.222v-9.03H146.621Zm3,3.6v-1.41h5.371v1.41h-5.371Zm5.371,1.74v1.5h-5.371v-1.5h5.371Zm37.223,8.07c-0.6,0-4.471.03-4.651,0.03l0.45,2.85a0.627,0.627,0,0,0,.451.6c0.3,0,.39-0.27.57-0.72,0.84-.03,4.651-0.15,6.151-0.21v10.66h3.121v-10.84c3.211-.21,3.571-0.21,5.431-0.36,0.6,0.9.93,1.56,1.2,2.04a18.19,18.19,0,0,1,2.37-1.71,36.98,36.98,0,0,0-4.381-6.06l-2.341,1.47c0.421,0.48.811,0.96,1.561,1.95-3.151.18-4.021,0.24-5.882,0.24,1.5-1.41,4.321-4.5,6.3-6.69,0.48,0,.93,0,0.93-0.3a0.767,0.767,0,0,0-.48-0.57l-2.581-1.41a42.906,42.906,0,0,1-4.681,5.52c-0.42-.36-0.81-0.63-1.53-1.14a40.464,40.464,0,0,0,3.481-4.32c0.51,0.03.87,0.06,0.87-.36a0.559,0.559,0,0,0-.48-0.51l-0.9-.27a39.8,39.8,0,0,0,6.781-1.5c0.21,0.06.69,0.27,0.78,0.27a0.306,0.306,0,0,0,.331-0.27,0.876,0.876,0,0,0-.211-0.54l-1.83-2.16a49.292,49.292,0,0,1-14.1,2.16,11.1,11.1,0,0,1,1.41,2.79c3.361-.3,3.721-0.33,4.681-0.45a32.638,32.638,0,0,1-2.911,3.75c-0.84-.54-1.41-0.87-2.13-1.32l-1.831,2.37a29.86,29.86,0,0,1,5.552,3.54Zm-6.391-6.24a53.212,53.212,0,0,0,2.881-6.24c0.78-.33.87-0.36,0.87-0.57,0-.15-0.09-0.33-0.66-0.48l-2.851-.81a33.145,33.145,0,0,1-7.712,13.29,9.672,9.672,0,0,1,2.551,1.86c0.6-.72,1.32-1.56,2.13-2.73v15.13h3.211v-18.13c0.75-.21.9-0.27,0.9-0.63,0-.33-0.24-0.39-0.75-0.54Zm5.281,10.35a25.007,25.007,0,0,1-3.811,6.58,16.568,16.568,0,0,1,2.611,1.35,41,41,0,0,0,3.421-5.94c0.54-.03.72-0.06,0.72-0.33,0-.21-0.18-0.3-0.57-0.48Zm8.822,0.79a31.81,31.81,0,0,0,3.841,7.02,25.124,25.124,0,0,1,2.611-1.35,32.286,32.286,0,0,1-3.991-6.91Zm22.76-19.03a48.415,48.415,0,0,1-.93,6.84c-1.14.21-6.6,1.5-7.862,1.65l1.02,3.27a43.817,43.817,0,0,1,6.062-1.77,37.917,37.917,0,0,1-7.592,14.47,16.555,16.555,0,0,1,2.971,1.56,46.09,46.09,0,0,0,7.861-16.57,9.136,9.136,0,0,1,1.291-.09c3,0,3.631,2.07,3.631,4.68a19.759,19.759,0,0,1-1.111,6.37c-1.05,2.52-2.1,2.67-3,2.67a9.948,9.948,0,0,1-3.211-.63,14.058,14.058,0,0,1,.36,3.39,12.461,12.461,0,0,0,2.821.36,5.18,5.18,0,0,0,4.231-1.59c1.2-1.35,2.91-5.1,2.91-10.93,0-6.51-3.691-7.35-7.2-7.2,0.72-3.27.81-3.63,0.99-4.5,0.57-.06.75-0.3,0.75-0.51,0-.24-0.24-0.33-0.57-0.42Zm11.223,2.43a27.967,27.967,0,0,1,2.73,3.15,18.02,18.02,0,0,1,1.621-1.23,22.2,22.2,0,0,0-2.731-3.06Zm-2.671,3.57c2.761,2.37,5.281,5.76,5.281,7.56,0,1.41-1.5,1.68-3.06,1.98a19.313,19.313,0,0,1,1.56,2.7c2.281-.69,4.711-1.53,4.711-4.08s-2.4-6.3-6.181-9.63Zm5.341-5.46a14.951,14.951,0,0,1,2.671,3.36,14.629,14.629,0,0,1,1.8-1.29,20.681,20.681,0,0,0-2.79-3.15Zm26.79,10.47a5.811,5.811,0,0,0-2.1,4.17,29.55,29.55,0,0,0,.3,3.12,13.081,13.081,0,0,0-3.031-.39c-3.871,0-5.521,2.11-5.521,4.3,0,2.94,2.851,4.5,6.271,4.5,1.051,0,5.462,0,5.582-4.35a26.574,26.574,0,0,1,4.711,3.3,26.287,26.287,0,0,1,1.83-2.37,33.6,33.6,0,0,0-6.631-4.08,16.372,16.372,0,0,1-.39-3.49,3.9,3.9,0,0,1,1.47-3.12Zm-1.38,10.12c0.03,1.23.06,3.09-2.941,3.09-0.18,0-3.18,0-3.18-2.01,0-1.29,1.35-1.92,2.82-1.92A7.182,7.182,0,0,1,261.991,8841.61Zm-14.7-12.79a53.228,53.228,0,0,0,5.4-.21,53.853,53.853,0,0,1-6.482,12.94,19.08,19.08,0,0,1,2.911,1.29c2.911-4.09,5.881-11.5,6.932-14.62a42.349,42.349,0,0,0,5.521-1.17,15.1,15.1,0,0,1-.09-3.06,25.894,25.894,0,0,1-4.531,1.23c0.12-.45.78-2.67,0.93-3.15,0.33-.03.6-0.06,0.6-0.39,0-.24-0.15-0.3-0.42-0.39l-3.241-.93c-0.21,1.05-.45,2.46-1.23,5.34a32.066,32.066,0,0,1-3.481.18,26.429,26.429,0,0,1-3.181-.18Zm15.364-.36a20.7,20.7,0,0,1,7.682,3.87c0.45-.72.75-1.14,1.77-2.58-1.41-1.14-3.15-2.34-7.771-3.87Zm18.166-5.94a53.983,53.983,0,0,0-1.29,10.41c0,8.53,3.721,13.09,6.181,13.09,2.881,0,5.371-6.21,5.912-7.54a9.706,9.706,0,0,1-2.191-2.04c-0.69,1.74-2.251,5.59-3.541,5.59-1.41,0-3.271-3.73-3.271-8.62a28.826,28.826,0,0,1,1.441-9,0.538,0.538,0,0,0,.66-0.42c0-.3-0.21-0.36-0.63-0.48Zm15.994,3.24a26.319,26.319,0,0,1,5.311,15.13c0.81-.36,2.821-1.26,3.3-1.41a30.2,30.2,0,0,0-5.972-15.37Zm29.94-.39v-3.9c0.57-.15.81-0.21,0.81-0.54a0.491,0.491,0,0,0-.57-0.42l-3.45-.21v5.07H312.768v22.51h3.211v-19.51h7.472c-0.181,2.79-.991,7.56-7.292,11.14a8.044,8.044,0,0,1,2.19,2.58,19.1,19.1,0,0,0,6.9-8.41,14.477,14.477,0,0,0,6.722,7.84,8.288,8.288,0,0,1,2.25-2.44c-7.022-3.6-7.322-8.91-7.442-10.71h7.562v14.98c0,1.35-.66,1.35-1.35,1.35a13.405,13.405,0,0,1-2.671-.24,7.028,7.028,0,0,1,1.14,3.39h2.011c4.081,0,4.081-1.98,4.081-3.36v-19.12h-10.8Zm26.22,18.64v-4.35H364.7v4.35H352.971Zm14.763-4.99a16.676,16.676,0,0,0,3.331,1.72,8.875,8.875,0,0,1,2.191-2.56c-4.591-1.47-10.623-5.88-12.9-8.91a0.824,0.824,0,0,0,.66-0.48,0.642,0.642,0,0,0-.66-0.48l-2.791-.57c-1.26,2.55-4.8,7.59-13.293,11.1a5.55,5.55,0,0,1,2.19,2.26,33.663,33.663,0,0,0,3.421-1.74v8.49h3.091v-1.23H364.7v1.23h3.03v-8.83Zm-14.373-2.13a31.3,31.3,0,0,0,5.281-5.22,32.215,32.215,0,0,0,5.882,5.22H353.361Zm7.052-13.86v-1.86a0.859,0.859,0,0,0,.75-0.54c0-.33-0.6-0.36-0.72-0.36l-3.271-.12v2.88H345.649v6h3.091v-3.42h20.135v3.42h3.09v-6H360.413Zm-7.562,3.09a17.923,17.923,0,0,1-6.092,5.73,7.136,7.136,0,0,1,2.281,1.98,22.1,22.1,0,0,0,5.821-5.52c0.39-.03.78-0.06,0.78-0.36a0.787,0.787,0,0,0-.51-0.57Zm9,1.71a32.425,32.425,0,0,0,7.022,5.97,7.218,7.218,0,0,1,2.34-2.19,22.493,22.493,0,0,1-7.022-5.55ZM401.48,8826c-0.36.15-5.581,2.16-6.632,2.58-1.29.51-3.36,1.38-4.831,2.1-1.44-1.98-1.62-5.07-1.62-7.23,0-.87.06-1.62,0.18-2.91l-4.051.87a10.641,10.641,0,0,1,.6,2.79c0.42,4.08.63,6.03,2.311,7.8-4.412,2.46-6.632,5.04-6.632,8.2a5.6,5.6,0,0,0,3.121,4.95c1.29,0.66,3.391,1.53,8.7,1.53a59.328,59.328,0,0,0,9.782-.9,12.087,12.087,0,0,1,.21-3.57,34.239,34.239,0,0,1-10.082,1.53c-2.011,0-8.4,0-8.4-3.63,0-2.86,3.841-5.29,6.991-6.79a42.133,42.133,0,0,1,11.643-3.81Zm33.691-4.71H413.686v13.8h21.485v-13.8Zm-9.212,5.7v-3.21h6.122v3.21h-6.122Zm6.122,2.43v3.24h-6.122v-3.24h6.122Zm-15.124,3.24v-3.24H422.9v3.24h-5.941Zm0-5.67v-3.21H422.9v3.21h-5.941Zm-2.641,10.89a19.886,19.886,0,0,1-4.411,7.48,9.59,9.59,0,0,1,2.581,1.71,28.661,28.661,0,0,0,4.261-7.14c0.27,0.03.81,0,.81-0.36a0.727,0.727,0,0,0-.57-0.52Zm4.231-.45v6.64c0,1.44.12,3.39,3.691,3.39h5.582c2.58,0,3.69-.69,4.711-4.5a7.971,7.971,0,0,1-2.761-1.38c-0.6,3.18-1.14,3.18-2.821,3.18h-3.42c-1.8,0-1.921-.24-1.921-1.65v-4.45a1.006,1.006,0,0,0,.75-0.6c0-.27-0.42-0.3-0.75-0.33Zm4.321,0.09a20.5,20.5,0,0,1,4.231,4.39,27.109,27.109,0,0,1,2.221-1.98,30.9,30.9,0,0,0-4.381-4.33Zm8.582,1.99a25.21,25.21,0,0,1,4.982,5.91,13.484,13.484,0,0,1,2.28-2.19,31.666,31.666,0,0,0-4.951-5.68Zm23.724-14.47a14.775,14.775,0,0,1-1.5.72c0.09-2.19.21-3.12,0.33-4.08a0.578,0.578,0,0,0,.66-0.48c0-.3-0.36-0.39-0.93-0.42l-3.091-.24c0.15,1.74.15,2.7,0.15,6.24a29.213,29.213,0,0,1-6,1.08l0.66,3.33a47.135,47.135,0,0,0,5.251-1.5c0,0.27-.03,1.56-0.03,1.86a47.057,47.057,0,0,1-6.481,8.8l2.28,2.28c0.6-.75,3.361-4.6,4.021-5.44-0.09,6.43-.09,6.97-0.33,10.3l3.361-.27c-0.09-2.97-.09-3.3-0.03-13.36,1.711-1.56,4.8-3.84,8.432-3.84,2.461,0,5.431,1.35,5.431,5.82,0,5.32-5.041,7.06-10.382,7.42a13.191,13.191,0,0,1,.78,1.08c0.15,0.24.81,1.53,0.93,1.83,2.431-.36,11.733-1.77,11.733-10.51,0-6.39-4.5-8.31-8.282-8.31a12.527,12.527,0,0,0-7.652,2.67,20.183,20.183,0,0,1,2.251-3.3Zm32.011,1.41a3.5,3.5,0,0,1-.751.45c0.121-2.64.271-4.17,0.331-5.01a0.522,0.522,0,0,0,.54-0.48,0.588,0.588,0,0,0-.66-0.48l-3.061-.33c0.06,1.05.06,1.68-.03,7.44a23.8,23.8,0,0,1-6.242,1.08l0.72,3.3a27,27,0,0,0,5.462-1.32c0,0.27-.03,1.17-0.03,1.65-3.241,5.1-4.531,7.12-6.512,9.46l2.431,2.43c2.22-3.42,2.88-4.44,3.961-6.01-0.06,6.85-.06,7.63-0.18,8.89l3.481-.15a114.546,114.546,0,0,1-.421-12.55c0.811-.93,5.222-6,7.922-6a1.455,1.455,0,0,1,1.441,1.77c0,1.38-.9,8.19-0.9,9.73,0,4.92,3.151,5.55,4.2,5.55,1.261,0,3.661-1.02,5.642-3.3a19.344,19.344,0,0,1-1.23-3c-1.741,2.43-3.361,3-4.051,3-1.531,0-1.531-1.74-1.531-2.19a42.369,42.369,0,0,1,.33-4.39c0.15-1.11.63-5.31,0.63-6.12,0-2.97-1.83-4.11-3.63-4.11-1.231,0-3.751.6-7.5,4.32,0.24-.54.93-2.04,1.02-2.22Zm41.583-5.22c-4.231,1.5-12.423,1.89-15.244,1.77l0.51,3.15a92.74,92.74,0,0,0,10.473-1.23c-1.29,1.74-11.253,11.55-14.223,13.62l2.43,2.38c4.741-4.96,7.862-7.81,12.9-7.81,3.991,0,6.122,2.31,6.122,5.25a5.34,5.34,0,0,1-3.511,4.99c-0.87-5.17-5.942-5.17-6.3-5.17-2.94,0-5.011,1.78-5.011,4.21,0,3.06,3.031,4.8,6.9,4.8,4.681,0,11.012-2.73,11.012-9.1,0-5.07-4.141-7.59-8.432-7.59a12.921,12.921,0,0,0-4.651.87c0.961-.99,7.592-7.11,8.672-7.98Zm-3.211,23.23a7.985,7.985,0,0,1-2.16.3c-1.2,0-3.661-.51-3.661-2.37a1.638,1.638,0,0,1,1.86-1.65,4.4,4.4,0,0,1,2.761,1.08A3.734,3.734,0,0,1,525.557,8844.46Zm28.789-6.43a16.961,16.961,0,0,0,3.33,4.18,20.324,20.324,0,0,1-7.381,3.03,6.68,6.68,0,0,1,2.04,2.61,22.632,22.632,0,0,0,7.682-3.75,32.419,32.419,0,0,0,8.012,3.93,6.066,6.066,0,0,1,1.95-2.7,22.41,22.41,0,0,1-7.742-3.15,22.553,22.553,0,0,0,4.712-7.09l-1.021-1.23H553.145v2.76H556.6Zm8.312-1.41a12.024,12.024,0,0,1-2.761,3.79,16.837,16.837,0,0,1-3.181-3.79h5.942Zm-13.024-11.34v-3.87a0.982,0.982,0,0,0,.811-0.63c0-.3-0.36-0.3-0.721-0.33l-3.12-.15v4.98h-4.021v2.82H546.6v6.12a26.055,26.055,0,0,1-4.441,1.35l0.48,3.09a0.665,0.665,0,0,0,.39.67c0.48,0,.54-0.67.57-0.91,0.87-.33,1.53-0.57,3-1.23v6.61c0,0.87-.36.99-1.441,0.99a8.939,8.939,0,0,1-2.16-.24,7.621,7.621,0,0,1,1.08,3.21c0.6,0.03,1.17.06,1.5,0.06,4.051,0,4.051-1.95,4.051-3.87v-8.11a17.157,17.157,0,0,0,2.431-1.26,13.819,13.819,0,0,1,.06-2.76,17.7,17.7,0,0,1-2.491,1.2v-4.92h2.911v-2.82h-2.911Zm5.192-4.02c0,0.36.03,2.16,0.03,2.55,0,3.48-.78,5.58-2.821,7.59a6.353,6.353,0,0,1,2.431,1.71c2.64-3.15,3.12-5.73,3.27-9.12h4.051v5.46c0,1.38,0,2.64,2.551,2.64h2.581a2.328,2.328,0,0,0,2.4-1.41,12.537,12.537,0,0,0,.96-3.12,6.035,6.035,0,0,1-2.64-1.44c-0.33,3.12-.93,3.12-1.981,3.12-0.75,0-.96-0.15-0.96-0.96v-7.02h-9.872Zm32.539,15.09a23.711,23.711,0,0,1-3.6-5.43v-0.21h3.991v-2.49h-3.991v-4.41a18.746,18.746,0,0,0,3.571-1.32,4.141,4.141,0,0,0,.6.09,0.344,0.344,0,0,0,.42-0.3,1.606,1.606,0,0,0-.72-0.84l-1.621-1.38a27.055,27.055,0,0,1-10.112,2.49,7.847,7.847,0,0,1,1.35,2.55c1.14-.18,2.4-0.36,3.931-0.69v3.81h-4.621v2.49h4.261a33.848,33.848,0,0,1-5.1,10.21,11.772,11.772,0,0,1,2.52,1.8,34.036,34.036,0,0,0,2.941-6.88v12.01h2.581v-12.73a33.157,33.157,0,0,0,1.98,3.99,9.806,9.806,0,0,1,1.621-2.04v10.78h2.67v-10.96h10.653v7.03c0,1.05,0,1.26-1.08,1.26a12.579,12.579,0,0,1-1.951-.15,7.092,7.092,0,0,1,1.35,2.94c4.291,0.36,4.291-1.44,4.291-2.49v-10.96H587.365v1.83Zm9.482-13.32v-1.5a1.066,1.066,0,0,0,.78-0.63,0.484,0.484,0,0,0-.54-0.36l-3.481-.18v2.67h-6.661v2.49h16.924v-2.49h-7.022Zm4.591,3.81H589.375v6.45h12.063v-6.45Zm-2.881,2.19v1.95h-6.271v-1.95h6.271Zm-6.991,8.97v8.05h2.31v-1.53h5.191V8838h-7.5Zm5.251,1.9v2.7h-2.941v-2.7h2.941Z" transform="translate(-146.625 -8776.19)"/>
</svg>
