<svg xmlns="http://www.w3.org/2000/svg" width="198.39" height="22.72" viewBox="0 0 396.781 45.44">
  <defs>
    <style>
      .cls-1 {
        fill: #333;
        fill-rule: evenodd;
      }
    </style>
  </defs>
  <path id="_50_text_section_03.svg" data-name="50% text_section_03.svg" class="cls-1" d="M200.879,5513.58a93.383,93.383,0,0,0,9.549-1.97,3.559,3.559,0,0,0,1.248.43,0.459,0.459,0,0,0,.528-0.43,0.994,0.994,0,0,0-.336-0.63l-2.735-2.83h5.518v4.7h4.894v-8.5H201.119v-1.77c0.864-.29,1.3-0.43,1.3-0.87,0-.62-0.816-0.62-1.008-0.62l-5.47-.19v3.45H177.559v8.5H182.5v-4.7h25.527c-3.311,1.34-10.748,2.74-18.666,2.74-2.4,0-3.982-.1-5.23-0.2a15.107,15.107,0,0,1,1.967,3.41l-2.5,1.11c0.864,0.62,1.92,1.44,3.359,2.59H176.7v3.65h14.827c-4.8,3.51-9.069,5.48-15.883,7.49a14.967,14.967,0,0,1,3.551,3.6,33.158,33.158,0,0,0,4.126-1.82v14.55h4.895v-1.82h20.921v1.82h4.75v-14.79c0.768,0.34,1.871.77,4.463,1.68a11.876,11.876,0,0,1,2.783-3.94,43.824,43.824,0,0,1-15.307-6.77h14.635v-3.65H208.8a27.561,27.561,0,0,0,3.167-2.45c1.439-.24,1.583-0.24,1.583-0.72a0.755,0.755,0,0,0-.576-0.57l-4.174-1.73a24.972,24.972,0,0,1-5.182,4.46l2.687,1.01h-5.423v-4.22Zm8.254,20.26h-8.158v-3.02h8.158v3.02Zm-20.921-3.02h8.109v3.02h-8.109v-3.02Zm0.672-3.27a45.113,45.113,0,0,0,7.533-6.05v5.09h4.462v-5a42.766,42.766,0,0,0,7.438,5.96H188.884Zm20.249,12.63h-8.158v-3.27h8.158v3.27Zm-20.921-3.27h8.109v3.27h-8.109v-3.27Zm8.205-19.11H189.8l2.3-1.01c-0.767-.62-1.007-0.77-3.023-2.16,2.448-.09,4.9-0.29,7.342-0.48v3.65Zm69.548,22.24v-19.41H239.526v19.41h-8.973v3.93h44.193v-3.93h-8.781Zm-21.5-6.34v-2.88h16.6v2.88h-16.6Zm0,6.34v-2.89h16.6v2.89h-16.6Zm0-12.68v-2.84h16.6v2.84h-16.6Zm10.509-15.27a49.516,49.516,0,0,0,17.466,11.52,17.733,17.733,0,0,1,3.119-3.89,55.016,55.016,0,0,1-17.946-10.18H274.89v-3.98H254.977v-2.98a1.249,1.249,0,0,0,1.1-.91,1.264,1.264,0,0,0-1.151-.58l-4.559-.29v4.76H230.7v3.98h16.986c-3.551,3.17-9.405,7.01-17.85,10.33a15.973,15.973,0,0,1,3.455,3.74,55.205,55.205,0,0,0,17.082-11.62v7.49h4.607v-7.39Zm47.567-9.9a71.426,71.426,0,0,1,.24,9.37H286.661v4.7H302.4c-0.48,4.33-2.016,16.81-17.034,24.02a12.306,12.306,0,0,1,3.6,3.79c15.547-8.21,17.85-21.56,18.618-27.81h10.892c-0.288,12.2-1.1,15.95-1.775,18.3-1.2,4.08-3.791,4.23-6.238,4.23a15.95,15.95,0,0,1-4.51-.58,19.52,19.52,0,0,1,1.343,5.43c14.635,0.72,15.787-4.32,16.506-32.08H307.918c0.192-4.52.24-6.2,0.24-7.4a1.03,1.03,0,0,0,.959-0.86c0-.39-0.335-0.48-0.959-0.53Zm12.14,1.35a42.458,42.458,0,0,1,4.894,5.38,22.741,22.741,0,0,1,2.831-2.21,49.706,49.706,0,0,0-4.99-5.14Zm6.669-1.78a34.139,34.139,0,0,1,4.751,5.43,15.064,15.064,0,0,1,2.975-2.12,35.763,35.763,0,0,0-4.895-5.23Zm39.5,14.79a83.893,83.893,0,0,0,11.9-11.04,2.964,2.964,0,0,0,.912.14c0.336,0,.768-0.09.768-0.43a0.921,0.921,0,0,0-.432-0.77l-4.607-3.41c-10.316,13.54-24.759,20.17-33.972,22.86a20.714,20.714,0,0,1,3.743,4.47,93.394,93.394,0,0,0,16.362-8.12v24.01h5.326v-27.71Zm38.023,1.3v-13.93a0.916,0.916,0,0,0,.911-0.72c0-.38-0.287-0.53-0.863-0.57l-5.278-.34v41.78h5.23v-24.64a69.372,69.372,0,0,1,17.082,11.82,39.29,39.29,0,0,1,3.023-4.28c-5.71-5.42-13-9.51-18.042-12Zm16.314-11.57a31.8,31.8,0,0,1,5.135,4.75,24.03,24.03,0,0,1,2.5-2.31,43.048,43.048,0,0,0-4.991-4.65Zm-4.318,3.55a26.877,26.877,0,0,1,4.99,4.95,36.229,36.229,0,0,1,2.879-2.6,35.892,35.892,0,0,0-5.134-4.61Zm26.432-5.67v4.56h27.59v-4.56H437.3Zm-5.806,11.43v4.66h31.813c-5.182,13.78-14.107,18.15-23.272,20.75a26.32,26.32,0,0,1,3.5,4.13c12.14-4.37,17.706-9.18,23.7-20.99,0.479-.96,2.783-5.71,3.406-6.72l-3.262-2.26a14.507,14.507,0,0,1-4.079.43H431.5Zm74.016,0.96a83.893,83.893,0,0,0,11.9-11.04,2.964,2.964,0,0,0,.912.14c0.336,0,.768-0.09.768-0.43a0.921,0.921,0,0,0-.432-0.77l-4.607-3.41c-10.316,13.54-24.759,20.17-33.972,22.86a20.714,20.714,0,0,1,3.743,4.47,93.394,93.394,0,0,0,16.362-8.12v24.01h5.326v-27.71Zm26.888-8.79a50.252,50.252,0,0,1,13.244,8.79,34.861,34.861,0,0,1,3.119-4.32,58.524,58.524,0,0,0-13.34-8.79Zm3.455,35.25a0.98,0.98,0,0,0,.768.58,0.884,0.884,0,0,0,.672-1.06c12.667-4.51,25.767-11.71,35.124-26.46a27.851,27.851,0,0,1-3.215-4.42,56.527,56.527,0,0,1-36.42,26.22Z" transform="translate(-175.625 -5499.84)"/>
</svg>
