<svg xmlns="http://www.w3.org/2000/svg" width="159.781" height="36.25" viewBox="0 0 319.563 72.5">
  <defs>
    <style>
      .cls-1 {
        fill: #333;
        fill-rule: evenodd;
      }
    </style>
  </defs>
  <path id="_50_text_other_06.svg" data-name="50% text_other_06.svg" class="cls-1" d="M256.017,10154.9a100.953,100.953,0,0,1-5.881,14.3c-0.451,0-3.121.2-3.361,0.2l0.75,3.2a0.616,0.616,0,0,0,.42.5c0.27,0,.42-0.2.6-0.7,1.11-.1,3.511-0.4,4.741-0.5,4.291-.5,8.342-1,12.663-1.5,0.961,1.7,1.321,2.5,1.711,3.3a15.866,15.866,0,0,1,3-1.8,75.327,75.327,0,0,0-7.982-11.7l-2.491,1.8a64.451,64.451,0,0,1,4.171,5.8c-5.521.6-6.121,0.7-10.833,1.1,1.711-3.4,4.261-9,5.342-12,0.45,0,.9-0.1.9-0.4a0.656,0.656,0,0,0-.63-0.5Zm-3.181-6.7a25.188,25.188,0,0,1-8.762,10.9,11.282,11.282,0,0,1,2.611,2.2,31.156,31.156,0,0,0,8.522-10.7,0.955,0.955,0,0,0,.93-0.5,0.9,0.9,0,0,0-.51-0.5Zm4.441-.6v2.8H262.2a22.615,22.615,0,0,0,8.553,11,13.347,13.347,0,0,1,2.22-2.4c-6.391-4.4-7.862-8.8-8.192-11.4h-7.5Zm40.3,13.8c0.36-.4.6-0.6,0.9-0.9-0.51-.3-1.05-0.6-1.95-1.1a44.788,44.788,0,0,0,6.181-4.1l-1.08-1.5H285.393v2.5h3.571l-1.59,1.9a58.493,58.493,0,0,1,7.081,3.2H283.923v2.6h8.582v5.4c0,1.4,0,1.5-1.86,1.5a26.4,26.4,0,0,1-2.641-.1,8.37,8.37,0,0,1,1.41,3.2c4.591,0.1,6.092-.2,6.092-3.1v-6.9H300.4a27.366,27.366,0,0,1-3.331,4,5.947,5.947,0,0,1,2.731,1.5,36.958,36.958,0,0,0,5.281-7l-1.35-1.1h-6.152Zm-0.69-5.1c-1.35,1.1-2.581,1.8-2.821,2a34.844,34.844,0,0,0-4.741-2h7.562Zm-2.791-7v-1.9a0.842,0.842,0,0,0,.811-0.6c0-.3-0.3-0.4-0.811-0.4l-3.27-.2v3.1H280.082v10.5c0,5.9-.81,9.2-2.491,12.8a7.365,7.365,0,0,1,2.851,1.1c1.32-2.9,2.761-6.8,2.761-14v-7.7h22.355v-2.7H294.1Zm35.94,9.8H317.282v-2.4h12.753v2.4Zm-8.822,2.6c1.8,3.8,5.071,9,14.523,12.2a11.65,11.65,0,0,1,2.1-2.7,20.836,20.836,0,0,1-8.042-3.5,32.124,32.124,0,0,0,4.561-4.4c0.54,0,.96.1,0.96-0.4a0.684,0.684,0,0,0-.33-0.4l-1.831-1.4v-11.5h-7.771v-2.2a0.731,0.731,0,0,0,.66-0.6c0-.4-0.36-0.4-0.69-0.4l-3.361-.2v3.4h-7.922v20.6a31.962,31.962,0,0,1-3.181.7l0.81,2.7c0.15,0.5.3,0.6,0.51,0.6,0.36,0,.451-0.3.6-0.7,0.45-.1,7.621-2,11.1-3.3a9.1,9.1,0,0,1,.39-3c-1.47.4-4.711,1.5-7.021,2.1v-7.6h3.931Zm-3.931-9.5h12.753v2.2H317.282v-2.2Zm14.253,9.5a32.489,32.489,0,0,1-3.961,4.1,17.413,17.413,0,0,1-3.061-4.1h7.022Zm27.57-10.1a23.542,23.542,0,0,1-9.572,11,6.34,6.34,0,0,1,2.25,2.3c0.571-.4,1.2-0.8,2.1-1.5v10.4h3.091v-1.6h7.381v1.6h3v-10.9c1.02,0.7,1.5,1,1.921,1.3a14.013,14.013,0,0,1,1.74-2.9c-2.911-1.5-7.112-4.9-8.852-8,0.42-.1.75-0.2,0.75-0.5a0.709,0.709,0,0,0-.48-0.4Zm-3.271,10a32.528,32.528,0,0,0,4.471-5.8,32.017,32.017,0,0,0,5.342,5.8h-9.813Zm1.141,7.9v-5h7.381v5h-7.381Zm-8.312-16.2a43.288,43.288,0,0,0,2.4-5.3c0.42,0,.84-0.1.84-0.4a0.57,0.57,0,0,0-.42-0.5l-3.18-1a35.939,35.939,0,0,1-6.662,12.4,9.814,9.814,0,0,1,2.251,2.4,18.735,18.735,0,0,0,1.92-2.6v15.6h3.211v-19.5a0.759,0.759,0,0,0,.72-0.6,0.5,0.5,0,0,0-.42-0.4Zm12.873-5.7a30.055,30.055,0,0,0,6.631,7.6,16.224,16.224,0,0,1,2.341-2.3,27.808,27.808,0,0,1-6.422-7Zm-5.792-1.4a28.173,28.173,0,0,1-5.191,7.9,6.341,6.341,0,0,1,2.671,1.6,32.912,32.912,0,0,0,4.921-7.6c0.69-.1.9-0.1,0.9-0.4a0.643,0.643,0,0,0-.57-0.5Zm22.607,15.3a57.73,57.73,0,0,1,5.491-3.7,57.291,57.291,0,0,1,4.982,15.8c1.14-.6,3.12-1.5,3.39-1.6a76.292,76.292,0,0,0-5.7-15.8,39.554,39.554,0,0,1,4.8-2.2,27.733,27.733,0,0,1,2.1,4.3,28.842,28.842,0,0,1,3-1.4c-0.36-.7-0.81-1.7-2.13-3.9a11.28,11.28,0,0,1,2.34-.3,3.5,3.5,0,0,1,3.841,3.5c0,2.5-2.46,4.6-9.272,4.2a16.794,16.794,0,0,1,1.26,3c2.341,0,11.073-.2,11.073-7.2,0-3.2-2.22-6.3-6.962-6.3a13.009,13.009,0,0,0-3.961.6,33.285,33.285,0,0,0-3.24-3.9l-2.581,1.3a30.062,30.062,0,0,1,2.941,3.6,48.883,48.883,0,0,0-4.441,2.2c-0.33-.7-1.951-4-2.281-4.8a0.586,0.586,0,0,0,.24-0.4,0.368,0.368,0,0,0-.39-0.4,1,1,0,0,0-.42.1l-3.271,1.3a31.715,31.715,0,0,1,3.391,5.7,56.879,56.879,0,0,1-6.121,3.3Zm51.1-10.2v-3.8a0.753,0.753,0,0,0,.661-0.5c0-.4-0.421-0.4-0.691-0.4l-3.21-.2v4.9h-6.9v2.8h6.9v4.6h-8.282v2.8h7.021a79.449,79.449,0,0,1-3.721,8,27.454,27.454,0,0,1-3.21.2l0.66,2.9a0.675,0.675,0,0,0,.54.6,0.759,0.759,0,0,0,.6-0.5,123,123,0,0,0,14.073-2.3c0.271,0.5,1.411,2.8,1.681,3.4a14.553,14.553,0,0,1,2.761-1.8,47.145,47.145,0,0,0-6.122-9.4l-2.491,1.6a32.528,32.528,0,0,1,2.731,3.8c-1.41.3-4.171,0.8-7.652,1.2,2.011-3.9,2.611-5.2,3.421-7.1a1.04,1.04,0,0,0,1.11-.6h8.642v-2.8h-8.522v-4.6h7.472v-2.8h-7.472Zm-17.794-2.6a33.968,33.968,0,0,1,4.8,4.3,27.975,27.975,0,0,1,2.041-2.3,30.342,30.342,0,0,0-4.831-4.1Zm-1.83,7.9a43.139,43.139,0,0,1,4.981,3.8c0.39-.5,1.29-1.7,1.77-2.2a31.884,31.884,0,0,0-5.011-3.9Zm2.46,17a1.3,1.3,0,0,0,.57.2,0.284,0.284,0,0,0,.331-0.3,2.252,2.252,0,0,0-.181-0.6,64.279,64.279,0,0,0,4.081-9,5.77,5.77,0,0,1-2.37-1.9,41.541,41.541,0,0,1-4.921,9.9Zm52.014-18.5a34,34,0,0,0,6.061,3.2,8.833,8.833,0,0,1,1.741-2.6,29.421,29.421,0,0,1-12.453-8.3,0.551,0.551,0,0,0,.66-0.5c0-.2-0.24-0.3-0.69-0.4l-3.211-.4c-1.59,2.5-5.041,6.8-13.293,9.9a6,6,0,0,1,1.89,2.5,36.659,36.659,0,0,0,6.092-3.3v2.5h13.2v-2.6Zm-12.6-.3a35.469,35.469,0,0,0,5.941-5.6,28.689,28.689,0,0,0,6.092,5.6H451.7Zm5.521,8.6h8.012v4.6c0,1,0,1.4-2.67,1.4-1.171,0-1.771-.1-2.4-0.1a8.185,8.185,0,0,1,1.38,3.3c6.482-.2,6.782-1.8,6.782-4.5v-7.6H446.3v2.9h7.832v10.5h3.09v-10.5Zm23.693-16.2c-1.17,5.6-1.89,9.1-1.89,14.3a29.647,29.647,0,0,0,1.86,11.2l2.821-.8c-0.15-3.3,1.68-7.2,2.071-8a5,5,0,0,1-1.681-1.8,35.54,35.54,0,0,0-1.74,4.2,20.255,20.255,0,0,1-.33-4.1,42.082,42.082,0,0,1,2.01-13c0.36,0,.72,0,0.72-0.3s-0.24-.4-0.66-0.5Zm8.282,6.4c0.781,0,1.741.1,3.211,0.1a52.563,52.563,0,0,0,9.722-.9c-0.06-.4-0.27-2.4-0.36-3a38.751,38.751,0,0,1-9.332.9c-1.53,0-2.43-.1-3.241-0.1v3Zm0.03,8.1a11.393,11.393,0,0,0-1.17,4.5c0,3.9,4.711,4.3,8.372,4.3a54.951,54.951,0,0,0,7.052-.5,15.078,15.078,0,0,1,.27-3.3,31.6,31.6,0,0,1-7.412.8c-3.181,0-5.341-.3-5.341-2.2a6.726,6.726,0,0,1,.93-3Zm-265.531,39.9a21.516,21.516,0,0,0,4.652,9,24.275,24.275,0,0,1-8.883,4.8,11.584,11.584,0,0,1,2.7,2.5,27.9,27.9,0,0,0,8.432-5.2c2.011,1.6,6.032,4.3,9.452,5.1a8.611,8.611,0,0,1,2.131-2.7,26.548,26.548,0,0,1-9.362-4.5,28.083,28.083,0,0,0,5.941-10.8l-1.2-1.1H221.081v-4.4h20.105v-2.8H217.93v9.2c0,7.4-.96,11.3-3.631,15.7a7.983,7.983,0,0,1,2.851,1.5c3.481-5.6,3.721-11.8,3.931-16.3h2.61Zm11.013,0a18.962,18.962,0,0,1-4.141,6.9,17.766,17.766,0,0,1-3.841-6.9H234.7Zm25.863-11.2a36.691,36.691,0,0,1,.45,4.2c-10.5.6-11.673,0.7-12.843,0.7l0.27,3.3a100.7,100.7,0,0,1,12.663-1.2v3.1a3.92,3.92,0,0,0-1.921-.4c-2.76,0-4.891,2.2-4.891,5.9,0,3.1,1.441,5.6,4.261,5.6a4.773,4.773,0,0,0,3.331-1.5c-0.84,2.6-2.551,4.5-6.632,6.2a15.667,15.667,0,0,1,2.761,2.1,14.163,14.163,0,0,0,4.8-3.8,12.967,12.967,0,0,0,2.7-7.6,10.379,10.379,0,0,0-1.29-5.1,44.579,44.579,0,0,1-.06-4.7c1.8-.1,3.45-0.1,4.141-0.1,2.67,0,5.251.1,6.241,0.1a29.129,29.129,0,0,1-.03-3.2c-1.5.1-8.762,0.4-10.412,0.5,0.06-1.8.06-2,.15-2.8a0.812,0.812,0,0,0,.51-0.5c0-.2,0-0.3-0.72-0.4Zm-1.2,12.2c2.041,0,2.461,2,2.461,2.9,0,2-1.08,3.6-2.641,3.6-2.25,0-2.25-2.7-2.25-3.2C256.936,10204.3,257.656,10202.6,259.366,10202.6Zm39.175-11.4c-4.231,1.5-12.423,1.9-15.244,1.8l0.51,3.2a96.829,96.829,0,0,0,10.472-1.3c-1.29,1.8-11.252,11.6-14.223,13.6l2.431,2.4c4.741-4.9,7.862-7.8,12.9-7.8,3.991,0,6.121,2.3,6.121,5.3a5.227,5.227,0,0,1-3.511,4.9c-0.87-5.1-5.941-5.1-6.3-5.1-2.941,0-5.011,1.8-5.011,4.2,0,3,3.03,4.8,6.9,4.8,4.681,0,11.013-2.7,11.013-9.1,0-5.1-4.141-7.6-8.432-7.6a11.437,11.437,0,0,0-4.651.9c0.96-1,7.592-7.1,8.672-8Zm-3.211,23.3a8.9,8.9,0,0,1-2.161.3c-1.2,0-3.661-.6-3.661-2.4a1.655,1.655,0,0,1,1.861-1.7,4.254,4.254,0,0,1,2.76,1.1A3.82,3.82,0,0,1,295.33,10214.5Zm31.552-19.1v-3.9c0.57-.2.81-0.2,0.81-0.6a0.478,0.478,0,0,0-.57-0.4l-3.451-.2v5.1H312.9v22.5h3.21v-19.5h7.472c-0.18,2.8-.99,7.5-7.292,11.1a8.411,8.411,0,0,1,2.191,2.6,18.916,18.916,0,0,0,6.9-8.4,14.15,14.15,0,0,0,6.721,7.8,7.955,7.955,0,0,1,2.251-2.4c-7.022-3.6-7.322-8.9-7.442-10.7h7.562v14.9c0,1.4-.66,1.4-1.351,1.4a23.982,23.982,0,0,1-2.67-.2,6.5,6.5,0,0,1,1.14,3.3H333.6c4.08,0,4.08-1.9,4.08-3.3v-19.1h-10.8ZM353.1,10214v-4.3h11.733v4.3H353.1Zm14.764-5a12.318,12.318,0,0,0,3.331,1.7,7.947,7.947,0,0,1,2.19-2.5c-4.591-1.5-10.622-5.9-12.9-8.9a0.805,0.805,0,0,0,.66-0.5c0-.2-0.15-0.4-0.66-0.5l-2.79-.6c-1.261,2.6-4.8,7.6-13.294,11.1a6.122,6.122,0,0,1,2.191,2.3c1.23-.5,3.091-1.6,3.421-1.7v8.4h3.09v-1.2h11.733v1.2h3.031v-8.8Zm-14.374-2.1a34.519,34.519,0,0,0,5.282-5.2,32.316,32.316,0,0,0,5.881,5.2H353.491Zm7.052-13.9v-1.8a0.872,0.872,0,0,0,.75-0.6c0-.3-0.6-0.3-0.72-0.3l-3.271-.1v2.8H345.78v6h3.09v-3.4h20.135v3.4H372.1v-6H360.543Zm-7.562,3.1a18.153,18.153,0,0,1-6.091,5.8,5.837,5.837,0,0,1,2.28,1.9,22.238,22.238,0,0,0,5.822-5.5c0.39,0,.78,0,0.78-0.3a0.679,0.679,0,0,0-.51-0.6Zm9,1.7a33.451,33.451,0,0,0,7.021,6,8.537,8.537,0,0,1,2.341-2.2,22.576,22.576,0,0,1-7.022-5.5Zm36.536,3.8a24.14,24.14,0,0,1,2.73,3.3,6.9,6.9,0,0,1,1.621-1.4,27.5,27.5,0,0,0-2.731-3.2Zm3.03-2.4a20.92,20.92,0,0,1,2.761,3.4,6.685,6.685,0,0,1,1.65-1.4,21.112,21.112,0,0,0-2.85-3.2Zm3-7.7c-8.642,2-21.965,2.7-23.526,2.7a9.314,9.314,0,0,1-1.71-.1l0.48,3.9a147.663,147.663,0,0,1,15.334-2.1c-1.8,1.2-7.562,5-7.562,11.3,0,6.7,6.151,9.4,10.863,10.4a19.033,19.033,0,0,1,1.41-3.4c-8.252-.8-9.092-5.2-9.092-7,0-5.7,7.081-12.3,14.463-12.2Zm8.981,6.9a13.406,13.406,0,0,0,2.911.2c1.41,0,2.46-.1,3.18-0.1-0.24,1.8-.27,2.8-0.3,3.4-5.461,2.3-7.8,6.6-7.8,10,0,0.8.18,4.3,3.571,4.3a10.06,10.06,0,0,0,5.552-2.1c0.3,0.8.36,0.9,0.6,1.5,0.81-.5.99-0.7,2.61-1.6a13.687,13.687,0,0,1-.75-1.9,28.715,28.715,0,0,0,5.912-8.7c3.57,1.1,4.231,3.5,4.231,5,0,5.3-6.962,6.6-9.033,7a9.431,9.431,0,0,1,1.831,2.4c6.391-1.3,10.5-4.5,10.5-9.3,0-4.9-4.261-8.1-10.292-8.1a18.214,18.214,0,0,0-4.021.5c0.09-.6.18-1.4,0.42-2.7a49.744,49.744,0,0,0,10.083-2l-0.661-2.9a29.214,29.214,0,0,1-8.882,2.2,26.057,26.057,0,0,1,1.14-3.4,0.609,0.609,0,0,0,.691-0.4c0-.2-0.15-0.3-0.51-0.4l-3.151-1a52.735,52.735,0,0,0-1.351,5.5c-1.11.1-2.04,0.1-2.25,0.1a23.35,23.35,0,0,1-4.2-.3Zm8.492,5.3a13.685,13.685,0,0,1,4.021-.7,22.116,22.116,0,0,1-3.631,6A30.331,30.331,0,0,1,422.024,10203.7Zm-2.071,7.7c-0.36.4-2.46,2-4.051,2a1.416,1.416,0,0,1-1.35-1.6c0-2.1,1.471-4.9,4.711-6.9A33.409,33.409,0,0,0,419.953,10211.4Zm42.514-20.2c-4.231,1.5-12.423,1.9-15.244,1.8l0.51,3.2a96.875,96.875,0,0,0,10.473-1.3c-1.29,1.8-11.253,11.6-14.223,13.6l2.43,2.4c4.741-4.9,7.862-7.8,12.9-7.8,3.991,0,6.122,2.3,6.122,5.3a5.228,5.228,0,0,1-3.511,4.9c-0.87-5.1-5.942-5.1-6.3-5.1-2.94,0-5.011,1.8-5.011,4.2,0,3,3.031,4.8,6.9,4.8,4.681,0,11.012-2.7,11.012-9.1,0-5.1-4.141-7.6-8.432-7.6a11.445,11.445,0,0,0-4.651.9c0.961-1,7.592-7.1,8.672-8Zm-3.211,23.3a8.886,8.886,0,0,1-2.16.3c-1.2,0-3.661-.6-3.661-2.4a1.654,1.654,0,0,1,1.86-1.7,4.255,4.255,0,0,1,2.761,1.1A3.822,3.822,0,0,1,459.256,10214.5Zm27.649-24.3c-0.27.8-1.741,4.8-2.071,5.7a33.5,33.5,0,0,1-5.881-1.6l-0.63,3.1a42.394,42.394,0,0,0,5.461,1.4c-0.27.8-.69,2-1.351,4.2-2.25-.5-3.51-0.8-5.071-1.3l-0.66,2.9a31.581,31.581,0,0,0,4.921,1.2,16.144,16.144,0,0,0-.48,3.7c0,2.5,1.08,7.8,8.882,7.8,4.081,0,10.113-1.8,10.113-8a13.4,13.4,0,0,0-2.191-6.7,12.76,12.76,0,0,1-2.94,1.2,11.018,11.018,0,0,1,1.86,5.3c0,3.4-2.641,5.3-6.812,5.3-3.12,0-5.881-1.1-5.881-4.7a13.812,13.812,0,0,1,.42-3.4,76.811,76.811,0,0,0,7.772.6,25.33,25.33,0,0,1,.87-3,57.38,57.38,0,0,1-7.832-.4c0.27-.8.87-2.5,1.5-4.2a58.711,58.711,0,0,0,6.661.4,17.183,17.183,0,0,1,.87-3.2,57.637,57.637,0,0,1-6.481-.2c0.66-1.5.96-2.2,1.8-3.9,0.84-.1.96-0.2,0.96-0.5a0.739,0.739,0,0,0-.57-0.5Zm36.383,26.4a15.641,15.641,0,0,0,7.082-4.2,13.016,13.016,0,0,0,3.51-8.9c0-7-5.551-11.2-11.882-11.2a13.994,13.994,0,0,0-13.894,13.4c0,5.1,3.661,8.7,5.912,8.7,1.71,0,3.27-1.9,4.891-5.6a43.713,43.713,0,0,0,3.3-13.7,8.324,8.324,0,0,1,8.582,8.5c0,1.7-.6,8.4-9.543,10.3A12.753,12.753,0,0,1,523.288,10216.6Zm-4.381-21a31.445,31.445,0,0,1-2.281,10.9c-0.78,2-1.65,4.2-2.79,4.2-1.171,0-2.761-2.2-2.761-5.2A10.939,10.939,0,0,1,518.907,10195.6Z" transform="translate(-214.312 -10145.9)"/>
</svg>
