<svg xmlns="http://www.w3.org/2000/svg" width="146.047" height="12.187" viewBox="0 0 292.094 24.374">
  <defs>
    <style>
      .cls-1 {
        fill: #4cbee0;
        fill-rule: evenodd;
      }
    </style>
  </defs>
  <path id="_50_text_kv_for.svg" data-name="50% text_kv_for.svg" class="cls-1" d="M237.962,260.5a4.27,4.27,0,0,1,1.537,1.509,13.167,13.167,0,0,0,4.037-5.02,16.867,16.867,0,0,0,3.568,4.526A3.574,3.574,0,0,1,248.9,260v1.275c0,0.754-.183.936-1.381,0.936a7.977,7.977,0,0,1-1.719-.182,4.287,4.287,0,0,1,.808,2.654c4.636,0.1,4.87-.937,4.87-3.8v-8.611H244.6v-2.5h7.761v-2.211H234.889V245.7h17.632v-2.237h-9.376v-1.717c0.521-.156.651-0.312,0.651-0.494a0.4,0.4,0,0,0-.469-0.338l-2.917-.131v2.68h-8.047v5.333a18.818,18.818,0,0,0-1.98-3.694l-2.031,1.092a18.1,18.1,0,0,1,2.083,4.188,5.423,5.423,0,0,1,1.928-1.04c0,0.39-.026,2.341-0.026,2.783A26.432,26.432,0,0,1,228.4,254.1l0.938,2.185a0.746,0.746,0,0,0,.416.5c0.235,0,.287-0.287.339-0.625,0.885-.6,1.458-0.962,2.162-1.483a15.949,15.949,0,0,1-3.568,8.923,5.859,5.859,0,0,1,2.4,1.145c2.474-2.94,3.8-6.556,3.8-13.631v-1.327H242v2.5h-6.615v12.435h2.578V260.5Zm10.939-6.009v5.2a12.836,12.836,0,0,1-4.22-5.2h4.22Zm-10.939,0h3.829a8.23,8.23,0,0,1-3.829,5.645v-5.645ZM265,243.692c0.1-.338.182-0.624,0.234-0.806l-1.042-.989h-6.927v22.892h2.5v-7a5.055,5.055,0,0,1,1.172,2.835c3.229-.1,3.881-2.107,3.881-4.058a10.13,10.13,0,0,0-2.214-6.035c1.588-4.24,1.771-4.734,2.292-6.477v5.073H267.6v-3.07h9.767v3.07h2.682v-5.437h-6.485v-2.029a0.693,0.693,0,0,0,.6-0.468c0-.208-0.208-0.286-0.547-0.286l-2.786-.078v2.861H265Zm-2.943.546A28.734,28.734,0,0,1,260,250.533c1.277,1.821,2.37,3.356,2.37,5.671,0,1.015-.286,1.717-1.562,1.717a4.811,4.811,0,0,1-1.042-.156V244.238h2.292Zm14.9,6.373V248.27h-8.933v2.341h8.933Zm-8.282,4.943h4.063V261.9c0,1.691.495,2.731,2.552,2.731h2.084c2.266,0,2.891-1.456,3.281-4.4a4.425,4.425,0,0,1-2.526-1.04c-0.287,2.913-.547,2.965-1.849,2.965-0.808,0-.886-0.182-0.886-0.91v-5.7h4.871v-2.471H264.971v2.471h3.438c-0.052,2.029-.235,6.217-5.756,7.466a4.68,4.68,0,0,1,1.563,2.055,8.79,8.79,0,0,0,6.641-8.012c0.416-.078.6-0.208,0.6-0.417,0-.286-0.209-0.338-0.573-0.442Zm32.59-4.865a18,18,0,0,1,2.37,2.836,8.064,8.064,0,0,1,1.406-1.249,27.322,27.322,0,0,0-2.37-2.783Zm2.631-2.107a17.957,17.957,0,0,1,2.4,2.914,7.167,7.167,0,0,1,1.432-1.223,18.659,18.659,0,0,0-2.474-2.757Zm2.6-6.685c-7.5,1.743-19.064,2.341-20.418,2.341-0.573,0-.99-0.026-1.485-0.052l0.417,3.33c1.536-.416,10.235-1.613,13.308-1.795-1.562,1.014-6.563,4.318-6.563,9.807,0,5.827,5.339,8.168,9.428,9a18,18,0,0,1,1.224-2.991c-7.162-.65-7.891-4.448-7.891-6.035,0-4.917,6.146-10.665,12.553-10.613Zm18.354,21.773A14.244,14.244,0,0,0,331,260.028a11.323,11.323,0,0,0,3.047-7.7c0-6.087-4.818-9.755-10.313-9.755a12.169,12.169,0,0,0-12.059,11.654c0,4.4,3.178,7.518,5.131,7.518,1.484,0,2.839-1.639,4.245-4.838a38.263,38.263,0,0,0,2.865-11.888,7.207,7.207,0,0,1,7.448,7.335c0,1.509-.52,7.31-8.282,8.923A13.111,13.111,0,0,1,324.848,263.67Zm-3.8-18.209a27.459,27.459,0,0,1-1.979,9.443c-0.677,1.69-1.433,3.667-2.422,3.667-1.016,0-2.4-1.925-2.4-4.526A9.476,9.476,0,0,1,321.046,245.461Zm29,3.277a14.584,14.584,0,0,1,1.3-.832,34.255,34.255,0,0,0-2.552-3.408,40.57,40.57,0,0,0,9.22-1.43,3.963,3.963,0,0,0,.833.286,0.308,0.308,0,0,0,.339-0.312,0.538,0.538,0,0,0-.209-0.391l-1.927-1.951c-4.011,1.457-10.079,1.535-11.538,1.535-2.213,0-4.114-.13-5.807-0.286a10.82,10.82,0,0,1,1.25,2.653c3.2,0.026,5.235.052,7.787-.1l-2.136,1.223a27.286,27.286,0,0,1,2.084,3.017h-4.532c0.313-.182.755-0.494,1.12-0.7a15.57,15.57,0,0,0-2.448-3.2l-2.058,1.248a24,24,0,0,1,1.954,2.653h-4.115v5.619h2.63v-3.433H358.9v3.433h2.578v-5.619h-5.729c0.13-.234,1.015-1.612,1.64-2.861,0.417-.026.73-0.078,0.73-0.364a0.566,0.566,0,0,0-.339-0.39l-2.474-.963a21.475,21.475,0,0,1-2.292,4.578h-2.969Zm-6.172,7.752a16.176,16.176,0,0,0,3.8,3.46,24.25,24.25,0,0,1-9.558,2.289,9.032,9.032,0,0,1,1.432,2.55,26.8,26.8,0,0,0,10.6-3.3c2.657,1.379,4.844,2.341,10.444,3.33a8.535,8.535,0,0,1,1.2-2.446,30.729,30.729,0,0,1-9.35-2.445,20.882,20.882,0,0,0,5.235-5.8l-1.068-1.222H342.594v2.315h3.021Zm9.688-1.274a15.916,15.916,0,0,1-3.594,3.381,16.478,16.478,0,0,1-3.933-3.381h7.527Zm18.98,8.194v0.91h2.344v-8.506h-8.621v8.923h2.448V263.41h3.829Zm-3.829-2.185v-3.148h3.829v3.148h-3.829ZM384.96,251.08a24.688,24.688,0,0,1-9.089,6.555,7.842,7.842,0,0,1,1.849,1.951,29.688,29.688,0,0,0,8.543-6.3,2.91,2.91,0,0,0,.573.1,0.24,0.24,0,0,0,.26-0.234,0.673,0.673,0,0,0-.286-0.443Zm-4.609-10.328a18.09,18.09,0,0,1-4.74,6.5v-1.9H365.428v2.055h10a16.35,16.35,0,0,1-1.406,1.066,6.931,6.931,0,0,1,1.953,1.821,29.9,29.9,0,0,0,5.522-6.191,22.583,22.583,0,0,0,6.25,6.113,5.72,5.72,0,0,1,1.8-2,18.5,18.5,0,0,1-6.641-6.243c0.6-.208.755-0.26,0.755-0.52,0-.286-0.39-0.338-0.6-0.364Zm-13.673,8.117v1.977h7.683v-1.977h-7.683Zm0,3.485v2.029h7.683v-2.029h-7.683Zm15.782-4.786a23.993,23.993,0,0,1-6.823,5.645,6.105,6.105,0,0,1,1.9,1.691,31.556,31.556,0,0,0,6.172-5.125,1.193,1.193,0,0,0,.5.156,0.258,0.258,0,0,0,.313-0.26,0.711,0.711,0,0,0-.261-0.468ZM366.678,241.9v1.925h7.683V241.9h-7.683Zm20.7,12.955a26,26,0,0,1-12.033,7.777,6.28,6.28,0,0,1,1.745,2.056,28.374,28.374,0,0,0,11.46-7.492,2.3,2.3,0,0,0,.6.182,0.286,0.286,0,0,0,.338-0.286,0.642,0.642,0,0,0-.208-0.417Zm15.19-14.152a20.639,20.639,0,0,1-1.563,3.72c-0.521.026-1.38,0.052-2.422,0.052a33.938,33.938,0,0,1-3.646-.182v2.6c2.058,0.026,2.709,0,4.818-.1a54.029,54.029,0,0,1-6.276,8.532l2.422,1.483c2.969-4.813,5.156-6.035,7.084-6.035a2.17,2.17,0,0,1,2.448,1.846c-2.162.989-7.084,3.642-7.084,7.076,0,2.289,2.109,4.266,8.047,4.266a36.61,36.61,0,0,0,7.189-.676,10.965,10.965,0,0,1,.312-2.836,31.221,31.221,0,0,1-8.047,1.093c-4.714,0-4.9-1.2-4.9-2,0-1.041.547-2.237,4.792-4.448a27.582,27.582,0,0,1-.1,4.188c0.964-.052,2.266-0.026,2.709,0,0.052-.7.078-1.379,0.078-2.6a26.332,26.332,0,0,0-.1-2.783,59.726,59.726,0,0,1,6.406-2.211l-1.041-2.783c-0.782.39-3.881,1.716-5.834,2.575a4.209,4.209,0,0,0-4.089-2.679,5.866,5.866,0,0,0-2.761.7c0.573-.859.938-1.457,1.8-2.914,1.667-.156,4.61-0.52,7.866-1.17l-0.079-2.654a32.9,32.9,0,0,1-6.484,1.379c0.546-1.118.755-1.561,0.963-2.029,0.651-.026.677-0.312,0.677-0.39a0.545,0.545,0,0,0-.547-0.442ZM422,241.429a10.5,10.5,0,0,1,.078,1.483c0,1.612-.312,9.442-0.312,11.211,0,4.787.234,9.963,5.7,9.963,2.969,0,7.97-1.4,12.241-8.22a11.948,11.948,0,0,1-2.057-2.289c-0.782,1.691-4.74,7.726-9.949,7.726-2.813,0-3.152-2.315-3.152-7.154a96.121,96.121,0,0,1,.678-11.5,0.7,0.7,0,0,0,.651-0.442c0-.26-0.235-0.286-0.625-0.338Zm28.5-.416a42.459,42.459,0,0,1-.755,5.228c-0.834.052-2.344,0.182-4.089,0.182-1.016,0-1.693-.052-2.318-0.1l0.234,2.836a47.937,47.937,0,0,0,5.522-.26,41.766,41.766,0,0,1-6.746,14.073,20.711,20.711,0,0,1,2.631,1.352,58.425,58.425,0,0,0,6.98-15.816,39.831,39.831,0,0,0,6.458-1.326l-0.442-2.68a20.384,20.384,0,0,1-5.313,1.405c0.1-.494.677-2.887,0.807-3.408a0.488,0.488,0,0,0,.5-0.39,0.5,0.5,0,0,0-.5-0.364Zm4.3,12.148a44.2,44.2,0,0,1,5.678-.443,18.214,18.214,0,0,1,3.88.365,17.6,17.6,0,0,1,.209-2.654,22.742,22.742,0,0,0-3.8-.26,40.323,40.323,0,0,0-5.964.442v2.55Zm-1.3,3.095a6.256,6.256,0,0,0-1.328,3.538c0,3.98,5.756,3.98,7.448,3.98a30.987,30.987,0,0,0,5.548-.494,6.061,6.061,0,0,1-.157-1.431,10.463,10.463,0,0,1,.105-1.431,20.164,20.164,0,0,1-5.548.859c-3.7,0-4.922-.651-4.922-1.691a4.062,4.062,0,0,1,1.12-2.445Zm29.634-11.341v-3.044c0.391-.13.547-0.208,0.547-0.416a0.513,0.513,0,0,0-.547-0.364l-2.891-.182v4.006h-10.47v2.6h9.246c-0.052,2.731-.234,11.628-9.792,15.139a5.445,5.445,0,0,1,2.291,2.056,17.809,17.809,0,0,0,9.532-11.368h6.381a20.654,20.654,0,0,1-.885,6.945,2.317,2.317,0,0,1-2.631,1.743,11.387,11.387,0,0,1-2.318-.234,5.86,5.86,0,0,1,1.251,2.966c2.552-.078,4.114-0.1,5.312-1.821,1.693-2.446,2.006-8.923,1.98-12.148h-8.6a26.4,26.4,0,0,0,.261-3.278h11.8v-2.6h-10.47Zm14.563,12.33c1.9-1.951,2.526-2.784,6.146-7.7,0.756-1.041,1.224-1.223,1.615-1.223,0.547,0,.938.338,2.057,1.691a76.964,76.964,0,0,0,10.991,11.5,23.187,23.187,0,0,1,1.927-2.549,55.57,55.57,0,0,1-10.782-10.614c-1.589-1.977-2.5-3.1-4.193-3.1-0.729,0-1.641.26-2.787,1.743-2.6,3.381-4.662,6.087-7.266,8.038Z" transform="translate(-228.344 -240.688)"/>
</svg>
