<svg xmlns="http://www.w3.org/2000/svg" width="312.672" height="22.3" viewBox="0 0 625.343 44.6">
  <defs>
    <style>
      .cls-1 {
        fill: #333;
        fill-rule: evenodd;
      }
    </style>
  </defs>
  <path id="_50_text_section_05.svg" data-name="50% text_section_05.svg" class="cls-1" d="M91.069,10858.2a61.288,61.288,0,0,1-6.526,15.2,110.561,110.561,0,0,0-10.6-7.9l-2.879,3.9a75.708,75.708,0,0,1,10.6,8.1c-6.238,8.6-13.579,12.7-19.241,15.4a15.833,15.833,0,0,1,3.839,3.8,55.436,55.436,0,0,0,19.146-15.7,64.571,64.571,0,0,1,7.438,9,32.171,32.171,0,0,1,3.743-4.1c-2.351-3.5-7.246-8.1-8.253-9.1a82.568,82.568,0,0,0,7.246-14.7c0.912-.1,1.44-0.4,1.44-0.8a0.828,0.828,0,0,0-.672-0.7Zm51.923,3.7a34.048,34.048,0,0,1,4.99,4.9,20.2,20.2,0,0,1,2.4-2.7,41.723,41.723,0,0,0-4.894-4.7Zm-27.783-3.6v4.6H142.32v-4.6H115.209Zm12.332,17.3c-0.144,6.4-1.1,14.9-15.019,18.8a17,17,0,0,1,3.695,4,24.736,24.736,0,0,0,10.94-6.8c2.543-2.6,5.23-7,5.422-16H149.23v-4.5h-40.4v4.5h18.714Zm18.138-18.7a28.466,28.466,0,0,1,4.942,5,15.535,15.535,0,0,1,2.447-2.6,47.253,47.253,0,0,0-5.134-4.9Zm34.417,19a72.535,72.535,0,0,0,9.644-8.7c0.768,0.1,1.3,0,1.3-.4a0.769,0.769,0,0,0-.336-0.6l-3.887-3c-8.061,10.1-16.842,14.9-27.11,18.3a16.335,16.335,0,0,1,3.215,3.7,74.977,74.977,0,0,0,12.571-6.1v18.7H180.1v-21.9Zm42.238-19.7a71.592,71.592,0,0,1,.24,9.4H206.452v4.7H222.19c-0.48,4.3-2.015,16.8-17.034,24a12.136,12.136,0,0,1,3.6,3.8c15.547-8.2,17.85-21.6,18.617-27.8h10.893c-0.288,12.2-1.1,15.9-1.776,18.3-1.2,4-3.79,4.2-6.237,4.2a15.461,15.461,0,0,1-4.511-.6,20.269,20.269,0,0,1,1.344,5.4c14.635,0.8,15.786-4.3,16.506-32H227.708c0.192-4.6.24-6.2,0.24-7.4a1.105,1.105,0,0,0,.96-0.9c0-.4-0.384-0.5-0.96-0.5Zm42.42,2.7v14.1c0,7-1.3,12.9-10.845,18.5,2.5,1.7,3.167,2.3,4.127,3.6,9.261-6.5,12-12.9,12-22.6v-11.8a1.091,1.091,0,0,0,.912-0.9c0-.6-0.624-0.6-1.1-0.6Zm11.468-.4v30.8c0,1.4-.1,2.8-0.192,3.8l3.6,2.4a12.016,12.016,0,0,1,2.687-2.1c3.407-2.4,11.372-8,16.986-15.8-1.2-1.4-1.344-1.7-2.639-4.5a51.22,51.22,0,0,1-15.307,14.5v-27.5a1.2,1.2,0,0,0,.96-0.8c0-.6-0.432-0.6-0.96-0.6Zm54.225-1.2c-3.07,21.8-15.738,30.6-26.583,35.5a18.969,18.969,0,0,1,3.935,3.7c19.865-9.7,24.9-24.5,27.927-36,0.384-.1,1.3-0.3,1.3-0.8a0.771,0.771,0,0,0-.815-0.7Zm17.711,17.4v5.2h41.026v-5.2H348.158Zm64.944-2.9v-13.9a0.942,0.942,0,0,0,.912-0.7c0-.4-0.288-0.5-0.864-0.6l-5.278-.3v41.8h5.23v-24.7a70.306,70.306,0,0,1,17.083,11.8,38.326,38.326,0,0,1,3.023-4.2c-5.71-5.5-13-9.5-18.042-12Zm57.007,25.5c2.927-1.1,7.533-2.7,11.324-6.8a20.723,20.723,0,0,0,5.614-14.2c0-11.2-8.877-18-19-18-13.2,0-22.217,11.4-22.217,21.5,0,8.1,5.854,13.9,9.453,13.9,2.735,0,5.23-3,7.821-8.9a71.074,71.074,0,0,0,5.278-22c8.446,0.1,13.724,6.4,13.724,13.6,0,2.7-.96,13.5-15.259,16.4A25.564,25.564,0,0,1,470.109,10897.3Zm-7.006-33.7a51.086,51.086,0,0,1-3.646,17.5c-1.248,3.1-2.64,6.7-4.463,6.7-1.871,0-4.414-3.5-4.414-8.3C450.58,10873.4,455.522,10865.6,463.1,10863.6Zm71.43-9.2a4.347,4.347,0,0,0-4.366,4.4,4.343,4.343,0,1,0,8.685,0A4.337,4.337,0,0,0,534.533,10854.4Zm0,2a2.361,2.361,0,0,1,2.352,2.4,2.376,2.376,0,1,1-4.751,0A2.371,2.371,0,0,1,534.533,10856.4Zm-19.145,10.6H498.546v4.6h16.842v17.3c0,3.1,0,3.9-2.447,3.9a34.221,34.221,0,0,1-4.8-.4,19.721,19.721,0,0,1,1.536,5,27.6,27.6,0,0,0,3.167.2c7.629,0,7.629-3.1,7.629-6.9v-19.1h16.65v-4.6h-16.65v-9a1.009,1.009,0,0,0,.864-0.7c0-.5-0.48-0.6-1.1-0.6l-4.846-.2v10.5Zm-8.781,8.5a37.248,37.248,0,0,1-10.988,13.9,25.166,25.166,0,0,1,4.318,3.1,56.272,56.272,0,0,0,10.413-13.2c0.767,0.1,1.247-.1,1.247-0.4a1.046,1.046,0,0,0-.624-0.8Zm18.522,2.7a65.305,65.305,0,0,1,10.268,13.5,28.972,28.972,0,0,1,3.839-3.3c-2.112-4-7.438-10.3-10.413-13.1Zm28.015-20.9v24.7h5.182v-23.1a1.264,1.264,0,0,0,1.008-.9c0-.4-0.432-0.4-1.008-0.5Zm22.6-1v17.2c0,5.1,0,16.4-17.034,21.4a10.17,10.17,0,0,1,3.311,4.1,28.647,28.647,0,0,0,15.211-10.9c2.783-4.1,3.743-9.3,3.743-14.7v-15.3a1.408,1.408,0,0,0,.959-1c0-.2-0.192-0.4-0.959-0.4Zm25.656,3.6a52.564,52.564,0,0,1,12.571,6.5,36.888,36.888,0,0,1,3.071-4.3,70.929,70.929,0,0,0-12.811-6.1Zm-5.039,11.2a52.783,52.783,0,0,1,11.9,6.6,23.151,23.151,0,0,1,3.119-4.3,68.712,68.712,0,0,0-12.188-6.5Zm5.47,26.8a1,1,0,0,0,.72.7c0.576,0,.72-0.7.768-1.2,7.533-2.7,23.944-11.3,34.212-26.7a19.553,19.553,0,0,1-3.31-4.1,68.059,68.059,0,0,1-34.933,26.7Zm44.919-23.2v5.2h41.027v-5.2H646.75Z" transform="translate(-62.438 -10854.4)"/>
</svg>
