<svg xmlns="http://www.w3.org/2000/svg" width="270.032" height="22.765" viewBox="0 0 540.063 45.53">
  <defs>
    <style>
      .cls-1 {
        fill: #333;
        fill-rule: evenodd;
      }
    </style>
  </defs>
  <path id="_50_text_section_01.svg" data-name="50% text_section_01.svg" class="cls-1" d="M126.657,1171.63c0.672-2.98.912-4.27,1.2-6.34h8.205v27.23h4.558V1166.3c1.248-.38,1.392-0.43,1.392-0.82,0-.48-0.816-0.52-1.152-0.52l-4.51-.24v-3.94H119.171v4.51h3.935c-1.151,11.38-5.422,17.15-6.766,18.92a10.927,10.927,0,0,1,3.935,2.69,29.388,29.388,0,0,0,1.823-2.93,39.059,39.059,0,0,1,4.415,3.22,34.588,34.588,0,0,1-9.693,12.39,9.2,9.2,0,0,1,4.031,3.03c4.606-4.57,12.428-13.5,13.627-30.98h-7.821Zm2.975,4.56a38.086,38.086,0,0,1-1.392,6.34,24.366,24.366,0,0,0-4.174-2.54c0.24-.67.768-1.83,1.391-3.8h4.175Zm-14.107-6.58c0.815-.28,1.391-0.48,1.391-1,0-.39-0.144-0.44-1.535-0.87a63.317,63.317,0,0,0,2.783-6.96c0.384,0,1.3.05,1.3-.72a1.2,1.2,0,0,0-.959-0.87l-4.655-1.44c-2.783,10.57-7.245,16.09-9.069,18.3a13.229,13.229,0,0,1,3.023,4.37,33.708,33.708,0,0,0,2.783-3.94v25.89h4.943v-32.76Zm29.078-11.47v36.49c0,1.83,0,2.65-2.207,2.65a36.8,36.8,0,0,1-4.559-.34,9.025,9.025,0,0,1,2.111,5.38c8.158-.05,9.261-1.63,9.261-6.82v-35.49c0.432-.05,1.44-0.14,1.44-0.77a0.854,0.854,0,0,0-.96-0.67Zm24.661,5.76a76.338,76.338,0,0,0,16.074,1.44,23.766,23.766,0,0,1,.672-4.75,22.345,22.345,0,0,1-2.591.14,47.678,47.678,0,0,1-13.723-1.68Zm18.761,3.27c-5.758,2.68-16.458,4.56-25.911,4.41l0.96,5.09a118.772,118.772,0,0,0,18.09-2.97c-1.392,1.58-8.11,9.31-9.693,11.04-4.462,4.8-9.933,10.09-12.716,12.68l3.887,3.7c3.695-4.08,7.342-8.17,10.7-11.58,2.3-2.4,3.023-3.07,4.127-3.07,1.727,0,1.727,1.49,1.727,2.35,0,0.82-.431,4.85-0.431,5.72,0,2.45,0,6.34,9.26,6.34a59.41,59.41,0,0,0,10.989-1.06c-0.192-1.63-.24-4.22-0.24-5.23a30.281,30.281,0,0,1-10.365,1.68c-3.838,0-4.894-.53-4.894-3.22,0-1.06.816-6.1,0.816-7.25a3.65,3.65,0,0,0-3.887-3.46,2.731,2.731,0,0,0-1.1.24,90.474,90.474,0,0,1,11.708-11.76Zm45.967-7.4c-0.048,2.83-.1,7.11-0.1,10.04-1.1.09-3.215,0.28-6.142,0.28a52.2,52.2,0,0,1-5.614-.28v4.99c1.007,0.05,2.015.1,3.455,0.1,2.447,0,5.614-.19,8.4-0.48,0.192,7.15.192,8.02,0.528,11.47a18.084,18.084,0,0,0-3.071-.28c-4.079,0-9.309,2.01-9.309,7.1,0,3.65,3.359,7.06,8.445,7.06,3.935,0,9.6-1.77,9.357-7.82a22.512,22.512,0,0,1,7.245,4.65,46.9,46.9,0,0,1,2.352-4.37,33.808,33.808,0,0,0-10.077-5.47,106.309,106.309,0,0,1-.72-12.97,66.4,66.4,0,0,0,6.766-1.34l-0.048-4.71a43.9,43.9,0,0,1-6.622,1.49,70.819,70.819,0,0,1,.48-7.25,1.051,1.051,0,0,0,1.1-.82c0-.19-0.1-0.38-0.576-0.48Zm1.055,30.45a7.991,7.991,0,0,1,.192,1.58c0,2.83-2.4,3.99-4.51,3.99-1.775,0-4.367-.92-4.367-3.12,0-3.17,4.367-3.17,4.991-3.17A8.64,8.64,0,0,1,235.047,1190.22Zm5.663-28.39a39.887,39.887,0,0,1,3.6,5.53,11.055,11.055,0,0,1,2.687-1.78,25.217,25.217,0,0,0-3.55-5.38Zm-29.51-1.96a97.616,97.616,0,0,0-2.688,22.37,65.816,65.816,0,0,0,2.352,18.35l4.318-.86c-0.1-5.96,3.023-11.67,3.935-13.36a16.856,16.856,0,0,1-2.591-3.26c-0.48.96-2.447,5.62-2.975,6.63a53.942,53.942,0,0,1-.384-6.92,75.478,75.478,0,0,1,2.639-19.74c0.912-.09,1.3-0.43,1.3-0.76a0.647,0.647,0,0,0-.624-0.68Zm34.02-.34a22.2,22.2,0,0,1,3.551,5.67,12.93,12.93,0,0,1,2.783-1.97,23.292,23.292,0,0,0-3.791-5.28Zm46.206,2.06a90.632,90.632,0,0,1-15.115,1.16c-6.382,0-10.269-.24-12.668-0.72l0.384,5.23c1.151,0.1,2.927.24,6.286,0.24,5.758,0,10.076-.38,12.284-0.53-0.624.53-6.478,5-7.15,5.48,0.432,0.43,2.5,2.78,2.975,3.31,4.558-4.22,10.94-8.45,15.643-10.28Zm-23.7,18.25c-6.91,5.81-7.294,9.22-7.294,11.1,0,6.58,6.766,8.83,17.9,8.83,1.392,0,11.66-.09,18.906-1.87a42.761,42.761,0,0,1-1.152-5.23,62.894,62.894,0,0,1-17.946,2.3c-1.391,0-7.965,0-11.18-1.82a2.892,2.892,0,0,1-1.44-2.65c0-3.02,4.943-7.1,5.758-7.78Zm56.043-21.99a222.231,222.231,0,0,1-9.789,22.38c-1.3,2.64-5.23,10.61-9.5,17.67l5.327,2.31a87.327,87.327,0,0,1,7-14.22c0.96-1.54,3.215-4.99,7.294-4.99,1.439,0,2.783.52,2.783,2.93,0,1.44-.96,8.45-0.96,10.03,0,3.99,2.3,7.11,6.862,7.11,7.725,0,13.963-7.4,16.122-10.04a25.38,25.38,0,0,1-3.455-4.03c-2.207,3.22-7.629,9.03-11.66,9.03-2.783,0-2.783-2.69-2.783-3.84a24.052,24.052,0,0,1,.384-4.37,23.975,23.975,0,0,0,.672-5.19c0-4.9-3.647-5.96-6.43-5.96a13.756,13.756,0,0,0-5.422,1.2c1.3-2.25,6.766-13.78,8.157-16.32,0.336,0,1.1.14,1.1-.53a1.091,1.091,0,0,0-.672-0.77Zm58.682,18.2a9.3,9.3,0,0,0-3.359,6.67,47.323,47.323,0,0,0,.48,5,20.842,20.842,0,0,0-4.847-.63c-6.189,0-8.829,3.37-8.829,6.87,0,4.71,4.559,7.21,10.029,7.21,1.679,0,8.733,0,8.925-6.97,1.535,0.82,2.543,1.35,7.533,5.28a42.482,42.482,0,0,1,2.927-3.79,53.719,53.719,0,0,0-10.6-6.53,25.9,25.9,0,0,1-.624-5.57,6.25,6.25,0,0,1,2.351-5Zm-2.207,16.18c0.048,1.97.1,4.95-4.7,4.95-0.288,0-5.086,0-5.086-3.22,0-2.06,2.159-3.07,4.51-3.07A11.511,11.511,0,0,1,380.24,1192.23Zm-23.512-20.45c3.646,0.04,7.293-.2,8.637-0.34A86.068,86.068,0,0,1,355,1192.14a31.222,31.222,0,0,1,4.655,2.06c4.654-6.53,9.4-18.39,11.084-23.38a68.7,68.7,0,0,0,8.829-1.88,24.176,24.176,0,0,1-.144-4.9,41.054,41.054,0,0,1-7.246,1.97c0.192-.72,1.248-4.27,1.488-5.04,0.528-.05.959-0.1,0.959-0.62,0-.39-0.239-0.48-0.671-0.63l-5.183-1.49c-0.335,1.68-.719,3.94-1.967,8.55a50.046,50.046,0,0,1-5.566.29,40.9,40.9,0,0,1-5.086-.29Zm24.567-.58c2.591,0.77,7.965,2.45,12.284,6.19,0.72-1.15,1.2-1.82,2.831-4.13-2.255-1.82-5.038-3.74-12.428-6.19Zm35.752-13.64v45.24h4.223v-41.01h12.523v-4.23H417.047Zm33.11,1.01a40.345,40.345,0,0,1,.672,7.59c0.048,10.23.1,10.8,0.48,18.1a25.35,25.35,0,0,0-3.023-.24c-6.382,0-12.86,2.93-12.86,8.31,0,3.55,2.927,8.07,11.852,8.07,5.374,0,10.317-1.78,9.693-10.23a38.223,38.223,0,0,1,13.675,8.07,40.936,40.936,0,0,1,3.359-4.42c-4.318-3.6-12.716-7.78-17.418-8.65-0.576-2.01-.72-8.35-0.72-11.67,2.831-.04,10.653-0.43,15.931-1.82a34.176,34.176,0,0,1,.24-5.48c-3.551,1.16-8.061,2.21-16.123,2.36,0-.53.048-3.84,0.384-7.35,0.576-.19,1.008-0.34,1.008-0.86a0.874,0.874,0,0,0-.96-0.72Zm1.632,30.25c0.048,1.3.1,1.88,0.1,2.6,0,3.69-2.256,4.66-5.087,4.66-4.366,0-6.525-1.59-6.525-3.65,0-2.17,2.927-4.04,7.533-4.04A17.83,17.83,0,0,1,451.789,1188.82Zm45.39-30.25a73.9,73.9,0,0,1-1.583,10.8c-1.824.29-10.7,2.31-12.764,2.69l1.775,5.09a63.014,63.014,0,0,1,9.741-2.83,59.684,59.684,0,0,1-12.38,23.24,24.256,24.256,0,0,1,4.751,2.55c8.157-10.61,11.036-20.46,12.811-26.61a25.073,25.073,0,0,1,2.687-.19c2.783,0,5.566.91,5.566,7.06,0,5.81-1.919,11-3.215,12.87-0.767,1.15-1.775,2.07-4.222,2.07a10.769,10.769,0,0,1-4.7-1.06,22.988,22.988,0,0,1,.383,5.52,25.077,25.077,0,0,0,4.9.58,8.092,8.092,0,0,0,7.053-3.36c2.3-3.08,4.655-10.04,4.655-17.19,0-11.43-7.774-11.24-11.9-11,0.24-1.06,1.487-6.44,1.583-7.01,0.912-.1,1.2-0.53,1.2-0.82,0-.38-0.336-0.53-0.864-0.67Zm15.211,7.59c5.806,6.24,7.581,12.24,7.581,13.88,0,2.25-2.735,2.83-5.134,3.26a28.231,28.231,0,0,1,2.015,4.28c6.334-1.06,8.206-3.46,8.206-6.49,0-3.7-3.167-11.38-8.781-17.38Zm23.318,14.88c2.927-1.44,13.148-5.37,19.338-5.37,7.821,0,8.445,5.66,8.445,7.78,0,10.46-13.2,11.04-17.562,11.04-1.2,0-1.968-.05-2.687-0.1a16.236,16.236,0,0,1,1.727,4.66c1.2-.05,9.261-0.29,14.107-2.59,8.062-3.79,9.021-10.57,9.021-13.3,0-4.42-2.735-11.62-12.859-11.62-4.319,0-8.158.96-14.54,2.54a53.691,53.691,0,0,1-7.1,1.49Zm54.8-22.61a79.119,79.119,0,0,1-1.391,9.65c-1.536.09-4.319,0.33-7.534,0.33-1.871,0-3.119-.09-4.27-0.19l0.431,5.24a89.5,89.5,0,0,0,10.173-.48c-3.839,13.39-9.549,22.47-12.428,25.98a39.119,39.119,0,0,1,4.847,2.49,108.045,108.045,0,0,0,12.859-29.19,73.407,73.407,0,0,0,11.9-2.45l-0.816-4.95a37.434,37.434,0,0,1-9.788,2.59c0.192-.91,1.247-5.33,1.487-6.29a0.9,0.9,0,0,0,.912-0.72,0.91,0.91,0,0,0-.912-0.67Zm7.917,22.42a81.6,81.6,0,0,1,10.461-.81,33.449,33.449,0,0,1,7.15.67,32.8,32.8,0,0,1,.383-4.9,42.013,42.013,0,0,0-7.005-.48,74.285,74.285,0,0,0-10.989.82v4.7Zm-2.4,5.72c-1.727,2.69-2.447,4.41-2.447,6.53,0,7.35,10.605,7.35,13.723,7.35a56.478,56.478,0,0,0,10.221-.92,11.163,11.163,0,0,1-.288-2.64,19.374,19.374,0,0,1,.192-2.64,37.034,37.034,0,0,1-10.22,1.59c-6.814,0-9.069-1.21-9.069-3.13a7.517,7.517,0,0,1,2.063-4.51Zm48.834,16.52v-45.24h-4.222v41.01H628.111v4.23h16.746Z" transform="translate(-104.781 -1157.56)"/>
</svg>
