<svg xmlns="http://www.w3.org/2000/svg" width="292.313" height="17.905" viewBox="0 0 584.625 35.81">
  <defs>
    <style>
      .cls-1 {
        fill: #333;
        fill-rule: evenodd;
      }
    </style>
  </defs>
  <path id="_50_text_guide_04.svg" data-name="50% text_guide_04.svg" class="cls-1" d="M125.471,8360.24c1.065-1.98,1.294-2.44,1.674-3.24,0.343,0,.914-0.11.914-0.49a0.687,0.687,0,0,0-.533-0.57l-3.73-1.67a40.992,40.992,0,0,1-13.016,17.45,20.887,20.887,0,0,1,3.045,2.74,51.123,51.123,0,0,0,9.438-10.61h11.875c-3.274,9.85-8.526,17.42-20.21,22.17a15.509,15.509,0,0,1,3.121,2.93,33.12,33.12,0,0,0,11.3-7.61c5.1-5.21,7.193-10,10.39-17.34a13.352,13.352,0,0,1,1.217-2.32l-2.207-2.01a6.313,6.313,0,0,1-2.588.57H125.471Zm27.99-4.53v26.39a14.984,14.984,0,0,1-.191,2.25l2.817,2.81c1.027-.53,6.2-2.93,7.383-3.5a57.486,57.486,0,0,0,17.888-13.19,19.464,19.464,0,0,1-1.979-4.07c-5.1,6.84-14.539,12.89-21.77,15.32v-24.64a1.116,1.116,0,0,0,.8-0.8c0-.34-0.3-0.34-0.8-0.38Zm36.752,13.58v4.1h32.54v-4.1h-32.54Zm58.6,0.19a54.274,54.274,0,0,1,6.089,8.02c-9.134,1.48-13.587,2.21-17.659,2.7,1.979-4.03,3.73-8.17,5.29-12.36,0.571-1.48,3.045-8.86,3.654-10.49a0.931,0.931,0,0,0,.913-0.65,0.718,0.718,0,0,0-.723-0.53l-4.186-1.14a117.709,117.709,0,0,1-9.363,25.63c-2.169.19-3.006,0.23-4.034,0.26l0.875,3.81a0.7,0.7,0,0,0,.571.68c0.267,0,.419-0.11.609-0.68,10.162-1.33,11.722-1.6,25.88-4.07a39.968,39.968,0,0,1,2.284,5.06,25.753,25.753,0,0,1,3.349-2.7c-1.37-3.77-6.052-11.11-10.162-15.6Zm29.935-1.56a3.42,3.42,0,1,0,3.425,3.42A3.431,3.431,0,0,0,278.748,8367.92Zm38.085,9.01h9.819v1.9h4.072v-17.34H316.833v-6.31a1.04,1.04,0,0,0,.989-0.53,0.63,0.63,0,0,0-.723-0.57l-4.338-.31v7.72H298.907v17.38h4.111v-1.94h9.743v11.75h4.072v-11.75Zm0-11.79h9.819v7.99h-9.819v-7.99Zm-4.072,7.99h-9.743v-7.99h9.743v7.99Zm42.331-12.93c0.152-.27.3-0.53,0.761-1.45h18.61v-2.93h-17.24c0.038-.11.266-0.68,0.3-0.79,0.914-.35.99-0.42,0.99-0.73,0-.26-0.228-0.38-0.914-0.49l-3.387-.5a23.766,23.766,0,0,1-6.318,10.42,6.883,6.883,0,0,1,3.312,1.83,31.421,31.421,0,0,0,2.55-3.27v8.44h17.545V8360.2H355.092Zm2.359,4.14v-1.75h10.238v1.75H357.451Zm10.238,2.21v1.75H357.451v-1.75h10.238Zm-10.314,10.04c0.228-.31.761-0.99,1.256-1.67h16.251v-2.89H349.345v2.89h5.214a22.4,22.4,0,0,1-6.7,5.66,8.153,8.153,0,0,1,2.969,2.06,27.236,27.236,0,0,0,4.072-3.31h2.626a23.564,23.564,0,0,1-7.954,6.77,5.838,5.838,0,0,1,2.664,1.97,24.821,24.821,0,0,0,8.982-8.74h2.588a20.133,20.133,0,0,1-6.508,8.06,7.724,7.724,0,0,1,3.007,1.75,23.751,23.751,0,0,0,7-9.81h3.007a26.5,26.5,0,0,1-.571,4.79c-0.3,1.06-.989,1.06-1.865,1.06a12.6,12.6,0,0,1-3.044-.38,6.545,6.545,0,0,1,1.179,3.88c5.9,0.31,6.737-.49,7.5-6.62,0.114-.76.343-4.6,0.419-5.47H357.375Zm-10.162-13.27a1.474,1.474,0,0,0,.838-0.76c0-.35-0.153-0.38-1.37-0.69a48.361,48.361,0,0,0,2.473-6.31c0.762-.12,1.142-0.19,1.142-0.61,0-.34-0.3-0.38-0.8-0.53l-3.768-1.07c-0.609,3.08-2.816,9.62-7.117,14.15a10.933,10.933,0,0,1,2.36,3.16,14.079,14.079,0,0,0,2.359-2.89v20.99h3.882v-25.44Zm46.648,4.6a3.42,3.42,0,1,0,3.426,3.42A3.431,3.431,0,0,0,393.861,8367.92Zm26.843-7.11v-5.59c0.837-.42.951-0.5,0.951-0.8,0-.46-0.571-0.5-0.951-0.5l-3.806-.15v7.04h-4.263v3.65H416.9v7.49a46.779,46.779,0,0,1-4.948,1.44l0.876,3.77c0.114,0.53.19,0.65,0.418,0.65,0.457,0,.533-0.35.685-0.99,0.8-.27,1.485-0.46,2.969-0.99v7.64c0,1.03-.114,1.33-1.37,1.33a12.837,12.837,0,0,1-2.436-.23,8.957,8.957,0,0,1,.99,4.07c4.262-.07,6.622-0.11,6.622-3.8v-10.46c2.207-.83,3.083-1.29,3.768-1.59a13.09,13.09,0,0,1,.228-3.69c-0.761.3-1.56,0.68-4,1.56v-6.2h3.882v-3.65H420.7Zm8.982,3.88v-9.4c0.8-.34,1.027-0.45,1.027-0.8,0-.45-0.571-0.53-0.913-0.53l-3.958-.19v29.63a35.418,35.418,0,0,1-3.844.68l0.875,3.65c0.114,0.46.19,0.69,0.5,0.69a1.056,1.056,0,0,0,.685-0.95c2.892-.58,7.231-1.68,9.7-2.44a14.142,14.142,0,0,1,.19-3.73c-1.18.35-1.827,0.5-4.262,1.18v-14.07h4.262v-3.72h-4.262Zm15.185-3.77a35.317,35.317,0,0,1-5.9,5.63v-11.14c0.8-.31,1.1-0.42,1.1-0.8a0.727,0.727,0,0,0-.876-0.57l-3.958-.27v30.58c0,0.99,0,3.53,3.045,3.53h4.833c2.817,0,4-1.78,4.8-6.42-0.647-.04-1.713-0.19-3.806-1.75-0.419,4.6-.952,4.6-3.311,4.6-1.256,0-1.827-.08-1.827-1.37v-11.68a49.53,49.53,0,0,0,7.688-6.57,1.9,1.9,0,0,0,.951.3,0.413,0.413,0,0,0,.5-0.38,1.373,1.373,0,0,0-.381-0.69Zm22.157,6.01v-11.56c0.647-.31.837-0.42,0.837-0.72s-0.228-.5-0.875-0.54l-3.882-.15v12.97h-7.726v3.61h7.726v4.19h-8.716v3.65h8.716v10.34h3.92v-10.34h7.688v-3.65h-7.688v-4.19h7v-3.61h-7Zm13.168-8.18c0.723-.42.837-0.53,0.837-0.8a0.852,0.852,0,0,0-.913-0.53l-3.73-.23v23.16H480.2v-21.6Zm-25.233-1.18a26.077,26.077,0,0,1,3.121,8.1,28.465,28.465,0,0,1,3.806-1.29,43.741,43.741,0,0,0-3.463-8.18Zm15.909-1.59a34.532,34.532,0,0,1-2.855,8.59,13.934,13.934,0,0,1,3.692,1.03,38.379,38.379,0,0,0,2.588-7.61c0.647-.23.913-0.34,0.913-0.76a0.656,0.656,0,0,0-.647-0.53Zm12.978-2.36v29.4c0,1.67-.381,2.09-2.208,2.09a17.57,17.57,0,0,1-3.006-.35,9.568,9.568,0,0,1,1.484,4.23c5.709-.23,7.764-0.31,7.764-4.53v-29.32c0.647-.3.8-0.38,0.8-0.72s-0.3-.5-0.8-0.53Zm35.074,14.34a7.341,7.341,0,0,0-2.664,5.28,37.726,37.726,0,0,0,.38,3.96,16.54,16.54,0,0,0-3.844-.5c-4.909,0-7,2.66-7,5.44,0,3.73,3.615,5.71,7.954,5.71,1.332,0,6.927,0,7.079-5.52,1.218,0.65,2.017,1.07,5.975,4.18a33.386,33.386,0,0,1,2.322-3,42.655,42.655,0,0,0-8.411-5.17,20.512,20.512,0,0,1-.5-4.41,4.935,4.935,0,0,1,1.865-3.96Zm-1.751,12.81c0.038,1.56.076,3.92-3.73,3.92-0.228,0-4.034,0-4.034-2.55,0-1.63,1.713-2.43,3.578-2.43A9.147,9.147,0,0,1,517.173,8380.77Zm-18.649-16.2c2.893,0.04,5.785-.15,6.851-0.26a68.122,68.122,0,0,1-8.221,16.39,23.871,23.871,0,0,1,3.692,1.63c3.692-5.17,7.459-14.56,8.792-18.52a53.978,53.978,0,0,0,7-1.48,19.181,19.181,0,0,1-.114-3.88,32.534,32.534,0,0,1-5.747,1.56c0.153-.57.99-3.39,1.18-4,0.419-.03.761-0.07,0.761-0.49,0-.3-0.19-0.38-0.533-0.49l-4.11-1.18c-0.266,1.33-.571,3.12-1.56,6.77a43.2,43.2,0,0,1-4.415.22,34.728,34.728,0,0,1-4.034-.22Zm19.486-.46a26.242,26.242,0,0,1,9.743,4.91c0.571-.91.952-1.44,2.246-3.27-1.789-1.44-4-2.97-9.857-4.91Zm47.624-3.11c-0.457.19-7.079,2.73-8.411,3.27-1.636.64-4.262,1.75-6.127,2.66-1.827-2.51-2.055-6.43-2.055-9.17,0-1.1.076-2.05,0.228-3.68l-5.138,1.1a13.521,13.521,0,0,1,.761,3.53c0.533,5.18.8,7.65,2.931,9.89-5.6,3.12-8.411,6.39-8.411,10.38a7.116,7.116,0,0,0,3.958,6.28c1.636,0.84,4.3,1.94,11.037,1.94a75.557,75.557,0,0,0,12.407-1.14,15.363,15.363,0,0,1,.266-4.53,43.416,43.416,0,0,1-12.787,1.94c-2.55,0-10.657,0-10.657-4.6,0-3.61,4.872-6.69,8.868-8.59a53.406,53.406,0,0,1,14.767-4.83Zm0.457-6.09a28.034,28.034,0,0,1,2.816,3.96,8.4,8.4,0,0,1,2.284-1.49c-0.761-1.21-2.246-3.19-2.931-4.03Zm-4.339.88a34.246,34.246,0,0,1,2.816,3.99,7.382,7.382,0,0,1,2.246-1.48,29.809,29.809,0,0,0-2.931-4.03Zm34,31.33a20.829,20.829,0,0,0,8.982-5.32,16.543,16.543,0,0,0,4.453-11.26c0-8.9-7.041-14.26-15.071-14.26-10.466,0-17.621,9.05-17.621,17.04,0,6.43,4.643,10.99,7.5,10.99,2.17,0,4.149-2.4,6.2-7.07a55.981,55.981,0,0,0,4.186-17.38,10.531,10.531,0,0,1,10.885,10.72c0,2.21-.761,10.69-12.1,13.04A19.625,19.625,0,0,1,595.754,8387.12ZM590.2,8360.5a40.15,40.15,0,0,1-2.893,13.81c-0.989,2.47-2.093,5.36-3.539,5.36-1.484,0-3.5-2.82-3.5-6.62A13.854,13.854,0,0,1,590.2,8360.5Zm42.674,15.75a21.627,21.627,0,0,0,4.224,5.28,25.588,25.588,0,0,1-9.362,3.84,8.529,8.529,0,0,1,2.588,3.31,28.69,28.69,0,0,0,9.743-4.75,41.1,41.1,0,0,0,10.161,4.98,7.633,7.633,0,0,1,2.474-3.42,28.418,28.418,0,0,1-9.819-4,28.442,28.442,0,0,0,5.975-8.97l-1.294-1.56H631.349v3.5h4.377Zm10.542-1.79a15.134,15.134,0,0,1-3.5,4.79,21.393,21.393,0,0,1-4.034-4.79h7.536ZM626.9,8360.08v-4.9a1.25,1.25,0,0,0,1.028-.8c0-.38-0.457-0.38-0.913-0.42l-3.959-.19v6.31h-5.1v3.58h5.1v7.76a33.482,33.482,0,0,1-5.632,1.71l0.609,3.92a0.822,0.822,0,0,0,.494.83c0.609,0,.685-0.83.724-1.14,1.1-.42,1.941-0.72,3.805-1.56v8.37c0,1.1-.456,1.25-1.826,1.25a11.508,11.508,0,0,1-2.741-.3,9.625,9.625,0,0,1,1.37,4.07c0.762,0.04,1.485.07,1.9,0.07,5.138,0,5.138-2.47,5.138-4.9v-10.27a21.9,21.9,0,0,0,3.083-1.6,17.561,17.561,0,0,1,.076-3.5,22.359,22.359,0,0,1-3.159,1.53v-6.24h3.692v-3.58H626.9Zm6.584-5.09c0,0.45.039,2.74,0.039,3.23,0,4.41-.99,7.07-3.578,9.62a8.026,8.026,0,0,1,3.083,2.17c3.349-3.99,3.958-7.26,4.148-11.56h5.138v6.92c0,1.75,0,3.35,3.235,3.35h3.273a2.959,2.959,0,0,0,3.045-1.79,16,16,0,0,0,1.218-3.96,7.612,7.612,0,0,1-3.349-1.82c-0.419,3.95-1.18,3.95-2.512,3.95-0.952,0-1.218-.19-1.218-1.21v-8.9H633.48Zm40.988,19.13a30.225,30.225,0,0,1-4.567-6.89v-0.26h5.062v-3.16H669.9v-5.59a23.717,23.717,0,0,0,4.529-1.67,4.985,4.985,0,0,0,.761.11,0.436,0.436,0,0,0,.533-0.38,2.021,2.021,0,0,0-.914-1.06l-2.055-1.75a34.418,34.418,0,0,1-12.826,3.15,9.929,9.929,0,0,1,1.713,3.24c1.446-.23,3.045-0.46,4.986-0.88v4.83h-5.861v3.16h5.4a42.81,42.81,0,0,1-6.47,12.93,14.88,14.88,0,0,1,3.2,2.28,43.211,43.211,0,0,0,3.73-8.71v15.21H669.9v-16.12a42.157,42.157,0,0,0,2.512,5.06,12.319,12.319,0,0,1,2.055-2.59v13.65h3.387V8374.8h13.511v8.9c0,1.33,0,1.6-1.37,1.6a16.484,16.484,0,0,1-2.474-.19,8.982,8.982,0,0,1,1.713,3.72c5.442,0.46,5.442-1.82,5.442-3.15V8371.8H674.468v2.32Zm12.026-16.89v-1.9a1.345,1.345,0,0,0,.99-0.8,0.609,0.609,0,0,0-.685-0.45l-4.415-.23v3.38h-8.449v3.16H695.4v-3.16h-8.906Zm5.823,4.83h-15.3v8.18h15.3v-8.18Zm-3.653,2.78v2.47h-7.955v-2.47h7.955Zm-8.868,11.37v10.19h2.931v-1.94h6.584v-8.25H679.8Zm6.66,2.39v3.43h-3.729v-3.43h3.729Z" transform="translate(-110.781 -8353.31)"/>
</svg>
