<svg xmlns="http://www.w3.org/2000/svg" width="268.953" height="18.175" viewBox="0 0 537.906 36.35">
  <defs>
    <style>
      .cls-1 {
        fill: #333;
        fill-rule: evenodd;
      }
    </style>
  </defs>
  <path id="_50_text_guide_01.svg" data-name="50% text_guide_01.svg" class="cls-1" d="M155.794,6252.53A44.381,44.381,0,0,0,169,6268.61a10.054,10.054,0,0,1,3.083-3.08A47.9,47.9,0,0,1,157.2,6248.8H171.36v-3.42H155.794v-6.09a0.986,0.986,0,0,0,.837-0.72c0-.46-0.533-0.49-0.99-0.53l-3.729-.27v7.61H136.46v3.42h13.967a48.748,48.748,0,0,1-14.766,17.23,9.271,9.271,0,0,1,3.691,2.85,49.5,49.5,0,0,0,12.56-16.16v10.19h-6.09v3.65h6.09v6.16h3.882v-6.16h6.355v-3.65h-6.355v-10.38Zm37.932-14.68c0,9.12,0,11.9-1.447,16.88-1.941,6.7-6.66,11.11-14.234,14.49a12.65,12.65,0,0,1,3.312,3.35,29.717,29.717,0,0,0,8.943-6.58,23.633,23.633,0,0,0,5.709-9.62,24.628,24.628,0,0,0,5.709,9.5,30.137,30.137,0,0,0,8.906,6.74,9.9,9.9,0,0,1,2.93-3.5c-7-3.2-12.445-8.33-14.538-15.67-0.914-3.2-1.18-6.92-1.066-14.03,0.761-.35.99-0.42,0.99-0.69,0-.42-0.609-0.53-0.99-0.57Zm44.7,33.27a20.835,20.835,0,0,0,8.982-5.32,16.548,16.548,0,0,0,4.453-11.26c0-8.9-7.041-14.26-15.072-14.26-10.466,0-17.621,9.05-17.621,17.04,0,6.43,4.643,10.99,7.5,10.99,2.169,0,4.148-2.4,6.2-7.07a55.987,55.987,0,0,0,4.187-17.38,10.531,10.531,0,0,1,10.885,10.72c0,2.21-.762,10.69-12.1,13.04A19.675,19.675,0,0,1,238.43,6271.12Zm-5.557-26.62a40.149,40.149,0,0,1-2.892,13.81c-0.99,2.47-2.093,5.36-3.54,5.36-1.484,0-3.5-2.82-3.5-6.62A13.854,13.854,0,0,1,232.873,6244.5Zm47.6,4.72a48.619,48.619,0,0,1-11.19,14.37v-14.75c0.533-.04,1.028-0.19,1.028-0.65,0-.34-0.381-0.46-1.256-0.65a27.879,27.879,0,0,0,1.56-3.23c1.447-3.53,1.6-3.91,1.751-4.26,0.685,0.04,1.1-.15,1.1-0.49a0.862,0.862,0,0,0-.647-0.65l-3.844-1.29a40.876,40.876,0,0,1-9.325,16.58,9.33,9.33,0,0,1,2.855,2.85,39.911,39.911,0,0,0,2.854-3.57v19.2h3.92v-8.93a11.583,11.583,0,0,1,2.969,2.35,46.027,46.027,0,0,0,9.4-12.85v9.32H276.78v3.72h4.871v6.43h3.654v-6.43h4.833v-3.72h-4.833v-9.21c2.36,5.06,5.937,10,9.362,12.78a13.4,13.4,0,0,1,2.741-2.74,45.973,45.973,0,0,1-11.075-14.18h9.476v-3.61h-10.5v-6.32a1.081,1.081,0,0,0,.837-0.72,0.878,0.878,0,0,0-.837-0.53l-3.654-.23v7.8H271.376v3.61h9.1Zm34.4-4.34v-2.66h5.214v-3.12H305.466v20.96h3.312v-1.18H316.2a25.989,25.989,0,0,1-.305,4.56,18.952,18.952,0,0,0-.913-3.57l-1.636.45a23.617,23.617,0,0,1,.913,4.26,4.759,4.759,0,0,1,1.522-.45c-0.8,3.84-1.37,5.05-3.273,5.05a16.774,16.774,0,0,1-2.4-.22,13.228,13.228,0,0,1,1.332,3.57c3.273-.15,4.947-0.23,6.241-2.97,1.6-3.46,1.865-10.23,1.9-13.61h-4.719v-2.85h3.692v-2.78h-3.692v-2.66h3.692v-0.15a8.7,8.7,0,0,1,2.017,2.39,15.858,15.858,0,0,0,2.055-1.4v1.74h4.643v2.13h-6.889v9.47h6.242c-1.56,5.14-6.47,7.19-8.6,8.07a10.607,10.607,0,0,1,2.4,3.04,19.021,19.021,0,0,0,8.792-8.14,20,20,0,0,0,7.954,7.87,10.871,10.871,0,0,1,2.36-3.12,17.478,17.478,0,0,1-8.145-7.72h6.661v-9.47h-7.27v-2.13h4.567v-2.16a16.277,16.277,0,0,0,2.132,1.25,10.09,10.09,0,0,1,2.245-3.27c-3.615-1.41-7.726-4.11-9.248-6.58,0.533-.07.989-0.15,0.989-0.53a0.808,0.808,0,0,0-.8-0.57l-3.044-.53a20.528,20.528,0,0,1-9.058,8.9v-1.87h-3.692Zm-6.089,5.44v-2.66h3.006v2.66h-3.006Zm0,5.63v-2.85h3.006v2.85h-3.006Zm0-11.07v-2.66h3.006v2.66h-3.006Zm15,13.92v-3.42h3.5v1.94a14.793,14.793,0,0,1-.114,1.48h-3.387Zm10.808-3.42v3.42h-3.844c0.038-.46.038-0.99,0.038-1.41v-2.01h3.806Zm-10.352-8.22a29.328,29.328,0,0,0,4.529-4.94,27.528,27.528,0,0,0,5.29,4.94h-9.819Zm-19.372,13.89a39.424,39.424,0,0,1-.761,8.1,16.089,16.089,0,0,1,2.7.3,58.6,58.6,0,0,0,.457-7.34,0.916,0.916,0,0,0,.685-0.53c0-.38-0.685-0.42-0.989-0.42Zm3.2,0.03a43.488,43.488,0,0,1,.191,6.7,18.769,18.769,0,0,1,2.169-.61,46.972,46.972,0,0,0-.5-6.35Zm2.7-.3a25.451,25.451,0,0,1,.875,4.9,8.076,8.076,0,0,1,1.751-.45,28.666,28.666,0,0,0-1.028-4.76Zm40.124-21.91c-1.484,7.19-2.4,11.56-2.4,18.22a37.349,37.349,0,0,0,2.36,14.11l3.577-1.03c-0.19-4.11,2.132-9.09,2.626-10.15a6.68,6.68,0,0,1-2.131-2.21,41.876,41.876,0,0,0-2.207,5.29,25.475,25.475,0,0,1-.419-5.17,52.659,52.659,0,0,1,2.55-16.43c0.457-.04.913-0.08,0.913-0.46,0-.34-0.3-0.45-0.837-0.64Zm10.5,8.1c0.99,0.04,2.207.16,4.072,0.16a63.459,63.459,0,0,0,12.331-1.11c-0.076-.53-0.342-3.12-0.456-3.88a45.631,45.631,0,0,1-11.837,1.22c-1.941,0-3.082-.11-4.11-0.19v3.8Zm0.038,10.35a13.8,13.8,0,0,0-1.484,5.7c0,4.95,5.975,5.4,10.618,5.4a69.781,69.781,0,0,0,8.944-.57,18.323,18.323,0,0,1,.343-4.18,39.508,39.508,0,0,1-9.4,1.03c-4.034,0-6.774-.46-6.774-2.82a8.687,8.687,0,0,1,1.179-3.88Zm39.187-16.77v-1.26a1.114,1.114,0,0,0,1.1-.8c0-.45-0.571-0.49-0.761-0.49l-4.225-.19v2.74H389.84v3.04h6.888v12.02H388.85v3.12h7.308a19.234,19.234,0,0,1-8.488,5.89,14.646,14.646,0,0,1,3.121,2.78,32.788,32.788,0,0,0,7.193-5.37v2.89h6.242v3.35H390.6v3.31h31.627v-3.31H408.184v-3.35h6.66v-2.51a30.376,30.376,0,0,0,7.155,4.8,9.415,9.415,0,0,1,2.741-3.12,21.2,21.2,0,0,1-8.449-5.36h7.573v-3.12h-8.182v-12.02h6.964v-3.04h-6.964v-1.41a1.148,1.148,0,0,0,.951-0.76c0-.42-0.533-0.46-0.875-0.46l-4-.15v2.78H400.61Zm11.152,12.7v2.36H400.61v-2.36h11.152Zm0-4.83v2.28H400.61v-2.28h11.152Zm-7.536,10.31v3.04h-6.013a21.99,21.99,0,0,0,2.4-3.04h3.616Zm3.958,3.04v-2.06c0.419-.07,1.256-0.22,1.256-0.64a0.4,0.4,0,0,0-.266-0.34h2.4a21.7,21.7,0,0,0,2.626,3.04h-6.013Zm3.578-18.18v2.24H400.61v-2.24h11.152Zm43.515-5.17a29.711,29.711,0,0,1,3.2,4.1,8.769,8.769,0,0,1,2.17-1.4,24.1,24.1,0,0,0-3.159-4.11Zm5.024-.53a21,21,0,0,1,3.007,4.1,11.473,11.473,0,0,1,2.131-1.37,29.039,29.039,0,0,0-3.045-4.03Zm-28.62,13.8c6.394-3.38,14.919-5.82,19.258-5.82,7.916,0,9.02,5.74,9.02,8.44,0,10.54-15.3,10.65-20.248,10.69a16.019,16.019,0,0,1,1.409,4.11c3.958-.15,23.025-1.03,23.025-14.87,0-6.16-3.806-11.98-12.673-11.98-4.3,0-8.183.95-15.909,3.15a31.412,31.412,0,0,1-5.747,1.22Zm52.475-13.58a58.476,58.476,0,0,1-1.256,8.56c-1.446.23-8.487,1.83-10.124,2.13l1.408,4.03a49.2,49.2,0,0,1,7.726-2.24,47.3,47.3,0,0,1-9.819,18.4,19.255,19.255,0,0,1,3.768,2.02,59.184,59.184,0,0,0,10.162-21.07,17.858,17.858,0,0,1,2.131-.15c2.207,0,4.415.72,4.415,5.59a20.5,20.5,0,0,1-2.55,10.19,3.5,3.5,0,0,1-3.349,1.64,8.562,8.562,0,0,1-3.73-.84,18.147,18.147,0,0,1,.3,4.37,19.942,19.942,0,0,0,3.882.46,6.425,6.425,0,0,0,5.595-2.66c1.827-2.44,3.692-7.95,3.692-13.62,0-9.05-6.166-8.9-9.439-8.71,0.19-.83,1.18-5.09,1.256-5.55a0.853,0.853,0,0,0,.951-0.65c0-.3-0.266-0.41-0.685-0.53Zm12.064,6.01c4.6,4.95,6.014,9.7,6.014,10.99,0,1.79-2.17,2.25-4.073,2.59a22.6,22.6,0,0,1,1.6,3.38c5.023-.83,6.508-2.74,6.508-5.13,0-2.93-2.512-9.01-6.965-13.77Zm38.618,7.84a7.345,7.345,0,0,0-2.664,5.28,37.736,37.736,0,0,0,.381,3.96,16.54,16.54,0,0,0-3.844-.5c-4.91,0-7,2.66-7,5.44,0,3.73,3.616,5.71,7.954,5.71,1.333,0,6.927,0,7.079-5.52,1.218,0.65,2.017,1.07,5.976,4.18a33.415,33.415,0,0,1,2.321-3,42.6,42.6,0,0,0-8.411-5.17,20.576,20.576,0,0,1-.5-4.41,4.938,4.938,0,0,1,1.865-3.96Zm-1.75,12.81c0.038,1.56.076,3.92-3.73,3.92-0.228,0-4.034,0-4.034-2.55,0-1.63,1.712-2.43,3.577-2.43A9.147,9.147,0,0,1,533.088,6264.77Zm-18.649-16.2c2.892,0.04,5.785-.15,6.851-0.26a68.159,68.159,0,0,1-8.221,16.39,23.914,23.914,0,0,1,3.692,1.63c3.691-5.17,7.459-14.56,8.791-18.52a53.942,53.942,0,0,0,7-1.48,19.181,19.181,0,0,1-.114-3.88,32.557,32.557,0,0,1-5.747,1.56c0.152-.57.989-3.39,1.18-4,0.418-.03.761-0.07,0.761-0.49,0-.3-0.19-0.38-0.533-0.49l-4.11-1.18c-0.267,1.33-.571,3.12-1.561,6.77a43.171,43.171,0,0,1-4.414.22,34.762,34.762,0,0,1-4.035-.22Zm19.486-.46a26.249,26.249,0,0,1,9.743,4.91c0.571-.91.952-1.44,2.246-3.27-1.789-1.44-4-2.97-9.858-4.91Zm22.785-7.52a68.34,68.34,0,0,0-1.636,13.19c0,10.8,4.719,16.58,7.84,16.58,3.653,0,6.812-7.87,7.5-9.54a12.436,12.436,0,0,1-2.778-2.59c-0.875,2.21-2.854,7.07-4.491,7.07-1.789,0-4.148-4.71-4.148-10.91a36.576,36.576,0,0,1,1.826-11.41,0.687,0.687,0,0,0,.838-0.53c0-.38-0.267-0.46-0.8-0.61Zm20.285,4.1a33.372,33.372,0,0,1,6.737,19.17c1.027-.46,3.577-1.6,4.186-1.79a38.285,38.285,0,0,0-7.574-19.47Zm34.027,15.56a21.625,21.625,0,0,0,4.225,5.28,25.6,25.6,0,0,1-9.363,3.84,8.529,8.529,0,0,1,2.588,3.31,28.672,28.672,0,0,0,9.743-4.75,41.115,41.115,0,0,0,10.162,4.98,7.626,7.626,0,0,1,2.474-3.42,28.408,28.408,0,0,1-9.819-4,28.46,28.46,0,0,0,5.975-8.97l-1.294-1.56H609.5v3.5h4.377Zm10.542-1.79a15.143,15.143,0,0,1-3.5,4.79,21.367,21.367,0,0,1-4.034-4.79h7.535Zm-16.517-14.38v-4.9a1.25,1.25,0,0,0,1.028-.8c0-.38-0.457-0.38-0.914-0.42l-3.958-.19v6.31h-5.1v3.58h5.1v7.76a33.452,33.452,0,0,1-5.633,1.71l0.609,3.92a0.822,0.822,0,0,0,.5.83c0.609,0,.685-0.83.723-1.14,1.1-.42,1.941-0.72,3.806-1.56v8.37c0,1.1-.457,1.25-1.827,1.25a11.5,11.5,0,0,1-2.74-.3,9.625,9.625,0,0,1,1.37,4.07c0.761,0.04,1.484.07,1.9,0.07,5.138,0,5.138-2.47,5.138-4.9v-10.27a21.9,21.9,0,0,0,3.083-1.6,17.561,17.561,0,0,1,.076-3.5,22.359,22.359,0,0,1-3.159,1.53v-6.24h3.692v-3.58h-3.692Zm6.584-5.09c0,0.45.038,2.74,0.038,3.23,0,4.41-.989,7.07-3.577,9.62a8.02,8.02,0,0,1,3.082,2.17c3.35-3.99,3.958-7.26,4.149-11.56h5.138v6.92c0,1.75,0,3.35,3.235,3.35h3.273a2.957,2.957,0,0,0,3.044-1.79,15.953,15.953,0,0,0,1.218-3.96,7.618,7.618,0,0,1-3.349-1.82c-0.419,3.95-1.18,3.95-2.512,3.95-0.951,0-1.218-.19-1.218-1.21v-8.9H611.631Zm40.987,19.13a30.225,30.225,0,0,1-4.567-6.89v-0.26h5.062v-3.16h-5.062v-5.59a23.667,23.667,0,0,0,4.529-1.67,5,5,0,0,0,.762.11,0.435,0.435,0,0,0,.532-0.38,2.017,2.017,0,0,0-.913-1.06l-2.055-1.75a34.418,34.418,0,0,1-12.826,3.15,9.968,9.968,0,0,1,1.713,3.24c1.446-.23,3.044-0.46,4.985-0.88v4.83h-5.861v3.16h5.4a42.862,42.862,0,0,1-6.47,12.93,14.88,14.88,0,0,1,3.2,2.28,43.129,43.129,0,0,0,3.729-8.71v15.21h3.273v-16.12a42.494,42.494,0,0,0,2.512,5.06,12.386,12.386,0,0,1,2.055-2.59v13.65h3.388V6258.8h13.51v8.9c0,1.33,0,1.6-1.37,1.6a16.48,16.48,0,0,1-2.473-.19,8.978,8.978,0,0,1,1.712,3.72c5.443,0.46,5.443-1.82,5.443-3.15V6255.8h-20.21v2.32Zm12.027-16.89v-1.9a1.345,1.345,0,0,0,.989-0.8,0.608,0.608,0,0,0-.685-0.45l-4.414-.23v3.38h-8.449v3.16h21.465v-3.16h-8.906Zm5.823,4.83h-15.3v8.18h15.3v-8.18Zm-3.654,2.78v2.47H658.86v-2.47h7.954Zm-8.867,11.37v10.19h2.93v-1.94h6.584v-8.25h-9.514Zm6.66,2.39v3.43h-3.73v-3.43h3.73Z" transform="translate(-135.656 -6236.59)"/>
</svg>
