<svg xmlns="http://www.w3.org/2000/svg" width="145.766" height="35.97" viewBox="0 0 291.531 71.94">
  <defs>
    <style>
      .cls-1 {
        fill: #333;
        fill-rule: evenodd;
      }
    </style>
  </defs>
  <path id="_50_text_other_02.svg" data-name="50% text_other_02.svg" class="cls-1" d="M245.354,9063.2a22.739,22.739,0,0,0,.21-3.3h7.172v-2.7h-12.6c0.24-.57.3-0.72,0.42-1.05,0.51-.03.84-0.06,0.84-0.39a0.636,0.636,0,0,0-.57-0.57l-2.7-.99h17.194v-2.7H229.24v26.32h3.091v-1.17H255.5v-2.82H232.331V9054.2h5.761a18.324,18.324,0,0,1-3.781,6.96,5.569,5.569,0,0,1,2.761,1.56,18.74,18.74,0,0,0,1.77-2.82h3.751c-0.03,1.02-.06,2.31-0.18,3.3h-8.462v2.64H241.6c-1.47,2.97-4.891,4.33-8.222,4.9a6.89,6.89,0,0,1,1.981,2.7c4.861-1.56,7.321-3.78,8.672-6.13a18.047,18.047,0,0,0,8.672,6.49,5.382,5.382,0,0,1,1.8-2.52c-1.47-.45-5.641-1.77-8.192-5.44h8.522v-2.64h-9.482Zm40.131,3.12a19.35,19.35,0,0,0,2.67,1.74,5.421,5.421,0,0,1,1.891-2.07,18.762,18.762,0,0,1-3.6-2.19,18.726,18.726,0,0,0,2.07-1.8,1.345,1.345,0,0,0,.391.06,0.359,0.359,0,0,0,.42-0.3,0.774,0.774,0,0,0-.45-0.54l-1.771-1.41a17.623,17.623,0,0,1-2.43,2.43,14.144,14.144,0,0,1-2.041-2.55h6.9v-2.22h-9.963c0.12-.36.24-0.63,0.45-1.32,0.271-.06,1.021-0.15,1.021-0.57a0.306,0.306,0,0,0-.12-0.21h8.612v-2.52H279.273v-1.5c0.57-.27.63-0.42,0.63-0.6,0-.27-0.27-0.3-0.63-0.33l-3.211-.15v2.58H266.28v7.02a21.82,21.82,0,0,0-2.64-3.99l-2.281,1.59a19.6,19.6,0,0,1,2.911,4.95,16.567,16.567,0,0,1,2.01-1.44v2.07a27.583,27.583,0,0,1-4.621,3.45l1.32,2.4a0.77,0.77,0,0,0,.48.43c0.3,0,.3-0.19.331-0.7a28.287,28.287,0,0,0,2.43-2.22,14.224,14.224,0,0,1-4.441,9.55,6.6,6.6,0,0,1,2.641,1.5,18.074,18.074,0,0,0,4.621-11.05,5.828,5.828,0,0,1,1.77,1.77,15.105,15.105,0,0,0,1.771-1.23v4.27h5.251v3.06c0,0.81-.09.99-0.96,0.99a12.447,12.447,0,0,1-1.711-.18,6.253,6.253,0,0,1,.72,2.94c2.941-.03,4.742-0.06,4.742-2.97v-3.84h4.861v-4.9Zm-10.053-1.47h7.2v1.26h-7.2v-1.26Zm1.111-1.92a23.411,23.411,0,0,0,2.07-3.24h0.9a17.665,17.665,0,0,0,2.281,3.24h-5.251Zm6.091,6.34h-7.2v-1.36h7.2v1.36Zm-12.933-11.8v2.22h5.881a17.62,17.62,0,0,1-1.8,2.52,22.339,22.339,0,0,0-2.281-2.22l-1.68,1.53a16.26,16.26,0,0,1,2.431,2.31,13.574,13.574,0,0,1-3.181,2.31c0.09-2.37.09-2.64,0.09-5.19v-5.58h8.192a20.7,20.7,0,0,1-.66,2.1H269.7Zm3.991,13.81a17.768,17.768,0,0,1-5.521,4.5,5.335,5.335,0,0,1,2.34,1.8,20.4,20.4,0,0,0,4.831-4.02c0.33,0.03.871,0.06,0.871-.33a0.6,0.6,0,0,0-.391-0.45Zm7.862,1.89a25.769,25.769,0,0,1,5.791,4.56,15.815,15.815,0,0,1,1.921-2.01,22.1,22.1,0,0,0-5.582-4.26Zm22.384-17.92c0.39,0.3.661,0.51,1.021,0.81h-2.671v-4.47a3.87,3.87,0,0,0,.48-0.27,0.35,0.35,0,0,0,.21-0.33,0.611,0.611,0,0,0-.6-0.36l-2.581-.18v5.61h-3.661v2.43h3.541c-0.63,2.88-2.25,7.32-4.441,9.81a7.134,7.134,0,0,1,2.191,2.17,39.731,39.731,0,0,0,2.37-5.89v13.27h2.491v-14.47a18.047,18.047,0,0,0,1.38,2.91,6.413,6.413,0,0,1,1.471-1.71,18.33,18.33,0,0,1-2.851-5.28v-0.81h3.121v-2.04c0.51,0.42,1.5,1.35,2.04,1.92-0.48.78-1.05,1.71-1.62,2.49a6.856,6.856,0,0,1-1.11,0l0.57,2.13a0.541,0.541,0,0,0,.39.45,0.585,0.585,0,0,0,.42-0.48c2.16-.27,3.361-0.48,4.291-0.66,0.03,0.15.09,0.78,0.12,1.32a12.831,12.831,0,0,1,1.92-.39,26.432,26.432,0,0,0-.99-4.56l-1.77.48a12.578,12.578,0,0,1,.42,1.47c-0.48.06-1.921,0.15-2.191,0.15,0.961-1.17,2.971-4.08,3.571-5.01,0.24,0,.69.03,0.69-0.27a0.668,0.668,0,0,0-.39-0.45l-1.77-.96c-0.3.57-.63,1.17-1.381,2.4l-0.81-.81c0.75-1.17,1.471-2.37,2.131-3.6,0.54-.03.78-0.06,0.78-0.36a0.513,0.513,0,0,0-.36-0.36l-2.011-1.14a32.874,32.874,0,0,1-2.16,3.93c-0.24-.18-0.36-0.3-0.87-0.72Zm5.312,14.23c0.03-.37.06-2.14,0.09-2.56h4.441a24.077,24.077,0,0,0,1.71,5.23,19.482,19.482,0,0,1-5.581,3.72,5.5,5.5,0,0,1,2.13,1.95,19.966,19.966,0,0,0,4.771-3.27c1.231,1.86,2.941,3.36,4.351,3.36a1.692,1.692,0,0,0,1.471-.66,8.783,8.783,0,0,0,1.53-3.93,4.4,4.4,0,0,1-2.16-1.26c-0.06.36-.48,2.61-1.231,2.61-0.24,0-.96-0.21-2.04-2.07a29.739,29.739,0,0,0,2.581-3.46c0.54,0.06.72-.03,0.72-0.3a0.527,0.527,0,0,0-.27-0.48l-2.011-1.44h3.931v-2.34h-3.211l1.141-.48a13.353,13.353,0,0,0-1.8-2.1l-2.01.96a8.4,8.4,0,0,1,1.32,1.62h-3.211a49.654,49.654,0,0,1-.66-9.9,28,28,0,0,1,3.3,3.24c-0.48.6-1.17,1.41-1.771,2.07h-0.63l0.33,2.16a0.43,0.43,0,0,0,.36.45,0.73,0.73,0,0,0,.511-0.48c3.33-.51,3.9-0.63,4.471-0.75,0.06,0.39.15,0.81,0.27,1.74a8.5,8.5,0,0,1,1.89-.57,24.73,24.73,0,0,0-1.17-4.62l-1.771.45c0.15,0.42.24,0.72,0.391,1.29-0.751.09-1.591,0.18-1.981,0.21a27.6,27.6,0,0,0,3.271-4.23c0.33,0.03.63,0.06,0.63-.21a0.427,0.427,0,0,0-.27-0.39l-1.68-1.08a21.8,21.8,0,0,1-1.441,2.16,7.5,7.5,0,0,0-.72-0.81,37.566,37.566,0,0,0,2.341-3.39c0.24,0.03.69,0.06,0.69-.24a0.535,0.535,0,0,0-.39-0.42l-1.8-1.08a40.562,40.562,0,0,1-2.25,3.66c-0.69-.63-0.811-0.75-1.081-0.99l-1.5,1.8c0.03-1.92.06-2.34,0.06-3.09,0.57-.24.81-0.33,0.81-0.57a0.523,0.523,0,0,0-.54-0.36l-2.971-.3a75.429,75.429,0,0,0,.691,14.25h-7.742v2.34h1.2c-0.06,3.7-.12,6.46-4.111,9.1a10.132,10.132,0,0,1,2.491,1.83,12.264,12.264,0,0,0,3.961-7.11,32.383,32.383,0,0,1,2.37,2.82,10.284,10.284,0,0,1,1.951-1.5,32.53,32.53,0,0,0-3.121-3.37Zm10.292-2.56a14.46,14.46,0,0,1-2.04,3.13,25.985,25.985,0,0,1-1.051-3.13h3.091Zm22.253,3.28c-0.811,2.16-2.641,3.69-5.972,4.8a9.188,9.188,0,0,1,1.831,2.28,11.731,11.731,0,0,0,6.331-5.19,13.047,13.047,0,0,0,5.191,4.77,12.44,12.44,0,0,1,1.441-1.95,9.576,9.576,0,0,1,.93,3.06c3.121,0.03,5.071-.33,5.071-3.18V9051.2H345.365v9.03h8.252v13.57c0,0.84-.03,1.2-1.14,1.2a7.84,7.84,0,0,1-1.77-.18l0.27-.27a12.312,12.312,0,0,1-5.251-4.35H351.7v-2.32h-6.572c0.03-.48.06-0.87,0.06-1.92h5.7v-2.28h-2.641a14.913,14.913,0,0,0,.78-1.53c0.39-.06.72-0.15,0.72-0.39a0.537,0.537,0,0,0-.48-0.42l-2.46-.81a17.982,17.982,0,0,1-1.471,3.15h-3.961l1.261-.39a13.5,13.5,0,0,0-1.771-2.64l-2.49,1.08a12.838,12.838,0,0,1,1.5,1.95h-2.851v2.28h5.312c0,0.45-.03.84-0.09,1.92h-6.032v2.32H341.8Zm6.391-15.4v-1.41h5.431v1.41h-5.431Zm5.431,1.74v1.5h-5.431v-1.5h5.431Zm-22.325-5.34v26.68h3v-17.65h8.222v-9.03H331.292Zm3,3.6v-1.41h5.371v1.41h-5.371Zm5.371,1.74v1.5h-5.371v-1.5h5.371Zm27.453-5.37c-1.17,5.67-1.89,9.12-1.89,14.37a29.481,29.481,0,0,0,1.86,11.14l2.821-.81c-0.15-3.24,1.68-7.18,2.07-8.02a5.252,5.252,0,0,1-1.68-1.74,33.311,33.311,0,0,0-1.741,4.18,20.354,20.354,0,0,1-.33-4.09,41.577,41.577,0,0,1,2.011-12.96c0.36-.03.72-0.06,0.72-0.36,0-.27-0.24-0.36-0.66-0.51Zm8.282,6.39c0.78,0.03,1.74.12,3.211,0.12a50.091,50.091,0,0,0,9.722-.87c-0.06-.42-0.27-2.46-0.36-3.06a36.276,36.276,0,0,1-9.332.96c-1.531,0-2.431-.09-3.241-0.15v3Zm0.03,8.16a10.9,10.9,0,0,0-1.17,4.51c0,3.9,4.711,4.26,8.372,4.26a54.934,54.934,0,0,0,7.051-.45,14.538,14.538,0,0,1,.27-3.3,31.215,31.215,0,0,1-7.411.81c-3.181,0-5.342-.36-5.342-2.22a6.835,6.835,0,0,1,.931-3.07Zm45.2-3.39H423.9v-2.88H414.24v-4.38a34.369,34.369,0,0,0,8.342-1.95,1.816,1.816,0,0,0,.78.3,0.293,0.293,0,0,0,.33-0.3,0.735,0.735,0,0,0-.12-0.36l-2.011-2.67a25.022,25.022,0,0,1-7.951,2.22l-2.371-.24v10.86c0,4.02-.6,6.15-1.62,8.08a14.278,14.278,0,0,1-4.5,5.22,9.278,9.278,0,0,1,2.671,1.89c6.392-5.55,6.452-12.46,6.452-15.79h3.36v15.43h3.031v-15.43Zm-23.856-10.62v2.7h13.414v-2.7H396.775Zm1.561,5.4v8.97c0,4.18-.45,7.78-2.521,10.87a9.444,9.444,0,0,1,3.091,1.08c2.221-3.99,2.371-9.01,2.461-11.05h7.951v-9.87H398.336Zm8.012,2.73v4.47h-4.981v-4.47h4.981Zm40.638,0.87a39.746,39.746,0,0,0,6.842-1.14,1.1,1.1,0,0,0,.63.27,0.261,0.261,0,0,0,.27-0.3,0.854,0.854,0,0,0-.18-0.42l-1.441-1.56H455.3v-6.24H431.412v8.13c0,8.19,0,12.01-2.761,16.75a5.314,5.314,0,0,1,2.911,1.41c2.791-5.19,2.791-9.67,2.791-20.05h17.824a47.425,47.425,0,0,1-12.993,1.44c-1.83,0-2.671-.03-3.661-0.12a4.911,4.911,0,0,1,.9,2.07c0.631,0.03,1.5.09,3.481,0.09,0.54,0,2.461,0,4.291-.12v1.23H437.2v5.55H444.2v1.17h-8.912v8.92h2.911v-6.87h6v1.89c-1.14.09-2.49,0.15-4.831,0.18l0.27,2.13a0.53,0.53,0,0,0,.39.57,0.72,0.72,0,0,0,.51-0.54c3.571-.24,7.382-0.78,8.912-1.02,0.09,0.36.151,0.6,0.271,1.32a2.659,2.659,0,0,1,.51-0.24,7.129,7.129,0,0,1,.84,2.7c0.39,0.03.72,0.06,1.23,0.06,3.451,0,3.991-1.41,3.991-3.3v-5.8h-9.3v-1.17h7.142v-5.55h-7.142v-1.44Zm-2.791,5.04h-4.171v-1.74H444.2v1.74Zm2.791-1.74h4.5v1.74h-4.5v-1.74Zm6.571,6.91v3.57c0,0.45-.09.78-1.05,0.78a5.878,5.878,0,0,1-1.74-.3,9,9,0,0,1,1.29-.39,34.019,34.019,0,0,0-1.32-3.66h2.82Zm-4.981.51c0.21,0.51.27,0.66,0.39,0.99-0.33.06-1.71,0.18-1.98,0.21v-1.71h3.271Zm3.9-17.95v1.89H434.353v-1.89h18.124Zm22.727-3.06a35.618,35.618,0,0,1,.45,4.2c-10.5.57-11.673,0.66-12.843,0.63l0.27,3.39a111.968,111.968,0,0,1,12.663-1.29v3.15a4.112,4.112,0,0,0-1.92-.42c-2.761,0-4.891,2.25-4.891,5.91,0,3.09,1.44,5.59,4.261,5.59a4.62,4.62,0,0,0,3.33-1.47c-0.84,2.58-2.55,4.53-6.631,6.15a14.778,14.778,0,0,1,2.76,2.16,13.771,13.771,0,0,0,4.8-3.84,12.964,12.964,0,0,0,2.7-7.63,10.4,10.4,0,0,0-1.29-5.1,42.606,42.606,0,0,1-.06-4.65c1.8-.06,3.451-0.06,4.141-0.06,2.671,0,5.251.06,6.241,0.09a29.359,29.359,0,0,1-.03-3.21c-1.5.06-8.762,0.39-10.412,0.45,0.06-1.77.06-1.98,0.15-2.82a0.682,0.682,0,0,0,.51-0.48c0-.15,0-0.27-0.72-0.36ZM474,9062.6c2.04,0,2.46,2.01,2.46,2.94,0,1.98-1.08,3.57-2.64,3.57-2.251,0-2.251-2.76-2.251-3.18C471.573,9064.25,472.293,9062.6,474,9062.6Zm39.174-11.37c-4.231,1.5-12.423,1.89-15.244,1.77l0.51,3.15a92.74,92.74,0,0,0,10.473-1.23c-1.29,1.74-11.253,11.55-14.224,13.62l2.431,2.38c4.741-4.96,7.862-7.81,12.9-7.81,3.991,0,6.122,2.31,6.122,5.25a5.34,5.34,0,0,1-3.511,4.99c-0.87-5.17-5.942-5.17-6.3-5.17-2.94,0-5.011,1.78-5.011,4.21,0,3.06,3.031,4.8,6.9,4.8,4.681,0,11.012-2.73,11.012-9.1,0-5.07-4.141-7.59-8.432-7.59a12.916,12.916,0,0,0-4.651.87c0.96-.99,7.592-7.11,8.672-7.98Zm-3.211,23.23a7.985,7.985,0,0,1-2.16.3c-1.2,0-3.661-.51-3.661-2.37a1.638,1.638,0,0,1,1.86-1.65,4.4,4.4,0,0,1,2.761,1.08A3.734,3.734,0,0,1,509.967,9074.46Zm-265.512,31.48a35.058,35.058,0,0,0,10.412,12.7,7.832,7.832,0,0,1,2.431-2.43A37.909,37.909,0,0,1,245.565,9103h11.163v-2.7H244.455v-4.8a0.777,0.777,0,0,0,.66-0.57c0-.36-0.42-0.39-0.78-0.42l-2.941-.21v6H229.211v2.7h11.013a38.509,38.509,0,0,1-11.643,13.6,7.311,7.311,0,0,1,2.911,2.25,39.124,39.124,0,0,0,9.9-12.76v8.05h-4.8v2.88h4.8v4.86h3.061v-4.86h5.011v-2.88h-5.011v-8.2Zm30.115-11.58c0,7.2,0,9.39-1.141,13.32-1.53,5.28-5.251,8.77-11.222,11.44a9.94,9.94,0,0,1,2.61,2.64,23.376,23.376,0,0,0,7.052-5.19,18.665,18.665,0,0,0,4.5-7.6,19.522,19.522,0,0,0,4.5,7.51,23.738,23.738,0,0,0,7.022,5.31,7.8,7.8,0,0,1,2.31-2.76c-5.521-2.52-9.812-6.58-11.462-12.37-0.721-2.52-.931-5.46-0.841-11.07,0.6-.27.781-0.33,0.781-0.54a0.733,0.733,0,0,0-.781-0.45Zm43.18,5.64c-0.36.15-5.582,2.16-6.632,2.58-1.29.51-3.361,1.38-4.831,2.1-1.44-1.98-1.621-5.07-1.621-7.23,0-.87.06-1.62,0.181-2.91l-4.051.87a10.641,10.641,0,0,1,.6,2.79c0.42,4.08.63,6.03,2.31,7.8-4.411,2.46-6.631,5.04-6.631,8.2a5.606,5.606,0,0,0,3.12,4.95c1.291,0.66,3.391,1.53,8.7,1.53a59.33,59.33,0,0,0,9.783-.9,12.087,12.087,0,0,1,.21-3.57,34.241,34.241,0,0,1-10.083,1.53c-2.01,0-8.4,0-8.4-3.63,0-2.86,3.841-5.29,6.992-6.79a42.133,42.133,0,0,1,11.643-3.81Zm33.691-4.71H329.956v13.8h21.485v-13.8Zm-9.212,5.7v-3.21h6.121v3.21h-6.121Zm6.121,2.43v3.24h-6.121v-3.24h6.121Zm-15.123,3.24v-3.24h5.941v3.24h-5.941Zm0-5.67v-3.21h5.941v3.21h-5.941Zm-2.641,10.89a19.886,19.886,0,0,1-4.411,7.48,9.621,9.621,0,0,1,2.581,1.71,28.691,28.691,0,0,0,4.261-7.14c0.27,0.03.81,0,.81-0.36a0.727,0.727,0,0,0-.57-0.52Zm4.231-.45v6.64c0,1.44.12,3.39,3.691,3.39h5.581c2.581,0,3.691-.69,4.711-4.5a7.969,7.969,0,0,1-2.76-1.38c-0.6,3.18-1.14,3.18-2.821,3.18H339.8c-1.8,0-1.92-.24-1.92-1.65v-4.45a1.006,1.006,0,0,0,.75-0.6c0-.27-0.42-0.3-0.75-0.33Zm4.321,0.09a20.526,20.526,0,0,1,4.231,4.39,26.767,26.767,0,0,1,2.221-1.98,30.9,30.9,0,0,0-4.381-4.33Zm8.582,1.99a25.181,25.181,0,0,1,4.981,5.91,13.535,13.535,0,0,1,2.281-2.19,31.666,31.666,0,0,0-4.951-5.68Zm23.723-14.47a14.633,14.633,0,0,1-1.5.72c0.09-2.19.21-3.12,0.33-4.08a0.578,0.578,0,0,0,.66-0.48c0-.3-0.36-0.39-0.93-0.42l-3.091-.24c0.15,1.74.15,2.7,0.15,6.24a29.213,29.213,0,0,1-6,1.08l0.66,3.33a47.2,47.2,0,0,0,5.251-1.5c0,0.27-.03,1.56-0.03,1.86a47.057,47.057,0,0,1-6.481,8.8l2.28,2.28c0.6-.75,3.361-4.6,4.021-5.44-0.09,6.43-.09,6.97-0.33,10.3l3.361-.27c-0.09-2.97-.09-3.3-0.03-13.36,1.71-1.56,4.8-3.84,8.432-3.84,2.46,0,5.431,1.35,5.431,5.82,0,5.32-5.041,7.06-10.382,7.42a13.191,13.191,0,0,1,.78,1.08c0.15,0.24.81,1.53,0.93,1.83,2.431-.36,11.733-1.77,11.733-10.51,0-6.39-4.5-8.31-8.282-8.31a12.524,12.524,0,0,0-7.652,2.67,20.12,20.12,0,0,1,2.251-3.3Zm32.011,1.41a3.521,3.521,0,0,1-.75.45c0.12-2.64.27-4.17,0.33-5.01a0.522,0.522,0,0,0,.54-0.48,0.588,0.588,0,0,0-.66-0.48l-3.06-.33c0.06,1.05.06,1.68-.03,7.44a23.8,23.8,0,0,1-6.242,1.08l0.72,3.3a26.981,26.981,0,0,0,5.461-1.32c0,0.27-.03,1.17-0.03,1.65-3.24,5.1-4.531,7.12-6.511,9.46l2.431,2.43c2.22-3.42,2.88-4.44,3.96-6.01-0.06,6.85-.06,7.63-0.18,8.89l3.481-.15a114.817,114.817,0,0,1-.42-12.55c0.81-.93,5.221-6,7.922-6a1.454,1.454,0,0,1,1.44,1.77c0,1.38-.9,8.19-0.9,9.73,0,4.92,3.151,5.55,4.2,5.55,1.26,0,3.661-1.02,5.642-3.3a19.242,19.242,0,0,1-1.231-3c-1.74,2.43-3.361,3-4.051,3-1.53,0-1.53-1.74-1.53-2.19a42.369,42.369,0,0,1,.33-4.39c0.15-1.11.63-5.31,0.63-6.12,0-2.97-1.83-4.11-3.631-4.11-1.23,0-3.751.6-7.5,4.32,0.241-.54.931-2.04,1.021-2.22Zm41.584-5.22c-4.231,1.5-12.423,1.89-15.244,1.77l0.51,3.15a92.74,92.74,0,0,0,10.473-1.23c-1.291,1.74-11.253,11.55-14.224,13.62l2.431,2.38c4.741-4.96,7.862-7.81,12.9-7.81,3.991,0,6.121,2.31,6.121,5.25a5.34,5.34,0,0,1-3.51,4.99c-0.871-5.17-5.942-5.17-6.3-5.17-2.941,0-5.011,1.78-5.011,4.21,0,3.06,3.031,4.8,6.9,4.8,4.681,0,11.012-2.73,11.012-9.1,0-5.07-4.141-7.59-8.432-7.59a12.916,12.916,0,0,0-4.651.87c0.96-.99,7.592-7.11,8.672-7.98Zm-3.211,23.23a7.987,7.987,0,0,1-2.161.3c-1.2,0-3.66-.51-3.66-2.37a1.638,1.638,0,0,1,1.86-1.65,4.4,4.4,0,0,1,2.761,1.08A3.734,3.734,0,0,1,441.827,9118.46Zm28.788-6.43a16.983,16.983,0,0,0,3.331,4.18,20.322,20.322,0,0,1-7.382,3.03,6.681,6.681,0,0,1,2.041,2.61,22.641,22.641,0,0,0,7.682-3.75,32.4,32.4,0,0,0,8.012,3.93,6.066,6.066,0,0,1,1.95-2.7,22.4,22.4,0,0,1-7.742-3.15,22.527,22.527,0,0,0,4.711-7.09l-1.02-1.23H469.415v2.76h3.451Zm8.312-1.41a12,12,0,0,1-2.76,3.79,16.81,16.81,0,0,1-3.181-3.79h5.941ZM465.9,9099.28v-3.87a0.981,0.981,0,0,0,.81-0.63c0-.3-0.36-0.3-0.72-0.33l-3.121-.15v4.98h-4.021v2.82h4.021v6.12a26,26,0,0,1-4.441,1.35l0.48,3.09a0.666,0.666,0,0,0,.391.67c0.48,0,.54-0.67.57-0.91,0.87-.33,1.53-0.57,3-1.23v6.61c0,0.87-.36.99-1.44,0.99a8.939,8.939,0,0,1-2.16-.24,7.621,7.621,0,0,1,1.08,3.21c0.6,0.03,1.17.06,1.5,0.06,4.051,0,4.051-1.95,4.051-3.87v-8.11a17.218,17.218,0,0,0,2.431-1.26,13.819,13.819,0,0,1,.06-2.76,17.7,17.7,0,0,1-2.491,1.2v-4.92h2.911v-2.82H465.9Zm5.191-4.02c0,0.36.03,2.16,0.03,2.55,0,3.48-.78,5.58-2.82,7.59a6.347,6.347,0,0,1,2.43,1.71c2.641-3.15,3.121-5.73,3.271-9.12h4.051v5.46c0,1.38,0,2.64,2.551,2.64h2.58a2.328,2.328,0,0,0,2.4-1.41,12.537,12.537,0,0,0,.96-3.12,6.045,6.045,0,0,1-2.641-1.44c-0.33,3.12-.93,3.12-1.98,3.12-0.75,0-.96-0.15-0.96-0.96v-7.02H471.1Zm32.539,15.09a23.782,23.782,0,0,1-3.6-5.43v-0.21h3.991v-2.49h-3.991v-4.41a18.7,18.7,0,0,0,3.571-1.32,4.141,4.141,0,0,0,.6.09,0.345,0.345,0,0,0,.421-0.3,1.611,1.611,0,0,0-.721-0.84l-1.62-1.38a27.055,27.055,0,0,1-10.112,2.49,7.847,7.847,0,0,1,1.35,2.55c1.14-.18,2.4-0.36,3.931-0.69v3.81h-4.621v2.49h4.261a33.874,33.874,0,0,1-5.1,10.21,11.772,11.772,0,0,1,2.52,1.8,34.036,34.036,0,0,0,2.941-6.88v12.01h2.58v-12.73a33.233,33.233,0,0,0,1.981,3.99,9.829,9.829,0,0,1,1.62-2.04v10.78h2.671v-10.96h10.652v7.03c0,1.05,0,1.26-1.08,1.26a12.575,12.575,0,0,1-1.95-.15,7.092,7.092,0,0,1,1.35,2.94c4.291,0.36,4.291-1.44,4.291-2.49v-10.96H503.634v1.83Zm9.483-13.32v-1.5a1.066,1.066,0,0,0,.78-0.63,0.484,0.484,0,0,0-.54-0.36l-3.481-.18v2.67h-6.662v2.49h16.924v-2.49h-7.021Zm4.591,3.81H505.645v6.45h12.063v-6.45Zm-2.881,2.19v1.95h-6.272v-1.95h6.272Zm-6.992,8.97v8.05h2.311v-1.53h5.191V9112h-7.5Zm5.252,1.9v2.7h-2.941v-2.7h2.941Z" transform="translate(-228.594 -9050.09)"/>
</svg>
