<svg xmlns="http://www.w3.org/2000/svg" width="162.781" height="36.015" viewBox="0 0 325.562 72.03">
  <defs>
    <style>
      .cls-1 {
        fill: #333;
        fill-rule: evenodd;
      }
    </style>
  </defs>
  <path id="_50_text_other_04.svg" data-name="50% text_other_04.svg" class="cls-1" d="M228.62,9611.2a22.739,22.739,0,0,0,.21-3.3H236v-2.7H223.4c0.24-.57.3-0.72,0.421-1.05,0.51-.03.84-0.06,0.84-0.39a0.636,0.636,0,0,0-.57-0.57l-2.7-.99h17.194v-2.7H212.506v26.32H215.6v-1.17h23.165v-2.82H215.6V9602.2h5.761a18.337,18.337,0,0,1-3.781,6.96,5.574,5.574,0,0,1,2.761,1.56,18.74,18.74,0,0,0,1.77-2.82h3.751c-0.03,1.02-.06,2.31-0.18,3.3h-8.462v2.64h7.652c-1.471,2.97-4.891,4.33-8.222,4.9a6.878,6.878,0,0,1,1.98,2.7c4.861-1.56,7.322-3.78,8.672-6.13a18.056,18.056,0,0,0,8.672,6.49,5.391,5.391,0,0,1,1.8-2.52c-1.47-.45-5.641-1.77-8.192-5.44H238.1v-2.64H228.62Zm40.13,3.12a19.4,19.4,0,0,0,2.671,1.74,5.405,5.405,0,0,1,1.891-2.07,18.731,18.731,0,0,1-3.6-2.19,18.726,18.726,0,0,0,2.07-1.8,1.331,1.331,0,0,0,.39.06,0.359,0.359,0,0,0,.42-0.3,0.774,0.774,0,0,0-.45-0.54l-1.77-1.41a17.6,17.6,0,0,1-2.431,2.43,14.17,14.17,0,0,1-2.04-2.55h6.9v-2.22h-9.962c0.12-.36.24-0.63,0.45-1.32,0.27-.06,1.02-0.15,1.02-0.57a0.306,0.306,0,0,0-.12-0.21H272.8v-2.52H262.539v-1.5c0.57-.27.63-0.42,0.63-0.6,0-.27-0.27-0.3-0.63-0.33l-3.211-.15v2.58h-9.782v7.02a21.828,21.828,0,0,0-2.641-3.99l-2.28,1.59a19.571,19.571,0,0,1,2.91,4.95,16.6,16.6,0,0,1,2.011-1.44v2.07a27.627,27.627,0,0,1-4.621,3.45l1.32,2.4a0.77,0.77,0,0,0,.48.43c0.3,0,.3-0.19.33-0.7a28.26,28.26,0,0,0,2.431-2.22,14.224,14.224,0,0,1-4.441,9.55,6.592,6.592,0,0,1,2.64,1.5,18.074,18.074,0,0,0,4.621-11.05,5.823,5.823,0,0,1,1.771,1.77,15.023,15.023,0,0,0,1.77-1.23v4.27H261.1v3.06c0,0.81-.09.99-0.961,0.99a12.424,12.424,0,0,1-1.71-.18,6.253,6.253,0,0,1,.72,2.94c2.941-.03,4.741-0.06,4.741-2.97v-3.84h4.861v-4.9Zm-10.052-1.47h7.2v1.26h-7.2v-1.26Zm1.11-1.92a23.409,23.409,0,0,0,2.071-3.24h0.9a17.567,17.567,0,0,0,2.281,3.24h-5.252Zm6.092,6.34h-7.2v-1.36h7.2v1.36Zm-12.933-11.8v2.22h5.881a17.62,17.62,0,0,1-1.8,2.52,22.546,22.546,0,0,0-2.281-2.22l-1.68,1.53a16.219,16.219,0,0,1,2.43,2.31,13.533,13.533,0,0,1-3.181,2.31c0.091-2.37.091-2.64,0.091-5.19v-5.58h8.191a20.7,20.7,0,0,1-.66,2.1h-6.991Zm3.991,13.81a17.773,17.773,0,0,1-5.522,4.5,5.332,5.332,0,0,1,2.341,1.8,20.423,20.423,0,0,0,4.831-4.02c0.33,0.03.87,0.06,0.87-.33a0.6,0.6,0,0,0-.39-0.45Zm7.861,1.89a25.775,25.775,0,0,1,5.792,4.56,15.856,15.856,0,0,1,1.92-2.01,22.094,22.094,0,0,0-5.581-4.26Zm22.385-17.92c0.39,0.3.66,0.51,1.02,0.81h-2.67v-4.47a3.87,3.87,0,0,0,.48-0.27,0.35,0.35,0,0,0,.21-0.33,0.611,0.611,0,0,0-.6-0.36l-2.581-.18v5.61H279.4v2.43h3.541c-0.63,2.88-2.251,7.32-4.441,9.81a7.132,7.132,0,0,1,2.19,2.17,39.6,39.6,0,0,0,2.371-5.89v13.27h2.491v-14.47a18.047,18.047,0,0,0,1.38,2.91,6.424,6.424,0,0,1,1.47-1.71,18.351,18.351,0,0,1-2.85-5.28v-0.81h3.12v-2.04c0.51,0.42,1.5,1.35,2.041,1.92-0.48.78-1.05,1.71-1.621,2.49a6.856,6.856,0,0,1-1.11,0l0.57,2.13a0.541,0.541,0,0,0,.39.45,0.586,0.586,0,0,0,.421-0.48c2.16-.27,3.36-0.48,4.291-0.66,0.03,0.15.09,0.78,0.12,1.32a12.831,12.831,0,0,1,1.92-.39,26.432,26.432,0,0,0-.99-4.56l-1.771.48a12.578,12.578,0,0,1,.42,1.47c-0.48.06-1.92,0.15-2.19,0.15,0.96-1.17,2.971-4.08,3.571-5.01,0.24,0,.69.03,0.69-0.27a0.668,0.668,0,0,0-.39-0.45l-1.771-.96c-0.3.57-.63,1.17-1.38,2.4l-0.81-.81c0.75-1.17,1.47-2.37,2.13-3.6,0.541-.03.781-0.06,0.781-0.36a0.513,0.513,0,0,0-.36-0.36l-2.011-1.14a32.874,32.874,0,0,1-2.16,3.93c-0.24-.18-0.361-0.3-0.871-0.72Zm5.311,14.23c0.03-.37.06-2.14,0.09-2.56h4.441a24.089,24.089,0,0,0,1.711,5.23,19.485,19.485,0,0,1-5.582,3.72,5.494,5.494,0,0,1,2.131,1.95,19.986,19.986,0,0,0,4.771-3.27c1.23,1.86,2.941,3.36,4.351,3.36a1.691,1.691,0,0,0,1.47-.66,8.77,8.77,0,0,0,1.531-3.93,4.4,4.4,0,0,1-2.161-1.26c-0.06.36-.48,2.61-1.23,2.61-0.24,0-.96-0.21-2.04-2.07a29.627,29.627,0,0,0,2.58-3.46c0.54,0.06.72-.03,0.72-0.3a0.527,0.527,0,0,0-.27-0.48l-2.01-1.44h3.931v-2.34h-3.211l1.14-.48a13.282,13.282,0,0,0-1.8-2.1l-2.011.96a8.425,8.425,0,0,1,1.321,1.62h-3.211a49.654,49.654,0,0,1-.66-9.9,28,28,0,0,1,3.3,3.24c-0.481.6-1.171,1.41-1.771,2.07h-0.63l0.33,2.16a0.43,0.43,0,0,0,.36.45,0.729,0.729,0,0,0,.51-0.48c3.331-.51,3.9-0.63,4.471-0.75,0.06,0.39.15,0.81,0.27,1.74a8.508,8.508,0,0,1,1.891-.57,24.73,24.73,0,0,0-1.17-4.62l-1.771.45c0.15,0.42.24,0.72,0.39,1.29-0.75.09-1.59,0.18-1.98,0.21a27.666,27.666,0,0,0,3.271-4.23c0.33,0.03.63,0.06,0.63-.21a0.427,0.427,0,0,0-.27-0.39l-1.681-1.08a21.557,21.557,0,0,1-1.44,2.16,7.5,7.5,0,0,0-.72-0.81,37.326,37.326,0,0,0,2.34-3.39c0.24,0.03.69,0.06,0.69-.24a0.535,0.535,0,0,0-.39-0.42l-1.8-1.08a40.359,40.359,0,0,1-2.251,3.66c-0.69-.63-0.81-0.75-1.08-0.99l-1.5,1.8c0.03-1.92.06-2.34,0.06-3.09,0.57-.24.81-0.33,0.81-0.57a0.523,0.523,0,0,0-.54-0.36l-2.971-.3a75.522,75.522,0,0,0,.69,14.25h-7.742v2.34h1.2c-0.06,3.7-.12,6.46-4.111,9.1a10.106,10.106,0,0,1,2.49,1.83,12.253,12.253,0,0,0,3.961-7.11,32.335,32.335,0,0,1,2.371,2.82,10.311,10.311,0,0,1,1.95-1.5,32.49,32.49,0,0,0-3.12-3.37Zm10.293-2.56a14.451,14.451,0,0,1-2.041,3.13,26.154,26.154,0,0,1-1.05-3.13h3.091Zm22.252,3.28c-0.81,2.16-2.64,3.69-5.971,4.8a9.157,9.157,0,0,1,1.83,2.28,11.734,11.734,0,0,0,6.332-5.19,13.04,13.04,0,0,0,5.191,4.77,12.429,12.429,0,0,1,1.44-1.95,9.567,9.567,0,0,1,.931,3.06c3.12,0.03,5.071-.33,5.071-3.18V9599.2H328.631v9.03h8.252v13.57c0,0.84-.03,1.2-1.14,1.2a7.85,7.85,0,0,1-1.771-.18l0.27-.27a12.324,12.324,0,0,1-5.251-4.35h5.972v-2.32h-6.572c0.03-.48.06-0.87,0.06-1.92h5.7v-2.28h-2.64a14.913,14.913,0,0,0,.78-1.53c0.39-.06.72-0.15,0.72-0.39a0.537,0.537,0,0,0-.48-0.42l-2.461-.81a18,18,0,0,1-1.47,3.15H324.64l1.26-.39a13.529,13.529,0,0,0-1.77-2.64l-2.491,1.08a12.8,12.8,0,0,1,1.5,1.95h-2.851v2.28H325.6c0,0.45-.03.84-0.09,1.92h-6.031v2.32h5.581Zm6.392-15.4v-1.41h5.431v1.41h-5.431Zm5.431,1.74v1.5h-5.431v-1.5h5.431Zm-22.325-5.34v26.68h3v-17.65h8.222v-9.03H314.558Zm3,3.6v-1.41h5.372v1.41h-5.372Zm5.372,1.74v1.5h-5.372v-1.5h5.372Zm46.141-.54c-0.36.15-5.581,2.16-6.631,2.58-1.29.51-3.361,1.38-4.831,2.1-1.441-1.98-1.621-5.07-1.621-7.23,0-.87.06-1.62,0.18-2.91l-4.051.87a10.692,10.692,0,0,1,.6,2.79c0.42,4.08.63,6.03,2.31,7.8-4.411,2.46-6.632,5.04-6.632,8.2a5.607,5.607,0,0,0,3.121,4.95c1.291,0.66,3.391,1.53,8.7,1.53a59.33,59.33,0,0,0,9.783-.9,12.087,12.087,0,0,1,.21-3.57,34.241,34.241,0,0,1-10.083,1.53c-2.01,0-8.4,0-8.4-3.63,0-2.86,3.841-5.29,6.992-6.79a42.133,42.133,0,0,1,11.643-3.81Zm23.517-3.03v-1.44c0.6-.18.81-0.24,0.81-0.54,0-.36-0.36-0.39-0.66-0.42l-3.271-.33v2.73H377.4v2.55h12.063v1.92h-4.591v14.59H401.02v-14.59h-8.432v-1.92h12.063v-2.55H392.588Zm5.311,12.63h-9.812v-1.98H397.9v1.98Zm-9.812-5.88H397.9v1.92h-9.812v-1.92Zm9.812,9.97h-9.812v-2.11H397.9v2.11Zm-15.664,4.08v-14.35a0.852,0.852,0,0,0,.72-0.6c0-.36-0.33-0.36-0.66-0.39l-3.181-.24v19.66h3.121v-1.44h22.476v-2.64H382.235Zm38.5-11.8c-0.631.3-1.471,0.69-3.151,1.32v-4.83h3.031v-2.73h-3.031v-4.29a0.882,0.882,0,0,0,.75-0.57,0.556,0.556,0,0,0-.66-0.45l-3.031-.15v5.46H411.2v2.73h3.451v5.94a30.9,30.9,0,0,1-3.781,1.11l0.57,2.97c0.09,0.42.15,0.72,0.421,0.72a0.818,0.818,0,0,0,.6-0.87,18.735,18.735,0,0,0,2.19-.78v6.25c0,0.78-.18.96-0.87,0.96a9.8,9.8,0,0,1-2.251-.18,7.489,7.489,0,0,1,.991,3.21c5.071,0.3,5.071-.99,5.071-2.91v-8.56a34.9,34.9,0,0,0,3.241-1.56,15.843,15.843,0,0,1,.03-2.37h6.361a30.806,30.806,0,0,1-1.56,2.82H420.62v2.52h3.39a39.546,39.546,0,0,1-2.76,3.46,8.226,8.226,0,0,1,2.61,1.32c0.33-.42.511-0.63,0.781-0.96a28.144,28.144,0,0,1,3.21,1.23,15.983,15.983,0,0,1-8.282,2.28,7.439,7.439,0,0,1,1.321,2.7,18.815,18.815,0,0,0,9.9-3.6,40.36,40.36,0,0,1,5.941,3.69,7.452,7.452,0,0,1,1.741-2.52,31.5,31.5,0,0,0-5.491-3.24,17.576,17.576,0,0,0,2.46-3.67c0.54-.03.84-0.06,0.84-0.36a0.516,0.516,0,0,0-.33-0.33h2.7v-2.52h-9.692c0.54-.87.6-0.99,0.87-1.44,0.45,0,.9,0,0.9-0.39a0.633,0.633,0,0,0-.45-0.42l-1.23-.57h9v-2.52h-4.681c0.21-.36.87-1.62,1.32-2.46a0.732,0.732,0,0,0,.84-0.42,0.542,0.542,0,0,0-.45-0.48l-1.74-.69H437.3v-2.46h-6.632v-2.01a0.868,0.868,0,0,0,.75-0.66c0-.33-0.48-0.36-0.78-0.36l-3.241-.12v3.15H421.58v2.46h3.241l-1.921,1.08a29.165,29.165,0,0,1,1.831,2.97H420.74v2.1Zm5.251-2.1a14.738,14.738,0,0,1,1.53-.69c-0.12-.27-1.23-2.28-1.95-3.36h6.481a27.9,27.9,0,0,1-1.77,4.05h-4.291Zm6.391,7.86a10.723,10.723,0,0,1-2.16,3.13c-1.5-.6-2.911-1.11-3.991-1.44,0.39-.55,1.05-1.51,1.17-1.69h4.981Zm30.5-11.94a33.35,33.35,0,0,0,.99-3.66c0.48-.12.75-0.24,0.75-0.51a0.792,0.792,0,0,0-.63-0.45l-2.88-.69a29.25,29.25,0,0,1-4.352,11.37v-6.21H452.2c0.541-1.29.691-1.65,1.381-3.63,0.57-.21.78-0.3,0.78-0.57a0.768,0.768,0,0,0-.75-0.45l-2.941-.57a35.735,35.735,0,0,1-1.47,5.22H445.78v21.34H448.9v-1.92h4.8v1.11h3.06v-14.02a6.469,6.469,0,0,1,2.821,1.11,25.993,25.993,0,0,0,2.311-4.65h6.9c0,5.61,0,11.62-1.23,14.68-0.54,1.32-1.56,1.44-3,1.44a13.9,13.9,0,0,1-2.43-.21,10.256,10.256,0,0,1,1.14,3.3,6.578,6.578,0,0,0,.87.06c4.831,0,5.732-2.28,6.122-3.24,1.5-3.75,1.62-14.5,1.56-18.85h-8.942Zm-13.983,2.67h4.8v5.4h-4.8v-5.4Zm4.8,13.78h-4.8v-5.71h4.8v5.71Zm7.231-9.19a33.875,33.875,0,0,1,2.191,6.61,15.536,15.536,0,0,1,2.821-1.18,35.222,35.222,0,0,0-2.311-6.57Zm20.978-11.88c-1.17,5.67-1.891,9.12-1.891,14.37a29.476,29.476,0,0,0,1.861,11.14l2.821-.81c-0.151-3.24,1.68-7.18,2.07-8.02a5.252,5.252,0,0,1-1.68-1.74,33.163,33.163,0,0,0-1.741,4.18,20.354,20.354,0,0,1-.33-4.09,41.577,41.577,0,0,1,2.011-12.96c0.36-.03.72-0.06,0.72-0.36,0-.27-0.24-0.36-0.66-0.51Zm8.282,6.39c0.78,0.03,1.74.12,3.211,0.12a50.1,50.1,0,0,0,9.722-.87c-0.06-.42-0.27-2.46-0.36-3.06a36.281,36.281,0,0,1-9.332.96c-1.531,0-2.431-.09-3.241-0.15v3Zm0.03,8.16a10.9,10.9,0,0,0-1.17,4.51c0,3.9,4.711,4.26,8.372,4.26a54.934,54.934,0,0,0,7.051-.45,14.538,14.538,0,0,1,.27-3.3,31.215,31.215,0,0,1-7.411.81c-3.181,0-5.342-.36-5.342-2.22a6.836,6.836,0,0,1,.93-3.07Zm38.129-14.4c-0.03,1.98-.06,4.44-0.06,6.06-0.66.06-1.8,0.15-3.48,0.15a34.339,34.339,0,0,1-3.631-.18v3.12c0.66,0.03,1.29.06,2.25,0.06,1.351,0,3.061-.09,4.921-0.27,0.121,4.83.151,5.37,0.331,7.38a11.022,11.022,0,0,0-1.921-.18c-2.551,0-5.821,1.26-5.821,4.45,0,2.28,2.1,4.41,5.281,4.41,2.461,0,6-1.11,5.851-4.89a14.026,14.026,0,0,1,4.531,2.91,28.887,28.887,0,0,1,1.471-2.73,21.3,21.3,0,0,0-6.3-3.43,71.092,71.092,0,0,1-.45-8.31c2.641-.42,4.2-0.81,5.131-1.02l-0.03-3.03a31.977,31.977,0,0,1-5.041,1.2,39.209,39.209,0,0,1,.3-4.32,0.656,0.656,0,0,0,.69-0.51c0-.12-0.06-0.24-0.36-0.3Zm0.661,19.03a5.045,5.045,0,0,1,.12.99,2.555,2.555,0,0,1-2.821,2.49c-1.11,0-2.731-.57-2.731-1.95,0-1.98,2.731-1.98,3.121-1.98A5.432,5.432,0,0,1,529.013,9618.35ZM514.1,9599.38a60.985,60.985,0,0,0-1.68,13.98,41.1,41.1,0,0,0,1.47,11.47l2.7-.54c-0.06-3.72,1.89-7.3,2.46-8.35a10.772,10.772,0,0,1-1.62-2.04c-0.3.6-1.53,3.52-1.861,4.15a33.87,33.87,0,0,1-.24-4.33,47.065,47.065,0,0,1,1.651-12.33c0.57-.06.81-0.27,0.81-0.48,0-.24-0.06-0.3-0.39-0.42ZM281.884,9659.4h-3.391v2.56h25.386v-2.56H300.4v-4.65h4.441v-2.58H300.4v-4.41h3.15v-2.7H284.885a13.233,13.233,0,0,0,.75-1.17c0.45-.03.87-0.06,0.87-0.45a0.512,0.512,0,0,0-.48-0.45l-2.941-1.02a20.887,20.887,0,0,1-6.421,7.11,9.983,9.983,0,0,1,2.761,1.56,32.005,32.005,0,0,0,2.46-2.16v3.69h-4.561v2.58h4.561v4.65Zm10.5-11.64v4.41h-2.521v-4.41h2.521Zm0,6.99v4.65h-2.521v-4.65h2.521Zm-7.772,0h2.52v4.65h-2.52v-4.65Zm0-6.99h2.52v4.41h-2.52v-4.41Zm13.023,0v4.41h-2.521v-4.41h2.521Zm0,6.99v4.65h-2.521v-4.65h2.521Zm-15.754,7.72a18.812,18.812,0,0,1-4.651,5.97,7.433,7.433,0,0,1,2.7,1.77,30.854,30.854,0,0,0,4.261-5.7c0.27,0.03.87,0.06,0.87-.33a0.773,0.773,0,0,0-.6-0.57Zm3.691,1.32a27.72,27.72,0,0,1,1.65,6.27,19.825,19.825,0,0,1,3.151-.81,30.006,30.006,0,0,0-2.04-6.06Zm6.3-.06a37.778,37.778,0,0,1,2.28,6,21.393,21.393,0,0,1,2.911-1.02,28.884,28.884,0,0,0-2.4-5.82Zm5.731,0.3a30.451,30.451,0,0,1,4.5,6,19.149,19.149,0,0,1,2.7-1.74,26.374,26.374,0,0,0-4.832-5.88Zm25.154-1.83c-0.81,2.16-2.64,3.69-5.971,4.8a9.157,9.157,0,0,1,1.83,2.28,11.734,11.734,0,0,0,6.332-5.19,13.04,13.04,0,0,0,5.191,4.77,12.429,12.429,0,0,1,1.44-1.95,9.576,9.576,0,0,1,.93,3.06c3.121,0.03,5.072-.33,5.072-3.18V9643.2H326.333v9.03h8.252v13.57c0,0.84-.03,1.2-1.14,1.2a7.85,7.85,0,0,1-1.771-.18l0.27-.27a12.324,12.324,0,0,1-5.251-4.35h5.972v-2.32h-6.572c0.03-.48.06-0.87,0.06-1.92h5.7v-2.28h-2.64a14.913,14.913,0,0,0,.78-1.53c0.39-.06.72-0.15,0.72-0.39a0.537,0.537,0,0,0-.48-0.42l-2.461-.81a18,18,0,0,1-1.47,3.15h-3.961l1.26-.39a13.529,13.529,0,0,0-1.77-2.64l-2.491,1.08a12.8,12.8,0,0,1,1.5,1.95h-2.851v2.28H323.3c0,0.45-.03.84-0.09,1.92h-6.031v2.32h5.581Zm6.392-15.4v-1.41h5.431v1.41h-5.431Zm5.431,1.74v1.5h-5.431v-1.5h5.431Zm-22.325-5.34v26.68h3v-17.65h8.222v-9.03H312.26Zm3,3.6v-1.41h5.372v1.41H315.26Zm5.372,1.74v1.5H315.26v-1.5h5.372Zm37.223,8.07c-0.6,0-4.471.03-4.651,0.03l0.45,2.85a0.626,0.626,0,0,0,.45.6c0.3,0,.39-0.27.57-0.72,0.84-.03,4.651-0.15,6.151-0.21v10.66h3.121v-10.84c3.211-.21,3.571-0.21,5.431-0.36,0.6,0.9.931,1.56,1.2,2.04a18.19,18.19,0,0,1,2.37-1.71,36.922,36.922,0,0,0-4.381-6.06l-2.34,1.47c0.42,0.48.81,0.96,1.56,1.95-3.151.18-4.021,0.24-5.881,0.24,1.5-1.41,4.321-4.5,6.3-6.69,0.48,0,.93,0,0.93-0.3a0.767,0.767,0,0,0-.48-0.57l-2.58-1.41a43.067,43.067,0,0,1-4.681,5.52c-0.421-.36-0.811-0.63-1.531-1.14a40.21,40.21,0,0,0,3.481-4.32c0.51,0.03.87,0.06,0.87-.36a0.559,0.559,0,0,0-.48-0.51l-0.9-.27a39.817,39.817,0,0,0,6.782-1.5c0.21,0.06.69,0.27,0.78,0.27a0.305,0.305,0,0,0,.33-0.27,0.879,0.879,0,0,0-.21-0.54l-1.831-2.16a49.292,49.292,0,0,1-14.1,2.16,11.1,11.1,0,0,1,1.41,2.79c3.361-.3,3.721-0.33,4.681-0.45a32.735,32.735,0,0,1-2.91,3.75c-0.84-.54-1.411-0.87-2.131-1.32l-1.83,2.37a29.853,29.853,0,0,1,5.551,3.54Zm-6.392-6.24a53.046,53.046,0,0,0,2.881-6.24c0.78-.33.87-0.36,0.87-0.57,0-.15-0.09-0.33-0.66-0.48l-2.851-.81a33.145,33.145,0,0,1-7.712,13.29,9.654,9.654,0,0,1,2.551,1.86c0.6-.72,1.32-1.56,2.131-2.73v15.13h3.21v-18.13c0.75-.21.9-0.27,0.9-0.63,0-.33-0.241-0.39-0.751-0.54Zm5.281,10.35a25.035,25.035,0,0,1-3.81,6.58,16.6,16.6,0,0,1,2.61,1.35,40.9,40.9,0,0,0,3.421-5.94c0.54-.03.72-0.06,0.72-0.33,0-.21-0.18-0.3-0.57-0.48Zm8.823,0.79a31.8,31.8,0,0,0,3.84,7.02,25.124,25.124,0,0,1,2.611-1.35,32.329,32.329,0,0,1-3.991-6.91Zm30.012-8.02a5.811,5.811,0,0,0-2.1,4.17,29.55,29.55,0,0,0,.3,3.12,13.081,13.081,0,0,0-3.031-.39c-3.871,0-5.521,2.11-5.521,4.3,0,2.94,2.85,4.5,6.271,4.5,1.051,0,5.462,0,5.582-4.35a26.574,26.574,0,0,1,4.711,3.3,26.287,26.287,0,0,1,1.83-2.37,33.6,33.6,0,0,0-6.631-4.08,16.372,16.372,0,0,1-.39-3.49,3.9,3.9,0,0,1,1.47-3.12Zm-1.38,10.12c0.03,1.23.06,3.09-2.941,3.09-0.18,0-3.181,0-3.181-2.01,0-1.29,1.351-1.92,2.821-1.92A7.182,7.182,0,0,1,394.2,9663.61Zm-14.7-12.79a53.228,53.228,0,0,0,5.4-.21,53.853,53.853,0,0,1-6.482,12.94,19.08,19.08,0,0,1,2.911,1.29c2.911-4.09,5.881-11.5,6.932-14.62a42.349,42.349,0,0,0,5.521-1.17,15.1,15.1,0,0,1-.09-3.06,25.894,25.894,0,0,1-4.531,1.23c0.12-.45.78-2.67,0.93-3.15,0.33-.03.6-0.06,0.6-0.39,0-.24-0.15-0.3-0.42-0.39l-3.241-.93c-0.21,1.05-.45,2.46-1.23,5.34a32.066,32.066,0,0,1-3.481.18,26.429,26.429,0,0,1-3.181-.18Zm15.364-.36a20.707,20.707,0,0,1,7.682,3.87c0.45-.72.75-1.14,1.77-2.58-1.41-1.14-3.15-2.34-7.771-3.87Zm27.585,9.57a16.96,16.96,0,0,0,3.331,4.18,20.329,20.329,0,0,1-7.382,3.03,6.681,6.681,0,0,1,2.041,2.61,22.629,22.629,0,0,0,7.681-3.75,32.436,32.436,0,0,0,8.012,3.93,6.068,6.068,0,0,1,1.951-2.7,22.4,22.4,0,0,1-7.742-3.15,22.527,22.527,0,0,0,4.711-7.09l-1.02-1.23H421.244v2.76H424.7Zm8.312-1.41a11.991,11.991,0,0,1-2.761,3.79,16.837,16.837,0,0,1-3.18-3.79h5.941Zm-13.023-11.34v-3.87a0.981,0.981,0,0,0,.81-0.63c0-.3-0.36-0.3-0.72-0.33l-3.121-.15v4.98h-4.021v2.82H414.7v6.12a26.027,26.027,0,0,1-4.441,1.35l0.48,3.09a0.665,0.665,0,0,0,.39.67c0.481,0,.541-0.67.571-0.91,0.87-.33,1.53-0.57,3-1.23v6.61c0,0.87-.36.99-1.44,0.99a8.955,8.955,0,0,1-2.161-.24,7.605,7.605,0,0,1,1.081,3.21c0.6,0.03,1.17.06,1.5,0.06,4.051,0,4.051-1.95,4.051-3.87v-8.11a17.279,17.279,0,0,0,2.431-1.26,13.819,13.819,0,0,1,.06-2.76,17.825,17.825,0,0,1-2.491,1.2v-4.92h2.911v-2.82h-2.911Zm5.191-4.02c0,0.36.03,2.16,0.03,2.55,0,3.48-.78,5.58-2.82,7.59a6.347,6.347,0,0,1,2.43,1.71c2.641-3.15,3.121-5.73,3.271-9.12h4.051v5.46c0,1.38,0,2.64,2.55,2.64h2.581a2.329,2.329,0,0,0,2.4-1.41,12.537,12.537,0,0,0,.96-3.12,6.039,6.039,0,0,1-2.641-1.44c-0.33,3.12-.93,3.12-1.98,3.12-0.75,0-.96-0.15-0.96-0.96v-7.02h-9.873Zm32.539,15.09a23.747,23.747,0,0,1-3.6-5.43v-0.21h3.991v-2.49h-3.991v-4.41a18.721,18.721,0,0,0,3.571-1.32,4.141,4.141,0,0,0,.6.09,0.344,0.344,0,0,0,.42-0.3,1.606,1.606,0,0,0-.72-0.84l-1.62-1.38A27.056,27.056,0,0,1,444,9644.55a7.833,7.833,0,0,1,1.351,2.55c1.14-.18,2.4-0.36,3.931-0.69v3.81h-4.621v2.49h4.261a33.861,33.861,0,0,1-5.1,10.21,11.763,11.763,0,0,1,2.521,1.8,34.1,34.1,0,0,0,2.941-6.88v12.01h2.58v-12.73a33.233,33.233,0,0,0,1.981,3.99,9.829,9.829,0,0,1,1.62-2.04v10.78h2.671v-10.96h10.652v7.03c0,1.05,0,1.26-1.08,1.26a12.575,12.575,0,0,1-1.95-.15,7.092,7.092,0,0,1,1.35,2.94c4.291,0.36,4.291-1.44,4.291-2.49v-10.96H455.463v1.83Zm9.482-13.32v-1.5a1.067,1.067,0,0,0,.781-0.63,0.484,0.484,0,0,0-.541-0.36l-3.48-.18v2.67h-6.662v2.49h16.924v-2.49h-7.022Zm4.592,3.81H457.474v6.45h12.063v-6.45Zm-2.881,2.19v1.95h-6.272v-1.95h6.272Zm-6.992,8.97v8.05h2.311v-1.53h5.191V9660h-7.5Zm5.251,1.9v2.7h-2.94v-2.7h2.94Z" transform="translate(-212.5 -9598.19)"/>
</svg>
