<svg xmlns="http://www.w3.org/2000/svg" width="146.375" height="36.095" viewBox="0 0 292.75 72.19">
  <defs>
    <style>
      .cls-1 {
        fill: #333;
        fill-rule: evenodd;
      }
    </style>
  </defs>
  <path id="_50_text_other_03.svg" data-name="50% text_other_03.svg" class="cls-1" d="M252.264,9325.83v20.83a11.745,11.745,0,0,1-.15,1.77l2.221,2.22c0.81-.42,4.891-2.31,5.821-2.76a45.281,45.281,0,0,0,14.1-10.42,15.261,15.261,0,0,1-1.56-3.21c-4.021,5.4-11.463,10.18-17.164,12.1v-19.45a0.889,0.889,0,0,0,.63-0.63c0-.27-0.24-0.27-0.63-0.3Zm51.354-1.98a2.73,2.73,0,1,0,2.7,2.73A2.722,2.722,0,0,0,303.618,9323.85Zm0,1.26a1.472,1.472,0,0,1,1.47,1.47,1.485,1.485,0,1,1-2.97,0A1.479,1.479,0,0,1,303.618,9325.11Zm-11.973,6.63H281.113v2.85h10.532v10.81c0,1.95,0,2.46-1.53,2.46a19.855,19.855,0,0,1-3-.27,11.713,11.713,0,0,1,.96,3.15,17.992,17.992,0,0,0,1.981.12c4.771,0,4.771-1.98,4.771-4.35v-11.92h10.412v-2.85H294.826v-5.67a0.576,0.576,0,0,0,.54-0.45c0-.3-0.3-0.33-0.69-0.36l-3.031-.12v6.6Zm-5.491,5.31a23.229,23.229,0,0,1-6.872,8.65,19.913,19.913,0,0,1,2.7,1.95,35.849,35.849,0,0,0,6.511-8.23c0.48,0.06.781-.06,0.781-0.3a0.633,0.633,0,0,0-.391-0.48Zm11.583,1.65a40.308,40.308,0,0,1,6.421,8.47,16.459,16.459,0,0,1,2.4-2.1,42.739,42.739,0,0,0-6.512-8.2Zm14.958-2.16v3.24h25.656v-3.24H312.7Zm41.059-1.8v-8.7a0.578,0.578,0,0,0,.57-0.45c0-.24-0.18-0.33-0.54-0.36l-3.3-.21v26.11h3.271v-15.4a43.457,43.457,0,0,1,10.682,7.38,24.591,24.591,0,0,1,1.891-2.67,47.35,47.35,0,0,0-11.283-7.5Zm36.023,15.88a16.412,16.412,0,0,0,7.082-4.2,13.09,13.09,0,0,0,3.51-8.89c0-7.02-5.551-11.25-11.882-11.25a14.027,14.027,0,0,0-13.894,13.44c0,5.08,3.661,8.68,5.912,8.68,1.71,0,3.271-1.89,4.891-5.59a44.138,44.138,0,0,0,3.3-13.71,8.31,8.31,0,0,1,8.582,8.46c0,1.74-.6,8.44-9.543,10.3A15.118,15.118,0,0,1,389.777,9350.62Zm-4.381-21.01a31.679,31.679,0,0,1-2.281,10.89c-0.78,1.95-1.65,4.24-2.79,4.24-1.171,0-2.761-2.23-2.761-5.23A10.929,10.929,0,0,1,385.4,9329.61Zm33.856,12.42a16.983,16.983,0,0,0,3.331,4.18,20.322,20.322,0,0,1-7.382,3.03,6.681,6.681,0,0,1,2.041,2.61,22.641,22.641,0,0,0,7.682-3.75,32.4,32.4,0,0,0,8.012,3.93,6.066,6.066,0,0,1,1.95-2.7,22.4,22.4,0,0,1-7.742-3.15,22.527,22.527,0,0,0,4.711-7.09l-1.02-1.23H418.052v2.76H421.5Zm8.312-1.41a12,12,0,0,1-2.76,3.79,16.81,16.81,0,0,1-3.181-3.79h5.941Zm-13.023-11.34v-3.87a0.981,0.981,0,0,0,.81-0.63c0-.3-0.36-0.3-0.72-0.33l-3.121-.15v4.98h-4.021v2.82h4.021v6.12a26,26,0,0,1-4.441,1.35l0.48,3.09a0.664,0.664,0,0,0,.391.67c0.48,0,.54-0.67.57-0.91,0.87-.33,1.53-0.57,3-1.23v6.61c0,0.87-.36.99-1.44,0.99a8.939,8.939,0,0,1-2.16-.24,7.621,7.621,0,0,1,1.08,3.21c0.6,0.03,1.17.06,1.5,0.06,4.051,0,4.051-1.95,4.051-3.87v-8.11a17.218,17.218,0,0,0,2.431-1.26,13.819,13.819,0,0,1,.06-2.76,17.765,17.765,0,0,1-2.491,1.2v-4.92h2.911v-2.82h-2.911Zm5.191-4.02c0,0.36.03,2.16,0.03,2.55,0,3.48-.78,5.58-2.82,7.59a6.347,6.347,0,0,1,2.43,1.71c2.641-3.15,3.121-5.73,3.271-9.12h4.051v5.46c0,1.38,0,2.64,2.551,2.64h2.58a2.328,2.328,0,0,0,2.4-1.41,12.537,12.537,0,0,0,.96-3.12,6.045,6.045,0,0,1-2.641-1.44c-0.33,3.12-.93,3.12-1.98,3.12-0.75,0-.96-0.15-0.96-0.96v-7.02h-9.873Zm32.539,15.09a23.782,23.782,0,0,1-3.6-5.43v-0.21h3.991v-2.49H448.67v-4.41a18.7,18.7,0,0,0,3.571-1.32,4.141,4.141,0,0,0,.6.09,0.345,0.345,0,0,0,.421-0.3,1.611,1.611,0,0,0-.721-0.84l-1.62-1.38a27.055,27.055,0,0,1-10.112,2.49,7.847,7.847,0,0,1,1.35,2.55c1.14-.18,2.4-0.36,3.931-0.69v3.81h-4.621v2.49h4.261a33.874,33.874,0,0,1-5.1,10.21,11.772,11.772,0,0,1,2.52,1.8,34.1,34.1,0,0,0,2.941-6.88v12.01h2.58v-12.73a33.233,33.233,0,0,0,1.981,3.99,9.829,9.829,0,0,1,1.62-2.04v10.78h2.671v-10.96h10.652v7.03c0,1.05,0,1.26-1.08,1.26a12.575,12.575,0,0,1-1.95-.15,7.092,7.092,0,0,1,1.35,2.94c4.291,0.36,4.291-1.44,4.291-2.49v-10.96H452.271v1.83Zm9.483-13.32v-1.5a1.066,1.066,0,0,0,.78-0.63,0.484,0.484,0,0,0-.54-0.36l-3.481-.18v2.67h-6.662v2.49h16.924v-2.49h-7.021Zm4.591,3.81H454.282v6.45h12.063v-6.45Zm-2.881,2.19v1.95h-6.272v-1.95h6.272Zm-6.992,8.97v8.05h2.311v-1.53h5.191V9342h-7.5Zm5.252,1.9v2.7h-2.941v-2.7h2.941Zm22.879-19.42a48.415,48.415,0,0,1-.93,6.84c-1.14.21-6.6,1.5-7.862,1.65l1.02,3.27a43.817,43.817,0,0,1,6.062-1.77,37.9,37.9,0,0,1-7.592,14.47,16.522,16.522,0,0,1,2.971,1.56,46.09,46.09,0,0,0,7.862-16.57,9.117,9.117,0,0,1,1.29-.09c3,0,3.631,2.07,3.631,4.68a19.782,19.782,0,0,1-1.11,6.37c-1.051,2.52-2.1,2.67-3,2.67a9.956,9.956,0,0,1-3.211-.63,14.058,14.058,0,0,1,.36,3.39,12.469,12.469,0,0,0,2.821.36,5.179,5.179,0,0,0,4.231-1.59c1.2-1.35,2.911-5.1,2.911-10.93,0-6.51-3.691-7.35-7.2-7.2,0.72-3.27.81-3.63,0.99-4.5,0.57-.06.75-0.3,0.75-0.51,0-.24-0.24-0.33-0.57-0.42Zm11.223,2.43a27.981,27.981,0,0,1,2.731,3.15,17.882,17.882,0,0,1,1.62-1.23,22.2,22.2,0,0,0-2.731-3.06Zm-2.671,3.57c2.761,2.37,5.282,5.76,5.282,7.56,0,1.41-1.5,1.68-3.061,1.98a19.313,19.313,0,0,1,1.56,2.7c2.281-.69,4.711-1.53,4.711-4.08s-2.4-6.3-6.181-9.63Zm5.342-5.46a14.976,14.976,0,0,1,2.67,3.36,14.644,14.644,0,0,1,1.8-1.29,20.68,20.68,0,0,0-2.791-3.15Zm-255.526,49.25c1.231-1.23,1.381-1.35,1.891-1.83a31.556,31.556,0,0,0-5.552-4.47l-2.16,2.1a19.075,19.075,0,0,1,4.861,4.2H229.318v2.76h11.133v5.61h-8.762v2.88h8.762v6.76H228.268v2.76h27.546v-2.76H243.751v-6.76h8.582v-2.88h-8.582v-5.61h11.133v-2.76H242.971Zm38.661,19.75v1.74h3.121v-26.29H263.958v26.32h3.211v-1.77h14.463Zm-14.463-10.27v-4.32h14.463v4.32H267.169Zm0,7.45v-4.57h14.463v4.57H267.169Zm0-14.62v-4.26h14.463v4.26H267.169Zm44.1-2.79a33.35,33.35,0,0,0,.99-3.66c0.48-.12.75-0.24,0.75-0.51a0.792,0.792,0,0,0-.63-0.45l-2.881-.69a29.254,29.254,0,0,1-4.351,11.37v-6.21H300.59c0.54-1.29.69-1.65,1.38-3.63,0.571-.21.781-0.3,0.781-0.57a0.769,0.769,0,0,0-.751-0.45l-2.94-.57a35.711,35.711,0,0,1-1.471,5.22h-3.42v21.34h3.12v-1.92h4.8v1.11h3.061v-14.02a6.474,6.474,0,0,1,2.821,1.11,25.949,25.949,0,0,0,2.31-4.65h6.9c0,5.61,0,11.62-1.23,14.68-0.54,1.32-1.561,1.44-3,1.44a13.92,13.92,0,0,1-2.431-.21,10.234,10.234,0,0,1,1.141,3.3,6.578,6.578,0,0,0,.87.06c4.831,0,5.731-2.28,6.121-3.24,1.5-3.75,1.621-14.5,1.561-18.85h-8.942Zm-13.984,2.67h4.8v5.4h-4.8v-5.4Zm4.8,13.78h-4.8v-5.71h4.8v5.71Zm7.232-9.19a33.942,33.942,0,0,1,2.191,6.61,15.551,15.551,0,0,1,2.82-1.18,35.215,35.215,0,0,0-2.31-6.57Zm37.277-1.41a20.632,20.632,0,0,1,2.731,3.27,9.3,9.3,0,0,1,1.621-1.44,31.63,31.63,0,0,0-2.731-3.21Zm3.031-2.43a20.624,20.624,0,0,1,2.761,3.36,8.279,8.279,0,0,1,1.65-1.41,21.484,21.484,0,0,0-2.85-3.18Zm3-7.71c-8.642,2.01-21.965,2.7-23.526,2.7-0.66,0-1.14-.03-1.71-0.06l0.48,3.84c1.77-.48,11.793-1.86,15.334-2.07-1.8,1.17-7.562,4.98-7.562,11.31,0,6.73,6.151,9.43,10.862,10.39a20.882,20.882,0,0,1,1.411-3.45c-8.252-.75-9.092-5.14-9.092-6.97,0-5.67,7.081-12.3,14.463-12.24Zm24.569-.18c-0.03,1.98-.06,4.44-0.06,6.06-0.66.06-1.8,0.15-3.481,0.15a34.37,34.37,0,0,1-3.631-.18v3.12c0.661,0.03,1.291.06,2.251,0.06,1.35,0,3.061-.09,4.921-0.27,0.12,4.83.15,5.37,0.33,7.38a11,11,0,0,0-1.92-.18c-2.551,0-5.822,1.26-5.822,4.45,0,2.28,2.1,4.41,5.282,4.41,2.46,0,6-1.11,5.851-4.89a14.037,14.037,0,0,1,4.531,2.91,28.662,28.662,0,0,1,1.47-2.73,21.294,21.294,0,0,0-6.3-3.43,71.092,71.092,0,0,1-.45-8.31c2.641-.42,4.2-0.81,5.131-1.02l-0.03-3.03a31.977,31.977,0,0,1-5.041,1.2,39.209,39.209,0,0,1,.3-4.32,0.656,0.656,0,0,0,.69-0.51c0-.12-0.06-0.24-0.36-0.3Zm0.66,19.03a5.045,5.045,0,0,1,.12.99,2.555,2.555,0,0,1-2.82,2.49c-1.111,0-2.731-.57-2.731-1.95,0-1.98,2.731-1.98,3.121-1.98A5.427,5.427,0,0,1,377.86,9388.35Zm-14.913-18.97a60.938,60.938,0,0,0-1.681,13.98,41.088,41.088,0,0,0,1.471,11.47l2.7-.54c-0.06-3.72,1.891-7.3,2.461-8.35a10.772,10.772,0,0,1-1.62-2.04c-0.3.6-1.531,3.52-1.861,4.15a33.87,33.87,0,0,1-.24-4.33,47.092,47.092,0,0,1,1.65-12.33c0.571-.06.811-0.27,0.811-0.48,0-.24-0.06-0.3-0.39-0.42Zm48.068,10.11a5.807,5.807,0,0,0-2.1,4.17,29.55,29.55,0,0,0,.3,3.12,13.073,13.073,0,0,0-3.031-.39c-3.871,0-5.521,2.11-5.521,4.3,0,2.94,2.851,4.5,6.272,4.5,1.05,0,5.461,0,5.581-4.35a26.574,26.574,0,0,1,4.711,3.3,26.287,26.287,0,0,1,1.83-2.37,33.6,33.6,0,0,0-6.631-4.08,16.372,16.372,0,0,1-.39-3.49,3.9,3.9,0,0,1,1.47-3.12Zm-1.381,10.12c0.03,1.23.06,3.09-2.94,3.09-0.181,0-3.181,0-3.181-2.01,0-1.29,1.35-1.92,2.82-1.92A7.179,7.179,0,0,1,409.634,9389.61Zm-14.7-12.79a53.219,53.219,0,0,0,5.4-.21,53.816,53.816,0,0,1-6.482,12.94,19.08,19.08,0,0,1,2.911,1.29c2.911-4.09,5.882-11.5,6.932-14.62a42.349,42.349,0,0,0,5.521-1.17,15.1,15.1,0,0,1-.09-3.06,25.87,25.87,0,0,1-4.531,1.23c0.12-.45.78-2.67,0.93-3.15,0.33-.03.6-0.06,0.6-0.39,0-.24-0.15-0.3-0.42-0.39l-3.24-.93c-0.211,1.05-.451,2.46-1.231,5.34a32.066,32.066,0,0,1-3.481.18,26.4,26.4,0,0,1-3.18-.18Zm15.363-.36a20.693,20.693,0,0,1,7.682,3.87c0.45-.72.75-1.14,1.771-2.58-1.411-1.14-3.151-2.34-7.772-3.87Zm18.166-5.94a53.983,53.983,0,0,0-1.29,10.41c0,8.53,3.721,13.09,6.181,13.09,2.881,0,5.372-6.21,5.912-7.54a9.727,9.727,0,0,1-2.191-2.04c-0.69,1.74-2.25,5.59-3.541,5.59-1.41,0-3.27-3.73-3.27-8.62a28.844,28.844,0,0,1,1.44-9,0.538,0.538,0,0,0,.66-0.42c0-.3-0.21-0.36-0.63-0.48Zm15.994,3.24a26.319,26.319,0,0,1,5.311,15.13c0.81-.36,2.821-1.26,3.3-1.41a30.2,30.2,0,0,0-5.971-15.37Zm27.045,12.27a16.961,16.961,0,0,0,3.33,4.18,20.324,20.324,0,0,1-7.381,3.03,6.68,6.68,0,0,1,2.04,2.61,22.632,22.632,0,0,0,7.682-3.75,32.436,32.436,0,0,0,8.012,3.93,6.066,6.066,0,0,1,1.95-2.7,22.4,22.4,0,0,1-7.741-3.15,22.545,22.545,0,0,0,4.711-7.09l-1.021-1.23H470.3v2.76h3.451Zm8.312-1.41a12.008,12.008,0,0,1-2.761,3.79,16.863,16.863,0,0,1-3.181-3.79h5.942Zm-13.023-11.34v-3.87a0.981,0.981,0,0,0,.81-0.63c0-.3-0.36-0.3-0.72-0.33l-3.121-.15v4.98h-4.021v2.82h4.021v6.12a26.055,26.055,0,0,1-4.441,1.35l0.48,3.09a0.665,0.665,0,0,0,.39.67c0.48,0,.54-0.67.57-0.91,0.87-.33,1.53-0.57,3-1.23v6.61c0,0.87-.36.99-1.441,0.99a8.939,8.939,0,0,1-2.16-.24,7.621,7.621,0,0,1,1.08,3.21c0.6,0.03,1.171.06,1.5,0.06,4.051,0,4.051-1.95,4.051-3.87v-8.11a17.185,17.185,0,0,0,2.43-1.26,13.819,13.819,0,0,1,.06-2.76,17.73,17.73,0,0,1-2.49,1.2v-4.92h2.91v-2.82h-2.91Zm5.191-4.02c0,0.36.03,2.16,0.03,2.55,0,3.48-.78,5.58-2.821,7.59a6.353,6.353,0,0,1,2.431,1.71c2.64-3.15,3.12-5.73,3.271-9.12h4.05v5.46c0,1.38,0,2.64,2.551,2.64h2.581a2.328,2.328,0,0,0,2.4-1.41,12.581,12.581,0,0,0,.961-3.12,6.033,6.033,0,0,1-2.641-1.44c-0.33,3.12-.93,3.12-1.981,3.12-0.75,0-.96-0.15-0.96-0.96v-7.02h-9.872Zm32.539,15.09a23.711,23.711,0,0,1-3.6-5.43v-0.21h3.991v-2.49h-3.991v-4.41a18.746,18.746,0,0,0,3.571-1.32,4.141,4.141,0,0,0,.6.09,0.344,0.344,0,0,0,.42-0.3,1.606,1.606,0,0,0-.72-0.84l-1.621-1.38a27.055,27.055,0,0,1-10.112,2.49,7.847,7.847,0,0,1,1.35,2.55c1.141-.18,2.4-0.36,3.931-0.69v3.81h-4.621v2.49h4.261a33.848,33.848,0,0,1-5.1,10.21,11.825,11.825,0,0,1,2.521,1.8,34.075,34.075,0,0,0,2.94-6.88v12.01h2.581v-12.73a33.157,33.157,0,0,0,1.98,3.99,9.84,9.84,0,0,1,1.621-2.04v10.78h2.67v-10.96h10.653v7.03c0,1.05,0,1.26-1.08,1.26a12.579,12.579,0,0,1-1.951-.15,7.109,7.109,0,0,1,1.351,2.94c4.291,0.36,4.291-1.44,4.291-2.49v-10.96H504.518v1.83ZM514,9371.03v-1.5a1.066,1.066,0,0,0,.78-0.63,0.484,0.484,0,0,0-.54-0.36l-3.481-.18v2.67H504.1v2.49h16.924v-2.49H514Zm4.591,3.81H506.528v6.45h12.063v-6.45Zm-2.881,2.19v1.95h-6.271v-1.95h6.271Zm-6.991,8.97v8.05h2.31v-1.53h5.192V9386h-7.5Zm5.251,1.9v2.7h-2.941v-2.7h2.941Z" transform="translate(-228.281 -9323.84)"/>
</svg>
